<?xml version="1.0" standalone="no"?>
<!DOCTYPE svg PUBLIC "-//W3C//DTD SVG 1.1//EN" "http://www.w3.org/Graphics/SVG/1.1/DTD/svg11.dtd" >
<svg>
<metadata>
Created by FontForge 20090914 at Tue Aug  1 12:16:32 2017
 By www-data
Copyright (c) 2012 by Hannes von Doehren. All rights reserved.
</metadata>
<defs>
<font id="BrandonText-Medium" horiz-adv-x="600" >
  <font-face 
    font-family="Brandon Text Medium"
    font-weight="420"
    font-stretch="normal"
    units-per-em="1000"
    panose-1="2 11 6 3 2 2 3 6 2 3"
    ascent="700"
    descent="-300"
    x-height="461.999"
    cap-height="700"
    bbox="-147.382 -300.265 1189 1034.55"
    underline-thickness="50"
    underline-position="-50"
    unicode-range="U+000D-U+FB02"
  />
<missing-glyph horiz-adv-x="599" 
d="M50 30v640c0 20 10 30 30 30h439c20 0 30 -10 30 -30v-640c0 -20 -10 -30 -30 -30h-439c-20 0 -30 10 -30 30zM262 314c0 -8 4.66406 -12 13.9971 -12h36c10 0 15 4.33301 15 13v26c0 10.667 5.5 21.334 16.5 32.001s23 20.167 36 28.5s25 20.5 36 36.5
s16.5 33.667 16.5 53c0 32 -11.833 58.5 -35.5 79.5s-53.5 31.5 -89.5 31.5c-16 0 -31.5 -2.16699 -46.5 -6.5s-27.333 -9.33301 -37 -15s-18.167 -11.5 -25.5 -17.5s-12.666 -11 -15.999 -15l-5 -7c-5.33301 -8 -5.33301 -14 0 -18l22 -22c6 -4 11.667 -4 17 0
c0.666992 0.666992 3.16699 3 7.5 7s7.5 7 9.5 9s5.83301 4.83301 11.5 8.5s10.834 6.5 15.501 8.5s10.667 3.83301 18 5.5s14.666 2.5 21.999 2.5c19.333 0 34.333 -5 45 -15s16 -22.333 16 -37c0 -14 -5.16699 -27 -15.5 -39s-21.666 -22 -33.999 -30
s-23.666 -18.833 -33.999 -32.5s-15.5 -28.834 -15.5 -45.501v-29zM244.997 156c0 -13.333 4.83301 -24.666 14.5 -33.999s20.834 -14 33.501 -14c13.333 0 24.833 4.66699 34.5 14s14.5 20.666 14.5 33.999s-4.83301 24.666 -14.5 33.999s-21.167 14 -34.5 14
c-12.667 0 -23.834 -4.66699 -33.501 -14s-14.5 -20.666 -14.5 -33.999z" />
    <glyph glyph-name="fi" unicode="fi" horiz-adv-x="589" 
d="M109 22l0.00292969 347.001h-60c-6 0 -11.167 2.16699 -15.5 6.5s-6.5 9.5 -6.5 15.5v49c0 14.667 7.33301 22 22 22h60v46c0 62 16.667 111.167 50 147.5s80.666 54.5 141.999 54.5c54 0 108.333 -17 163 -51c10.667 -7.33301 12.667 -17 6 -29l-28 -50
c-6.66699 -11.333 -16.667 -13 -30 -5c-0.666992 0 -5.33398 2.66699 -14.001 8s-15.334 9.16602 -20.001 11.499s-11.5 5.5 -20.5 9.5s-18.167 6.83301 -27.5 8.5s-19 2.5 -29 2.5c-32.667 0 -56.167 -9 -70.5 -27s-21.5 -45.333 -21.5 -82v-44h289
c6 0 11.167 -2.33301 15.5 -7s6.5 -9.66699 6.5 -15v-418c0 -6 -2.16699 -11.167 -6.5 -15.5s-9.5 -6.5 -15.5 -6.5h-56c-5.33301 0 -10.333 2.16699 -15 6.5s-7 9.5 -7 15.5v347h-211v-347c0 -14.667 -7.33301 -22 -22 -22h-60c-12 -0 -18 7.33301 -18 22z" />
    <glyph glyph-name="fl" unicode="fl" horiz-adv-x="607" 
d="M109 22v347.002h-62c-6 0 -11.167 2.33301 -15.5 7s-6.5 10 -6.5 16v48c0 14.667 7.33301 22 22 22h62v46c0 62 18.167 111.167 54.5 147.5s83.166 54.5 140.499 54.5c28.667 0 55.334 -5 80.001 -15s42.334 -20 53.001 -30l16 -15l10 30c6 13.333 14.333 20 25 20h24
c5.33301 0 10.333 -2.33301 15 -7s7 -9.66699 7 -15v-656c0 -6 -2.33301 -11.167 -7 -15.5s-9.66699 -6.5 -15 -6.5h-56c-6 0 -11.167 2.16699 -15.5 6.5s-6.5 9.5 -6.5 15.5v524c-2.66699 4 -6.5 8.66699 -11.5 14s-12.833 12.666 -23.5 21.999
s-24.334 17.166 -41.001 23.499s-34.334 9.5 -53.001 9.5c-28 0 -51 -8.66699 -69 -26s-27 -44 -27 -80v-47h110c14.667 0 22 -7.33301 22 -22v-48c0 -6 -2.16699 -11.333 -6.5 -16s-9.5 -7 -15.5 -7h-110v-347c0 -6 -2.33301 -11.167 -7 -15.5s-9.66699 -6.5 -15 -6.5h-57
c-5.33301 0 -10.166 2.16699 -14.499 6.5s-6.5 9.5 -6.5 15.5z" />
    <glyph glyph-name="f_f" unicode="ff" horiz-adv-x="693" 
d="M109 22v347.001h-61c-6 0 -11.167 2.16699 -15.5 6.5s-6.5 9.5 -6.5 15.5v49c0 14.667 7.33301 22 22 22h61v32c0 60.667 19.333 110.167 58 148.5s89.667 57.5 153 57.5c57.333 0 104.333 -16 141 -48c26.667 38.667 69.667 58 129 58c54.667 0 99 -15.333 133 -46
c8 -8 9.33301 -16.667 4 -26l-29 -43c-6.66699 -12 -16.334 -13.333 -29.001 -4c-22 16 -47.667 24 -77 24c-25.333 0 -43.666 -7.83301 -54.999 -23.5s-17 -42.834 -17 -81.501v-48h131c14.667 0 22 -7.33301 22 -22v-49c0 -6 -2.16699 -11.167 -6.5 -15.5
s-9.5 -6.5 -15.5 -6.5h-131v-347c0 -6 -2.16699 -11.167 -6.5 -15.5s-9.5 -6.5 -15.5 -6.5h-56c-6 0 -11.167 2.16699 -15.5 6.5s-6.5 9.5 -6.5 15.5v347h-211v-347c0 -6 -2.33301 -11.167 -7 -15.5s-9.66699 -6.5 -15 -6.5h-56c-5.33301 0 -10.333 2.16699 -15 6.5
s-7 9.5 -7 15.5zM209 462.001h211v51c0 26 1.33301 43.667 4 53c-25.333 26.667 -60.333 40 -105 40c-34 0 -60.833 -9.83301 -80.5 -29.5s-29.5 -47.167 -29.5 -82.5v-32z" />
    <glyph glyph-name="f_f_i" unicode="ffi" horiz-adv-x="900" 
d="M608 710c30.667 0 61.6689 -5.66699 93.002 -17s56 -22.666 74 -33.999c10.667 -7.33301 12.667 -17 6 -29l-28 -50c-6.66699 -11.333 -16.667 -13 -30 -5c-0.666992 0 -5.33398 2.66699 -14.001 8s-15.334 9.16602 -20.001 11.499s-11.5 5.5 -20.5 9.5
s-18.167 6.83301 -27.5 8.5s-19 2.5 -29 2.5c-32.667 0 -56.167 -9 -70.5 -27s-21.5 -45.333 -21.5 -82v-44h289c6 0 11.167 -2.33301 15.5 -7s6.5 -9.66699 6.5 -15v-418c0 -6 -2.16699 -11.167 -6.5 -15.5s-9.5 -6.5 -15.5 -6.5h-56c-5.33301 0 -10.333 2.16699 -15 6.5
s-7 9.5 -7 15.5v347h-211v-347c0 -6 -2.16699 -11.167 -6.5 -15.5s-9.5 -6.5 -15.5 -6.5h-56c-6 0 -11.167 2.16699 -15.5 6.5s-6.5 9.5 -6.5 15.5v347h-211v-347c0 -6 -2.33301 -11.167 -7 -15.5s-9.66699 -6.5 -15 -6.5h-56c-5.33301 0 -10.333 2.16699 -15 6.5
s-7 9.5 -7 15.5v347h-61c-6 0 -11.167 2.16699 -15.5 6.5s-6.5 9.5 -6.5 15.5v49c0 14.667 7.33301 22 22 22h61v32c0 60.667 19.333 110.167 58 148.5s89.667 57.5 153 57.5c60.667 0 109.334 -16 146.001 -48c29.333 38.667 76.666 58 141.999 58zM209.002 462h211v51
c0 19.333 2.33301 37.333 7 54c-24.667 26 -60.667 39 -108 39c-34 0 -60.833 -9.83301 -80.5 -29.5s-29.5 -47.167 -29.5 -82.5v-32z" />
    <glyph glyph-name="f_f_l" unicode="ffl" horiz-adv-x="918" 
d="M615 710c28.667 0 55.334 -4.99805 80.001 -14.998s42.334 -20 53.001 -30l16 -15l10 30c6 13.333 14.333 20 25 20h24c5.33301 0 10.333 -2.33301 15 -7s7 -9.66699 7 -15v-656c0 -6 -2.33301 -11.167 -7 -15.5s-9.66699 -6.5 -15 -6.5h-56
c-6 0 -11.167 2.16699 -15.5 6.5s-6.5 9.5 -6.5 15.5v524c-2.66699 4 -6.5 8.66699 -11.5 14s-12.833 12.666 -23.5 21.999s-24.334 17.166 -41.001 23.499s-34.334 9.5 -53.001 9.5c-28 0 -51 -8.66699 -69 -26s-27 -44 -27 -80v-47h110c14.667 0 22 -7.33301 22 -22v-48
c0 -6 -2.16699 -11.333 -6.5 -16s-9.5 -7 -15.5 -7h-110v-347c0 -6 -2.16699 -11.167 -6.5 -15.5s-9.5 -6.5 -15.5 -6.5h-56c-6 0 -11.167 2.16699 -15.5 6.5s-6.5 9.5 -6.5 15.5v347h-211v-347c0 -6 -2.33301 -11.167 -7 -15.5s-9.66699 -6.5 -15 -6.5h-56
c-5.33301 0 -10.333 2.16699 -15 6.5s-7 9.5 -7 15.5v347h-61c-6 0 -11.167 2.16699 -15.5 6.5s-6.5 9.5 -6.5 15.5v49c0 14.667 7.33301 22 22 22h61v32c0 60.667 19.333 110.167 58 148.5s89.667 57.5 153 57.5c62 0 111.333 -16 148 -48c35.333 38.667 84.333 58 147 58z
M209 462.002h211v51c0 21.333 2 39 6 53c-25.333 26.667 -61 40 -107 40c-34 0 -60.833 -9.83301 -80.5 -29.5s-29.5 -47.167 -29.5 -82.5v-32z" />
    <glyph glyph-name="f_f_h" unicode="ffh" horiz-adv-x="1223" 
d="M209 462h211v51c0 21.333 2 39 6 53c-25.333 26.667 -61 40 -107 40c-34 0 -60.833 -9.83301 -80.5 -29.5s-29.5 -47.167 -29.5 -82.5v-32zM822 0l-55 0.00195312c-6 0 -11.167 2.16699 -15.5 6.5s-6.5 9.5 -6.5 15.5v524c-2.66699 4 -6.5 8.66699 -11.5 14
s-12.833 12.666 -23.5 21.999s-24.334 17.166 -41.001 23.499s-34.334 9.5 -53.001 9.5c-28 0 -51 -8.66699 -69 -26s-27 -44 -27 -80v-47h110c14.667 0 22 -7.33301 22 -22v-48c0 -6 -2.16699 -11.333 -6.5 -16s-9.5 -7 -15.5 -7h-110v-347
c0 -6 -2.16699 -11.167 -6.5 -15.5s-9.5 -6.5 -15.5 -6.5h-56c-6 0 -11.167 2.16699 -15.5 6.5s-6.5 9.5 -6.5 15.5v347h-211v-347c0 -6 -2.33301 -11.167 -7 -15.5s-9.66699 -6.5 -15 -6.5h-56c-5.33301 0 -10.333 2.16699 -15 6.5s-7 9.5 -7 15.5v347h-61
c-6 0 -11.167 2.16699 -15.5 6.5s-6.5 9.5 -6.5 15.5v49c0 14.667 7.33301 22 22 22h61v32c0 60.667 19.333 110.167 58 148.5s89.667 57.5 153 57.5c62 0 111.333 -16 148 -48c35.333 38.667 84.333 58 147 58c28.667 0 55.334 -5 80.001 -15s42.334 -20 53.001 -30l16 -15
l10 30c6 13.333 14.333 20 25 20h24c5.33301 0 10.333 -2.33301 15 -7s7 -9.66699 7 -15v-254c44 32 88.667 48 134 48c119.333 0 179 -72.667 179 -218v-232c0 -6 -2.33301 -11.167 -7 -15.5s-9.66699 -6.5 -15 -6.5h-56c-6 0 -11.167 2.16699 -15.5 6.5
s-6.5 9.5 -6.5 15.5v234c0 38.667 -7.83301 68.5 -23.5 89.5s-38.5 31.5 -68.5 31.5c-31.333 0 -57.5 -7.5 -78.5 -22.5s-35.167 -29.833 -42.5 -44.5v-288c0 -14.667 -7.66699 -22 -23 -22z" />
    <glyph glyph-name="f_k" unicode="fk" horiz-adv-x="862" 
d="M512 0l-56.001 0.000976562c-6 0 -11.167 2.16699 -15.5 6.5s-6.5 9.5 -6.5 15.5v524c-2.66699 4 -6.5 8.66699 -11.5 14s-12.833 12.666 -23.5 21.999s-24.334 17.166 -41.001 23.499s-34.334 9.5 -53.001 9.5c-28 0 -51 -8.66699 -69 -26s-27 -44 -27 -80v-47h110
c14.667 0 22 -7.33301 22 -22v-48c0 -6 -2.16699 -11.333 -6.5 -16s-9.5 -7 -15.5 -7h-110v-347c0 -6 -2.33301 -11.167 -7 -15.5s-9.66699 -6.5 -15 -6.5h-57c-5.33301 0 -10.166 2.16699 -14.499 6.5s-6.5 9.5 -6.5 15.5v347h-62c-6 0 -11.167 2.33301 -15.5 7
s-6.5 10 -6.5 16v48c0 14.667 7.33301 22 22 22h62v46c0 62 18.167 111.167 54.5 147.5s83.166 54.5 140.499 54.5c28.667 0 55.334 -5 80.001 -15s42.334 -20 53.001 -30l16 -15l10 30c6 13.333 14.333 20 25 20h24c5.33301 0 10.333 -2.33301 15 -7s7 -9.66699 7 -15v-391
l178 161c10.667 9.33301 20.334 14 29.001 14h73c9.33301 0 15.166 -4 17.499 -12s0.5 -14.667 -5.5 -20l-187 -176l196 -224c5.33301 -5.33301 6.83301 -11.666 4.5 -18.999s-8.16602 -11 -17.499 -11h-82c-9.33301 0 -16.333 3 -21 9l-185 215v-202
c0 -6 -2.33301 -11.167 -7 -15.5s-9.66699 -6.5 -15 -6.5z" />
    <glyph glyph-name="f_j" unicode="fj" horiz-adv-x="589" 
d="M420 -54l0.00390625 423.002h-211v-347c0 -14.667 -7.33301 -22 -22 -22h-60c-12 0 -18 7.33301 -18 22v347h-60c-6 0 -11.167 2.16699 -15.5 6.5s-6.5 9.5 -6.5 15.5v49c0 14.667 7.33301 22 22 22h60v46c0 62 16.667 111.167 50 147.5s80.666 54.5 141.999 54.5
c54 0 108.333 -17 163 -51c10.667 -7.33301 12.667 -17 6 -29l-28 -50c-6.66699 -11.333 -16.667 -13 -30 -5c-0.666992 0 -5.33398 2.66699 -14.001 8s-15.334 9.16602 -20.001 11.499s-11.5 5.5 -20.5 9.5s-18.167 6.83301 -27.5 8.5s-19 2.5 -29 2.5
c-32.667 0 -56.167 -9 -70.5 -27s-21.5 -45.333 -21.5 -82v-44h289c6 0 11.167 -2.33301 15.5 -7s6.5 -9.66699 6.5 -15v-482c0 -54 -10.833 -98.333 -32.5 -133s-49.5 -58.334 -83.5 -71.001c-16 -6 -27.667 -2 -35 12l-21 39c-4 7.33301 -4.83301 14.5 -2.5 21.5
s7.16602 12.167 14.499 15.5c40 20 60 54.667 60 104z" />
    <glyph glyph-name="f_f_j" unicode="ffj" horiz-adv-x="900" 
d="M209 462h211v51c0 19.333 2.33301 37.333 7 54c-24.667 26 -60.667 39 -108 39c-34 0 -60.833 -9.83301 -80.5 -29.5s-29.5 -47.167 -29.5 -82.5v-32zM731 -54l0.00292969 423.001h-211v-347c0 -6 -2.16699 -11.167 -6.5 -15.5s-9.5 -6.5 -15.5 -6.5h-56
c-6 0 -11.167 2.16699 -15.5 6.5s-6.5 9.5 -6.5 15.5v347h-211v-347c0 -6 -2.33301 -11.167 -7 -15.5s-9.66699 -6.5 -15 -6.5h-56c-5.33301 0 -10.333 2.16699 -15 6.5s-7 9.5 -7 15.5v347h-61c-6 0 -11.167 2.16699 -15.5 6.5s-6.5 9.5 -6.5 15.5v49
c0 14.667 7.33301 22 22 22h61v32c0 60.667 19.333 110.167 58 148.5s89.667 57.5 153 57.5c60.667 0 109.334 -16 146.001 -48c29.333 38.667 76.666 58 141.999 58c30.667 0 61.667 -5.66699 93 -17s56 -22.666 74 -33.999c10.667 -7.33301 12.667 -17 6 -29l-28 -50
c-6.66699 -11.333 -16.667 -13 -30 -5c-0.666992 0 -5.33398 2.66699 -14.001 8s-15.334 9.16602 -20.001 11.499s-11.5 5.5 -20.5 9.5s-18.167 6.83301 -27.5 8.5s-19 2.5 -29 2.5c-32.667 0 -56.167 -9 -70.5 -27s-21.5 -45.333 -21.5 -82v-44h289
c6 0 11.167 -2.33301 15.5 -7s6.5 -9.66699 6.5 -15v-482c0 -54 -10.833 -98.333 -32.5 -133s-49.5 -58.334 -83.5 -71.001c-16 -6 -27.667 -2 -35 12l-21 39c-4 7.33301 -4.83301 14.5 -2.5 21.5s7.16602 12.167 14.499 15.5c40 20 60 54.667 60 104z" />
    <glyph glyph-name="f_b" unicode="fb" horiz-adv-x="920" 
d="M480 0l-24.001 0.00292969c-6 0 -11.167 2.16699 -15.5 6.5s-6.5 9.5 -6.5 15.5v524c-2.66699 4 -6.5 8.66699 -11.5 14s-12.833 12.666 -23.5 21.999s-24.334 17.166 -41.001 23.499s-34.334 9.5 -53.001 9.5c-28 0 -51 -8.66699 -69 -26s-27 -44 -27 -80v-47h110
c14.667 0 22 -7.33301 22 -22v-48c0 -6 -2.16699 -11.333 -6.5 -16s-9.5 -7 -15.5 -7h-110v-347c0 -6 -2.33301 -11.167 -7 -15.5s-9.66699 -6.5 -15 -6.5h-57c-5.33301 0 -10.166 2.16699 -14.499 6.5s-6.5 9.5 -6.5 15.5v347h-62c-6 0 -11.167 2.33301 -15.5 7
s-6.5 10 -6.5 16v48c0 14.667 7.33301 22 22 22h62v46c0 62 18.167 111.167 54.5 147.5s83.166 54.5 140.499 54.5c28.667 0 55.334 -5 80.001 -15s42.334 -20 53.001 -30l16 -15l10 30c6 13.333 14.333 20 25 20h24c5.33301 0 10.333 -2.33301 15 -7s7 -9.66699 7 -15v-230
c0.666992 0 4 1.16699 10 3.5s12.333 4.5 19 6.5s14.667 4.16699 24 6.5s19.5 4.16602 30.5 5.49902s22.167 2 33.5 2c64 0 117.833 -23.333 161.5 -70s65.5 -103.667 65.5 -171c0 -66.667 -20.833 -123.667 -62.5 -171s-92.5 -71 -152.5 -71
c-27.333 0 -53.666 5.5 -78.999 16.5s-44 21.833 -56 32.5l-17 16l-10 -34c-3.33301 -13.333 -10.333 -20 -21 -20zM533.999 151.003c3.33301 -6.66699 8.83398 -14.5 16.501 -23.5s20.5 -18.5 38.5 -28.5s37.667 -15 59 -15c36.667 0 67.5 14.5 92.5 43.5
s37.5 63.5 37.5 103.5c0 39.333 -13.5 73.5 -40.5 102.5s-59.5 43.5 -97.5 43.5c-18 0 -35.833 -2.16699 -53.5 -6.5s-30.834 -8.5 -39.501 -12.5l-13 -6v-201z" />
    <glyph glyph-name="f_f_k" unicode="ffk" horiz-adv-x="1173" 
d="M799 700l23.999 0.000976562c5.33301 0 10.333 -2.33301 15 -7s7 -9.66699 7 -15v-391l178 161c10.667 9.33301 20.334 14 29.001 14h73c9.33301 0 15.166 -4 17.499 -12s0.5 -14.667 -5.5 -20l-187 -176l196 -224c5.33301 -5.33301 6.83301 -11.666 4.5 -18.999
s-8.16602 -11 -17.499 -11h-82c-9.33301 0 -16.333 3 -21 9l-185 215v-202c0 -6 -2.33301 -11.167 -7 -15.5s-9.66699 -6.5 -15 -6.5h-56c-6 0 -11.167 2.16699 -15.5 6.5s-6.5 9.5 -6.5 15.5v524c-2.66699 4 -6.5 8.66699 -11.5 14s-12.833 12.666 -23.5 21.999
s-24.334 17.166 -41.001 23.499s-34.334 9.5 -53.001 9.5c-28 0 -51 -8.66699 -69 -26s-27 -44 -27 -80v-47h110c14.667 0 22 -7.33301 22 -22v-48c0 -6 -2.16699 -11.333 -6.5 -16s-9.5 -7 -15.5 -7h-110v-347c0 -6 -2.16699 -11.167 -6.5 -15.5s-9.5 -6.5 -15.5 -6.5h-56
c-6 0 -11.167 2.16699 -15.5 6.5s-6.5 9.5 -6.5 15.5v347h-211v-347c0 -6 -2.33301 -11.167 -7 -15.5s-9.66699 -6.5 -15 -6.5h-56c-5.33301 0 -10.333 2.16699 -15 6.5s-7 9.5 -7 15.5v347h-61c-6 0 -11.167 2.16699 -15.5 6.5s-6.5 9.5 -6.5 15.5v49
c0 14.667 7.33301 22 22 22h61v32c0 60.667 19.333 110.167 58 148.5s89.667 57.5 153 57.5c62 0 111.333 -16 148 -48c35.333 38.667 84.333 58 147 58c28.667 0 55.334 -5 80.001 -15s42.334 -20 53.001 -30l16 -15l10 30c6 13.333 14.333 20 25 20zM208.999 462.001h211
v51c0 21.333 2 39 6 53c-25.333 26.667 -61 40 -107 40c-34 0 -60.833 -9.83301 -80.5 -29.5s-29.5 -47.167 -29.5 -82.5v-32z" />
    <glyph glyph-name="f_h" unicode="fh" horiz-adv-x="912" 
d="M511 0l-55 0.00195312c-6 0 -11.167 2.16699 -15.5 6.5s-6.5 9.5 -6.5 15.5v524c-2.66699 4 -6.5 8.66699 -11.5 14s-12.833 12.666 -23.5 21.999s-24.334 17.166 -41.001 23.499s-34.334 9.5 -53.001 9.5c-28 0 -51 -8.66699 -69 -26s-27 -44 -27 -80v-47h110
c14.667 0 22 -7.33301 22 -22v-48c0 -6 -2.16699 -11.333 -6.5 -16s-9.5 -7 -15.5 -7h-110v-347c0 -6 -2.33301 -11.167 -7 -15.5s-9.66699 -6.5 -15 -6.5h-57c-5.33301 0 -10.166 2.16699 -14.499 6.5s-6.5 9.5 -6.5 15.5v347h-62c-6 0 -11.167 2.33301 -15.5 7
s-6.5 10 -6.5 16v48c0 14.667 7.33301 22 22 22h62v46c0 62 18.167 111.167 54.5 147.5s83.166 54.5 140.499 54.5c28.667 0 55.334 -5 80.001 -15s42.334 -20 53.001 -30l16 -15l10 30c6 13.333 14.333 20 25 20h24c5.33301 0 10.333 -2.33301 15 -7s7 -9.66699 7 -15v-254
c44 32 88.667 48 134 48c119.333 0 179 -72.667 179 -218v-232c0 -6 -2.33301 -11.167 -7 -15.5s-9.66699 -6.5 -15 -6.5h-56c-6 0 -11.167 2.16699 -15.5 6.5s-6.5 9.5 -6.5 15.5v234c0 38.667 -7.83301 68.5 -23.5 89.5s-38.5 31.5 -68.5 31.5
c-31.333 0 -57.5 -7.5 -78.5 -22.5s-35.167 -29.833 -42.5 -44.5v-288c0 -14.667 -7.66699 -22 -23 -22z" />
    <glyph glyph-name="f_f_b" unicode="ffb" horiz-adv-x="1231" 
d="M209 462h211v51c0 21.333 2 39 6 53c-25.333 26.667 -61 40 -107 40c-34 0 -60.833 -9.83301 -80.5 -29.5s-29.5 -47.167 -29.5 -82.5v-32zM791 0l-24.001 0.00292969c-6 0 -11.167 2.16699 -15.5 6.5s-6.5 9.5 -6.5 15.5v524c-2.66699 4 -6.5 8.66699 -11.5 14
s-12.833 12.666 -23.5 21.999s-24.334 17.166 -41.001 23.499s-34.334 9.5 -53.001 9.5c-28 0 -51 -8.66699 -69 -26s-27 -44 -27 -80v-47h110c14.667 0 22 -7.33301 22 -22v-48c0 -6 -2.16699 -11.333 -6.5 -16s-9.5 -7 -15.5 -7h-110v-347
c0 -6 -2.16699 -11.167 -6.5 -15.5s-9.5 -6.5 -15.5 -6.5h-56c-6 0 -11.167 2.16699 -15.5 6.5s-6.5 9.5 -6.5 15.5v347h-211v-347c0 -6 -2.33301 -11.167 -7 -15.5s-9.66699 -6.5 -15 -6.5h-56c-5.33301 0 -10.333 2.16699 -15 6.5s-7 9.5 -7 15.5v347h-61
c-6 0 -11.167 2.16699 -15.5 6.5s-6.5 9.5 -6.5 15.5v49c0 14.667 7.33301 22 22 22h61v32c0 60.667 19.333 110.167 58 148.5s89.667 57.5 153 57.5c62 0 111.333 -16 148 -48c35.333 38.667 84.333 58 147 58c28.667 0 55.334 -5 80.001 -15s42.334 -20 53.001 -30l16 -15
l10 30c6 13.333 14.333 20 25 20h25c5.33301 0 10.333 -2.33301 15 -7s7 -9.66699 7 -15v-230c0.666992 0 4 1.16699 10 3.5s12.167 4.5 18.5 6.5s14.166 4.16699 23.499 6.5s19.5 4.16602 30.5 5.49902s22.167 2 33.5 2c64 0 117.833 -23.333 161.5 -70
s65.5 -103.667 65.5 -171c0 -66.667 -20.833 -123.667 -62.5 -171s-92.5 -71 -152.5 -71c-27.333 0 -53.666 5.5 -78.999 16.5s-43.666 21.833 -54.999 32.5l-18 16l-10 -34c-3.33301 -13.333 -10.333 -20 -21 -20zM844.999 151.003
c3.33301 -6.66699 8.83398 -14.5 16.501 -23.5s20.5 -18.5 38.5 -28.5s37.667 -15 59 -15c36.667 0 67.5 14.5 92.5 43.5s37.5 63.5 37.5 103.5c0 39.333 -13.5 73.5 -40.5 102.5s-59.5 43.5 -97.5 43.5c-18 0 -35.833 -2.16699 -53.5 -6.5s-30.834 -8.5 -39.501 -12.5
l-13 -6v-201z" />
    <glyph glyph-name=".notdef" horiz-adv-x="599" 
d="M50 30v640c0 20 10 30 30 30h439c20 0 30 -10 30 -30v-640c0 -20 -10 -30 -30 -30h-439c-20 0 -30 10 -30 30zM262 314c0 -8 4.66406 -12 13.9971 -12h36c10 0 15 4.33301 15 13v26c0 10.667 5.5 21.334 16.5 32.001s23 20.167 36 28.5s25 20.5 36 36.5
s16.5 33.667 16.5 53c0 32 -11.833 58.5 -35.5 79.5s-53.5 31.5 -89.5 31.5c-16 0 -31.5 -2.16699 -46.5 -6.5s-27.333 -9.33301 -37 -15s-18.167 -11.5 -25.5 -17.5s-12.666 -11 -15.999 -15l-5 -7c-5.33301 -8 -5.33301 -14 0 -18l22 -22c6 -4 11.667 -4 17 0
c0.666992 0.666992 3.16699 3 7.5 7s7.5 7 9.5 9s5.83301 4.83301 11.5 8.5s10.834 6.5 15.501 8.5s10.667 3.83301 18 5.5s14.666 2.5 21.999 2.5c19.333 0 34.333 -5 45 -15s16 -22.333 16 -37c0 -14 -5.16699 -27 -15.5 -39s-21.666 -22 -33.999 -30
s-23.666 -18.833 -33.999 -32.5s-15.5 -28.834 -15.5 -45.501v-29zM244.997 156c0 -13.333 4.83301 -24.666 14.5 -33.999s20.834 -14 33.501 -14c13.333 0 24.833 4.66699 34.5 14s14.5 20.666 14.5 33.999s-4.83301 24.666 -14.5 33.999s-21.167 14 -34.5 14
c-12.667 0 -23.834 -4.66699 -33.501 -14s-14.5 -20.666 -14.5 -33.999z" />
    <glyph glyph-name=".null" horiz-adv-x="0" 
 />
    <glyph glyph-name=".null" horiz-adv-x="0" 
 />
    <glyph glyph-name="CR" unicode="&#xd;" horiz-adv-x="0" 
 />
    <glyph glyph-name="space" unicode=" " horiz-adv-x="240" 
 />
    <glyph glyph-name="exclam" unicode="!" horiz-adv-x="264" 
d="M121 272c-4.66699 0 -8.83008 1.66699 -12.4971 5s-5.83398 7 -6.50098 11l-29 279v114c0 4.66699 1.83301 9 5.5 13s8.16699 6 13.5 6h80c5.33301 0 9.83301 -2 13.5 -6s5.5 -8.33301 5.5 -13v-112l-29 -281c-0.666992 -4 -2.83398 -7.66699 -6.50098 -11
s-7.83398 -5 -12.501 -5h-22zM62.0039 59c0 19.333 6.83301 35.8311 20.5 49.498s29.834 20.5 48.501 20.5c19.333 0 35.833 -6.83301 49.5 -20.5s20.5 -30.167 20.5 -49.5s-6.83301 -35.666 -20.5 -48.999s-30.167 -20 -49.5 -20c-18.667 0 -34.834 6.83301 -48.501 20.5
s-20.5 29.834 -20.5 48.501z" />
    <glyph glyph-name="quotedbl" unicode="&#x22;" horiz-adv-x="352" 
d="M236 501c-5.33301 0 -9.83398 1.83301 -13.501 5.5s-5.5 8.16699 -5.5 13.5v161c0 4.66699 1.83301 9 5.5 13s8.16699 6 13.5 6h57c6.66699 0 11.834 -2.5 15.501 -7.5s4.5 -10.833 2.5 -17.5l-34 -159c-2.66699 -10 -8.66699 -15 -18 -15h-23zM74.999 501
c-4.66699 0 -9.00098 1.83301 -13.001 5.5s-6 8.16699 -6 13.5v161c0 4.66699 2 9 6 13s8.33301 6 13 6h57c6.66699 0 11.834 -2.5 15.501 -7.5s4.5 -10.833 2.5 -17.5l-34 -159c-2.66699 -10 -8.66699 -15 -18 -15h-23z" />
    <glyph glyph-name="numbersign" unicode="#" horiz-adv-x="564" 
d="M114 22l23.998 168.998h-70c-12.667 0 -19 5.66699 -19 17v14c0 12 6.33301 18 19 18h77l24 167h-72c-5.33301 0 -9.83301 1.66699 -13.5 5s-5.5 7.33301 -5.5 12v14c0 4.66699 1.83301 8.83398 5.5 12.501s8.16699 5.5 13.5 5.5h78l32 228
c0.666992 4 2.66699 7.66699 6 11s7.33301 5 12 5h11c5.33301 0 9.83301 -2.16699 13.5 -6.5s5.16699 -9.5 4.5 -15.5l-30 -222h154l31 228c0.666992 4 2.83398 7.66699 6.50098 11s7.83398 5 12.501 5h9c6 0 10.833 -2.16699 14.5 -6.5s5.16699 -9.5 4.5 -15.5l-30 -222h67
c5.33301 0 9.83301 -1.66699 13.5 -5s5.5 -7.66602 5.5 -12.999v-14c0 -11.333 -6 -17 -18 -17h-74l-24 -167h68c12.667 0 19 -6 19 -18v-14c0 -11.333 -6 -17 -18 -17h-76l-25 -175c-1.33301 -10.667 -7.66602 -16 -18.999 -16h-10c-6 0 -10.833 2.16699 -14.5 6.5
s-5.16699 9.5 -4.5 15.5l25 169h-156l-24 -175c-1.33301 -10.667 -7.66602 -16 -18.999 -16h-9c-6.66699 0 -11.834 2.16699 -15.501 6.5s-4.83398 9.5 -3.50098 15.5zM192.998 239.998h156l22 167h-154z" />
    <glyph glyph-name="dollar" unicode="$" 
d="M89 69c-10.667 10.667 -12.333 21.332 -5 31.999l29 42c10 13.333 20.333 15.666 31 6.99902c4 -4 11.167 -9.83301 21.5 -17.5s26.5 -17 48.5 -28s43 -18.5 63 -22.5v226c-25.333 10 -47.833 20.333 -67.5 31s-39.834 24.334 -60.501 41.001s-36.667 36.834 -48 60.501
s-17 49.5 -17 77.5c0 53.333 17.833 97.333 53.5 132s82.5 54.334 140.5 59.001v32c0 5.33301 1.83301 9.83301 5.5 13.5s8.16699 5.5 13.5 5.5h10c11.333 0 17 -6.33301 17 -19v-33c59.333 -4.66699 114 -23.667 164 -57c12.667 -8 14.667 -19.333 6 -34
c-2 -2.66699 -4.5 -6.5 -7.5 -11.5s-5.66699 -9.16699 -8 -12.5l-8 -11c-3 -4 -5.83301 -7 -8.5 -9s-5.5 -3.83301 -8.5 -5.5s-6.16699 -2.33398 -9.5 -2.00098s-6.66602 1.5 -9.99902 3.5c-0.666992 0 -3.66699 1.66699 -9 5s-11.333 6.83301 -18 10.5
s-14.5 7.66699 -23.5 12s-18.833 8.5 -29.5 12.5s-20.667 7 -30 9v-220c30 -12.667 55.5 -24.834 76.5 -36.501s42 -26.167 63 -43.5s36.833 -37.666 47.5 -60.999s16 -49.333 16 -78c0 -52 -18.833 -95.167 -56.5 -129.5s-86.5 -53.833 -146.5 -58.5v-104
c0 -12 -7 -18 -21 -18c-17.333 0 -26 6 -26 18v104c-76 6 -138.667 32 -188 78zM277.001 417.998l-0.000976562 202c-31.333 -3.33301 -55.166 -13.833 -71.499 -31.5s-24.5 -36.167 -24.5 -55.5c0 -46 32 -84.333 96 -115zM324 77.998c28.667 4 52.167 13.833 70.5 29.5
s27.5 36.5 27.5 62.5c0 43.333 -32.667 82 -98 116v-208z" />
    <glyph glyph-name="percent" unicode="%" horiz-adv-x="686" 
d="M182 441c-37.333 0 -69.166 13.167 -95.499 39.5s-39.5 58.166 -39.5 95.499s13.167 69.166 39.5 95.499s58.166 39.5 95.499 39.5s69.166 -13.167 95.499 -39.5s39.5 -58.166 39.5 -95.499s-13.167 -69.166 -39.5 -95.499s-58.166 -39.5 -95.499 -39.5zM135 27
l342.999 663c4.66699 6.66699 10.334 10 17.001 10h33c7.33301 0 12.833 -2.83301 16.5 -8.5s3.83398 -11.834 0.500977 -18.501l-345 -663c-3.33301 -6.66699 -9 -10 -17 -10h-31c-7.33301 0 -12.833 2.83301 -16.5 8.5s-3.83398 11.834 -0.500977 18.501zM181.999 512
c17.333 0 32 6.16699 44 18.5s18 27.5 18 45.5c0 16.667 -6.16699 31.167 -18.5 43.5s-26.833 18.5 -43.5 18.5c-17.333 0 -32.166 -6.16699 -44.499 -18.5s-18.5 -26.833 -18.5 -43.5c0 -18 6.16699 -33.167 18.5 -45.5s27.166 -18.5 44.499 -18.5zM369.999 124
c0 37.333 13.167 69.166 39.5 95.499s58.166 39.5 95.499 39.5s69.166 -13.167 95.499 -39.5s39.5 -58.166 39.5 -95.499s-13.167 -69.166 -39.5 -95.499s-58.166 -39.5 -95.499 -39.5s-69.166 13.167 -95.499 39.5s-39.5 58.166 -39.5 95.499zM440.999 124
c0 -17.333 6.16699 -32.166 18.5 -44.499s27.5 -18.5 45.5 -18.5c16.667 0 31.167 6.16699 43.5 18.5s18.5 27.166 18.5 44.499c0 16.667 -6.16699 31.167 -18.5 43.5s-26.833 18.5 -43.5 18.5c-18 0 -33.167 -6 -45.5 -18s-18.5 -26.667 -18.5 -44z" />
    <glyph glyph-name="ampersand" unicode="&#x26;" horiz-adv-x="667" 
d="M56 176c0 79.333 46.335 145.998 139.002 199.998v2l-23 25c-46 50.667 -69 98 -69 142c0 46.667 17.667 85.834 53 117.501s78.666 47.5 129.999 47.5c53.333 0 96.5 -15.333 129.5 -46s49.5 -68.334 49.5 -113.001c0 -22.667 -4.66699 -44.167 -14 -64.5
s-22.833 -39.166 -40.5 -56.499s-31.334 -29.833 -41.001 -37.5s-22.834 -17.167 -39.501 -28.5l140 -140c22 42.667 34.667 90.667 38 144c0.666992 20 10 28 28 24l41 -8c10 -2 15.833 -6.66699 17.5 -14s1.5 -13 -0.5 -17c-7.33301 -68 -27.666 -132 -60.999 -192l93 -90
c7.33301 -7.33301 11.333 -13.666 12 -18.999s-4 -14.333 -14 -27l-26 -26c-14.667 -13.333 -29 -12.333 -43 3l-79 80c-54 -61.333 -126.667 -92 -218 -92c-61.333 0 -110.333 18 -147 54s-55 80 -55 132zM272.002 422.998c39.333 24 66 44.667 80 62
c16 19.333 24 40 24 62c0 22.667 -8.66699 42.667 -26 60s-40.333 26 -69 26c-25.333 0 -46.5 -8.16699 -63.5 -24.5s-25.5 -37.5 -25.5 -63.5c0 -28 19.333 -61.333 58 -100zM151.002 181.998c0 -31.333 11 -57.167 33 -77.5s49.333 -30.5 82 -30.5
c59.333 0 109.333 24 150 72l-167 176c-65.333 -40 -98 -86.667 -98 -140z" />
    <glyph glyph-name="quotesingle" unicode="'" horiz-adv-x="191" 
d="M75 501c-4.66699 0 -9.00098 1.83301 -13.001 5.5s-6 8.16699 -6 13.5v161c0 4.66699 2 9 6 13s8.33301 6 13 6h57c6.66699 0 11.834 -2.5 15.501 -7.5s4.5 -10.833 2.5 -17.5l-34 -159c-2.66699 -10 -8.66699 -15 -18 -15h-23z" />
    <glyph glyph-name="parenleft" unicode="(" horiz-adv-x="338" 
d="M299 -2c9.33301 -2.66699 12.9961 -8.66797 10.9961 -18.001l-2 -46c-0.666992 -8.66699 -7 -13 -19 -13c-31.333 2 -60.166 9.5 -86.499 22.5s-51.833 33.667 -76.5 62s-44 68.833 -58 121.5s-21 115.334 -21 188.001c0 58.667 4.83301 111 14.5 157
s22.167 83.167 37.5 111.5s33.833 52 55.5 71s43.334 32.333 65.001 40s44.834 12.167 69.501 13.5c11.333 1.33301 17.666 -3 18.999 -13l2 -46c0.666992 -4.66699 -0.166016 -8.66699 -2.49902 -12s-5.16602 -5.33301 -8.49902 -6c-54.667 -12 -94.167 -44.333 -118.5 -97
s-36.5 -125.667 -36.5 -219c0 -94 12.167 -167.167 36.5 -219.5s63.833 -84.833 118.5 -97.5z" />
    <glyph glyph-name="parenright" unicode=")" horiz-adv-x="338" 
d="M28 -19c-1.33301 10 2.33105 15.667 10.998 17c54.667 12.667 94.334 45.334 119.001 98.001s37 125.667 37 219s-12.333 166.333 -37 219s-64.334 85 -119.001 97c-8.66699 1.33301 -12.334 7.33301 -11.001 18l3 46c0 10 6 14.333 18 13
c24.667 -1.33301 47.834 -5.83301 69.501 -13.5s43.334 -21 65.001 -40s40.167 -42.667 55.5 -71s27.833 -65.5 37.5 -111.5s14.5 -98.333 14.5 -157c0 -72.667 -7 -135.334 -21 -188.001s-33.333 -93.167 -58 -121.5s-50.167 -49 -76.5 -62s-55.166 -20.5 -86.499 -22.5
c-12 0 -18 4.33301 -18 13z" />
    <glyph glyph-name="asterisk" unicode="*" horiz-adv-x="418" 
d="M198 392c-5.33301 0 -9.83301 2.00195 -13.5 6.00195s-5.5 8.33301 -5.5 13l2 85l-70 -49c-4 -2.66699 -8.66699 -3.5 -14 -2.5s-9.33301 3.5 -12 7.5l-12 19c-6.66699 10 -5 19 5 27l79 48l-80 49c-9.33301 7.33301 -11 16 -5 26c6 9.33301 10.333 15.666 13 18.999
c2.66699 4 6.5 6.5 11.5 7.5s9.5 0.166992 13.5 -2.5l71 -49l-2 85c0 4.66699 1.83301 9 5.5 13s8.16699 6 13.5 6h22c5.33301 0 9.83301 -2 13.5 -6s5.5 -8.33301 5.5 -13l-2 -85l70 51c10 6 18.667 4 26 -6l12 -19c6 -11.333 4.33301 -20 -5 -26l-80 -50l80 -50
c10.667 -6.66699 12.667 -15.334 6 -26.001l-13 -19c-6 -10.667 -14.667 -12.667 -26 -6l-70 50l2 -84c0 -4.66699 -1.83301 -9 -5.5 -13s-8.16699 -6 -13.5 -6h-22z" />
    <glyph glyph-name="plus" unicode="+" 
d="M260 153v153h-154c-5.33301 0 -9.83301 2 -13.5 6s-5.5 8.33301 -5.5 13v42c0 4.66699 1.83301 9 5.5 13s8.16699 6 13.5 6h154v155c0 4.66699 1.83301 8.83398 5.5 12.501s8.16699 5.5 13.5 5.5h42c5.33301 0 9.83301 -1.83301 13.5 -5.5s5.5 -7.83398 5.5 -12.501v-155
h154c4.66699 0 8.83398 -1.83301 12.501 -5.5s5.5 -8.16699 5.5 -13.5v-42c0 -5.33301 -1.83301 -9.83301 -5.5 -13.5s-7.83398 -5.5 -12.501 -5.5h-154v-153c0 -4.66699 -1.83301 -8.83398 -5.5 -12.501s-8.16699 -5.5 -13.5 -5.5h-42
c-5.33301 0 -9.83301 1.83301 -13.5 5.5s-5.5 7.83398 -5.5 12.501z" />
    <glyph glyph-name="comma" unicode="," horiz-adv-x="255" 
d="M46 71c0 19.333 7.00098 35.666 21.001 48.999s31.667 20 53 20c26 0 47.5 -11.167 64.5 -33.5s25.5 -51.833 25.5 -88.5c0 -71.333 -25 -137.333 -75 -198c-7.33301 -7.33301 -14.333 -8 -21 -2l-25 20c-6 6 -5.66699 13 1 21c36 44.667 54 87.334 54 128.001
c0 13.333 -1.66699 22.333 -5 27c-8.66699 -7.33301 -19.667 -11 -33 -11c-18.667 0 -33.334 6.5 -44.001 19.5s-16 29.167 -16 48.5z" />
    <glyph glyph-name="hyphen" unicode="-" horiz-adv-x="376" 
d="M80 206c-5.33301 0 -9.83301 1.66699 -13.5 5s-5.5 7.66602 -5.5 12.999v43c0 12.667 6.33301 19 19 19h216c12.667 0 19 -6.33301 19 -19v-43c0 -5.33301 -1.83301 -9.66602 -5.5 -12.999s-8.16699 -5 -13.5 -5h-216z" />
    <glyph glyph-name="period" unicode="." horiz-adv-x="252" 
d="M46 69c0 22.667 7.83301 41.834 23.5 57.501s34.167 23.5 55.5 23.5c22.667 0 41.834 -7.83301 57.501 -23.5s23.5 -34.834 23.5 -57.501c0 -22 -7.83301 -40.833 -23.5 -56.5s-34.834 -23.5 -57.501 -23.5c-21.333 0 -39.833 7.83301 -55.5 23.5s-23.5 34.5 -23.5 56.5z
" />
    <glyph glyph-name="slash" unicode="/" horiz-adv-x="395" 
d="M58 25l196.002 662c2.66699 8.66699 8.66699 13 18 13h47c7.33301 0 12.666 -2.5 15.999 -7.5s4 -10.833 2 -17.5l-195 -662c-2.66699 -8.66699 -8.66699 -13 -18 -13h-48c-6.66699 0 -11.834 2.5 -15.501 7.5s-4.5 10.833 -2.5 17.5z" />
    <glyph glyph-name="zero" unicode="0" horiz-adv-x="642" 
d="M321 -10c-80.667 0 -143.334 31.833 -188.001 95.5s-67 151.834 -67 264.501c0 113.333 22.333 201.666 67 264.999s107.334 95 188.001 95s143.334 -31.667 188.001 -95s67 -151.666 67 -264.999c0 -112.667 -22.333 -200.834 -67 -264.501
s-107.334 -95.5 -188.001 -95.5zM321 83c48 0 85.167 23.167 111.5 69.5s39.5 112.166 39.5 197.499c0 84.667 -13.167 150 -39.5 196s-63.5 69 -111.5 69s-85.167 -23 -111.5 -69s-39.5 -111.333 -39.5 -196c0 -85.333 13.167 -151.166 39.5 -197.499
s63.5 -69.5 111.5 -69.5z" />
    <glyph glyph-name="one" unicode="1" horiz-adv-x="355" 
d="M153 20l-0.000976562 523l-82 -39c-12 -5.33301 -19.667 -3 -23 7l-12 36c-2.66699 8 -1.66699 15 3 21l131 119c10.667 8.66699 22.334 13 35.001 13h31c4.66699 0 8.83398 -1.83301 12.501 -5.5s5.5 -8.16699 5.5 -13.5v-661c0 -5.33301 -1.83301 -10 -5.5 -14
s-7.83398 -6 -12.501 -6h-63c-5.33301 0 -10 2 -14 6s-6 8.66699 -6 14z" />
    <glyph glyph-name="two" unicode="2" horiz-adv-x="551" 
d="M204 91l0.00390625 -2.00195h260c13.333 0 20 -6.66699 20 -20v-49c0 -13.333 -6.66699 -20 -20 -20h-398c-6 0 -10.833 2 -14.5 6s-5.5 8.66699 -5.5 14v8c0 12 4 22.667 12 32l248 294c52 59.333 78 109.333 78 150c0 30 -10.667 56.167 -32 78.5s-53 33.5 -95 33.5
c-44.667 0 -88.334 -23 -131.001 -69c-9.33301 -8.66699 -18.333 -8.66699 -27 0l-35 35c-4 3.33301 -6.16699 7.66602 -6.5 12.999s1.5 10 5.5 14c2 2.66699 5 6.33398 9 11.001s12.667 12.834 26 24.501s27.166 21.834 41.499 30.501s32.666 16.667 54.999 24
s44.833 11 67.5 11c70.667 0 126 -19.333 166 -58s60 -86.667 60 -144c0 -36 -7.83301 -68 -23.5 -96s-40.834 -62.667 -75.501 -104z" />
    <glyph glyph-name="three" unicode="3" horiz-adv-x="560" 
d="M52 81c-7.33301 10 -7 18.333 1 25l40 37c10 8.66699 19.333 8 28 -2c41.333 -42.667 88 -64 140 -64c36 0 66.5 9.83301 91.5 29.5s37.5 48.5 37.5 86.5c0 35.333 -13.833 63.5 -41.5 84.5s-68.167 31.5 -121.5 31.5h-57c-13.333 0 -20 7.33301 -20 22v44
c0 14.667 7 22 21 22h57c46.667 0 82.667 10.167 108 30.5s38 46.5 38 78.5c0 33.333 -11.667 60.333 -35 81s-51 31 -83 31c-46 0 -85.667 -19.333 -119 -58c-8 -10.667 -17 -11.334 -27 -2.00098l-38 34c-9.33301 8.66699 -9.33301 17.667 0 27c2 2.66699 5 6 9 10
s12.5 11.167 25.5 21.5s26.5 19.5 40.5 27.5s31.5 15.333 52.5 22s41.833 10 62.5 10c61.333 0 112.666 -17.333 153.999 -52s62 -80.334 62 -137.001c0 -36 -11 -68.667 -33 -98s-46.333 -50.333 -73 -63v-3c32 -13.333 60.667 -33.666 86 -60.999s38 -62.333 38 -105
c0 -57.333 -21.5 -105.166 -64.5 -143.499s-100.167 -57.5 -171.5 -57.5c-85.333 0 -154.666 30.333 -207.999 91z" />
    <glyph glyph-name="four" unicode="4" horiz-adv-x="632" 
d="M49 153c-5.33301 0 -10 2 -14 6s-6 8.66699 -6 14v42c0 13.333 4.33301 25.333 13 36l364 446c6.66699 8.66699 17 13 31 13h27c5.33301 0 10 -2 14 -6s6 -8.66699 6 -14v-451h83c5.33301 0 10 -1.83301 14 -5.5s6 -8.16699 6 -13.5v-48c0 -5.33301 -2 -9.83301 -6 -13.5
s-8.66699 -5.5 -14 -5.5h-83v-133c0 -5.33301 -1.83301 -10 -5.5 -14s-8.16699 -6 -13.5 -6h-61c-5.33301 0 -9.83301 2 -13.5 6s-5.5 8.66699 -5.5 14v133h-336zM143 241v-2h246v299h-2z" />
    <glyph glyph-name="five" unicode="5" horiz-adv-x="565" 
d="M73 75c-7.33301 8 -11.168 14.332 -11.501 18.999s2.83398 10 9.50098 16l17.5 17c9 8.66699 15.833 15 20.5 19c9.33301 8 17.666 8 24.999 0c40 -44.667 86 -67 138 -67c42.667 0 77.5 14.667 104.5 44s40.5 63.333 40.5 102c0 38 -12.5 69.333 -37.5 94
s-60.167 37 -105.5 37h-158c-9.33301 0 -17 3.83301 -23 11.5s-9 15.834 -9 24.501v289c0 5.33301 1.83301 9.83301 5.5 13.5s8.5 5.5 14.5 5.5h318c5.33301 0 10 -1.83301 14 -5.5s6 -8.16699 6 -13.5v-51c0 -5.33301 -2 -9.83301 -6 -13.5s-8.66699 -5.5 -14 -5.5h-245
v-163h104c74.667 0 132.834 -20 174.501 -60s62.5 -94 62.5 -162c0 -65.333 -23.333 -121 -70 -167s-104.667 -69 -174 -69c-86.667 0 -153.667 28.333 -201 85z" />
    <glyph glyph-name="six" unicode="6" horiz-adv-x="580" 
d="M59 278c0 54 9.16211 104.668 27.4951 152.001s39.833 86.166 64.5 116.499s54.334 58.166 89.001 83.499s63.834 44 87.501 56s47.834 22.667 72.501 32c12.667 4 21.334 0 26.001 -12l18 -43c6 -14 -0.333008 -23.667 -19 -29
c-14.667 -5.33301 -32.667 -13.5 -54 -24.5s-45.5 -25.833 -72.5 -44.5s-51.5 -41.667 -73.5 -69s-37 -55.666 -45 -84.999c40.667 25.333 86.334 38 137.001 38c58 0 108.333 -20.167 151 -60.5s64 -94.5 64 -162.5c0 -64.667 -22.667 -120.167 -68 -166.5
s-99 -69.5 -161 -69.5c-79.333 0 -139.833 27 -181.5 81s-62.5 123 -62.5 207zM300.995 82.001c38 0 70.1689 14 96.502 42s39.5 61.667 39.5 101c0 38.667 -13.333 71.667 -40 99s-59 41 -97 41c-32.667 0 -61.834 -8.66699 -87.501 -26s-43.5 -35 -53.5 -53
c-2.66699 -30.667 -0.166992 -61 7.5 -91s23.167 -56.333 46.5 -79s52.666 -34 87.999 -34z" />
    <glyph glyph-name="seven" unicode="7" horiz-adv-x="508" 
d="M359 608l0.000976562 2.00098h-303c-5.33301 0 -9.83301 2 -13.5 6s-5.5 8.33301 -5.5 13v52c0 4.66699 1.83301 9 5.5 13s8.16699 6 13.5 6h422c12.667 0 19 -5.33301 19 -16c0 -6.66699 -2.66699 -15.667 -8 -27l-295 -629c-4.66699 -11.333 -9.5 -18.833 -14.5 -22.5
s-13.5 -5.5 -25.5 -5.5h-47c-6.66699 0 -12.334 2 -17.001 6s-7 8.66699 -7 14c0 7.33301 1.33301 13.666 4 18.999z" />
    <glyph glyph-name="eight" unicode="8" horiz-adv-x="604" 
d="M64 187c0 41.333 12.665 77.1689 37.998 107.502s54 51.833 86 64.5v4c-28.667 14.667 -53.5 35.5 -74.5 62.5s-31.5 58.833 -31.5 95.5c0 56 20.833 101.5 62.5 136.5s93.834 52.5 156.501 52.5c64 0 116.667 -17.5 158 -52.5s62 -80.5 62 -136.5
c0 -35.333 -10.667 -66.333 -32 -93s-46 -48 -74 -64v-5c31.333 -12.667 60 -34.334 86 -65.001s39 -66.334 39 -107.001c0 -57.333 -21.667 -104.5 -65 -141.5s-101.666 -55.5 -174.999 -55.5c-71.333 0 -128.5 18.5 -171.5 55.5s-64.5 84.167 -64.5 141.5z
M301.998 408.003c38 5.33301 66.667 17.666 86 36.999s29 43.333 29 72c0 31.333 -11.333 57.166 -34 77.499s-51 30.5 -85 30.5c-31.333 0 -57.833 -10.167 -79.5 -30.5s-32.5 -46.166 -32.5 -77.499c0 -61.333 38.667 -97.666 116 -108.999zM170.998 185.003
c0 -32.667 12.833 -59.5 38.5 -80.5s56.167 -31.5 91.5 -31.5c37.333 0 68.5 10.167 93.5 30.5s37.5 47.5 37.5 81.5c0 28.667 -11.667 55 -35 79s-55 39 -95 45c-40 -6 -71.833 -20.833 -95.5 -44.5s-35.5 -50.167 -35.5 -79.5z" />
    <glyph glyph-name="nine" unicode="9" horiz-adv-x="580" 
d="M136 41c-6.66699 14 -0.664062 23.9971 18.0029 29.9971c15.333 4.66699 33.666 12.334 54.999 23.001s45.5 25 72.5 43s51.667 40.333 74 67s37.5 54.667 45.5 84c-5.33301 -3.33301 -13.5 -7.5 -24.5 -12.5s-27.333 -10.5 -49 -16.5s-42.834 -9 -63.501 -9
c-58 0 -108.5 20.333 -151.5 61s-64.5 95 -64.5 163c0 64.667 22.667 120.167 68 166.5s99.666 69.5 162.999 69.5c78 0 137.833 -27.167 179.5 -81.5s62.5 -123.833 62.5 -208.5c0 -39.333 -4.83301 -76.833 -14.5 -112.5s-21.667 -66.667 -36 -93s-32.333 -51.5 -54 -75.5
s-42.334 -43.667 -62.001 -59s-41.667 -30.166 -66 -44.499s-44.166 -25.166 -59.499 -32.499s-31.666 -14.333 -48.999 -21c-12.667 -4 -21.334 0.333008 -26.001 13zM280.003 333.997c36 0 67.167 9.49902 93.5 28.499s42.166 35.5 47.499 49.5
c5.33301 50 -4.16699 96.667 -28.5 140s-62.166 65 -113.499 65c-37.333 0 -69.333 -14.167 -96 -42.5s-40 -61.5 -40 -99.5c0 -39.333 13.333 -72.666 40 -99.999s59 -41 97 -41z" />
    <glyph glyph-name="colon" unicode=":" horiz-adv-x="271" 
d="M136 323c-20.667 0 -38.334 7.33301 -53.001 22s-22 32.334 -22 53.001s7.33301 38.167 22 52.5s32.334 21.5 53.001 21.5s38.167 -7.16699 52.5 -21.5s21.5 -31.833 21.5 -52.5s-7.16699 -38.334 -21.5 -53.001s-31.833 -22 -52.5 -22zM61 63
c0 20.667 7.33301 38.5 22 53.5s32.334 22.5 53.001 22.5s38.167 -7.33301 52.5 -22s21.5 -32.667 21.5 -54c0 -20 -7.16699 -37.333 -21.5 -52s-31.833 -22 -52.5 -22s-38.334 7.33301 -53.001 22s-22 32 -22 52z" />
    <glyph glyph-name="semicolon" unicode=";" horiz-adv-x="275" 
d="M136 323c-20.667 0 -38.334 7.33301 -53.001 22s-22 32.334 -22 53.001s7.33301 38.167 22 52.5s32.334 21.5 53.001 21.5s38.167 -7.16699 52.5 -21.5s21.5 -31.833 21.5 -52.5s-7.16699 -38.334 -21.5 -53.001s-31.833 -22 -52.5 -22zM62 67
c0 18.667 6.66699 34.333 20 47s30 19 50 19c24.667 0 45.167 -10.667 61.5 -32s24.5 -49.333 24.5 -84c0 -68.667 -23.667 -131.334 -71 -188.001c-7.33301 -7.33301 -14 -8 -20 -2l-24 19c-6 6 -5.66699 12.667 1 20c34 42.667 51 83 51 121
c0 12.667 -1.66699 21.334 -5 26.001c-6.66699 -6.66699 -17 -10 -31 -10c-18 0 -32 6.16699 -42 18.5s-15 27.5 -15 45.5z" />
    <glyph glyph-name="less" unicode="&#x3c;" 
d="M106 210c-6.66699 4 -10 9.66699 -10 17v5c0 7.33301 3.33301 13 10 17l343 212c6.66699 4 13 4.33301 19 1s9 -9 9 -17v-53c0 -8 -3.33301 -14 -10 -18l-238 -144l238 -139c6.66699 -4 10 -9.66699 10 -17v-53c0 -8 -3 -13.667 -9 -17s-12.333 -3 -19 1z" />
    <glyph glyph-name="equal" unicode="=" 
d="M144 344c-5.33301 0 -9.83301 1.83301 -13.5 5.5s-5.5 8.16699 -5.5 13.5v43c0 5.33301 1.83301 9.83301 5.5 13.5s8.16699 5.5 13.5 5.5h312c5.33301 0 9.83301 -1.83301 13.5 -5.5s5.5 -8.16699 5.5 -13.5v-43c0 -5.33301 -1.83301 -9.83301 -5.5 -13.5
s-8.16699 -5.5 -13.5 -5.5h-312zM144 133c-5.33301 0 -9.83301 1.83301 -13.5 5.5s-5.5 8.16699 -5.5 13.5v44c0 5.33301 1.83301 9.83301 5.5 13.5s8.16699 5.5 13.5 5.5h312c5.33301 0 9.83301 -1.83301 13.5 -5.5s5.5 -8.16699 5.5 -13.5v-44
c0 -5.33301 -1.83301 -9.83301 -5.5 -13.5s-8.16699 -5.5 -13.5 -5.5h-312z" />
    <glyph glyph-name="greater" unicode="&#x3e;" 
d="M123 21v53c0 8 3.33301 13.667 10 17l237 139l-237 144c-6.66699 3.33301 -10 9.33301 -10 18v53c0 8 3 13.667 9 17s12.333 3 19 -1l343 -212c6.66699 -4 10 -9.66699 10 -17v-5c0 -7.33301 -3.33301 -13 -10 -17l-343 -205c-6.66699 -4 -13 -4.33301 -19 -1s-9 9 -9 17
z" />
    <glyph glyph-name="question" unicode="?" horiz-adv-x="480" 
d="M196 272c-5.33301 0 -9.83496 1.82812 -13.502 5.49512s-5.5 8.16699 -5.5 13.5v42c0 24.667 7.5 46.834 22.5 66.501s31.667 35.334 50 47.001s35 26.334 50 44.001s22.5 36.5 22.5 56.5c0 21.333 -8 39.5 -24 54.5s-38 22.5 -66 22.5
c-13.333 0 -25.833 -1.33301 -37.5 -4s-22.167 -6.83398 -31.5 -12.501s-16.666 -10.5 -21.999 -14.5s-11.666 -9.5 -18.999 -16.5l-13 -12.5c-8 -6.66699 -16 -6.66699 -24 0l-33 32c-8 6.66699 -8 15.334 0 26.001c2 2.66699 4.66699 5.83398 8 9.50098
s10.833 10.667 22.5 21s24.167 19.333 37.5 27s31 14.667 53 21s45 9.5 69 9.5c52.667 0 96.5 -15 131.5 -45s52.5 -68.667 52.5 -116c0 -23.333 -5.33301 -44.666 -16 -63.999s-23.667 -35.333 -39 -48s-30.5 -24.5 -45.5 -35.5s-27.833 -22.667 -38.5 -35
s-16 -24.833 -16 -37.5v-37c0 -13.333 -7 -20 -21 -20h-54zM152.998 58.9951c0 19.333 6.66895 35.833 20.002 49.5s29.666 20.5 48.999 20.5s35.833 -6.83301 49.5 -20.5s20.5 -30.167 20.5 -49.5s-6.83301 -35.666 -20.5 -48.999s-30.167 -20 -49.5 -20
c-18.667 0 -34.834 6.66699 -48.501 20s-20.5 29.666 -20.5 48.999z" />
    <glyph glyph-name="at" unicode="@" horiz-adv-x="1001" 
d="M57 223c0 143.333 43.0029 260.329 129.003 350.996s199 136 339 136c133.333 0 238.166 -39.333 314.499 -118s114.5 -180 114.5 -304c0 -70.667 -19.833 -133 -59.5 -187s-92.5 -81 -158.5 -81c-60.667 0 -99.667 26 -117 78h-8
c-11.333 -22.667 -28.166 -41.334 -50.499 -56.001s-48.166 -22 -77.499 -22c-51.333 0 -93.833 19.833 -127.5 59.5s-50.5 90.167 -50.5 151.5c0 62.667 17 113.167 51 151.5s77.333 57.5 130 57.5c8.66699 0 17.167 -0.666992 25.5 -2s15.666 -3.16602 21.999 -5.49902
s12.833 -5.16602 19.5 -8.49902s12 -6.33301 16 -9s8.33301 -6 13 -10s8 -7 10 -9l8 -8l4 -4c0.666992 2.66699 2.16699 7.83398 4.5 15.501s4 12.334 5 14.001s2.83301 4.33398 5.5 8.00098s6 6 10 7s9.33301 1.5 16 1.5h13c5.33301 0 9.83301 -2 13.5 -6
s5.5 -8.33301 5.5 -13v-198c0 -44 5.66699 -74 17 -90s28 -24 50 -24c35.333 0 64.666 17.5 87.999 52.5s35 79.5 35 133.5c0 101.333 -29.833 184.166 -89.5 248.499s-144.834 96.5 -255.501 96.5c-115.333 0 -207.333 -36.5 -276 -109.5s-103 -172.167 -103 -297.5
c0 -86 23 -161.333 69 -226s107.333 -113 184 -145c11.333 -5.33301 14.666 -13.666 9.99902 -24.999l-18 -45c-4.66699 -10 -11.667 -13 -21 -9c-92 36 -166.667 94 -224 174s-86 172 -86 276zM491.003 357.996c-31.333 0 -55.667 -12.8301 -73 -38.4971
s-26 -55.834 -26 -90.501c0 -36.667 9.5 -66.334 28.5 -89.001s42.5 -34 70.5 -34c62 0 93 37.333 93 112v77c-1.33301 11.333 -10.5 24.666 -27.5 39.999s-38.833 23 -65.5 23z" />
    <glyph glyph-name="A" unicode="A" horiz-adv-x="667" 
d="M22 0c-7.33301 0 -12.8301 2.66699 -16.4971 8s-3.83398 11.333 -0.500977 18l307 673c4 7.33301 9.66699 11 17 11h10c7.33301 0 13 -3.66699 17 -11l305 -673c3.33301 -6.66699 3.16602 -12.667 -0.500977 -18s-9.16699 -8 -16.5 -8h-63
c-10.667 0 -18.334 5 -23.001 15l-62 137h-327l-61 -137c-4 -10 -11.667 -15 -23 -15h-63zM208.003 238h250l-123 274h-5z" />
    <glyph glyph-name="B" unicode="B" horiz-adv-x="620" 
d="M445 357v-2c34 -13.333 62.167 -33.333 84.5 -60s33.5 -60.667 33.5 -102c0 -56 -20.5 -102.167 -61.5 -138.5s-93.167 -54.5 -156.5 -54.5h-235c-5.33301 -0 -9.83301 1.83301 -13.5 5.5s-5.5 8.16699 -5.5 13.5v662c0 5.33301 1.83301 9.83301 5.5 13.5
s8.16699 5.5 13.5 5.5h224c60 0 109.667 -17.667 149 -53s59 -79.333 59 -132c0 -36 -9 -67.833 -27 -95.5s-41.333 -48.5 -70 -62.5zM193 396h131c32 0 57.833 10 77.5 30s29.5 45.667 29.5 77c0 32.667 -9.66699 58 -29 76s-45.333 27 -78 27h-131v-210zM192 92h156
c32.667 0 58.167 10.167 76.5 30.5s27.5 46.5 27.5 78.5c0 30 -10 55 -30 75s-44.667 30 -74 30h-156v-214z" />
    <glyph glyph-name="C" unicode="C" horiz-adv-x="698" 
d="M48 349c0 100 35.166 185.166 105.499 255.499s155.5 105.5 255.5 105.5c90 0 170.667 -31 242 -93c10 -9.33301 10.333 -18.666 1 -27.999l-44 -45c-7.33301 -9.33301 -15.666 -9.33301 -24.999 0c-51.333 44.667 -109 67 -173 67
c-70.667 0 -130.167 -25.667 -178.5 -77s-72.5 -112.333 -72.5 -183s24.333 -131.5 73 -182.5s108.334 -76.5 179.001 -76.5c57.333 0 114.666 22 171.999 66c8.66699 6.66699 16.667 7 24 1l46 -45c4 -4 5.83301 -8.5 5.5 -13.5s-2.5 -9.5 -6.5 -13.5
c-66.667 -64.667 -147.667 -97 -243 -97c-100 0 -185.167 34.833 -255.5 104.5s-105.5 154.5 -105.5 254.5z" />
    <glyph glyph-name="D" unicode="D" horiz-adv-x="739" 
d="M91 19v662.001c0 5.33301 1.83301 9.83301 5.5 13.5s7.83398 5.5 12.501 5.5h230c96.667 0 179.334 -34.167 248.001 -102.5s103 -150.5 103 -246.5c0 -96.667 -34.333 -179.334 -103 -248.001s-151.334 -103 -248.001 -103h-230
c-4.66699 -0 -8.83398 1.83301 -12.501 5.5s-5.5 8.16699 -5.5 13.5zM193 95.001h135c73.333 0 133.5 24.167 180.5 72.5s70.5 109.5 70.5 183.5s-23.5 134.833 -70.5 182.5s-107.167 71.5 -180.5 71.5h-135v-510z" />
    <glyph glyph-name="E" unicode="E" horiz-adv-x="576" 
d="M91 19v662c0 5.33301 1.83301 9.83301 5.5 13.5s8.16699 5.5 13.5 5.5h400c5.33301 0 9.83301 -1.83301 13.5 -5.5s5.5 -8.16699 5.5 -13.5v-56c0 -5.33301 -1.83301 -9.83301 -5.5 -13.5s-8.16699 -5.5 -13.5 -5.5h-316v-204h267c4.66699 0 9 -2 13 -6s6 -8.33301 6 -13
v-56c0 -5.33301 -1.83301 -9.83301 -5.5 -13.5s-8.16699 -5.5 -13.5 -5.5h-267v-215h316c5.33301 0 9.83301 -1.83301 13.5 -5.5s5.5 -8.16699 5.5 -13.5v-55c0 -5.33301 -1.83301 -9.83301 -5.5 -13.5s-8.16699 -5.5 -13.5 -5.5h-400
c-5.33301 -0 -9.83301 1.83301 -13.5 5.5s-5.5 8.16699 -5.5 13.5z" />
    <glyph glyph-name="F" unicode="F" horiz-adv-x="557" 
d="M91 19v662c0 5.33301 1.83301 9.83301 5.5 13.5s8.16699 5.5 13.5 5.5h400c5.33301 0 9.83301 -1.83301 13.5 -5.5s5.5 -8.16699 5.5 -13.5v-56c0 -5.33301 -1.83301 -9.83301 -5.5 -13.5s-8.16699 -5.5 -13.5 -5.5h-316v-231h267c4.66699 0 9 -1.83301 13 -5.5
s6 -8.16699 6 -13.5v-55c0 -4.66699 -2 -9 -6 -13s-8.33301 -6 -13 -6h-267v-263c0 -4.66699 -2 -9 -6 -13s-8.33301 -6 -13 -6h-65c-5.33301 -0 -9.83301 1.83301 -13.5 5.5s-5.5 8.16699 -5.5 13.5z" />
    <glyph glyph-name="G" unicode="G" horiz-adv-x="726" 
d="M48 349c0 100 35.168 185.167 105.501 255.5s155.166 105.5 254.499 105.5c89.333 0 170.333 -31 243 -93c10 -10 10.333 -19.333 1 -28l-45 -47c-7.33301 -8 -16 -7.66699 -26 1c-52 45.333 -108.667 68 -170 68c-70 0 -129.333 -25.667 -178 -77s-73 -112.333 -73 -183
s24.333 -131.5 73 -182.5s108 -76.5 178 -76.5c11.333 0 22.5 0.5 33.5 1.5s21.167 2.5 30.5 4.5s18.166 4 26.499 6s16 4.33301 23 7l17 6.5c4.33301 1.66699 8.5 3.5 12.5 5.5s6.33301 3 7 3v112h-98c-5.33301 0 -9.83301 1.66699 -13.5 5s-5.5 7.66602 -5.5 12.999v58
c0 12.667 6.33301 19 19 19h183c4.66699 0 8.83398 -1.83301 12.501 -5.5s5.5 -8.16699 5.5 -13.5v-242c0 -6.66699 -2.66699 -12 -8 -16c-8 -4.66699 -19 -10.667 -33 -18s-42.667 -17.166 -86 -29.499s-86.333 -18.5 -129 -18.5c-100 0 -185 34.833 -255 104.5
s-105 154.5 -105 254.5z" />
    <glyph glyph-name="H" unicode="H" horiz-adv-x="756" 
d="M91 19v662c0 4.66699 1.83301 9 5.5 13s8.16699 6 13.5 6h66c5.33301 0 9.83301 -1.83301 13.5 -5.5s5.5 -8.16699 5.5 -13.5v-279h366v279c0 5.33301 1.83301 9.83301 5.5 13.5s8.16699 5.5 13.5 5.5h66c5.33301 0 9.83301 -2 13.5 -6s5.5 -8.33301 5.5 -13v-662
c0 -4.66699 -1.83301 -9 -5.5 -13s-8.16699 -6 -13.5 -6h-66c-5.33301 -0 -9.83301 1.83301 -13.5 5.5s-5.5 8.16699 -5.5 13.5v289h-366v-289c0 -5.33301 -1.83301 -9.83301 -5.5 -13.5s-8.16699 -5.5 -13.5 -5.5h-66c-5.33301 0 -9.83301 2 -13.5 6s-5.5 8.33301 -5.5 13z
" />
    <glyph glyph-name="I" unicode="I" horiz-adv-x="286" 
d="M91 19v662c0 4.66699 1.83301 9 5.5 13s8.16699 6 13.5 6h66c5.33301 0 9.83301 -2 13.5 -6s5.5 -8.33301 5.5 -13v-662c0 -4.66699 -1.83301 -9 -5.5 -13s-8.16699 -6 -13.5 -6h-66c-5.33301 0 -9.83301 2 -13.5 6s-5.5 8.33301 -5.5 13z" />
    <glyph glyph-name="J" unicode="J" horiz-adv-x="462" 
d="M19 63c-5.33301 8.66699 -4.66602 17 2.00098 25l36 39c11.333 10 22 9.33301 32 -2c25.333 -28.667 52.666 -43 81.999 -43c28 0 51.833 9.16699 71.5 27.5s29.5 47.833 29.5 88.5v483c0 5.33301 1.83301 9.83301 5.5 13.5s8.16699 5.5 13.5 5.5h66
c5.33301 0 9.83301 -1.83301 13.5 -5.5s5.5 -8.16699 5.5 -13.5v-482c0 -67.333 -19 -119 -57 -155s-87.333 -54 -148 -54c-62 0 -112.667 24.333 -152 73z" />
    <glyph glyph-name="K" unicode="K" horiz-adv-x="621" 
d="M91 24l0.00195312 652c0 6.66699 2.33301 12.334 7 17.001s10.334 7 17.001 7h58c6.66699 0 12.334 -2.33301 17.001 -7s7 -10.334 7 -17.001v-277l282 291c5.33301 6.66699 11.666 10 18.999 10h75c9.33301 0 15.666 -4.16699 18.999 -12.5
s1.66602 -16.166 -5.00098 -23.499l-289 -294l306 -337c4.66699 -4.66699 5.33398 -11.334 2.00098 -20.001s-10 -13 -20 -13h-80c-8.66699 -0 -14.667 2.33301 -18 7l-291 328v-311c0 -6.66699 -2.33301 -12.334 -7 -17.001s-10.334 -7 -17.001 -7h-58
c-6.66699 0 -12.334 2.33301 -17.001 7s-7 10.334 -7 17.001z" />
    <glyph glyph-name="L" unicode="L" horiz-adv-x="501" 
d="M91 19v662c0 5.33301 1.83301 9.83301 5.5 13.5s8.16699 5.5 13.5 5.5h66c5.33301 0 9.83301 -2 13.5 -6s5.5 -8.33301 5.5 -13v-588h271c5.33301 0 9.83301 -1.83301 13.5 -5.5s5.5 -8.16699 5.5 -13.5v-55c0 -5.33301 -1.83301 -9.83301 -5.5 -13.5
s-8.16699 -5.5 -13.5 -5.5h-356c-5.33301 -0 -9.83301 1.83301 -13.5 5.5s-5.5 8.16699 -5.5 13.5z" />
    <glyph glyph-name="M" unicode="M" horiz-adv-x="869" 
d="M49 23l124.001 672c2.66699 10 8.66699 15 18 15h16c8.66699 0 14.334 -3.66699 17.001 -11l209 -511h4l208 511c2.66699 7.33301 8.33398 11 17.001 11h16c9.33301 0 15.333 -5 18 -15l123 -672c3.33301 -15.333 -2.66699 -23 -18 -23h-65c-10 0 -16.333 4.66699 -19 14
l-74 447h-3l-180 -460c-2.66699 -7.33301 -8.33398 -11 -17.001 -11h-18c-8.66699 0 -14.334 3.66699 -17.001 11l-181 460h-4l-72 -447c-0.666992 -3.33301 -2.83398 -6.5 -6.50098 -9.5s-7.5 -4.5 -11.5 -4.5h-65c-14.667 0 -21 7.66699 -19 23z" />
    <glyph glyph-name="N" unicode="N" horiz-adv-x="763" 
d="M91 19v673c0 4.66699 1.83301 8.83398 5.5 12.501s8.16699 5.5 13.5 5.5h8c11.333 0 21.333 -5 30 -15l420 -487h2v473c0 5.33301 1.83301 9.83301 5.5 13.5s8.16699 5.5 13.5 5.5h64c4.66699 0 9 -2 13 -6s6 -8.33301 6 -13v-673
c0 -4.66699 -1.83301 -8.83398 -5.5 -12.501s-8.16699 -5.5 -13.5 -5.5h-9c-11.333 0 -21 4.66699 -29 14l-421 502h-2v-487c0 -5.33301 -1.83301 -9.83301 -5.5 -13.5s-8.16699 -5.5 -13.5 -5.5h-63c-5.33301 0 -9.83301 2 -13.5 6s-5.5 8.33301 -5.5 13z" />
    <glyph glyph-name="O" unicode="O" horiz-adv-x="815" 
d="M48 349c0 100 34.833 185.167 104.5 255.5s154.5 105.5 254.5 105.5s185 -35.167 255 -105.5s105 -155.5 105 -255.5s-35 -184.833 -105 -254.5s-155 -104.5 -255 -104.5s-184.833 34.833 -254.5 104.5s-104.5 154.5 -104.5 254.5zM148 349
c0 -71.333 25.5 -132.833 76.5 -184.5s111.833 -77.5 182.5 -77.5c71.333 0 132.5 25.833 183.5 77.5s76.5 113.167 76.5 184.5s-25.5 133.166 -76.5 185.499s-112.167 78.5 -183.5 78.5c-70.667 0 -131.5 -26.167 -182.5 -78.5s-76.5 -114.166 -76.5 -185.499z" />
    <glyph glyph-name="P" unicode="P" horiz-adv-x="591" 
d="M91 19v662c0 5.33301 1.83301 9.83301 5.5 13.5s8.16699 5.5 13.5 5.5h228c61.333 0 114 -21.667 158 -65s66 -95.333 66 -156c0 -62 -21.833 -115 -65.5 -159s-96.167 -66 -157.5 -66h-145v-235c0 -4.66699 -2 -9 -6 -13s-8.33301 -6 -13 -6h-65
c-5.33301 -0 -9.83301 1.83301 -13.5 5.5s-5.5 8.16699 -5.5 13.5zM194 352h142c34.667 0 63.834 12.333 87.501 37s35.5 55 35.5 91c0 34 -11.833 62.5 -35.5 85.5s-52.834 34.5 -87.501 34.5h-142v-248z" />
    <glyph glyph-name="Q" unicode="Q" horiz-adv-x="815" 
d="M48 349c0 100 34.833 185.168 104.5 255.501s154.5 105.5 254.5 105.5s185 -35.167 255 -105.5s105 -155.5 105 -255.5c0 -70 -18.667 -134 -56 -192s-86.666 -102.333 -147.999 -133l121 -192c4.66699 -6.66699 5.16699 -13.334 1.5 -20.001s-9.5 -10 -17.5 -10h-78
c-6.66699 0 -12 3.33301 -16 10l-108 182c-16.667 -2.66699 -36.334 -4 -59.001 -4c-100 0 -184.833 34.833 -254.5 104.5s-104.5 154.5 -104.5 254.5zM148 349.001c0 -71.333 25.5 -132.666 76.5 -183.999s111.833 -77 182.5 -77c71.333 0 132.5 25.667 183.5 77
s76.5 112.666 76.5 183.999s-25.5 133.166 -76.5 185.499s-112.167 78.5 -183.5 78.5c-70.667 0 -131.5 -26.167 -182.5 -78.5s-76.5 -114.166 -76.5 -185.499z" />
    <glyph glyph-name="R" unicode="R" horiz-adv-x="655" 
d="M91 19v662c0 5.33301 1.83301 9.83301 5.5 13.5s8.16699 5.5 13.5 5.5h272c60 0 111.333 -20.833 154 -62.5s64 -92.167 64 -151.5c0 -45.333 -13.5 -86 -40.5 -122s-62.833 -63 -107.5 -81l137 -254c4 -6.66699 4.16699 -13.167 0.5 -19.5s-9.5 -9.5 -17.5 -9.5h-75
c-10 -0 -17 4.33301 -21 13l-131 261h-151v-255c0 -4.66699 -2 -9 -6 -13s-8.33301 -6 -13 -6h-65c-5.33301 -0 -9.83301 1.83301 -13.5 5.5s-5.5 8.16699 -5.5 13.5zM196 360h178c32.667 0 61.167 12.167 85.5 36.5s36.5 53.5 36.5 87.5c0 32 -12.167 59.833 -36.5 83.5
s-52.833 35.5 -85.5 35.5h-178v-243z" />
    <glyph glyph-name="S" unicode="S" horiz-adv-x="539" 
d="M59 69c-11.333 10 -13.333 20.667 -6 32l26 41c4 6.66699 9.33301 10.834 16 12.501s12.667 0.166992 18 -4.5c20 -16.667 35.5 -28.834 46.5 -36.501s26.667 -15 47 -22s42.5 -10.5 66.5 -10.5c34 0 61.333 9 82 27s31 40 31 66c0 28.667 -12.167 53.667 -36.5 75
s-62.5 42.666 -114.5 63.999c-58.667 24.667 -103.667 52.834 -135 84.501s-47 74.167 -47 127.5c0 20.667 4.16699 41.334 12.5 62.001s20.666 40.5 36.999 59.5s39.166 34.333 68.499 46s63 17.5 101 17.5c67.333 0 129 -19.667 185 -59c13.333 -8.66699 15.333 -20 6 -34
l-25 -38c-9.33301 -15.333 -21 -18.666 -35 -9.99902c-18 11.333 -31.667 19.666 -41 24.999s-22.833 10.833 -40.5 16.5s-35.5 8.5 -53.5 8.5c-38 0 -66.333 -9.33301 -85 -28s-28 -39.334 -28 -62.001c0 -27.333 10.333 -50.666 31 -69.999s52.667 -38 96 -56
c69.333 -28 122.5 -58.5 159.5 -91.5s55.5 -77.167 55.5 -132.5c0 -52.667 -21.167 -97.334 -63.5 -134.001s-95.5 -55 -159.5 -55c-36.667 0 -72.167 6 -106.5 18s-58.666 23 -72.999 33s-26.166 19.333 -35.499 28z" />
    <glyph glyph-name="T" unicode="T" horiz-adv-x="520" 
d="M208 19v587h-163c-5.33301 0 -9.83301 1.83301 -13.5 5.5s-5.5 8.16699 -5.5 13.5v56c0 5.33301 1.83301 9.83301 5.5 13.5s8.16699 5.5 13.5 5.5h430c5.33301 0 9.83301 -1.83301 13.5 -5.5s5.5 -8.16699 5.5 -13.5v-56c0 -5.33301 -1.83301 -9.83301 -5.5 -13.5
s-8.16699 -5.5 -13.5 -5.5h-163v-587c0 -4.66699 -2 -9 -6 -13s-8.33301 -6 -13 -6h-66c-4.66699 0 -9 2 -13 6s-6 8.33301 -6 13z" />
    <glyph glyph-name="U" unicode="U" horiz-adv-x="712" 
d="M84 253l0.00195312 428c0 4.66699 2 9 6 13s8.33301 6 13 6h67c5.33301 0 9.83301 -1.83301 13.5 -5.5s5.5 -8.16699 5.5 -13.5v-421c0 -50.667 15 -91.667 45 -123s70.333 -47 121 -47c51.333 0 92.166 15.5 122.499 46.5s45.5 71.5 45.5 121.5v423
c0 5.33301 1.83301 9.83301 5.5 13.5s8.16699 5.5 13.5 5.5h67c4.66699 0 9 -2 13 -6s6 -8.33301 6 -13v-428c0 -76 -25.833 -138.833 -77.5 -188.5s-116.834 -74.5 -195.501 -74.5s-143.5 24.833 -194.5 74.5s-76.5 112.5 -76.5 188.5z" />
    <glyph glyph-name="V" unicode="V" horiz-adv-x="665" 
d="M310 1l-305.004 673c-3.33301 6.66699 -3.16602 12.667 0.500977 18s9.16699 8 16.5 8h71c8.66699 0 14.334 -3.66699 17.001 -11l220 -495h5l221 495c2.66699 7.33301 8.33398 11 17.001 11h71c7.33301 0 12.833 -2.66699 16.5 -8s3.83398 -11.333 0.500977 -18
l-307 -673c-4 -7.33301 -9.66699 -11 -17 -11h-10c-7.33301 0 -13 3.66699 -17 11z" />
    <glyph glyph-name="W" unicode="W" horiz-adv-x="886" 
d="M215 4l-188.998 672c-2 6.66699 -1.33301 12.334 2 17.001s8.66602 7 15.999 7h67c9.33301 0 15.333 -4.66699 18 -14l121 -459h4l163 472c2.66699 7.33301 8.33398 11 17.001 11h18c8.66699 0 14.334 -3.66699 17.001 -11l165 -472h4l119 459
c2.66699 9.33301 8.66699 14 18 14h67c7.33301 0 12.666 -2.33301 15.999 -7s4 -10.334 2 -17.001l-189 -672c-2 -9.33301 -8 -14 -18 -14h-16c-8.66699 0 -14.334 3.66699 -17.001 11l-176 497h-5l-173 -497c-2.66699 -7.33301 -8.33398 -11 -17.001 -11h-16
c-10 0 -16 4.66699 -18 14z" />
    <glyph glyph-name="X" unicode="X" horiz-adv-x="596" 
d="M29 28l206.003 331l-198 313c-4 6.66699 -4.33301 13 -1 19s9.33301 9 18 9h85c8 0 13.667 -3 17 -9l139 -239h3l143 239c3.33301 6 8.66602 9 15.999 9h85c8.66699 0 14.667 -3 18 -9s3 -12.333 -1 -19l-198 -313l205 -331c4 -6.66699 4.33301 -13 1 -19
s-9.33301 -9 -18 -9h-77c-8 0 -13.667 3 -17 9l-156 256h-4l-154 -256c-4.66699 -6 -10.334 -9 -17.001 -9h-77c-8.66699 0 -14.834 3 -18.501 9s-3.5 12.333 0.5 19z" />
    <glyph glyph-name="Y" unicode="Y" horiz-adv-x="583" 
d="M291 438h2l180 253c4.66699 6 10 9 16 9h75c8 0 13.667 -3.16699 17 -9.5s3 -12.833 -1 -19.5l-237 -333v-319c0 -4.66699 -1.83301 -9 -5.5 -13s-8.16699 -6 -13.5 -6h-66c-5.33301 -0 -9.83301 1.83301 -13.5 5.5s-5.5 8.16699 -5.5 13.5v318l-234 334
c-4 6.66699 -4.33301 13.167 -1 19.5s9 9.5 17 9.5h74c6 0 11.333 -3 16 -9z" />
    <glyph glyph-name="Z" unicode="Z" horiz-adv-x="533" 
d="M45 0c-4.66699 0 -9 2.00098 -13 6.00098s-6 8.33301 -6 13c0 12 2.66699 22.667 8 32l322 549v4h-282c-5.33301 0 -9.83301 2 -13.5 6s-5.5 8.33301 -5.5 13v58c0 4.66699 1.83301 9 5.5 13s8.16699 6 13.5 6h411c4.66699 0 9 -2 13 -6s6 -8.33301 6 -13
c0 -8.66699 -2.33301 -17.334 -7 -26.001l-324 -559v-1h292c5.33301 0 9.83301 -1.83301 13.5 -5.5s5.5 -8.16699 5.5 -13.5v-57c0 -5.33301 -1.83301 -9.83301 -5.5 -13.5s-8.16699 -5.5 -13.5 -5.5h-420z" />
    <glyph glyph-name="bracketleft" unicode="[" horiz-adv-x="340" 
d="M163 -157l134 0.000976562c5.33301 0 9.83301 -1.83301 13.5 -5.5s5.5 -7.83398 5.5 -12.501v-44c0 -4.66699 -2 -9 -6 -13s-8.33301 -6 -13 -6h-206c-4.66699 0 -9 2 -13 6s-6 8.33301 -6 13v900c0 4.66699 2 9 6 13s8.33301 6 13 6h206c4.66699 0 9 -2 13 -6
s6 -8.33301 6 -13v-44c0 -5.33301 -1.83301 -9.83301 -5.5 -13.5s-8.16699 -5.5 -13.5 -5.5h-134v-775z" />
    <glyph glyph-name="backslash" unicode="\" horiz-adv-x="401" 
d="M253 13l-194.998 662c-2 6.66699 -1.33301 12.5 2 17.5s8.66602 7.5 15.999 7.5h54c9.33301 0 15.333 -4.33301 18 -13l196 -662c2 -6.66699 1.16699 -12.5 -2.5 -17.5s-8.83398 -7.5 -15.501 -7.5h-55c-9.33301 -0 -15.333 4.33301 -18 13z" />
    <glyph glyph-name="bracketright" unicode="]" horiz-adv-x="341" 
d="M44 -157l133 -0.000976562v775h-133c-5.33301 0 -9.83301 1.83301 -13.5 5.5s-5.5 8.16699 -5.5 13.5v44c0 4.66699 1.83301 9 5.5 13s8.16699 6 13.5 6h206c5.33301 0 9.83301 -2 13.5 -6s5.5 -8.33301 5.5 -13v-900c0 -4.66699 -1.83301 -9 -5.5 -13
s-8.16699 -6 -13.5 -6h-206c-5.33301 0 -9.83301 2 -13.5 6s-5.5 8.33301 -5.5 13v44c0 4.66699 1.83301 8.83398 5.5 12.501s8.16699 5.5 13.5 5.5z" />
    <glyph glyph-name="asciicircum" unicode="^" horiz-adv-x="524" 
d="M56 391c-8 0 -13.666 3 -16.999 9s-3 12.333 1 19l205 285c4 6.66699 9.66699 10 17 10h5c7.33301 0 13 -3.33301 17 -10l199 -285c4 -6.66699 4.33301 -13 1 -19s-9 -9 -17 -9h-51c-6.66699 0 -12.334 3.33301 -17.001 10l-136 190l-138 -190
c-4 -6.66699 -10 -10 -18 -10h-51z" />
    <glyph glyph-name="underscore" unicode="_" horiz-adv-x="539" 
d="M91 -29c0 12.667 6.33301 19 19 19h319c12.667 0 19 -6.33301 19 -19v-28c0 -5.33301 -1.83301 -9.66602 -5.5 -12.999s-8.16699 -5 -13.5 -5h-319c-5.33301 0 -9.83301 1.66699 -13.5 5s-5.5 7.66602 -5.5 12.999v28z" />
    <glyph glyph-name="grave" unicode="`" horiz-adv-x="302" 
d="M235 543l-168 72.001c-9.33301 4.66699 -11.333 12.667 -6 24l23 44c2 4 6.16699 6.16699 12.5 6.5s10.833 -0.833984 13.5 -3.50098l157 -91c8 -4 10 -10.333 6 -19l-14 -29c-4 -8.66699 -12 -10 -24 -4z" />
    <glyph glyph-name="a" unicode="a" horiz-adv-x="477" 
d="M35 143c0 44 16.334 79.835 49.001 107.502s78 41.5 136 41.5c14 0 28.833 -1.16699 44.5 -3.5s27.5 -4.5 35.5 -6.5l13 -4c1.33301 37.333 -3.5 64.333 -14.5 81s-30.833 25 -59.5 25c-36 0 -79 -7.33301 -129 -22c-14 -2.66699 -22.667 3.66602 -26 18.999l-9 38
c-2.66699 13.333 2.33301 22.333 15 27c46 17.333 99 26 159 26c35.333 0 64.333 -4.83301 87 -14.5s39.167 -24.834 49.5 -45.501s17.166 -41.5 20.499 -62.5s5 -48.167 5 -81.5v-246c0 -6 -2.33301 -11.167 -7 -15.5s-9.66699 -6.5 -15 -6.5h-33
c-8 -0 -14.333 5.33301 -19 16l-11 31c-40 -38.667 -87.333 -58 -142 -58c-44 0 -79.833 13.833 -107.5 41.5s-41.5 65.167 -41.5 112.5zM133.001 144.002c0 -21.333 6.16797 -38.833 18.501 -52.5s30.166 -20.5 53.499 -20.5c21.333 0 42.5 6 63.5 18s35.5 24.667 43.5 38
v77c-4.66699 2.66699 -15.167 6 -31.5 10s-33.833 6 -52.5 6c-28 0 -50.833 -6.83301 -68.5 -20.5s-26.5 -32.167 -26.5 -55.5z" />
    <glyph glyph-name="b" unicode="b" horiz-adv-x="556" 
d="M70 22v656.001c0 5.33301 2.16699 10.333 6.5 15s9.5 7 15.5 7h57c5.33301 0 10.333 -2.33301 15 -7s7 -9.66699 7 -15v-230c0.666992 0 4 1.16699 10 3.5s12.167 4.5 18.5 6.5s14.166 4.16699 23.499 6.5s19.5 4.16602 30.5 5.49902s22.167 2 33.5 2
c64 0 117.833 -23.333 161.5 -70s65.5 -103.667 65.5 -171c0 -66.667 -20.833 -123.667 -62.5 -171s-92.5 -71 -152.5 -71c-27.333 0 -53.666 5.5 -78.999 16.5s-44 21.833 -56 32.5l-17 16l-10 -34c-3.33301 -13.333 -10.333 -20 -21 -20h-24
c-6 0 -11.167 2.16699 -15.5 6.5s-6.5 9.5 -6.5 15.5zM170 151.001c3.33301 -6.66699 8.83398 -14.5 16.501 -23.5s20.5 -18.5 38.5 -28.5s37.667 -15 59 -15c36.667 0 67.5 14.5 92.5 43.5s37.5 63.5 37.5 103.5c0 39.333 -13.5 73.5 -40.5 102.5s-59.5 43.5 -97.5 43.5
c-18 0 -35.833 -2.16699 -53.5 -6.5s-30.834 -8.5 -39.501 -12.5l-13 -6v-201z" />
    <glyph glyph-name="c" unicode="c" horiz-adv-x="492" 
d="M41 230c0 67.333 23.333 124.499 70 171.499s102.334 70.5 167.001 70.5c68.667 0 124.667 -26.667 168 -80c9.33301 -11.333 8 -22.333 -4 -33l-36 -33c-8.66699 -8 -18.667 -6.33301 -30 5c-28 30.667 -59.667 46 -95 46c-39.333 0 -72.5 -14 -99.5 -42
s-40.5 -62.667 -40.5 -104s13.167 -76.166 39.5 -104.499s58.833 -42.5 97.5 -42.5c11.333 0 21.666 1 30.999 3s18.166 5.66699 26.499 11s14.5 9.5 18.5 12.5s10.167 8.5 18.5 16.5l14.5 14c10 10 20.333 10.667 31 2l31 -25c12.667 -11.333 15.334 -22.333 8.00098 -33
c-42.667 -64 -102.667 -96 -180 -96c-65.333 0 -121 23 -167 69s-69 103.333 -69 172z" />
    <glyph glyph-name="d" unicode="d" horiz-adv-x="552" 
d="M42 231c0 68 21.332 125.166 63.999 171.499s95.667 69.5 159 69.5c11.333 0 22.5 -0.666992 33.5 -2s21.167 -3.16602 30.5 -5.49902s17.166 -4.5 23.499 -6.5s12.5 -4.16699 18.5 -6.5s9.33301 -3.5 10 -3.5v230c0 5.33301 2.33301 10.333 7 15s9.66699 7 15 7h57
c6 0 11.167 -2.33301 15.5 -7s6.5 -9.66699 6.5 -15v-656c0 -6 -2.16699 -11.167 -6.5 -15.5s-9.5 -6.5 -15.5 -6.5h-24c-10.667 0 -17.667 6.66699 -21 20l-10 34c-4.66699 -4.66699 -11.167 -10.667 -19.5 -18s-25.666 -17 -51.999 -29s-53.166 -18 -80.499 -18
c-60 0 -110.167 23.667 -150.5 71s-60.5 104.333 -60.5 171zM141.999 230.999c0 -40 11.8311 -74.5 35.498 -103.5s53.5 -43.5 89.5 -43.5c30.667 0 56.334 8.33301 77.001 25s33.334 31 38.001 43v198c-30.667 18 -66 27 -106 27c-37.333 0 -69 -14.333 -95 -43
s-39 -63 -39 -103z" />
    <glyph glyph-name="e" unicode="e" horiz-adv-x="518" 
d="M42 231c0 66.667 21.334 123.501 64.001 170.501s98 70.5 166 70.5c60 0 110.167 -20 150.5 -60s60.5 -90.667 60.5 -152c0 -10.667 -0.666992 -21.334 -2 -32.001c-1.33301 -13.333 -8.33301 -20 -21 -20h-319c0.666992 -32.667 14.167 -61.834 40.5 -87.501
s58.833 -38.5 97.5 -38.5s76.334 13 113.001 39c12 8 21 7.33301 27 -2l27 -42c9.33301 -11.333 8.66602 -21.666 -2.00098 -30.999c-43.333 -38 -100.333 -57 -171 -57c-68.667 0 -124.334 23.333 -167.001 70s-64 104 -64 172zM146.001 282.001l238 0.00195312
c-1.33301 29.333 -12.5 54.166 -33.5 74.499s-47.833 30.5 -80.5 30.5c-35.333 0 -64 -9.83301 -86 -29.5s-34.667 -44.834 -38 -75.501z" />
    <glyph glyph-name="f" unicode="f" horiz-adv-x="382" 
d="M109 22l0.00195312 346.998h-60c-6 0 -11.167 2.16699 -15.5 6.5s-6.5 9.5 -6.5 15.5v49c0 14.667 7.33301 22 22 22h60v53c0 62.667 14.667 110.834 44 144.501s71.666 50.5 126.999 50.5c53.333 0 97 -15.333 131 -46c9.33301 -8 10.666 -16.667 3.99902 -26l-29 -42
c-7.33301 -11.333 -17.333 -12.666 -30 -3.99902c-24 15.333 -48.667 23 -74 23c-48.667 0 -73 -33.333 -73 -100v-53h131c6 0 11.167 -2 15.5 -6s6.5 -9.33301 6.5 -16v-49c0 -5.33301 -2.16699 -10.333 -6.5 -15s-9.5 -7 -15.5 -7h-131v-347
c0 -6 -2.33301 -11.167 -7 -15.5s-9.66699 -6.5 -15 -6.5h-56c-5.33301 0 -10.333 2.16699 -15 6.5s-7 9.5 -7 15.5z" />
    <glyph glyph-name="g" unicode="g" horiz-adv-x="554" 
d="M142 231c0 -40 13.168 -74.5 39.501 -103.5s58.166 -43.5 95.499 -43.5c18 0 36 3 54 9s31.333 12.333 40 19l13 9v191c-7.33301 13.333 -21 27.5 -41 42.5s-43.333 22.5 -70 22.5c-38.667 0 -70.167 -14.333 -94.5 -43s-36.5 -63 -36.5 -103zM484.001 440v-443.001
c0 -69.333 -19.833 -122.666 -59.5 -159.999s-91.167 -56 -154.5 -56c-34 0 -65.833 6.33301 -95.5 19s-51.167 25.667 -64.5 39c-4 2.66699 -6.33301 6.83398 -7 12.501s0 10.167 2 13.5l24 44c7.33301 14.667 17.666 17 30.999 7c35.333 -28.667 71.333 -43 108 -43
c34 0 61.667 9.66699 83 29s32 51 32 95v25c-35.333 -22 -74.666 -33 -117.999 -33c-62.667 0 -115.5 23.333 -158.5 70s-64.5 104 -64.5 172c0 66.667 20.667 123.5 62 170.5s93.333 70.5 156 70.5c26 0 50.833 -4.33301 74.5 -13s40 -16.334 49 -23.001s16.5 -13 22.5 -19
l12 29c3.33301 10.667 9 16 17 16h27c6 0 11.167 -2.33301 15.5 -7s6.5 -9.66699 6.5 -15z" />
    <glyph glyph-name="h" unicode="h" horiz-adv-x="548" 
d="M70 22v656c0 5.33301 2.16699 10.333 6.5 15s9.5 7 15.5 7h56c5.33301 0 10.333 -2.33301 15 -7s7 -9.66699 7 -15v-254c44 32 88.667 48 134 48c119.333 0 179 -72.667 179 -218v-232c0 -6 -2.33301 -11.167 -7 -15.5s-9.66699 -6.5 -15 -6.5h-56
c-6 0 -11.167 2.16699 -15.5 6.5s-6.5 9.5 -6.5 15.5v234c0 38.667 -7.83301 68.5 -23.5 89.5s-38.5 31.5 -68.5 31.5c-31.333 0 -57.5 -7.5 -78.5 -22.5s-35.167 -29.833 -42.5 -44.5v-288c0 -14.667 -7.66699 -22 -23 -22h-55c-6 0 -11.167 2.16699 -15.5 6.5
s-6.5 9.5 -6.5 15.5z" />
    <glyph glyph-name="i" unicode="i" horiz-adv-x="240" 
d="M70 22v418c0 5.33301 2.16699 10.333 6.5 15s9.5 7 15.5 7h56c5.33301 0 10.333 -2.33301 15 -7s7 -9.66699 7 -15v-418c0 -6 -2.33301 -11.167 -7 -15.5s-9.66699 -6.5 -15 -6.5h-56c-6 0 -11.167 2.16699 -15.5 6.5s-6.5 9.5 -6.5 15.5zM120 561
c-18.667 0 -34.334 6.5 -47.001 19.5s-19 28.833 -19 47.5c0 19.333 6.33301 35.5 19 48.5s28.334 19.5 47.001 19.5s34.667 -6.66699 48 -20s20 -29.333 20 -48s-6.66699 -34.5 -20 -47.5s-29.333 -19.5 -48 -19.5z" />
    <glyph glyph-name="j" unicode="j" horiz-adv-x="240" 
d="M170 440l0.000976562 -481.999c0 -54 -10.833 -98.333 -32.5 -133s-49.5 -58.334 -83.5 -71.001c-16 -6 -27.667 -2 -35 12l-21 39c-4 7.33301 -4.83301 14.5 -2.5 21.5s7.16602 12.167 14.499 15.5c40 20 60 54.667 60 104v494c0 6.66699 2.16699 12 6.5 16
s9.5 6 15.5 6h56c6 0 11.167 -2.16699 15.5 -6.5s6.5 -9.5 6.5 -15.5zM120.001 561.001c-18.667 0 -34.334 6.5 -47.001 19.5s-19 28.833 -19 47.5c0 19.333 6.33301 35.5 19 48.5s28.334 19.5 47.001 19.5s34.667 -6.66699 48 -20s20 -29.333 20 -48
s-6.66699 -34.5 -20 -47.5s-29.333 -19.5 -48 -19.5z" />
    <glyph glyph-name="k" unicode="k" horiz-adv-x="497" 
d="M70 22l-0.000976562 655.999c0 5.33301 2.16699 10.333 6.5 15s9.5 7 15.5 7h56c5.33301 0 10.333 -2.33301 15 -7s7 -9.66699 7 -15v-391l178 161c10.667 9.33301 20.334 14 29.001 14h73c9.33301 0 15.166 -4 17.499 -12s0.5 -14.667 -5.5 -20l-187 -176l196 -224
c5.33301 -5.33301 6.83301 -11.666 4.5 -18.999s-8.16602 -11 -17.499 -11h-82c-9.33301 0 -16.333 3 -21 9l-185 215v-202c0 -6 -2.33301 -11.167 -7 -15.5s-9.66699 -6.5 -15 -6.5h-56c-6 0 -11.167 2.16699 -15.5 6.5s-6.5 9.5 -6.5 15.5z" />
    <glyph glyph-name="l" unicode="l" horiz-adv-x="246" 
d="M73 22v656c0 5.33301 2.16699 10.333 6.5 15s9.5 7 15.5 7h56c5.33301 0 10.333 -2.33301 15 -7s7 -9.66699 7 -15v-656c0 -6 -2.33301 -11.167 -7 -15.5s-9.66699 -6.5 -15 -6.5h-56c-6 0 -11.167 2.16699 -15.5 6.5s-6.5 9.5 -6.5 15.5z" />
    <glyph glyph-name="m" unicode="m" horiz-adv-x="833" 
d="M70 22l-0.00195312 417.998c0 5.33301 2.16699 10.333 6.5 15s9.5 7 15.5 7h23c10 0 16.667 -4.66699 20 -14l13 -40c38.667 42.667 87.667 64 147 64c58.667 0 105.667 -24.333 141 -73c48.667 48.667 100.667 73 156 73c65.333 0 111 -19.5 137 -58.5
s39 -92.167 39 -159.5v-232c0 -6 -2 -11.167 -6 -15.5s-9.33301 -6.5 -16 -6.5h-56c-14.667 0 -22 7.33301 -22 22v236c0 79.333 -30.333 119 -91 119c-13.333 0 -25.833 -1.5 -37.5 -4.5s-21.667 -7.16699 -30 -12.5s-15.166 -10.166 -20.499 -14.499
s-10.333 -9.16602 -15 -14.499l-8 -8c2.66699 -13.333 4 -34 4 -62v-239c0 -6 -2.16699 -11.167 -6.5 -15.5s-9.16602 -6.5 -14.499 -6.5h-57c-6.66699 0 -12 2.16699 -16 6.5s-6 9.5 -6 15.5v236c0 79.333 -30.333 119 -91 119c-30 0 -54.667 -7.83301 -74 -23.5
s-31 -30.167 -35 -43.5v-288c0 -6 -2.33301 -11.167 -7 -15.5s-9.66699 -6.5 -15 -6.5h-56c-6 0 -11.167 2.16699 -15.5 6.5s-6.5 9.5 -6.5 15.5z" />
    <glyph glyph-name="n" unicode="n" horiz-adv-x="548" 
d="M70 22v418c0 5.33301 2.16699 10.333 6.5 15s9.5 7 15.5 7h24c10.667 0 17 -4.66699 19 -14l14 -40c6 6.66699 14 14.167 24 22.5s27.333 17.333 52 27s51 14.5 79 14.5c119.333 0 179 -72.667 179 -218v-232c0 -6 -2.33301 -11.167 -7 -15.5s-9.66699 -6.5 -15 -6.5h-56
c-6 0 -11.167 2.16699 -15.5 6.5s-6.5 9.5 -6.5 15.5v236c0 38 -7.66699 67.333 -23 88s-38 31 -68 31c-32 0 -58.833 -7.83301 -80.5 -23.5s-35.5 -30.167 -41.5 -43.5v-288c0 -14.667 -9 -22 -27 -22h-51c-6 0 -11.167 2.16699 -15.5 6.5s-6.5 9.5 -6.5 15.5z" />
    <glyph glyph-name="o" unicode="o" horiz-adv-x="553" 
d="M41 232c0 65.333 23.167 121.666 69.5 168.999s101.833 71 166.5 71c64 0 119.167 -23.667 165.5 -71s69.5 -103.666 69.5 -168.999c0 -66 -23 -123 -69 -171s-101.333 -72 -166 -72s-120.167 24 -166.5 72s-69.5 105 -69.5 171zM139 232c0 -42.667 13.167 -78 39.5 -106
s59.166 -42 98.499 -42c38.667 0 71.167 14.167 97.5 42.5s39.5 63.5 39.5 105.5c0 41.333 -13.167 75.833 -39.5 103.5s-58.833 41.5 -97.5 41.5c-39.333 0 -72.166 -13.833 -98.499 -41.5s-39.5 -62.167 -39.5 -103.5z" />
    <glyph glyph-name="p" unicode="p" horiz-adv-x="554" 
d="M172 21l0.000976562 -237.001c0 -14.667 -8 -22 -24 -22h-56c-6 0 -11.167 2.16699 -15.5 6.5s-6.5 9.5 -6.5 15.5v656c0 5.33301 2.16699 10.333 6.5 15s9.5 7 15.5 7h25c10 0 16.667 -5 20 -15l12 -30c6 6 13.5 12.333 22.5 19s25.333 14.334 49 23.001
s48.167 13 73.5 13c62.667 0 114.667 -23.5 156 -70.5s62 -103.833 62 -170.5c0 -68 -21.333 -125.333 -64 -172s-95.334 -70 -158.001 -70c-44.667 0 -84 10.667 -118 32zM170.001 117.999c30 -22.667 65.668 -33.999 107.001 -33.999c37.333 0 69.166 14.167 95.499 42.5
s39.5 63.166 39.5 104.499c0 42 -12.167 76.833 -36.5 104.5s-55.833 41.5 -94.5 41.5c-29.333 0 -54.333 -8 -75 -24s-32.667 -29.667 -36 -41v-194z" />
    <glyph glyph-name="q" unicode="q" horiz-adv-x="554" 
d="M42 231c0 66.667 20.666 123.501 61.999 170.501s93.333 70.5 156 70.5c26 0 50.833 -4.33301 74.5 -13s40 -16.334 49 -23.001s16.5 -13 22.5 -19l12 29c3.33301 10.667 9 16 17 16h27c6 0 11.167 -2.33301 15.5 -7s6.5 -9.66699 6.5 -15v-656
c0 -6 -2.16699 -11.167 -6.5 -15.5s-9.5 -6.5 -15.5 -6.5h-56c-6 0 -11.333 2 -16 6s-7 9.33301 -7 16v238c-35.333 -22 -74.666 -33 -117.999 -33c-62.667 0 -115.5 23.333 -158.5 70s-64.5 104 -64.5 172zM141.999 231.001c0 -40 13.168 -74.5 39.501 -103.5
s58.166 -43.5 95.499 -43.5c18 0 36 3 54 9s31.333 12.333 40 19l13 9v180c-3.33301 12.667 -15.5 28.5 -36.5 47.5s-45.833 28.5 -74.5 28.5c-38.667 0 -70.167 -14.333 -94.5 -43s-36.5 -63 -36.5 -103z" />
    <glyph glyph-name="r" unicode="r" horiz-adv-x="386" 
d="M70 22l0.00292969 418c0 5.33301 2.16699 10.333 6.5 15s9.5 7 15.5 7h24c10.667 0 17.334 -5.33301 20.001 -16l13 -42c4.66699 6.66699 11.667 14.5 21 23.5s25.166 18.667 47.499 29s46.166 15.5 71.499 15.5c26 0 48.167 -3.66699 66.5 -11s24.166 -18 17.499 -32
l-24 -50c-6 -13.333 -15.333 -17 -28 -11c-10.667 6 -24.667 9 -42 9c-20.667 0 -39.834 -5 -57.501 -15s-30 -19 -37 -27s-11.833 -14.667 -14.5 -20v-293c0 -9.33301 -2.5 -15.333 -7.5 -18s-13.167 -4 -24.5 -4h-46c-6 0 -11.167 2.16699 -15.5 6.5s-6.5 9.5 -6.5 15.5z
" />
    <glyph glyph-name="s" unicode="s" horiz-adv-x="404" 
d="M203 -11c-56 0 -106.667 15.6689 -152 47.002c-10 7.33301 -12.667 15.333 -8 24l21 43c6 12 16 14 30 6c40.667 -22.667 79 -34 115 -34c19.333 0 34.333 4.16699 45 12.5s16 19.166 16 32.499c0 14.667 -7.66699 27.667 -23 39s-40.666 25 -75.999 41
c-40.667 18 -71.667 38 -93 60s-32 50.667 -32 86c0 33.333 12.667 62.666 38 87.999s63.666 38 114.999 38c55.333 0 100.333 -11.333 135 -34c13.333 -9.33301 16.666 -20.666 9.99902 -33.999l-16 -32c-6 -12 -16 -15 -30 -9c-35.333 15.333 -68.333 23 -99 23
c-18.667 0 -33.167 -4 -43.5 -12s-15.5 -17.667 -15.5 -29c0 -14 6.5 -26 19.5 -36s32.833 -20.667 59.5 -32c26 -10.667 46.167 -19.834 60.5 -27.501s29.333 -17.5 45 -29.5s26.834 -25.833 33.501 -41.5s10 -33.834 10 -54.501c0 -37.333 -15 -69.166 -45 -95.499
s-70 -39.5 -120 -39.5z" />
    <glyph glyph-name="t" unicode="t" horiz-adv-x="380" 
d="M101 127l-0.00195312 249.998h-53c-6 0 -11.167 2.16699 -15.5 6.5s-6.5 9.5 -6.5 15.5v41c0 14.667 7.33301 22 22 22h53v129c0 6 2.16699 11.167 6.5 15.5s9.5 6.5 15.5 6.5h57c6 0 11 -2.16699 15 -6.5s6 -9.5 6 -15.5v-129h122c6 0 11.167 -2 15.5 -6
s6.5 -9.33301 6.5 -16v-41c0 -5.33301 -2.16699 -10.333 -6.5 -15s-9.5 -7 -15.5 -7h-122v-246c0 -18 3.16699 -30.333 9.5 -37s15.5 -10 27.5 -10c24.667 0 49.334 7.33301 74.001 22c12.667 7.33301 21.667 4 27 -10l18 -47c4.66699 -10.667 1 -19.667 -11 -27
s-30.167 -14.666 -54.5 -21.999s-48.833 -11 -73.5 -11c-43.333 0 -73.666 11.833 -90.999 35.5s-26 57.834 -26 102.501z" />
    <glyph glyph-name="u" unicode="u" horiz-adv-x="533" 
d="M65 201l-0.000976562 239c0 5.33301 2.33301 10.333 7 15s9.66699 7 15 7h56c6 0 11.167 -2.33301 15.5 -7s6.5 -9.66699 6.5 -15v-246c0 -73.333 30 -110 90 -110c29.333 0 54 9 74 27s31.333 34.333 34 49v280c0 8.66699 2 14.5 6 17.5s10.667 4.5 20 4.5h51
c6 0 11.333 -2.33301 16 -7s7 -9.66699 7 -15v-418c0 -6 -2.33301 -11.167 -7 -15.5s-10 -6.5 -16 -6.5h-24c-9.33301 -0 -16.333 6.33301 -21 19l-12 33l-5 -4c-2.66699 -3.33301 -5 -6 -7 -8s-5.16699 -4.83301 -9.5 -8.5s-8.66602 -7 -12.999 -10
s-9.5 -6.16699 -15.5 -9.5s-12.333 -6.33301 -19 -9s-14 -5.16699 -22 -7.5s-16.667 -4 -26 -5s-19 -1.5 -29 -1.5c-64.667 0 -109.5 18.5 -134.5 55.5s-37.5 89.167 -37.5 156.5z" />
    <glyph glyph-name="v" unicode="v" horiz-adv-x="485" 
d="M220 1l-200 435c-4 6.66699 -4.33301 12.667 -1 18s9.33301 8 18 8h61c9.33301 0 16 -4.33301 20 -13l123 -283h2l129 283c4 8.66699 14.333 13 31 13h45c8.66699 0 14.667 -2.66699 18 -8s3 -11.333 -1 -18l-200 -435c-4 -8 -10.333 -12 -19 -12h-6
c-9.33301 0 -16 4 -20 12z" />
    <glyph glyph-name="w" unicode="w" horiz-adv-x="705" 
d="M167 1l-135.001 435c-3.33301 6.66699 -3.5 12.667 -0.5 18s8.5 8 16.5 8h60c11.333 0 18 -4.66699 20 -14l76 -265h2l125 278c3.33301 7.33301 9.66602 11 18.999 11h7c10.667 0 17.334 -3.66699 20.001 -11l124 -279h2l74 266c4 9.33301 15.667 14 35 14h42
c8 0 13.833 -2.66699 17.5 -8s3.83398 -11.333 0.500977 -18l-132 -435c-2 -8 -9 -12 -21 -12h-4c-10 0 -16.667 3.66699 -20 11l-141 314h-2l-142 -314c-2.66699 -7.33301 -8.66699 -11 -18 -11h-6c-10.667 0 -17 4 -19 12z" />
    <glyph glyph-name="x" unicode="x" horiz-adv-x="490" 
d="M34 30l146.999 204.999l-143 195c-6 8 -7.33301 15.333 -4 22s9.33301 10 18 10h69c12.667 0 21.667 -4.33301 27 -13l96 -143h2l97 143c6 8.66699 15 13 27 13h70c9.33301 0 15.333 -3.16699 18 -9.5s1.33398 -13.166 -3.99902 -20.499l-143 -195l144 -207
c5.33301 -7.33301 6.5 -14.166 3.5 -20.499s-8.83301 -9.5 -17.5 -9.5h-67c-10 0 -18 4.66699 -24 14l-104 153h-2l-107 -158c-3.33301 -6 -9.33301 -9 -18 -9h-72c-10 0 -16.167 3.16699 -18.5 9.5s-0.5 13.166 5.5 20.499z" />
    <glyph glyph-name="y" unicode="y" horiz-adv-x="497" 
d="M182 16l-159.002 416c-3.33301 8 -3 15 1 21s10.333 9 19 9h66c10 0 16.667 -4.33301 20 -13l107 -317h2l130 317c3.33301 8.66699 11.333 13 24 13h62c9.33301 0 15.833 -3 19.5 -9s3.83398 -13 0.500977 -21l-282 -656c-5.33301 -9.33301 -11.666 -14 -18.999 -14h-64
c-8.66699 0 -15.167 3.16699 -19.5 9.5s-4.5 13.5 -0.5 21.5z" />
    <glyph glyph-name="z" unicode="z" horiz-adv-x="414" 
d="M56 0c-6 0 -11.167 2.16699 -15.5 6.5s-6.5 9.5 -6.5 15.5c0 8 2.66699 16.667 8 26l195 319v2h-171c-5.33301 0 -10.166 2.33301 -14.499 7s-6.5 9.66699 -6.5 15v49c0 6.66699 2.16699 12 6.5 16s9.16602 6 14.499 6h298c6.66699 0 12.167 -2 16.5 -6
s6.5 -8.66699 6.5 -14c0 -4 -1 -8 -3 -12l-202 -336v-3h159c14.667 0 22 -7.33301 22 -22v-47c0 -6 -2 -11.167 -6 -15.5s-9.33301 -6.5 -16 -6.5h-285z" />
    <glyph glyph-name="braceleft" unicode="{" horiz-adv-x="398" 
d="M109 -14l-0.000976562 132.001c0 20 -7.66699 36.5 -23 49.5s-30.666 20.833 -45.999 23.5c-4 0.666992 -7.5 2.83398 -10.5 6.50098s-4.5 7.5 -4.5 11.5v40c0 8 4.66699 13.333 14 16c12 1.33301 26.667 9 44 23s26 30.667 26 50v134c0 154.667 82 233.667 246 237
c13.333 1.33301 20 -4.33398 20 -17.001l2 -41c0.666992 -4 -0.5 -7.83301 -3.5 -11.5s-6.16699 -5.83398 -9.5 -6.50098c-106 -18 -159 -71.667 -159 -161v-109c0 -21.333 -3.16699 -40.666 -9.5 -57.999s-14.5 -31 -24.5 -41s-18.5 -17.5 -25.5 -22.5
s-14.167 -8.83301 -21.5 -11.5v-3c54 -23.333 81 -67 81 -131v-110c0 -87.333 53 -140 159 -158c10 -1.33301 14.333 -7.33301 13 -18l-2 -41c0 -4.66699 -2 -8.83398 -6 -12.501s-8.66699 -5.16699 -14 -4.5c-164 3.33301 -246 81.333 -246 234z" />
    <glyph glyph-name="bar" unicode="|" horiz-adv-x="189" 
d="M71 -220l0.000976562 961c0 5.33301 1.83301 9.83301 5.5 13.5s8.16699 5.5 13.5 5.5h10c5.33301 0 9.66602 -1.83301 12.999 -5.5s5 -8.16699 5 -13.5v-961c0 -4.66699 -1.83301 -8.83398 -5.5 -12.501s-8.16699 -5.5 -13.5 -5.5h-9
c-5.33301 0 -9.83301 1.83301 -13.5 5.5s-5.5 7.83398 -5.5 12.501z" />
    <glyph glyph-name="braceright" unicode="}" horiz-adv-x="398" 
d="M193 -12l-0.000976562 109.998c0 64 27 107.667 81 131v3c-7.33301 2.66699 -14.5 6.5 -21.5 11.5s-15.5 12.5 -25.5 22.5s-18.167 23.667 -24.5 41s-9.5 36.666 -9.5 57.999v109c0 88 -53 141 -159 159c-3.33301 0.666992 -6.5 2.83398 -9.5 6.50098
s-4.16699 7.5 -3.5 11.5l2 41c0 12.667 6.66699 18.334 20 17.001c164 -3.33301 246 -81.666 246 -234.999v-134c0 -19.333 8.66699 -36 26 -50s32 -21.667 44 -23c9.33301 -2.66699 14 -8 14 -16v-40c0 -4 -1.5 -7.83301 -4.5 -11.5s-6.5 -5.83398 -10.5 -6.50098
c-15.333 -2.66699 -30.666 -10.5 -45.999 -23.5s-23 -29.5 -23 -49.5v-132c0 -154 -82 -232.667 -246 -236c-5.33301 -0.666992 -10 0.833008 -14 4.5s-6 7.83398 -6 12.501l-2 41c-1.33301 10.667 3 16.667 13 18c106 18 159 71.333 159 160z" />
    <glyph glyph-name="asciitilde" unicode="~" horiz-adv-x="551" 
d="M82 212c-4 4 -9.66895 8.99902 -17.002 14.999l-17 14c-7.33301 8.66699 -8 16.667 -2 24l7.5 10.5c3 4.33301 9.5 12 19.5 23s20.333 20.667 31 29s23.667 16 39 23s30.333 10.5 45 10.5c8.66699 0 17.5 -1.16699 26.5 -3.5s15.833 -4.16602 20.5 -5.49902
s12.167 -5.16602 22.5 -11.499s15.833 -9.66602 16.5 -9.99902s6.66699 -4.5 18 -12.5c31.333 -22 55.666 -33 72.999 -33c26.667 0 53 19 79 57c8.66699 10.667 18 11.667 28 3l32 -29c8.66699 -7.33301 9.33398 -15.333 2.00098 -24l-7.5 -10.5
c-3 -4.33301 -9.5 -11.833 -19.5 -22.5s-20.167 -20.167 -30.5 -28.5s-23.166 -16 -38.499 -23s-30.333 -10.5 -45 -10.5c-14 0 -28.667 2.83301 -44 8.5s-25.5 10.167 -30.5 13.5l-32.5 21c-1.33301 1.33301 -4 3.33301 -8 6s-7.16699 4.66699 -9.5 6
s-5.33301 3.33301 -9 6s-7 4.66699 -10 6s-6.5 2.66602 -10.5 3.99902s-7.83301 2.33301 -11.5 3s-7.5 1 -11.5 1c-28 0 -54.333 -19 -79 -57c-3.33301 -4.66699 -7.66602 -7.33398 -12.999 -8.00098s-10 1 -14 5z" />
    <glyph glyph-name="uni00A0" unicode="&#xa0;" horiz-adv-x="240" 
 />
    <glyph glyph-name="exclamdown" unicode="&#xa1;" horiz-adv-x="242" 
d="M122 333c-19.333 0 -35.833 6.83496 -49.5 20.502s-20.5 30.167 -20.5 49.5s6.83301 35.666 20.5 48.999s30.167 20 49.5 20c18.667 0 34.834 -6.83301 48.501 -20.5s20.5 -29.834 20.5 -48.501c0 -19.333 -6.83301 -35.833 -20.5 -49.5s-29.834 -20.5 -48.501 -20.5z
M91 174.002c0.666992 4 2.83008 7.66699 6.49707 11s7.83398 5 12.501 5h22c4.66699 0 8.83398 -1.66699 12.501 -5s5.83398 -7 6.50098 -11l29 -279v-114c0 -4.66699 -2 -9 -6 -13s-8.33301 -6 -13 -6h-80c-4.66699 0 -9 2 -13 6s-6 8.33301 -6 13v112z" />
    <glyph glyph-name="cent" unicode="&#xa2;" horiz-adv-x="534" 
d="M63 230c0 67.333 23.3369 124.334 70.0039 171.001s102.334 70 167.001 70c2 0 5.16699 -0.166992 9.5 -0.5s7.5 -0.5 9.5 -0.5l13 49c1.33301 6 4.66602 10.5 9.99902 13.5s10.666 3.16699 15.999 0.5l12 -3c6 -1.33301 10.5 -4.5 13.5 -9.5s3.5 -10.5 1.5 -16.5
l-12 -44c36 -11.333 67.667 -34 95 -68c9.33301 -11.333 8 -22.333 -4 -33l-36 -33c-8.66699 -8 -18.667 -6.33301 -30 5c-16.667 16.667 -33.334 28.667 -50.001 36l-76 -280c9.33301 -2 18.666 -3 27.999 -3c11.333 0 21.666 1 30.999 3s18.166 5.66699 26.499 11
s14.5 9.5 18.5 12.5s10.167 8.5 18.5 16.5l14.5 14c10 10 20.333 10.667 31 2l31 -25c12.667 -11.333 15.334 -22.333 8.00098 -33c-42.667 -64 -102.667 -96 -180 -96c-18 0 -35.333 2 -52 6l-31 -115c-0.666992 -5.33301 -3.66699 -9.33301 -9 -12
s-11 -3.33398 -17 -2.00098l-10 3c-14 3.33301 -19.333 11.666 -16 24.999l32 118c-40.667 19.333 -73 48.333 -97 87s-36 82.334 -36 131.001zM163.004 231.001c0 -52.667 19.667 -93.333 59 -122l72 267c-37.333 -2 -68.5 -16.833 -93.5 -44.5s-37.5 -61.167 -37.5 -100.5
z" />
    <glyph glyph-name="sterling" unicode="&#xa3;" 
d="M126 19l0.00195312 17.999c30 55.333 45 114.333 45 177c0 28.667 -2.33301 54.667 -7 78h-44c-4.66699 0 -8.83398 1.83301 -12.501 5.5s-5.5 8.16699 -5.5 13.5v10c0 5.33301 1.83301 9.83301 5.5 13.5s7.83398 5.5 12.501 5.5h32
c-0.666992 3.33301 -4.16699 16.166 -10.5 38.499s-11.333 43.333 -15 63s-5.5 39.5 -5.5 59.5c0 63.333 20 114 60 152s90 57 150 57c58.667 0 115 -23.667 169 -71c10 -7.33301 10.667 -16 2 -26l-35 -43c-8.66699 -11.333 -18 -12 -28 -2c-4 4 -9.5 8.83301 -16.5 14.5
s-20.167 13.334 -39.5 23.001s-37 14.5 -53 14.5c-32 0 -58.667 -10.833 -80 -32.5s-32 -49.834 -32 -84.501c0 -25.333 6 -59 18 -101l18 -62h140c5.33301 0 9.83301 -1.83301 13.5 -5.5s5.5 -8.16699 5.5 -13.5v-11c0 -5.33301 -1.83301 -9.66602 -5.5 -12.999
s-8.16699 -5 -13.5 -5h-130c2.66699 -15.333 4 -36.333 4 -63c0 -55.333 -7.33301 -102.666 -22 -141.999h223c5.33301 0 9.66602 -1.83301 12.999 -5.5s5 -8.16699 5 -13.5v-49c0 -5.33301 -1.83301 -9.83301 -5.5 -13.5s-7.83398 -5.5 -12.501 -5.5h-324
c-4.66699 0 -9 2 -13 6s-6 8.33301 -6 13z" />
    <glyph glyph-name="currency" unicode="&#xa4;" horiz-adv-x="486" 
d="M109 168l-30.002 29.9971c-8.66699 9.33301 -8.66699 18.333 0 27l45 44c-10.667 19.333 -16 40.333 -16 63c0 22 5.33301 42.667 16 62l-44 45c-3.33301 3.33301 -5 7.83301 -5 13.5s1.66699 10.167 5 13.5l30 29c9.33301 8.66699 18.333 8.66699 27 0l44 -44
c18.667 10.667 39.667 16 63 16c22.667 0 43.334 -5.33301 62.001 -16l44 45c8 8 17 7.66699 27 -1l29 -30c3.33301 -3.33301 5.16602 -7.66602 5.49902 -12.999s-1.16699 -9.66602 -4.5 -12.999l-44 -44c10.667 -21.333 16 -42.333 16 -63
c0 -21.333 -5.33301 -42.666 -16 -63.999l44 -44c8.66699 -8.66699 8.66699 -17.334 0 -26.001l-30 -30c-3.33301 -3.33301 -7.66602 -5.16602 -12.999 -5.49902s-9.66602 1.16699 -12.999 4.5l-45 45c-20 -10.667 -40.667 -16 -62 -16c-22 0 -43.333 5.66699 -64 17
l-44 -45c-3.33301 -3.33301 -7.83301 -5 -13.5 -5s-10.167 1.66699 -13.5 5zM243.998 268.997c17.333 0 32.166 6.16699 44.499 18.5s18.5 27.166 18.5 44.499s-6.16699 32.166 -18.5 44.499s-27.166 18.5 -44.499 18.5s-32.166 -6.16699 -44.499 -18.5
s-18.5 -27.166 -18.5 -44.499s6.16699 -32.166 18.5 -44.499s27.166 -18.5 44.499 -18.5z" />
    <glyph glyph-name="yen" unicode="&#xa5;" 
d="M126 121c-4.66699 0 -8.83398 1.83105 -12.501 5.49805s-5.5 8.16699 -5.5 13.5v10c0 5.33301 1.83301 9.83301 5.5 13.5s7.83398 5.5 12.501 5.5h121v72h-121c-4.66699 0 -8.83398 1.83301 -12.501 5.5s-5.5 8.16699 -5.5 13.5v10c0 5.33301 1.83301 9.83301 5.5 13.5
s7.83398 5.5 12.501 5.5h121v48l-235 334c-4 6.66699 -4.33301 13.167 -1 19.5s9 9.5 17 9.5h75c6 0 11.333 -3 16 -9l181 -255l181 255c4.66699 6 10 9 16 9h75c8 0 13.667 -3.16699 17 -9.5s3 -12.833 -1 -19.5l-238 -333v-49h119c5.33301 0 9.83301 -1.83301 13.5 -5.5
s5.5 -8.16699 5.5 -13.5v-11c0 -5.33301 -1.83301 -9.66602 -5.5 -12.999s-8.16699 -5 -13.5 -5h-119v-72h119c5.33301 0 9.83301 -1.83301 13.5 -5.5s5.5 -8.16699 5.5 -13.5v-11c0 -5.33301 -1.83301 -9.66602 -5.5 -12.999s-8.16699 -5 -13.5 -5h-119v-102
c0 -4.66699 -2 -9 -6 -13s-8.33301 -6 -13 -6h-65c-5.33301 -0 -9.83301 1.83301 -13.5 5.5s-5.5 8.16699 -5.5 13.5v102h-121z" />
    <glyph glyph-name="brokenbar" unicode="&#xa6;" horiz-adv-x="197" 
d="M94 393c-5.33301 0 -9.83203 1.83301 -13.499 5.5s-5.5 7.83398 -5.5 12.501v331c0 5.33301 1.83301 9.83301 5.5 13.5s8.16699 5.5 13.5 5.5h10c5.33301 0 9.66602 -1.83301 12.999 -5.5s5 -8.16699 5 -13.5v-331c0 -4.66699 -1.83301 -8.83398 -5.5 -12.501
s-8.16699 -5.5 -13.5 -5.5h-9zM75.001 112c0 5.33301 1.83398 9.83301 5.50098 13.5s8.16699 5.5 13.5 5.5h10c5.33301 0 9.66602 -1.83301 12.999 -5.5s5 -8.16699 5 -13.5v-331c0 -4.66699 -1.83301 -8.83398 -5.5 -12.501s-8.16699 -5.5 -13.5 -5.5h-9
c-5.33301 0 -9.83301 1.83301 -13.5 5.5s-5.5 7.83398 -5.5 12.501v331z" />
    <glyph glyph-name="section" unicode="&#xa7;" horiz-adv-x="563" 
d="M95 -99c10 13.333 20.9941 15.0039 32.9941 5.00391l6 -5l14.5 -10.5c5 -3.66699 11.333 -7.83398 19 -12.501s16 -9.33398 25 -14.001s18.333 -8.83398 28 -12.501s20 -6.66699 31 -9s21.833 -3.5 32.5 -3.5c28 0 52.667 6.83301 74 20.5s33 32.834 35 57.501
c2 29.333 -9 55.166 -33 77.499s-62 44.5 -114 66.5c-118.667 49.333 -178 115.666 -178 198.999c0 8 0.666992 15.833 2 23.5s3.33301 15 6 22s5.5 13.333 8.5 19s6.5 11.334 10.5 17.001s7.66699 10.5 11 14.5s7.33301 8.16699 12 12.5l10.5 10
c2.33301 2.33301 5.33301 5 9 8s5.83398 4.83301 6.50098 5.5l-6 5c-4 3.33301 -7 6.16602 -9 8.49902s-5.33301 5.83301 -10 10.5s-8.66699 9.16699 -12 13.5s-7.16602 9.66602 -11.499 15.999s-8 12.666 -11 18.999s-5.83301 13.166 -8.5 20.499s-4.66699 15.333 -6 24
s-2 17.334 -2 26.001c0 44.667 18.333 85 55 121s89.667 54 159 54c29.333 0 58.833 -4.66699 88.5 -14s50.834 -17.666 63.501 -24.999s22.334 -13.666 29.001 -18.999c4.66699 -2.66699 7.83398 -6.66699 9.50098 -12s0.833984 -12 -2.49902 -20l-28 -41
c-8 -12.667 -19 -14.334 -33 -5.00098c-53.333 32 -96.666 48 -129.999 48c-36 0 -63.667 -8.5 -83 -25.5s-29 -35.833 -29 -56.5c0 -45.333 41.333 -84.666 124 -117.999c33.333 -13.333 61 -25.833 83 -37.5s43.667 -25.667 65 -42s37.333 -35 48 -56s16 -44.5 16 -70.5
c0 -8 -0.666992 -15.833 -2 -23.5s-3.5 -15.167 -6.5 -22.5s-6 -14 -9 -20s-6.66699 -12 -11 -18l-11.5 -15.5c-3.33301 -4.33301 -7.5 -9 -12.5 -14l-11 -11l-9.5 -9.5l-6 -5c52.667 -44.667 79 -94.334 79 -149.001c0 -50.667 -21 -93 -63 -127s-93.667 -51 -155 -51
c-36 0 -70.833 6 -104.5 18s-57.334 22.833 -71.001 32.5s-25.167 18.834 -34.5 27.501c-12 10.667 -13.667 22 -5 34zM164.994 266.004c0 -10 1.33203 -19.1699 3.99902 -27.5029s7.16699 -16.166 13.5 -23.499s12.666 -13.666 18.999 -18.999s15.833 -11.333 28.5 -18
l32 -16.5c8.66699 -4.33301 22 -10.666 40 -18.999l43 -20.5c4 2 8.83301 5 14.5 9s13.334 13.667 23.001 29s14.5 32.333 14.5 51c0 26 -11.833 47.833 -35.5 65.5s-63.5 38.167 -119.5 61.5c-8 3.33301 -17.667 7 -29 11l-5 -3l-9 -7c-3.33301 -2.66699 -7 -6.5 -11 -11.5
s-7.66699 -10.333 -11 -16s-6.16602 -12.5 -8.49902 -20.5s-3.5 -16.333 -3.5 -25z" />
    <glyph glyph-name="dieresis" unicode="&#xa8;" horiz-adv-x="414" 
d="M316 561c-17.333 0 -32 6 -44 18s-18 26.667 -18 44c0 18 6 33 18 45s26.667 18 44 18c18 0 33 -6 45 -18s18 -27 18 -45c0 -17.333 -6 -32 -18 -44s-27 -18 -45 -18zM119 561c-17.333 0 -32 6 -44 18s-18 26.667 -18 44c0 18 6 33 18 45s26.667 18 44 18
c18 0 33 -6 45 -18s18 -27 18 -45c0 -17.333 -6 -32 -18 -44s-27 -18 -45 -18z" />
    <glyph glyph-name="copyright" unicode="&#xa9;" horiz-adv-x="837" 
d="M59 350c0 99.333 35.165 184.168 105.498 254.501s154.833 105.5 253.5 105.5s183.334 -35.333 254.001 -106s106 -155.334 106 -254.001s-35.167 -183.167 -105.5 -253.5s-155.166 -105.5 -254.499 -105.5c-98.667 0 -183.167 35.167 -253.5 105.5
s-105.5 154.833 -105.5 253.5zM127.998 350.002c0 -80 28.333 -148.333 85 -205s125 -85 205 -85c80.667 0 149.167 28.333 205.5 85s84.5 125 84.5 205c0 80.667 -28.167 149.167 -84.5 205.5s-124.833 84.5 -205.5 84.5c-80 0 -148.333 -28.167 -205 -84.5
s-85 -124.833 -85 -205.5zM239.998 348.002c0 52 18.3291 96.333 54.9961 133s80.667 55 132 55c44.667 0 83 -12.667 115 -38c10.667 -9.33301 11.334 -19 2.00098 -29l-26 -28c-6 -8.66699 -14.667 -9.33398 -26 -2.00098c-19.333 13.333 -40.666 20 -63.999 20
c-30 0 -55 -10.667 -75 -32s-30 -46.666 -30 -75.999c0 -30.667 10 -56.334 30 -77.001s45 -31 75 -31c22.667 0 43.334 6.33301 62.001 19c11.333 6.66699 20.333 6 27 -2l28 -29c8.66699 -9.33301 8.33398 -18.666 -0.999023 -27.999c-32.667 -28 -71.667 -42 -117 -42
c-51.333 0 -95.333 18.333 -132 55s-55 80.667 -55 132z" />
    <glyph glyph-name="ordfeminine" unicode="&#xaa;" horiz-adv-x="338" 
d="M135 401c-27.333 0 -49.8301 9.16504 -67.4971 27.498s-26.5 42.166 -26.5 71.499c0 28 10.333 50.833 31 68.5s49.334 26.5 86.001 26.5c9.33301 0 18.666 -0.833008 27.999 -2.5s16.666 -3.16699 21.999 -4.5l7 -2c0 24.667 -2.83301 41.834 -8.5 51.501
s-17.5 14.5 -35.5 14.5c-14.667 0 -42 -5 -82 -15c-8.66699 -2 -14 2.33301 -16 13l-5 25c-2 8 0.666992 13.667 8 17c2.66699 1.33301 8.16699 3.33301 16.5 6s20.666 5.33398 36.999 8.00098s32.5 4 48.5 4c22 0 40 -3.16699 54 -9.5s24.333 -15.833 31 -28.5
s11.167 -26 13.5 -40s3.5 -31.667 3.5 -53v-156c0 -4 -1.5 -7.33301 -4.5 -10s-6.16699 -4 -9.5 -4h-22c-6 0 -10.333 3.33301 -13 10c-0.666992 2.66699 -1.83398 6.33398 -3.50098 11.001l-3.5 10c-27.333 -26 -57 -39 -89 -39zM148.003 455.998
c13.333 0 26.333 3.83398 39 11.501s21.334 16.167 26.001 25.5v44c-10.667 8 -28.334 12 -53.001 12c-16 0 -29.333 -4.5 -40 -13.5s-16 -20.5 -16 -34.5c0 -12.667 4.16699 -23.334 12.5 -32.001s18.833 -13 31.5 -13z" />
    <glyph glyph-name="guillemotleft" unicode="&#xab;" horiz-adv-x="458" 
d="M226 224c-5.33301 7.33301 -5.33398 15.333 -0.000976562 24l109 148c4.66699 8 10.667 12 18 12h35c8.66699 0 14.334 -3.16699 17.001 -9.5s2 -13.5 -2 -21.5l-71 -139l68 -147c4 -8 4.5 -15 1.5 -21s-8.5 -9 -16.5 -9h-40c-6 0 -11 2.66699 -15 8zM148.999 69
l-104.001 155c-5.33301 7.33301 -5.33301 15.333 0 24l109 148c4.66699 8 10.667 12 18 12h35c8.66699 0 14.334 -3.16699 17.001 -9.5s2 -13.5 -2 -21.5l-71 -139l68 -147c4 -8 4.5 -15 1.5 -21s-8.5 -9 -16.5 -9h-40c-6 0 -11 2.66699 -15 8z" />
    <glyph glyph-name="logicalnot" unicode="&#xac;" horiz-adv-x="583" 
d="M92 307c-5.33301 0 -9.83301 1.83301 -13.5 5.5s-5.5 8.16699 -5.5 13.5v42c0 5.33301 1.83301 9.83301 5.5 13.5s8.16699 5.5 13.5 5.5h386c5.33301 0 9.83301 -2 13.5 -6s5.5 -8.33301 5.5 -13v-215c0 -4.66699 -1.83301 -8.83398 -5.5 -12.501
s-8.16699 -5.5 -13.5 -5.5h-42c-5.33301 0 -9.83301 1.83301 -13.5 5.5s-5.5 7.83398 -5.5 12.501v154h-325z" />
    <glyph glyph-name="uni00AD" unicode="&#xad;" horiz-adv-x="376" 
d="M80 206c-5.33301 0 -9.83301 1.66699 -13.5 5s-5.5 7.66602 -5.5 12.999v43c0 12.667 6.33301 19 19 19h216c12.667 0 19 -6.33301 19 -19v-43c0 -5.33301 -1.83301 -9.66602 -5.5 -12.999s-8.16699 -5 -13.5 -5h-216z" />
    <glyph glyph-name="registered" unicode="&#xae;" horiz-adv-x="837" 
d="M59 350c0 99.333 35.165 184.168 105.498 254.501s154.833 105.5 253.5 105.5s183.334 -35.333 254.001 -106s106 -155.334 106 -254.001s-35.167 -183.167 -105.5 -253.5s-155.166 -105.5 -254.499 -105.5c-98.667 0 -183.167 35.167 -253.5 105.5
s-105.5 154.833 -105.5 253.5zM127.998 350.002c0 -80 28.333 -148.333 85 -205s125 -85 205 -85c80.667 0 149.167 28.333 205.5 85s84.5 125 84.5 205c0 80.667 -28.167 149.167 -84.5 205.5s-124.833 84.5 -205.5 84.5c-80 0 -148.333 -28.167 -205 -84.5
s-85 -124.833 -85 -205.5zM288.998 187.002l0.00195312 328.002c0 5.33301 1.83301 9.83301 5.5 13.5s8.16699 5.5 13.5 5.5h148c33.333 0 62.166 -10.667 86.499 -32s36.5 -50 36.5 -86c0 -54.667 -25.333 -91.334 -76 -110.001l53 -111
c3.33301 -6.66699 3.16602 -12.834 -0.500977 -18.501s-9.16699 -8.5 -16.5 -8.5h-45c-8 0 -14 4.66699 -18 14l-50 118h-62v-113c0 -5.33301 -1.83301 -9.83301 -5.5 -13.5s-8.16699 -5.5 -13.5 -5.5h-37c-5.33301 0 -9.83301 1.83301 -13.5 5.5s-5.5 8.16699 -5.5 13.5z
M362 366.004h89c14.667 0 26.667 4.66699 36 14s14 21 14 35c0 14.667 -4.66699 26.5 -14 35.5s-21.333 13.5 -36 13.5h-89v-98z" />
    <glyph glyph-name="macron" unicode="&#xaf;" horiz-adv-x="414" 
d="M79 576c-5.33301 0 -9.83301 1.66699 -13.5 5s-5.5 7.66602 -5.5 12.999v28c0 12.667 6.33301 19 19 19h256c12.667 0 19 -6.33301 19 -19v-28c0 -5.33301 -1.83301 -9.66602 -5.5 -12.999s-8.16699 -5 -13.5 -5h-256z" />
    <glyph glyph-name="degree" unicode="&#xb0;" horiz-adv-x="348" 
d="M174 440c-37.333 0 -69.166 13.167 -95.499 39.5s-39.5 58.166 -39.5 95.499s13.167 69.166 39.5 95.499s58.166 39.5 95.499 39.5s69.166 -13.167 95.499 -39.5s39.5 -58.166 39.5 -95.499s-13.167 -69.166 -39.5 -95.499s-58.166 -39.5 -95.499 -39.5zM174 508
c16.667 0 31.5 6.83301 44.5 20.5s19.5 29.167 19.5 46.5c0 16.667 -6.5 31.5 -19.5 44.5s-27.833 19.5 -44.5 19.5c-17.333 0 -32.833 -6.5 -46.5 -19.5s-20.5 -27.833 -20.5 -44.5c0 -17.333 6.83301 -32.833 20.5 -46.5s29.167 -20.5 46.5 -20.5z" />
    <glyph glyph-name="plusminus" unicode="&#xb1;" 
d="M260 263v110h-153c-4.66699 0 -9 1.83301 -13 5.5s-6 8.16699 -6 13.5v42c0 5.33301 2 9.83301 6 13.5s8.33301 5.5 13 5.5h153v148c0 4.66699 1.83301 8.83398 5.5 12.501s8.16699 5.5 13.5 5.5h42c5.33301 0 9.83301 -1.83301 13.5 -5.5s5.5 -7.83398 5.5 -12.501v-148
h154c4.66699 0 8.83398 -1.83301 12.501 -5.5s5.5 -8.16699 5.5 -13.5v-42c0 -5.33301 -1.83301 -9.83301 -5.5 -13.5s-7.83398 -5.5 -12.501 -5.5h-154v-110c0 -4.66699 -1.83301 -8.83398 -5.5 -12.501s-8.16699 -5.5 -13.5 -5.5h-42
c-5.33301 0 -9.83301 1.83301 -13.5 5.5s-5.5 7.83398 -5.5 12.501zM88 71v42c0 4.66699 2 9 6 13s8.33301 6 13 6h387c4.66699 0 8.83398 -1.83301 12.501 -5.5s5.5 -8.16699 5.5 -13.5v-42c0 -5.33301 -1.83301 -9.83301 -5.5 -13.5s-7.83398 -5.5 -12.501 -5.5h-387
c-4.66699 0 -9 2 -13 6s-6 8.33301 -6 13z" />
    <glyph glyph-name="twosuperior" unicode="&#xb2;" horiz-adv-x="281" 
d="M39 504c-6.66699 0 -10 3 -10 9v15l118 130c19.333 20.667 29 38.334 29 53.001c0 10.667 -4.33301 20.167 -13 28.5s-20.667 12.5 -36 12.5c-18.667 0 -36.334 -8.33301 -53.001 -25c-4 -4.66699 -8.66699 -4.33398 -14 0.999023l-21 26c-4.66699 6.66699 -4 12 2 16
c26.667 26.667 58.334 40 95.001 40c33.333 0 59.5 -8.5 78.5 -25.5s28.5 -38.833 28.5 -65.5s-14.333 -56 -43 -88l-67 -73h100c6 0 9 -3.33301 9 -10v-35c0 -6 -3 -9 -9 -9h-194z" />
    <glyph glyph-name="threesuperior" unicode="&#xb3;" horiz-adv-x="282" 
d="M132 494c-41.333 0 -74.335 12.333 -99.002 37c-5.33301 4 -5.33301 8.66699 0 14l21 25c4.66699 4.66699 9.66699 4.66699 15 0l3 -2l6 -4c2 -1.33301 5 -3 9 -5s7.83301 -3.66699 11.5 -5s8 -2.5 13 -3.5s9.83301 -1.5 14.5 -1.5c14.667 0 26.834 3.5 36.501 10.5
s14.5 16.167 14.5 27.5c0 12 -5.16699 21.833 -15.5 29.5s-25.166 11.5 -44.499 11.5h-30c-8.66699 0 -13 3.66699 -13 11v28c0 8 4.33301 12 13 12h30c16.667 0 29.667 3.5 39 10.5s14 15.833 14 26.5c0 11.333 -4.5 20.5 -13.5 27.5s-19.833 10.5 -32.5 10.5
c-17.333 0 -33.333 -6.66699 -48 -20c-4.66699 -4 -9.33398 -3.66699 -14.001 1l-22 24c-6 6 -5.66699 11 1 15c23.333 24 53.666 36 90.999 36c30.667 0 56 -7.5 76 -22.5s30 -35.167 30 -60.5c0 -16 -5.16699 -30.333 -15.5 -43s-22.166 -21.667 -35.499 -27v-2
c14.667 -6 28.334 -15.5 41.001 -28.5s19 -28.5 19 -46.5c0 -26 -10.833 -46.833 -32.5 -62.5s-49.167 -23.5 -82.5 -23.5z" />
    <glyph glyph-name="acute" unicode="&#xb4;" horiz-adv-x="302" 
d="M97 543c-12 -6 -20 -4.66797 -24 3.99902l-14 29c-4 8.66699 -2 15 6 19l157 91c2.66699 2.66699 7.16699 3.83398 13.5 3.50098s10.5 -2.5 12.5 -6.5l23 -44c5.33301 -11.333 3.33301 -19.333 -6 -24z" />
    <glyph glyph-name="mu" unicode="&#xb5;" horiz-adv-x="544" 
d="M84 -216l-0.000976562 656c0 5.33301 2.33301 10.333 7 15s9.66699 7 15 7h56c6 0 11.167 -2.33301 15.5 -7s6.5 -9.66699 6.5 -15v-240c0 -77.333 30 -116 90 -116c29.333 0 54 9 74 27s31.333 34.333 34 49v280c0 8.66699 2 14.5 6 17.5s10.667 4.5 20 4.5h51
c6 0 11.333 -2.33301 16 -7s7 -9.66699 7 -15v-418c0 -6 -2.33301 -11.167 -7 -15.5s-10 -6.5 -16 -6.5h-24c-9.33301 -0 -16.333 6.33301 -21 19l-12 33l-4 -4l-8 -8c-2 -2 -5.16699 -4.83301 -9.5 -8.5s-8.66602 -7 -12.999 -10s-9.5 -6.16699 -15.5 -9.5
s-12.333 -6.33301 -19 -9s-14 -5.16699 -22 -7.5s-16.667 -4 -26 -5s-19 -1.5 -29 -1.5c-27.333 0 -51.333 3.66699 -72 11v-216c0 -6 -2.33301 -11.167 -7 -15.5s-9.66699 -6.5 -15 -6.5h-56c-6 0 -11.167 2.16699 -15.5 6.5s-6.5 9.5 -6.5 15.5z" />
    <glyph glyph-name="paragraph" unicode="&#xb6;" horiz-adv-x="752" 
d="M250 281c-56.667 0 -105.5 20.332 -146.5 60.999s-61.5 90.334 -61.5 149.001c0 57.333 18.833 106.5 56.5 147.5s83.5 61.5 137.5 61.5h449c4.66699 0 9 -2 13 -6s6 -8.33301 6 -13v-34c0 -5.33301 -1.83301 -9.83301 -5.5 -13.5s-8.16699 -5.5 -13.5 -5.5h-94v-847
c0 -5.33301 -1.83301 -9.83301 -5.5 -13.5s-8.16699 -5.5 -13.5 -5.5h-38c-5.33301 0 -9.83301 2 -13.5 6s-5.5 8.33301 -5.5 13v847h-146v-847c0 -4.66699 -1.83301 -9 -5.5 -13s-8.16699 -6 -13.5 -6h-37c-4.66699 0 -9 2 -13 6s-6 8.33301 -6 13v500h-44z" />
    <glyph glyph-name="periodcentered" unicode="&#xb7;" horiz-adv-x="249" 
d="M124 185c-20 0 -37.167 7.33301 -51.5 22s-21.5 31.667 -21.5 51c0 20.667 7.16699 38.334 21.5 53.001s31.5 22 51.5 22c20.667 0 38.167 -7.33301 52.5 -22s21.5 -32.334 21.5 -53.001c0 -20 -7.33301 -37.167 -22 -51.5s-32 -21.5 -52 -21.5z" />
    <glyph glyph-name="cedilla" unicode="&#xb8;" horiz-adv-x="247" 
d="M113 3l61.001 0.000976562l-44 -67c4 1.33301 10.333 2 19 2c24 0 44.167 -6.83301 60.5 -20.5s24.5 -34.167 24.5 -61.5c0 -32.667 -10.833 -57.5 -32.5 -74.5s-48.834 -25.5 -81.501 -25.5c-36 0 -63.667 8.66699 -83 26c-5.33301 5.33301 -5.33301 14 0 26l9 18
c6 12.667 14 15 24 7c12.667 -11.333 28 -17 46 -17c15.333 0 27.5 3.66699 36.5 11s13.5 17.666 13.5 30.999c0 25.333 -16.333 38 -49 38c-4 0 -17 -3.33301 -39 -10c-4.66699 -2 -9 -0.833008 -13 3.5s-5 8.83301 -3 13.5z" />
    <glyph glyph-name="onesuperior" unicode="&#xb9;" horiz-adv-x="194" 
d="M90 504c-6.66699 0 -10 3 -10 9v201l-45 -7c-6 -1.33301 -9 0.666992 -9 6l-4 24c0 4 1.66699 7.66699 5 11l72 52h40c6 0 9 -3 9 -9v-278c0 -6 -3 -9 -9 -9h-49z" />
    <glyph glyph-name="ordmasculine" unicode="&#xba;" horiz-adv-x="340" 
d="M170 395c-40 0 -71 13.833 -93 41.5s-33 66.167 -33 115.5c0 50 11 88.833 33 116.5s53 41.5 93 41.5s71 -13.833 93 -41.5s33 -66.5 33 -116.5c0 -49.333 -11 -87.833 -33 -115.5s-53 -41.5 -93 -41.5zM170 456c17.333 0 31 8.33203 41 24.999s15 40.334 15 71.001
s-5 54.5 -15 71.5s-23.667 25.5 -41 25.5c-36.667 0 -55 -32.333 -55 -97c0 -64 18.333 -96 55 -96z" />
    <glyph glyph-name="guillemotright" unicode="&#xbb;" horiz-adv-x="458" 
d="M238 91l67.999 147l-71 139c-4 8 -4.66699 15.167 -2 21.5s8.33398 9.5 17.001 9.5h35c7.33301 0 13.333 -4 18 -12l109 -148c5.33301 -8.66699 5.33301 -16.667 0 -24l-104 -155c-4 -5.33301 -9 -8 -15 -8h-40c-8 0 -13.5 3 -16.5 9s-2.5 13 1.5 21zM71.999 61
c-8 0 -13.501 3 -16.501 9s-2.5 13 1.5 21l68 147l-71 139c-4 8 -4.66699 15.167 -2 21.5s8.33398 9.5 17.001 9.5h35c7.33301 0 13.333 -4 18 -12l109 -148c5.33301 -8.66699 5.33301 -16.667 0 -24l-104 -155c-4 -5.33301 -9 -8 -15 -8h-40z" />
    <glyph glyph-name="onequarter" unicode="&#xbc;" horiz-adv-x="665" 
d="M107 27l342.999 663c4.66699 6.66699 10.334 10 17.001 10h33c7.33301 0 12.833 -2.83301 16.5 -8.5s3.83398 -11.834 0.500977 -18.501l-345 -663c-3.33301 -6.66699 -9 -10 -17 -10h-31c-7.33301 0 -12.833 2.83301 -16.5 8.5s-3.83398 11.834 -0.500977 18.501z
M114.999 404c-6.66699 0 -10 3 -10 9v201l-45 -7c-6 -1.33301 -9 0.666992 -9 6l-4 24c0 4 1.66699 7.66699 5 11l72 52h40c6 0 9 -3 9 -9v-278c0 -6 -3 -9 -9 -9h-49zM351.999 66v40l167 187c2 2 4.66699 3 8 3h31c6.66699 0 10 -3 10 -9v-178h40c6 0 9 -2.66699 9 -8v-34
c0 -6 -3 -9 -9 -9h-40v-49c0 -6 -3.33301 -9 -10 -9h-44c-6.66699 0 -10 3 -10 9v49h-143c-6 0 -9 2.66699 -9 8zM415.999 109h90v101z" />
    <glyph glyph-name="onehalf" unicode="&#xbd;" horiz-adv-x="656" 
d="M107 27l342.999 663c4.66699 6.66699 10.334 10 17.001 10h33c7.33301 0 12.833 -2.83301 16.5 -8.5s3.83398 -11.834 0.500977 -18.501l-345 -663c-3.33301 -6.66699 -9 -10 -17 -10h-31c-7.33301 0 -12.833 2.83301 -16.5 8.5s-3.83398 11.834 -0.500977 18.501z
M114.999 404c-6.66699 0 -10 3 -10 9v201l-45 -7c-6 -1.33301 -9 0.666992 -9 6l-4 24c0 4 1.66699 7.66699 5 11l72 52h40c6 0 9 -3 9 -9v-278c0 -6 -3 -9 -9 -9h-49zM386.999 9v15l118 130c19.333 20.667 29 38.334 29 53.001c0 10.667 -4.33301 20.167 -13 28.5
s-20.667 12.5 -36 12.5c-18.667 0 -36.334 -8.33301 -53.001 -25c-4 -4.66699 -8.66699 -4.33398 -14 0.999023l-21 26c-4.66699 6.66699 -4 12 2 16c26.667 26.667 58.334 40 95.001 40c33.333 0 59.5 -8.5 78.5 -25.5s28.5 -38.833 28.5 -65.5s-14.333 -56 -43 -88
l-67 -73h100c6 0 9 -3.33301 9 -10v-35c0 -6 -3 -9 -9 -9h-194c-6.66699 0 -10 3 -10 9z" />
    <glyph glyph-name="threequarters" unicode="&#xbe;" horiz-adv-x="703" 
d="M154 394c-41.333 0 -74.335 12.333 -99.002 37c-5.33301 4 -5.33301 8.66699 0 14l21 25c4.66699 4.66699 9.66699 4.66699 15 0l3 -2l6 -4c2 -1.33301 5 -3 9 -5s7.83301 -3.66699 11.5 -5s8 -2.5 13 -3.5s9.83301 -1.5 14.5 -1.5c14.667 0 26.834 3.5 36.501 10.5
s14.5 16.167 14.5 27.5c0 12 -5.16699 21.833 -15.5 29.5s-25.166 11.5 -44.499 11.5h-30c-8.66699 0 -13 3.66699 -13 11v28c0 8 4.33301 12 13 12h30c16.667 0 29.667 3.5 39 10.5s14 15.833 14 26.5c0 11.333 -4.5 20.5 -13.5 27.5s-19.833 10.5 -32.5 10.5
c-17.333 0 -33.333 -6.66699 -48 -20c-4.66699 -4 -9.33398 -3.66699 -14.001 1l-22 24c-6 6 -5.66699 11 1 15c23.333 24 53.666 36 90.999 36c30.667 0 56 -7.5 76 -22.5s30 -35.167 30 -60.5c0 -16 -5.16699 -30.333 -15.5 -43s-22.166 -21.667 -35.499 -27v-2
c14.667 -6 28.334 -15.5 41.001 -28.5s19 -28.5 19 -46.5c0 -26 -10.833 -46.833 -32.5 -62.5s-49.167 -23.5 -82.5 -23.5zM145.998 27l342.999 663c4.66699 6.66699 10.334 10 17.001 10h33c7.33301 0 12.833 -2.83301 16.5 -8.5s3.83398 -11.834 0.500977 -18.501
l-345 -663c-3.33301 -6.66699 -9 -10 -17 -10h-31c-7.33301 0 -12.833 2.83301 -16.5 8.5s-3.83398 11.834 -0.500977 18.501zM390.997 66v40l167 187c2 2 4.66699 3 8 3h31c6.66699 0 10 -3 10 -9v-178h40c6 0 9 -2.66699 9 -8v-34c0 -6 -3 -9 -9 -9h-40v-49
c0 -6 -3.33301 -9 -10 -9h-44c-6.66699 0 -10 3 -10 9v49h-143c-6 0 -9 2.66699 -9 8zM454.997 109h90v101z" />
    <glyph glyph-name="questiondown" unicode="&#xbf;" horiz-adv-x="470" 
d="M253 333c-19.333 0 -35.833 6.83301 -49.5 20.5s-20.5 30.167 -20.5 49.5s6.83301 35.666 20.5 48.999s30.167 20 49.5 20s35.666 -6.66699 48.999 -20s20 -29.666 20 -48.999s-6.66699 -35.833 -20 -49.5s-29.666 -20.5 -48.999 -20.5zM204 132l0.00195312 37.0049
c0 13.333 7 20 21 20h54c5.33301 0 9.83301 -1.83301 13.5 -5.5s5.5 -8.16699 5.5 -13.5v-42c0 -24.667 -7.5 -46.834 -22.5 -66.501s-31.667 -35.334 -50 -47.001s-35 -26.334 -50 -44.001s-22.5 -36.5 -22.5 -56.5c0 -21.333 8 -39.5 24 -54.5s38 -22.5 66 -22.5
c13.333 0 25.833 1.33301 37.5 4s22.167 6.83398 31.5 12.501s16.666 10.5 21.999 14.5s11.666 9.5 18.999 16.5l13 12.5c8 7.33301 16 7.33301 24 0l33 -32c8 -6.66699 8 -15.334 0 -26.001c-2 -2.66699 -4.66699 -5.83398 -8 -9.50098s-10.833 -10.667 -22.5 -21
s-24.167 -19.333 -37.5 -27s-31 -14.667 -53 -21s-45 -9.5 -69 -9.5c-52.667 0 -96.5 15 -131.5 45s-52.5 68.667 -52.5 116c0 23.333 5.33301 44.666 16 63.999s23.5 35.333 38.5 48s30.167 24.5 45.5 35.5s28.333 22.667 39 35s16 24.833 16 37.5z" />
    <glyph glyph-name="Agrave" unicode="&#xc0;" horiz-adv-x="667" 
d="M22 0c-7.33301 0 -12.8301 2.66699 -16.4971 8s-3.83398 11.333 -0.500977 18l307 673c4 7.33301 9.66699 11 17 11h10c7.33301 0 13 -3.66699 17 -11l305 -673c3.33301 -6.66699 3.16602 -12.667 -0.500977 -18s-9.16699 -8 -16.5 -8h-63
c-10.667 0 -18.334 5 -23.001 15l-62 137h-327l-61 -137c-4 -10 -11.667 -15 -23 -15h-63zM208.003 238h250l-123 274h-5zM402.003 774l-168 72.002c-9.33301 4.66699 -11.333 12.667 -6 24l23 44c2 4 6.16699 6.16699 12.5 6.5s10.833 -0.833984 13.5 -3.50098l157 -91
c8 -4 10 -10.333 6 -19l-14 -28c-4 -8.66699 -12 -10.334 -24 -5.00098z" />
    <glyph glyph-name="Aacute" unicode="&#xc1;" horiz-adv-x="667" 
d="M22 0c-7.33301 0 -12.8301 2.66699 -16.4971 8s-3.83398 11.333 -0.500977 18l307 673c4 7.33301 9.66699 11 17 11h10c7.33301 0 13 -3.66699 17 -11l305 -673c3.33301 -6.66699 3.16602 -12.667 -0.500977 -18s-9.16699 -8 -16.5 -8h-63
c-10.667 0 -18.334 5 -23.001 15l-62 137h-327l-61 -137c-4 -10 -11.667 -15 -23 -15h-63zM208.003 238h250l-123 274h-5zM264.003 774c-12 -5.33301 -20 -3.66797 -24 4.99902l-14 28c-4 8 -2 14.333 6 19l157 91c2.66699 2.66699 7.16699 3.83398 13.5 3.50098
s10.5 -2.5 12.5 -6.5l23 -44c6.66699 -10.667 4.66699 -18.667 -6 -24z" />
    <glyph glyph-name="Acircumflex" unicode="&#xc2;" horiz-adv-x="667" 
d="M22 0c-7.33301 0 -12.8301 2.66699 -16.4971 8s-3.83398 11.333 -0.500977 18l307 673c4 7.33301 9.66699 11 17 11h10c7.33301 0 13 -3.66699 17 -11l305 -673c3.33301 -6.66699 3.16602 -12.667 -0.500977 -18s-9.16699 -8 -16.5 -8h-63
c-10.667 0 -18.334 5 -23.001 15l-62 137h-327l-61 -137c-4 -10 -11.667 -15 -23 -15h-63zM208.003 238h250l-123 274h-5zM237.003 768c-9.33301 -5.33301 -17 -4.33301 -23 3l-20 27c-4.66699 6.66699 -2.66699 13 6 19l125 98c7.33301 6 15.333 6 24 0l125 -98
c8.66699 -6 10.667 -12.333 6 -19l-20 -27c-6 -8 -13.667 -9 -23 -3l-100 65z" />
    <glyph glyph-name="Atilde" unicode="&#xc3;" horiz-adv-x="667" 
d="M22 0c-7.33301 0 -12.8301 2.66699 -16.4971 8s-3.83398 11.333 -0.500977 18l307 673c4 7.33301 9.66699 11 17 11h10c7.33301 0 13 -3.66699 17 -11l305 -673c3.33301 -6.66699 3.16602 -12.667 -0.500977 -18s-9.16699 -8 -16.5 -8h-63
c-10.667 0 -18.334 5 -23.001 15l-62 137h-327l-61 -137c-4 -10 -11.667 -15 -23 -15h-63zM208.003 238h250l-123 274h-5zM213.003 792l-22.999 15.001c-8.66699 5.33301 -10.667 13 -6 23c28 56 60.667 84 98 84c16.667 0 31.834 -5.33301 45.501 -16
s25.5 -21.334 35.5 -32.001s19.333 -16 28 -16c5.33301 0 10.333 1.5 15 4.5s8.16699 6.16699 10.5 9.5s5.16602 8 8.49902 14s5.66602 10 6.99902 12c6.66699 11.333 15 14.333 25 9c0.666992 0 4.5 -2.33301 11.5 -7s11.833 -8.66699 14.5 -12
c3.33301 -6 2.33301 -15 -3 -27c-22.667 -50 -54 -75 -94 -75c-18.667 0 -39.167 10.833 -61.5 32.5s-37.5 32.5 -45.5 32.5c-16 0 -30.333 -13.667 -43 -41c-5.33301 -12 -13 -15.333 -23 -10z" />
    <glyph glyph-name="Adieresis" unicode="&#xc4;" horiz-adv-x="667" 
d="M22 0c-7.33301 0 -12.8301 2.66699 -16.4971 8s-3.83398 11.333 -0.500977 18l307 673c4 7.33301 9.66699 11 17 11h10c7.33301 0 13 -3.66699 17 -11l305 -673c3.33301 -6.66699 3.16602 -12.667 -0.500977 -18s-9.16699 -8 -16.5 -8h-63
c-10.667 0 -18.334 5 -23.001 15l-62 137h-327l-61 -137c-4 -10 -11.667 -15 -23 -15h-63zM208.003 238h250l-123 274h-5zM446.003 776c-17.333 0 -32 6.16699 -44 18.5s-18 27.166 -18 44.499s6 32 18 44s26.667 18 44 18s32.166 -6 44.499 -18s18.5 -26.667 18.5 -44
s-6.16699 -32.166 -18.5 -44.499s-27.166 -18.5 -44.499 -18.5zM217.003 776c-17.333 0 -32 6.16699 -44 18.5s-18 27.166 -18 44.499s6 32 18 44s26.667 18 44 18s32.166 -6 44.499 -18s18.5 -26.667 18.5 -44s-6.16699 -32.166 -18.5 -44.499s-27.166 -18.5 -44.499 -18.5
z" />
    <glyph glyph-name="Aring" unicode="&#xc5;" horiz-adv-x="667" 
d="M22 0c-7.33301 0 -12.8301 2.66699 -16.4971 8s-3.83398 11.333 -0.500977 18l307 673c4 7.33301 9.66699 11 17 11h10c7.33301 0 13 -3.66699 17 -11l305 -673c3.33301 -6.66699 3.16602 -12.667 -0.500977 -18s-9.16699 -8 -16.5 -8h-63
c-10.667 0 -18.334 5 -23.001 15l-62 137h-327l-61 -137c-4 -10 -11.667 -15 -23 -15h-63zM208.003 238h250l-123 274h-5zM332.003 756c-30.667 0 -56.834 10.6709 -78.501 32.0039s-32.5 47.666 -32.5 78.999s10.833 57.666 32.5 78.999s47.834 32 78.501 32
s56.834 -10.833 78.501 -32.5s32.5 -47.834 32.5 -78.501s-10.833 -56.834 -32.5 -78.501s-47.834 -32.5 -78.501 -32.5zM332.003 811.004c14 0 26.333 5.66699 37 17s16 24.333 16 39s-5.16699 27.167 -15.5 37.5s-22.833 15.5 -37.5 15.5
c-15.333 0 -28.5 -5.16699 -39.5 -15.5s-16.5 -22.833 -16.5 -37.5s5.5 -27.667 16.5 -39s24.167 -17 39.5 -17z" />
    <glyph glyph-name="AE" unicode="&#xc6;" horiz-adv-x="893" 
d="M6 0c-7.33301 0 -12.167 2.66699 -14.5 8s-1.5 11.333 2.5 18l401 643c10 16 18.333 25.333 25 28c4.66699 2 11 3 19 3h388c5.33301 0 9.83301 -1.83301 13.5 -5.5s5.5 -8.16699 5.5 -13.5v-56c0 -5.33301 -1.83301 -9.83301 -5.5 -13.5s-8.16699 -5.5 -13.5 -5.5h-320
v-204h271c5.33301 0 9.83301 -2 13.5 -6s5.5 -8.33301 5.5 -13v-56c0 -5.33301 -1.83301 -9.83301 -5.5 -13.5s-8.16699 -5.5 -13.5 -5.5h-271v-215h320c5.33301 0 9.83301 -1.83301 13.5 -5.5s5.5 -8.16699 5.5 -13.5v-55c0 -5.33301 -1.83301 -9.83301 -5.5 -13.5
s-8.16699 -5.5 -13.5 -5.5h-401c-5.33301 -0 -9.83301 1.83301 -13.5 5.5s-5.5 8.16699 -5.5 13.5v133h-222l-87 -139c-6 -8.66699 -13.333 -13 -22 -13h-70zM236.999 238h170v274z" />
    <glyph glyph-name="Ccedilla" unicode="&#xc7;" horiz-adv-x="698" 
d="M48 349c0 100 35.165 185.166 105.498 255.499s155.5 105.5 255.5 105.5c90 0 170.667 -31 242 -93c10 -9.33301 10.333 -18.666 1 -27.999l-44 -45c-7.33301 -9.33301 -15.666 -9.33301 -24.999 0c-51.333 44.667 -109 67 -173 67
c-70.667 0 -130.167 -25.667 -178.5 -77s-72.5 -112.333 -72.5 -183s24.333 -131.5 73 -182.5s108.334 -76.5 179.001 -76.5c57.333 0 114.666 22 171.999 66c8.66699 6.66699 16.667 7 24 1l46 -45c4 -4 5.83301 -8.5 5.5 -13.5s-2.5 -9.5 -6.5 -13.5
c-62 -60 -136 -92 -222 -96l-36 -55c4 1.33301 10.333 2 19 2c24.667 0 45.834 -6.83301 63.501 -20.5s26.5 -34.167 26.5 -61.5c0 -32 -11.5 -56.667 -34.5 -74s-51.167 -26 -84.5 -26c-36 0 -63.667 8.66699 -83 26c-5.33301 5.33301 -5.33301 14 0 26l9 18
c6 12.667 14 15 24 7c12.667 -11.333 28 -17 46 -17c33.333 0 50 12.333 50 37c0 22 -16.333 33 -49 33c-7.33301 0 -22 -3.33301 -44 -10c-4.66699 -2 -9 -0.833008 -13 3.5s-5 8.83301 -3 13.5l50 99c-91.333 9.33301 -168 47.833 -230 115.5s-93 148.167 -93 241.5z" />
    <glyph glyph-name="Egrave" unicode="&#xc8;" horiz-adv-x="576" 
d="M91 19v662c0 5.33301 1.83301 9.83301 5.5 13.5s8.16699 5.5 13.5 5.5h400c5.33301 0 9.83301 -1.83301 13.5 -5.5s5.5 -8.16699 5.5 -13.5v-56c0 -5.33301 -1.83301 -9.83301 -5.5 -13.5s-8.16699 -5.5 -13.5 -5.5h-316v-204h267c4.66699 0 9 -2 13 -6s6 -8.33301 6 -13
v-56c0 -5.33301 -1.83301 -9.83301 -5.5 -13.5s-8.16699 -5.5 -13.5 -5.5h-267v-215h316c5.33301 0 9.83301 -1.83301 13.5 -5.5s5.5 -8.16699 5.5 -13.5v-55c0 -5.33301 -1.83301 -9.83301 -5.5 -13.5s-8.16699 -5.5 -13.5 -5.5h-400
c-5.33301 -0 -9.83301 1.83301 -13.5 5.5s-5.5 8.16699 -5.5 13.5zM376 774l-168 72.002c-9.33301 4.66699 -11.333 12.667 -6 24l23 44c2 4 6.16699 6.16699 12.5 6.5s10.833 -0.833984 13.5 -3.50098l157 -91c8 -4 10 -10.333 6 -19l-14 -28
c-4 -8.66699 -12 -10.334 -24 -5.00098z" />
    <glyph glyph-name="Eacute" unicode="&#xc9;" horiz-adv-x="576" 
d="M91 19v662c0 5.33301 1.83301 9.83301 5.5 13.5s8.16699 5.5 13.5 5.5h400c5.33301 0 9.83301 -1.83301 13.5 -5.5s5.5 -8.16699 5.5 -13.5v-56c0 -5.33301 -1.83301 -9.83301 -5.5 -13.5s-8.16699 -5.5 -13.5 -5.5h-316v-204h267c4.66699 0 9 -2 13 -6s6 -8.33301 6 -13
v-56c0 -5.33301 -1.83301 -9.83301 -5.5 -13.5s-8.16699 -5.5 -13.5 -5.5h-267v-215h316c5.33301 0 9.83301 -1.83301 13.5 -5.5s5.5 -8.16699 5.5 -13.5v-55c0 -5.33301 -1.83301 -9.83301 -5.5 -13.5s-8.16699 -5.5 -13.5 -5.5h-400
c-5.33301 -0 -9.83301 1.83301 -13.5 5.5s-5.5 8.16699 -5.5 13.5zM239 774c-12 -5.33301 -20 -3.66797 -24 4.99902l-14 28c-4 8 -2 14.333 6 19l157 91c2.66699 2.66699 7.16699 3.83398 13.5 3.50098s10.5 -2.5 12.5 -6.5l23 -44c6.66699 -10.667 4.66699 -18.667 -6 -24
z" />
    <glyph glyph-name="Ecircumflex" unicode="&#xca;" horiz-adv-x="576" 
d="M91 19v662c0 5.33301 1.83301 9.83301 5.5 13.5s8.16699 5.5 13.5 5.5h400c5.33301 0 9.83301 -1.83301 13.5 -5.5s5.5 -8.16699 5.5 -13.5v-56c0 -5.33301 -1.83301 -9.83301 -5.5 -13.5s-8.16699 -5.5 -13.5 -5.5h-316v-204h267c4.66699 0 9 -2 13 -6s6 -8.33301 6 -13
v-56c0 -5.33301 -1.83301 -9.83301 -5.5 -13.5s-8.16699 -5.5 -13.5 -5.5h-267v-215h316c5.33301 0 9.83301 -1.83301 13.5 -5.5s5.5 -8.16699 5.5 -13.5v-55c0 -5.33301 -1.83301 -9.83301 -5.5 -13.5s-8.16699 -5.5 -13.5 -5.5h-400
c-5.33301 -0 -9.83301 1.83301 -13.5 5.5s-5.5 8.16699 -5.5 13.5zM205 769c-9.33301 -5.33301 -17 -4.33301 -23 3l-20 27c-4.66699 6.66699 -2.66699 13 6 19l125 98c7.33301 6 15.333 6 24 0l125 -98c8.66699 -6 10.667 -12.333 6 -19l-20 -27c-6 -8 -13.667 -9 -23 -3
l-100 65z" />
    <glyph glyph-name="Edieresis" unicode="&#xcb;" horiz-adv-x="576" 
d="M91 19v662c0 5.33301 1.83301 9.83301 5.5 13.5s8.16699 5.5 13.5 5.5h400c5.33301 0 9.83301 -1.83301 13.5 -5.5s5.5 -8.16699 5.5 -13.5v-56c0 -5.33301 -1.83301 -9.83301 -5.5 -13.5s-8.16699 -5.5 -13.5 -5.5h-316v-204h267c4.66699 0 9 -2 13 -6s6 -8.33301 6 -13
v-56c0 -5.33301 -1.83301 -9.83301 -5.5 -13.5s-8.16699 -5.5 -13.5 -5.5h-267v-215h316c5.33301 0 9.83301 -1.83301 13.5 -5.5s5.5 -8.16699 5.5 -13.5v-55c0 -5.33301 -1.83301 -9.83301 -5.5 -13.5s-8.16699 -5.5 -13.5 -5.5h-400
c-5.33301 -0 -9.83301 1.83301 -13.5 5.5s-5.5 8.16699 -5.5 13.5zM423 776c-17.333 0 -32 6.16699 -44 18.5s-18 27.166 -18 44.499s6 32 18 44s26.667 18 44 18s32.166 -6 44.499 -18s18.5 -26.667 18.5 -44s-6.16699 -32.166 -18.5 -44.499s-27.166 -18.5 -44.499 -18.5z
M194 776c-17.333 0 -32 6.16699 -44 18.5s-18 27.166 -18 44.499s6 32 18 44s26.667 18 44 18s32.166 -6 44.499 -18s18.5 -26.667 18.5 -44s-6.16699 -32.166 -18.5 -44.499s-27.166 -18.5 -44.499 -18.5z" />
    <glyph glyph-name="Igrave" unicode="&#xcc;" horiz-adv-x="286" 
d="M91 19v662c0 4.66699 1.83301 9 5.5 13s8.16699 6 13.5 6h66c5.33301 0 9.83301 -2 13.5 -6s5.5 -8.33301 5.5 -13v-662c0 -4.66699 -1.83301 -9 -5.5 -13s-8.16699 -6 -13.5 -6h-66c-5.33301 0 -9.83301 2 -13.5 6s-5.5 8.33301 -5.5 13zM211 774l-168 72.002
c-9.33301 4.66699 -11.333 12.667 -6 24l23 44c2 4 6.16699 6.16699 12.5 6.5s10.833 -0.833984 13.5 -3.50098l157 -91c8 -4 10 -10.333 6 -19l-14 -28c-4 -8.66699 -12 -10.334 -24 -5.00098z" />
    <glyph glyph-name="Iacute" unicode="&#xcd;" horiz-adv-x="286" 
d="M91 19v662c0 4.66699 1.83301 9 5.5 13s8.16699 6 13.5 6h66c5.33301 0 9.83301 -2 13.5 -6s5.5 -8.33301 5.5 -13v-662c0 -4.66699 -1.83301 -9 -5.5 -13s-8.16699 -6 -13.5 -6h-66c-5.33301 0 -9.83301 2 -13.5 6s-5.5 8.33301 -5.5 13zM74 774
c-12 -5.33301 -20 -3.66797 -24 4.99902l-14 28c-4 8 -2 14.333 6 19l157 91c2.66699 2.66699 7.16699 3.83398 13.5 3.50098s10.5 -2.5 12.5 -6.5l23 -44c6.66699 -10.667 4.66699 -18.667 -6 -24z" />
    <glyph glyph-name="Icircumflex" unicode="&#xce;" horiz-adv-x="286" 
d="M91 19v662c0 4.66699 1.83301 9 5.5 13s8.16699 6 13.5 6h66c5.33301 0 9.83301 -2 13.5 -6s5.5 -8.33301 5.5 -13v-662c0 -4.66699 -1.83301 -9 -5.5 -13s-8.16699 -6 -13.5 -6h-66c-5.33301 0 -9.83301 2 -13.5 6s-5.5 8.33301 -5.5 13zM42 769
c-9.33301 -5.33301 -17 -4.33301 -23 3l-20 27c-4.66699 6.66699 -2.66699 13 6 19l125 98c7.33301 6 15.333 6 24 0l125 -98c8.66699 -6 10.667 -12.333 6 -19l-20 -27c-6 -8 -13.667 -9 -23 -3l-100 65z" />
    <glyph glyph-name="Idieresis" unicode="&#xcf;" horiz-adv-x="286" 
d="M91 19v662c0 4.66699 1.83301 9 5.5 13s8.16699 6 13.5 6h66c5.33301 0 9.83301 -2 13.5 -6s5.5 -8.33301 5.5 -13v-662c0 -4.66699 -1.83301 -9 -5.5 -13s-8.16699 -6 -13.5 -6h-66c-5.33301 0 -9.83301 2 -13.5 6s-5.5 8.33301 -5.5 13zM258 776
c-17.333 0 -32 6.16699 -44 18.5s-18 27.166 -18 44.499s6 32 18 44s26.667 18 44 18s32.166 -6 44.499 -18s18.5 -26.667 18.5 -44s-6.16699 -32.166 -18.5 -44.499s-27.166 -18.5 -44.499 -18.5zM29 776c-17.333 0 -32 6.16699 -44 18.5s-18 27.166 -18 44.499s6 32 18 44
s26.667 18 44 18s32.166 -6 44.499 -18s18.5 -26.667 18.5 -44s-6.16699 -32.166 -18.5 -44.499s-27.166 -18.5 -44.499 -18.5z" />
    <glyph glyph-name="Eth" unicode="&#xd0;" horiz-adv-x="739" 
d="M91 19v303.001h-29c-4.66699 0 -8.83398 1.83301 -12.501 5.5s-5.5 8.16699 -5.5 13.5v10c0 5.33301 1.83301 9.83301 5.5 13.5s7.83398 5.5 12.501 5.5h29v311c0 5.33301 1.83301 9.83301 5.5 13.5s7.83398 5.5 12.501 5.5h230c96.667 0 179.334 -34.167 248.001 -102.5
s103 -150.5 103 -246.5c0 -96.667 -34.333 -179.334 -103 -248.001s-151.334 -103 -248.001 -103h-230c-4.66699 -0 -8.83398 1.83301 -12.501 5.5s-5.5 8.16699 -5.5 13.5zM193 95.001l132 -0.000976562c73.333 0 134 24.167 182 72.5s72 109.5 72 183.5
c0 73.333 -24 134 -72 182s-108.667 72 -182 72h-132v-235h188c5.33301 0 9.83301 -1.83301 13.5 -5.5s5.5 -8.16699 5.5 -13.5v-11c0 -5.33301 -1.83301 -9.66602 -5.5 -12.999s-8.16699 -5 -13.5 -5h-188v-227z" />
    <glyph glyph-name="Ntilde" unicode="&#xd1;" horiz-adv-x="763" 
d="M91 19v673c0 4.66699 1.83301 8.83398 5.5 12.501s8.16699 5.5 13.5 5.5h8c11.333 0 21.333 -5 30 -15l420 -487h2v473c0 5.33301 1.83301 9.83301 5.5 13.5s8.16699 5.5 13.5 5.5h64c4.66699 0 9 -2 13 -6s6 -8.33301 6 -13v-673
c0 -4.66699 -1.83301 -8.83398 -5.5 -12.501s-8.16699 -5.5 -13.5 -5.5h-9c-11.333 0 -21 4.66699 -29 14l-421 502h-2v-487c0 -5.33301 -1.83301 -9.83301 -5.5 -13.5s-8.16699 -5.5 -13.5 -5.5h-63c-5.33301 0 -9.83301 2 -13.5 6s-5.5 8.33301 -5.5 13zM264 792
l-22.999 15.001c-8.66699 5.33301 -10.667 13 -6 23c28 56 60.667 84 98 84c16.667 0 31.834 -5.33301 45.501 -16s25.5 -21.334 35.5 -32.001s19.333 -16 28 -16c5.33301 0 10.333 1.5 15 4.5s8.16699 6.16699 10.5 9.5s5.16602 8 8.49902 14s5.66602 10 6.99902 12
c6.66699 11.333 15 14.333 25 9c0.666992 0 4.5 -2.33301 11.5 -7s11.833 -8.66699 14.5 -12c3.33301 -6 2.33301 -15 -3 -27c-22.667 -50 -54 -75 -94 -75c-18.667 0 -39.167 10.833 -61.5 32.5s-37.5 32.5 -45.5 32.5c-16 0 -30.333 -13.667 -43 -41
c-5.33301 -12 -13 -15.333 -23 -10z" />
    <glyph glyph-name="Ograve" unicode="&#xd2;" horiz-adv-x="815" 
d="M48 349c0 100 34.833 185.167 104.5 255.5s154.5 105.5 254.5 105.5s185 -35.167 255 -105.5s105 -155.5 105 -255.5s-35 -184.833 -105 -254.5s-155 -104.5 -255 -104.5s-184.833 34.833 -254.5 104.5s-104.5 154.5 -104.5 254.5zM148 349
c0 -71.333 25.5 -132.833 76.5 -184.5s111.833 -77.5 182.5 -77.5c71.333 0 132.5 25.833 183.5 77.5s76.5 113.167 76.5 184.5s-25.5 133.166 -76.5 185.499s-112.167 78.5 -183.5 78.5c-70.667 0 -131.5 -26.167 -182.5 -78.5s-76.5 -114.166 -76.5 -185.499zM476 774
l-168 72.002c-9.33301 4.66699 -11.333 12.667 -6 24l23 44c2 4 6.16699 6.16699 12.5 6.5s10.833 -0.833984 13.5 -3.50098l157 -91c8 -4 10 -10.333 6 -19l-14 -28c-4 -8.66699 -12 -10.334 -24 -5.00098z" />
    <glyph glyph-name="Oacute" unicode="&#xd3;" horiz-adv-x="815" 
d="M48 349c0 100 34.833 185.167 104.5 255.5s154.5 105.5 254.5 105.5s185 -35.167 255 -105.5s105 -155.5 105 -255.5s-35 -184.833 -105 -254.5s-155 -104.5 -255 -104.5s-184.833 34.833 -254.5 104.5s-104.5 154.5 -104.5 254.5zM148 349
c0 -71.333 25.5 -132.833 76.5 -184.5s111.833 -77.5 182.5 -77.5c71.333 0 132.5 25.833 183.5 77.5s76.5 113.167 76.5 184.5s-25.5 133.166 -76.5 185.499s-112.167 78.5 -183.5 78.5c-70.667 0 -131.5 -26.167 -182.5 -78.5s-76.5 -114.166 -76.5 -185.499zM340 774
c-12 -5.33301 -20 -3.66797 -24 4.99902l-14 28c-4 8 -2 14.333 6 19l157 91c2.66699 2.66699 7.16699 3.83398 13.5 3.50098s10.5 -2.5 12.5 -6.5l23 -44c6.66699 -10.667 4.66699 -18.667 -6 -24z" />
    <glyph glyph-name="Ocircumflex" unicode="&#xd4;" horiz-adv-x="815" 
d="M48 349c0 100 34.833 185.167 104.5 255.5s154.5 105.5 254.5 105.5s185 -35.167 255 -105.5s105 -155.5 105 -255.5s-35 -184.833 -105 -254.5s-155 -104.5 -255 -104.5s-184.833 34.833 -254.5 104.5s-104.5 154.5 -104.5 254.5zM148 349
c0 -71.333 25.5 -132.833 76.5 -184.5s111.833 -77.5 182.5 -77.5c71.333 0 132.5 25.833 183.5 77.5s76.5 113.167 76.5 184.5s-25.5 133.166 -76.5 185.499s-112.167 78.5 -183.5 78.5c-70.667 0 -131.5 -26.167 -182.5 -78.5s-76.5 -114.166 -76.5 -185.499zM306 769
c-9.33301 -5.33301 -17 -4.33301 -23 3l-20 27c-4.66699 6.66699 -2.66699 13 6 19l125 98c7.33301 6 15.333 6 24 0l125 -98c8.66699 -6 10.667 -12.333 6 -19l-20 -27c-6 -8 -13.667 -9 -23 -3l-100 65z" />
    <glyph glyph-name="Otilde" unicode="&#xd5;" horiz-adv-x="815" 
d="M48 349c0 100 34.833 185.167 104.5 255.5s154.5 105.5 254.5 105.5s185 -35.167 255 -105.5s105 -155.5 105 -255.5s-35 -184.833 -105 -254.5s-155 -104.5 -255 -104.5s-184.833 34.833 -254.5 104.5s-104.5 154.5 -104.5 254.5zM148 349
c0 -71.333 25.5 -132.833 76.5 -184.5s111.833 -77.5 182.5 -77.5c71.333 0 132.5 25.833 183.5 77.5s76.5 113.167 76.5 184.5s-25.5 133.166 -76.5 185.499s-112.167 78.5 -183.5 78.5c-70.667 0 -131.5 -26.167 -182.5 -78.5s-76.5 -114.166 -76.5 -185.499zM285 792
l-22.999 15.001c-8.66699 5.33301 -10.667 13 -6 23c28 56 60.667 84 98 84c16.667 0 31.834 -5.33301 45.501 -16s25.5 -21.334 35.5 -32.001s19.333 -16 28 -16c5.33301 0 10.333 1.5 15 4.5s8.16699 6.16699 10.5 9.5s5.16602 8 8.49902 14s5.66602 10 6.99902 12
c6.66699 11.333 15 14.333 25 9c0.666992 0 4.5 -2.33301 11.5 -7s11.833 -8.66699 14.5 -12c3.33301 -6 2.33301 -15 -3 -27c-22.667 -50 -54 -75 -94 -75c-18.667 0 -39.167 10.833 -61.5 32.5s-37.5 32.5 -45.5 32.5c-16 0 -30.333 -13.667 -43 -41
c-5.33301 -12 -13 -15.333 -23 -10z" />
    <glyph glyph-name="Odieresis" unicode="&#xd6;" horiz-adv-x="815" 
d="M48 349c0 100 34.833 185.167 104.5 255.5s154.5 105.5 254.5 105.5s185 -35.167 255 -105.5s105 -155.5 105 -255.5s-35 -184.833 -105 -254.5s-155 -104.5 -255 -104.5s-184.833 34.833 -254.5 104.5s-104.5 154.5 -104.5 254.5zM148 349
c0 -71.333 25.5 -132.833 76.5 -184.5s111.833 -77.5 182.5 -77.5c71.333 0 132.5 25.833 183.5 77.5s76.5 113.167 76.5 184.5s-25.5 133.166 -76.5 185.499s-112.167 78.5 -183.5 78.5c-70.667 0 -131.5 -26.167 -182.5 -78.5s-76.5 -114.166 -76.5 -185.499zM522 776
c-17.333 0 -32 6.16699 -44 18.5s-18 27.166 -18 44.499s6 32 18 44s26.667 18 44 18s32.166 -6 44.499 -18s18.5 -26.667 18.5 -44s-6.16699 -32.166 -18.5 -44.499s-27.166 -18.5 -44.499 -18.5zM293 776c-17.333 0 -32 6.16699 -44 18.5s-18 27.166 -18 44.499
s6 32 18 44s26.667 18 44 18s32.166 -6 44.499 -18s18.5 -26.667 18.5 -44s-6.16699 -32.166 -18.5 -44.499s-27.166 -18.5 -44.499 -18.5z" />
    <glyph glyph-name="multiply" unicode="&#xd7;" 
d="M165 182l-29.998 29.9971c-8.66699 8.66699 -8.66699 17.334 0 26.001l108 109l-108 108c-8.66699 8.66699 -8.66699 17.667 0 27l29 30c3.33301 3.33301 7.83301 5 13.5 5s10.167 -1.66699 13.5 -5l108 -108l109 109c8 8.66699 16.667 8.33398 26 -0.999023l30 -30
c9.33301 -9.33301 9.66602 -18 0.999023 -26l-109 -109l109 -109c8 -9.33301 7.66699 -18.333 -1 -27l-30 -29c-9.33301 -9.33301 -18 -9.66602 -26 -0.999023l-109 110l-108 -109c-8.66699 -8.66699 -17.334 -8.66699 -26.001 0z" />
    <glyph glyph-name="Oslash" unicode="&#xd8;" horiz-adv-x="815" 
d="M74 22c-9.33301 9.33301 -9.66699 18.002 -1 26.002l63 63c-58.667 67.333 -88 146.666 -88 237.999c0 100 34.833 185.167 104.5 255.5s154.5 105.5 254.5 105.5c90 0 169.333 -30 238 -90l66 65c8.66699 8.66699 17.334 8.66699 26.001 0l7 -7
c8.66699 -8.66699 8.66699 -17.334 0 -26.001l-65 -66c58.667 -68.667 88 -147.667 88 -237c0 -100 -35 -184.833 -105 -254.5s-155 -104.5 -255 -104.5c-91.333 0 -170.333 29 -237 87l-63 -63c-8.66699 -8 -17.334 -7.66699 -26.001 1zM208.999 183.002l365 365.999
c-49.333 40.667 -105 61 -167 61c-70.667 0 -131.5 -25.667 -182.5 -77s-76.5 -112.666 -76.5 -183.999c0 -62.667 20.333 -118 61 -166zM241.999 149.001c48 -39.333 103 -59 165 -59c71.333 0 132.5 25.333 183.5 76s76.5 111.667 76.5 183c0 64 -20 119 -60 165z" />
    <glyph glyph-name="Ugrave" unicode="&#xd9;" horiz-adv-x="712" 
d="M84 253l0.00195312 428c0 4.66699 2 9 6 13s8.33301 6 13 6h67c5.33301 0 9.83301 -1.83301 13.5 -5.5s5.5 -8.16699 5.5 -13.5v-421c0 -50.667 15 -91.667 45 -123s70.333 -47 121 -47c51.333 0 92.166 15.5 122.499 46.5s45.5 71.5 45.5 121.5v423
c0 5.33301 1.83301 9.83301 5.5 13.5s8.16699 5.5 13.5 5.5h67c4.66699 0 9 -2 13 -6s6 -8.33301 6 -13v-428c0 -76 -25.833 -138.833 -77.5 -188.5s-116.834 -74.5 -195.501 -74.5s-143.5 24.833 -194.5 74.5s-76.5 112.5 -76.5 188.5zM423.002 774l-168 72.002
c-9.33301 4.66699 -11.333 12.667 -6 24l23 44c2 4 6.16699 6.16699 12.5 6.5s10.833 -0.833984 13.5 -3.50098l157 -91c8 -4 10 -10.333 6 -19l-14 -28c-4 -8.66699 -12 -10.334 -24 -5.00098z" />
    <glyph glyph-name="Uacute" unicode="&#xda;" horiz-adv-x="712" 
d="M84 253l0.00195312 428c0 4.66699 2 9 6 13s8.33301 6 13 6h67c5.33301 0 9.83301 -1.83301 13.5 -5.5s5.5 -8.16699 5.5 -13.5v-421c0 -50.667 15 -91.667 45 -123s70.333 -47 121 -47c51.333 0 92.166 15.5 122.499 46.5s45.5 71.5 45.5 121.5v423
c0 5.33301 1.83301 9.83301 5.5 13.5s8.16699 5.5 13.5 5.5h67c4.66699 0 9 -2 13 -6s6 -8.33301 6 -13v-428c0 -76 -25.833 -138.833 -77.5 -188.5s-116.834 -74.5 -195.501 -74.5s-143.5 24.833 -194.5 74.5s-76.5 112.5 -76.5 188.5zM287.002 774
c-12 -5.33301 -20 -3.66797 -24 4.99902l-14 28c-4 8 -2 14.333 6 19l157 91c2.66699 2.66699 7.16699 3.83398 13.5 3.50098s10.5 -2.5 12.5 -6.5l23 -44c6.66699 -10.667 4.66699 -18.667 -6 -24z" />
    <glyph glyph-name="Ucircumflex" unicode="&#xdb;" horiz-adv-x="712" 
d="M84 253l0.00195312 428c0 4.66699 2 9 6 13s8.33301 6 13 6h67c5.33301 0 9.83301 -1.83301 13.5 -5.5s5.5 -8.16699 5.5 -13.5v-421c0 -50.667 15 -91.667 45 -123s70.333 -47 121 -47c51.333 0 92.166 15.5 122.499 46.5s45.5 71.5 45.5 121.5v423
c0 5.33301 1.83301 9.83301 5.5 13.5s8.16699 5.5 13.5 5.5h67c4.66699 0 9 -2 13 -6s6 -8.33301 6 -13v-428c0 -76 -25.833 -138.833 -77.5 -188.5s-116.834 -74.5 -195.501 -74.5s-143.5 24.833 -194.5 74.5s-76.5 112.5 -76.5 188.5zM257.002 769
c-9.33301 -5.33301 -17 -4.33301 -23 3l-20 27c-4.66699 6.66699 -2.66699 13 6 19l125 98c7.33301 6 15.333 6 24 0l125 -98c8.66699 -6 10.667 -12.333 6 -19l-20 -27c-6 -8 -13.667 -9 -23 -3l-100 65z" />
    <glyph glyph-name="Udieresis" unicode="&#xdc;" horiz-adv-x="712" 
d="M84 253l0.00195312 428c0 4.66699 2 9 6 13s8.33301 6 13 6h67c5.33301 0 9.83301 -1.83301 13.5 -5.5s5.5 -8.16699 5.5 -13.5v-421c0 -50.667 15 -91.667 45 -123s70.333 -47 121 -47c51.333 0 92.166 15.5 122.499 46.5s45.5 71.5 45.5 121.5v423
c0 5.33301 1.83301 9.83301 5.5 13.5s8.16699 5.5 13.5 5.5h67c4.66699 0 9 -2 13 -6s6 -8.33301 6 -13v-428c0 -76 -25.833 -138.833 -77.5 -188.5s-116.834 -74.5 -195.501 -74.5s-143.5 24.833 -194.5 74.5s-76.5 112.5 -76.5 188.5zM474.002 776
c-17.333 0 -32 6.16699 -44 18.5s-18 27.166 -18 44.499s6 32 18 44s26.667 18 44 18s32.166 -6 44.499 -18s18.5 -26.667 18.5 -44s-6.16699 -32.166 -18.5 -44.499s-27.166 -18.5 -44.499 -18.5zM245.002 776c-17.333 0 -32 6.16699 -44 18.5s-18 27.166 -18 44.499
s6 32 18 44s26.667 18 44 18s32.166 -6 44.499 -18s18.5 -26.667 18.5 -44s-6.16699 -32.166 -18.5 -44.499s-27.166 -18.5 -44.499 -18.5z" />
    <glyph glyph-name="Yacute" unicode="&#xdd;" horiz-adv-x="583" 
d="M291 438h2l180 253c4.66699 6 10 9 16 9h75c8 0 13.667 -3.16699 17 -9.5s3 -12.833 -1 -19.5l-237 -333v-319c0 -4.66699 -1.83301 -9 -5.5 -13s-8.16699 -6 -13.5 -6h-66c-5.33301 -0 -9.83301 1.83301 -13.5 5.5s-5.5 8.16699 -5.5 13.5v318l-234 334
c-4 6.66699 -4.33301 13.167 -1 19.5s9 9.5 17 9.5h74c6 0 11.333 -3 16 -9zM223 774c-12 -5.33301 -20 -3.66797 -24 4.99902l-14 28c-4 8 -2 14.333 6 19l157 91c2.66699 2.66699 7.16699 3.83398 13.5 3.50098s10.5 -2.5 12.5 -6.5l23 -44
c6.66699 -10.667 4.66699 -18.667 -6 -24z" />
    <glyph glyph-name="Thorn" unicode="&#xde;" horiz-adv-x="591" 
d="M91 19v662.001c0 5.33301 1.83301 9.83301 5.5 13.5s8.16699 5.5 13.5 5.5h65c4.66699 0 9 -2 13 -6s6 -8.33301 6 -13v-108h144c61.333 0.666992 114 -20.833 158 -64.5s66 -95.834 66 -156.501c0 -62 -21.833 -115 -65.5 -159s-96.167 -66 -157.5 -66h-145v-108
c0 -4.66699 -2 -9 -6 -13s-8.33301 -6 -13 -6h-65c-5.33301 -0 -9.83301 1.83301 -13.5 5.5s-5.5 8.16699 -5.5 13.5zM194 225.001h138c34.667 0 64.5 12.5 89.5 37.5s37.5 55.5 37.5 91.5c0 34 -12.5 62.5 -37.5 85.5s-54.833 34.5 -89.5 34.5h-138v-249z" />
    <glyph glyph-name="germandbls" unicode="&#xdf;" horiz-adv-x="578" 
d="M70 21l-0.00390625 390.995c0 198.667 77 298 231 298c52 0 96.833 -16.333 134.5 -49s56.5 -76 56.5 -130c0 -23.333 -4.16699 -45.666 -12.5 -66.999s-17.666 -38.166 -27.999 -50.499s-19.666 -24.666 -27.999 -36.999s-12.5 -22.5 -12.5 -30.5
c0 -7.33301 6.66699 -16.666 20 -27.999s28 -22.666 44 -33.999s30.667 -27.833 44 -49.5s20 -45.167 20 -70.5c0 -50 -16 -91.667 -48 -125s-77.333 -50 -136 -50c-16.667 0 -32.667 1 -48 3c-11.333 1.33301 -17 9 -17 23v51c0 12.667 7 18.667 21 18
c20 -3.33301 34.667 -5 44 -5c25.333 0 45.833 6.66699 61.5 20s23.5 32.333 23.5 57c0 16 -7 32 -21 48s-29.167 29.5 -45.5 40.5s-31.5 24.667 -45.5 41s-21 32.5 -21 48.5c0 21.333 14.167 52.5 42.5 93.5s42.5 73.833 42.5 98.5c0 28.667 -9.5 50.667 -28.5 66
s-42.5 23 -70.5 23c-82 0 -123 -68 -123 -204v-390c0 -5.33301 -2.16699 -10.166 -6.5 -14.499s-9.16602 -6.5 -14.499 -6.5h-58c-5.33301 0 -10.166 2.16699 -14.499 6.5s-6.5 9.16602 -6.5 14.499z" />
    <glyph glyph-name="agrave" unicode="&#xe0;" horiz-adv-x="477" 
d="M35 143c0 44 16.334 79.835 49.001 107.502s78 41.5 136 41.5c14 0 28.833 -1.16699 44.5 -3.5s27.5 -4.5 35.5 -6.5l13 -4c1.33301 37.333 -3.5 64.333 -14.5 81s-30.833 25 -59.5 25c-36 0 -79 -7.33301 -129 -22c-14 -2.66699 -22.667 3.66602 -26 18.999l-9 38
c-2.66699 13.333 2.33301 22.333 15 27c46 17.333 99 26 159 26c35.333 0 64.333 -4.83301 87 -14.5s39.167 -24.834 49.5 -45.501s17.166 -41.5 20.499 -62.5s5 -48.167 5 -81.5v-246c0 -6 -2.33301 -11.167 -7 -15.5s-9.66699 -6.5 -15 -6.5h-33
c-8 -0 -14.333 5.33301 -19 16l-11 31c-40 -38.667 -87.333 -58 -142 -58c-44 0 -79.833 13.833 -107.5 41.5s-41.5 65.167 -41.5 112.5zM133.001 144.002c0 -21.333 6.16797 -38.833 18.501 -52.5s30.166 -20.5 53.499 -20.5c21.333 0 42.5 6 63.5 18s35.5 24.667 43.5 38
v77c-4.66699 2.66699 -15.167 6 -31.5 10s-33.833 6 -52.5 6c-28 0 -50.833 -6.83301 -68.5 -20.5s-26.5 -32.167 -26.5 -55.5zM318.002 543.002l-168 72.001c-9.33301 4.66699 -11.333 12.667 -6 24l23 44c2 4 6.16699 6.16699 12.5 6.5s10.833 -0.833984 13.5 -3.50098
l157 -91c8 -4 10 -10.333 6 -19l-14 -29c-4 -8.66699 -12 -10 -24 -4z" />
    <glyph glyph-name="aacute" unicode="&#xe1;" horiz-adv-x="477" 
d="M35 143c0 44 16.334 79.835 49.001 107.502s78 41.5 136 41.5c14 0 28.833 -1.16699 44.5 -3.5s27.5 -4.5 35.5 -6.5l13 -4c1.33301 37.333 -3.5 64.333 -14.5 81s-30.833 25 -59.5 25c-36 0 -79 -7.33301 -129 -22c-14 -2.66699 -22.667 3.66602 -26 18.999l-9 38
c-2.66699 13.333 2.33301 22.333 15 27c46 17.333 99 26 159 26c35.333 0 64.333 -4.83301 87 -14.5s39.167 -24.834 49.5 -45.501s17.166 -41.5 20.499 -62.5s5 -48.167 5 -81.5v-246c0 -6 -2.33301 -11.167 -7 -15.5s-9.66699 -6.5 -15 -6.5h-33
c-8 -0 -14.333 5.33301 -19 16l-11 31c-40 -38.667 -87.333 -58 -142 -58c-44 0 -79.833 13.833 -107.5 41.5s-41.5 65.167 -41.5 112.5zM133.001 144.002c0 -21.333 6.16797 -38.833 18.501 -52.5s30.166 -20.5 53.499 -20.5c21.333 0 42.5 6 63.5 18s35.5 24.667 43.5 38
v77c-4.66699 2.66699 -15.167 6 -31.5 10s-33.833 6 -52.5 6c-28 0 -50.833 -6.83301 -68.5 -20.5s-26.5 -32.167 -26.5 -55.5zM174.002 543.002c-12 -6 -20 -4.66797 -24 3.99902l-14 29c-4 8.66699 -2 15 6 19l157 91c2.66699 2.66699 7.16699 3.83398 13.5 3.50098
s10.5 -2.5 12.5 -6.5l23 -44c5.33301 -11.333 3.33301 -19.333 -6 -24z" />
    <glyph glyph-name="acircumflex" unicode="&#xe2;" horiz-adv-x="477" 
d="M35 143c0 44 16.334 79.835 49.001 107.502s78 41.5 136 41.5c14 0 28.833 -1.16699 44.5 -3.5s27.5 -4.5 35.5 -6.5l13 -4c1.33301 37.333 -3.5 64.333 -14.5 81s-30.833 25 -59.5 25c-36 0 -79 -7.33301 -129 -22c-14 -2.66699 -22.667 3.66602 -26 18.999l-9 38
c-2.66699 13.333 2.33301 22.333 15 27c46 17.333 99 26 159 26c35.333 0 64.333 -4.83301 87 -14.5s39.167 -24.834 49.5 -45.501s17.166 -41.5 20.499 -62.5s5 -48.167 5 -81.5v-246c0 -6 -2.33301 -11.167 -7 -15.5s-9.66699 -6.5 -15 -6.5h-33
c-8 -0 -14.333 5.33301 -19 16l-11 31c-40 -38.667 -87.333 -58 -142 -58c-44 0 -79.833 13.833 -107.5 41.5s-41.5 65.167 -41.5 112.5zM133.001 144.002c0 -21.333 6.16797 -38.833 18.501 -52.5s30.166 -20.5 53.499 -20.5c21.333 0 42.5 6 63.5 18s35.5 24.667 43.5 38
v77c-4.66699 2.66699 -15.167 6 -31.5 10s-33.833 6 -52.5 6c-28 0 -50.833 -6.83301 -68.5 -20.5s-26.5 -32.167 -26.5 -55.5zM116.002 542.002l-20 27c-4.66699 6.66699 -2.66699 13 6 19l125 98c7.33301 6 15.333 6 24 0l125 -98c8.66699 -6 10.667 -12.333 6 -19
l-20 -27c-6 -8 -13.667 -9 -23 -3l-100 65l-100 -65c-9.33301 -5.33301 -17 -4.33301 -23 3z" />
    <glyph glyph-name="atilde" unicode="&#xe3;" horiz-adv-x="477" 
d="M35 143c0 44 16.334 79.835 49.001 107.502s78 41.5 136 41.5c14 0 28.833 -1.16699 44.5 -3.5s27.5 -4.5 35.5 -6.5l13 -4c1.33301 37.333 -3.5 64.333 -14.5 81s-30.833 25 -59.5 25c-36 0 -79 -7.33301 -129 -22c-14 -2.66699 -22.667 3.66602 -26 18.999l-9 38
c-2.66699 13.333 2.33301 22.333 15 27c46 17.333 99 26 159 26c35.333 0 64.333 -4.83301 87 -14.5s39.167 -24.834 49.5 -45.501s17.166 -41.5 20.499 -62.5s5 -48.167 5 -81.5v-246c0 -6 -2.33301 -11.167 -7 -15.5s-9.66699 -6.5 -15 -6.5h-33
c-8 -0 -14.333 5.33301 -19 16l-11 31c-40 -38.667 -87.333 -58 -142 -58c-44 0 -79.833 13.833 -107.5 41.5s-41.5 65.167 -41.5 112.5zM133.001 144.002c0 -21.333 6.16797 -38.833 18.501 -52.5s30.166 -20.5 53.499 -20.5c21.333 0 42.5 6 63.5 18s35.5 24.667 43.5 38
v77c-4.66699 2.66699 -15.167 6 -31.5 10s-33.833 6 -52.5 6c-28 0 -50.833 -6.83301 -68.5 -20.5s-26.5 -32.167 -26.5 -55.5zM123.002 568.002l-22.999 15.001c-8.66699 5.33301 -10.667 13 -6 23c28 56 60.667 84 98 84c16.667 0 31.834 -5.33301 45.501 -16
s25.5 -21.334 35.5 -32.001s19.333 -16 28 -16c5.33301 0 10.333 1.5 15 4.5s8.16699 6.16699 10.5 9.5s5.16602 8 8.49902 14s5.66602 10 6.99902 12c6.66699 11.333 15 14.333 25 9c0.666992 0 4.5 -2.33301 11.5 -7s11.833 -8.66699 14.5 -12
c3.33301 -6 2.33301 -15 -3 -27c-22.667 -50 -54 -75 -94 -75c-18.667 0 -39.167 10.833 -61.5 32.5s-37.5 32.5 -45.5 32.5c-16 0 -30.333 -13.667 -43 -41c-5.33301 -12 -13 -15.333 -23 -10z" />
    <glyph glyph-name="adieresis" unicode="&#xe4;" horiz-adv-x="477" 
d="M35 143c0 44 16.334 79.835 49.001 107.502s78 41.5 136 41.5c14 0 28.833 -1.16699 44.5 -3.5s27.5 -4.5 35.5 -6.5l13 -4c1.33301 37.333 -3.5 64.333 -14.5 81s-30.833 25 -59.5 25c-36 0 -79 -7.33301 -129 -22c-14 -2.66699 -22.667 3.66602 -26 18.999l-9 38
c-2.66699 13.333 2.33301 22.333 15 27c46 17.333 99 26 159 26c35.333 0 64.333 -4.83301 87 -14.5s39.167 -24.834 49.5 -45.501s17.166 -41.5 20.499 -62.5s5 -48.167 5 -81.5v-246c0 -6 -2.33301 -11.167 -7 -15.5s-9.66699 -6.5 -15 -6.5h-33
c-8 -0 -14.333 5.33301 -19 16l-11 31c-40 -38.667 -87.333 -58 -142 -58c-44 0 -79.833 13.833 -107.5 41.5s-41.5 65.167 -41.5 112.5zM133.001 144.002c0 -21.333 6.16797 -38.833 18.501 -52.5s30.166 -20.5 53.499 -20.5c21.333 0 42.5 6 63.5 18s35.5 24.667 43.5 38
v77c-4.66699 2.66699 -15.167 6 -31.5 10s-33.833 6 -52.5 6c-28 0 -50.833 -6.83301 -68.5 -20.5s-26.5 -32.167 -26.5 -55.5zM343.002 561.002c-17.333 0 -32 6 -44 18s-18 26.667 -18 44c0 18 6 33 18 45s26.667 18 44 18c18 0 33 -6 45 -18s18 -27 18 -45
c0 -17.333 -6 -32 -18 -44s-27 -18 -45 -18zM146.002 561.002c-17.333 0 -32 6 -44 18s-18 26.667 -18 44c0 18 6 33 18 45s26.667 18 44 18c18 0 33 -6 45 -18s18 -27 18 -45c0 -17.333 -6 -32 -18 -44s-27 -18 -45 -18z" />
    <glyph glyph-name="aring" unicode="&#xe5;" horiz-adv-x="477" 
d="M35 143c0 44 16.334 79.835 49.001 107.502s78 41.5 136 41.5c14 0 28.833 -1.16699 44.5 -3.5s27.5 -4.5 35.5 -6.5l13 -4c1.33301 37.333 -3.5 64.333 -14.5 81s-30.833 25 -59.5 25c-36 0 -79 -7.33301 -129 -22c-14 -2.66699 -22.667 3.66602 -26 18.999l-9 38
c-2.66699 13.333 2.33301 22.333 15 27c46 17.333 99 26 159 26c35.333 0 64.333 -4.83301 87 -14.5s39.167 -24.834 49.5 -45.501s17.166 -41.5 20.499 -62.5s5 -48.167 5 -81.5v-246c0 -6 -2.33301 -11.167 -7 -15.5s-9.66699 -6.5 -15 -6.5h-33
c-8 -0 -14.333 5.33301 -19 16l-11 31c-40 -38.667 -87.333 -58 -142 -58c-44 0 -79.833 13.833 -107.5 41.5s-41.5 65.167 -41.5 112.5zM133.001 144.002c0 -21.333 6.16797 -38.833 18.501 -52.5s30.166 -20.5 53.499 -20.5c21.333 0 42.5 6 63.5 18s35.5 24.667 43.5 38
v77c-4.66699 2.66699 -15.167 6 -31.5 10s-33.833 6 -52.5 6c-28 0 -50.833 -6.83301 -68.5 -20.5s-26.5 -32.167 -26.5 -55.5zM242.002 508.002c-30.667 0 -56.834 10.6709 -78.501 32.0039s-32.5 47.666 -32.5 78.999s10.833 57.666 32.5 78.999s47.834 32 78.501 32
s56.834 -10.833 78.501 -32.5s32.5 -47.834 32.5 -78.501s-10.833 -56.834 -32.5 -78.501s-47.834 -32.5 -78.501 -32.5zM242.002 563.006c14 0 26.333 5.66699 37 17s16 24.333 16 39s-5.16699 27.167 -15.5 37.5s-22.833 15.5 -37.5 15.5
c-16 0 -29.333 -5.16699 -40 -15.5s-16 -22.833 -16 -37.5s5.33301 -27.667 16 -39s24 -17 40 -17z" />
    <glyph glyph-name="ae" unicode="&#xe6;" horiz-adv-x="779" 
d="M35 144c0 42 16.167 77.166 48.5 105.499s74.5 42.5 126.5 42.5l97 -6c-0.666992 36.667 -5.5 62.167 -14.5 76.5s-26.5 21.5 -52.5 21.5c-13.333 0 -27.333 -1 -42 -3s-26.167 -3.83301 -34.5 -5.5s-19 -4.16699 -32 -7.5s-20.167 -5.33301 -21.5 -6
c-12.667 -3.33301 -21 1.66699 -25 15l-10 43c-2.66699 14 3.33301 23 18 27c45.333 16.667 97.666 25 156.999 25c68.667 0 114 -18.333 136 -55c41.333 36.667 88 55 140 55c60 0 111.333 -20 154 -60s64 -91 64 -153c0 -34 -8.66699 -51 -26 -51h-316
c1.33301 -33.333 15.166 -62.666 41.499 -87.999s58.833 -38 97.5 -38c32.667 0 69.334 12.667 110.001 38c12 8 21.333 8 28 0c7.33301 -10 17 -24.333 29 -43c8 -12 7 -22.333 -3 -31c-43.333 -38 -100.333 -57 -171 -57c-77.333 0 -136.666 26 -177.999 78
c-15.333 -20 -37.833 -38 -67.5 -54s-62.5 -24 -98.5 -24c-49.333 0 -87.5 13.833 -114.5 41.5s-40.5 65.5 -40.5 113.5zM405 281.999h238c-1.33301 28.667 -12.333 53 -33 73s-47.667 30 -81 30c-35.333 0 -64 -9.66699 -86 -29s-34.667 -44 -38 -74zM133 143.999
c0 -21.333 6.16992 -38.167 18.5029 -50.5s30.166 -18.5 53.499 -18.5c21.333 0 42.666 5.5 63.999 16.5s35.666 22.833 42.999 35.5v77c-4.66699 2.66699 -15.167 6 -31.5 10s-33.833 6 -52.5 6c-28 0 -50.833 -6.83301 -68.5 -20.5s-26.5 -32.167 -26.5 -55.5z" />
    <glyph glyph-name="ccedilla" unicode="&#xe7;" horiz-adv-x="492" 
d="M41 230c0 67.333 23.3311 124.5 69.998 171.5s102.334 70.5 167.001 70.5c68.667 0 124.667 -26.667 168 -80c9.33301 -11.333 8 -22.333 -4 -33l-36 -33c-8.66699 -8 -18.667 -6.33301 -30 5c-28 30.667 -59.667 46 -95 46c-39.333 0 -72.5 -14 -99.5 -42
s-40.5 -62.667 -40.5 -104s13.167 -76.166 39.5 -104.499s58.833 -42.5 97.5 -42.5c11.333 0 21.666 1 30.999 3s18.166 5.66699 26.499 11s14.5 9.5 18.5 12.5s10.167 8.5 18.5 16.5l14.5 14c10 10 20.333 10.667 31 2l31 -25c12.667 -11.333 15.334 -22.333 8.00098 -33
c-36.667 -56.667 -89 -88.334 -157 -95.001l-35 -54c4 1.33301 10.333 2 19 2c24.667 0 45.834 -6.83301 63.501 -20.5s26.5 -34.167 26.5 -61.5c0 -32 -11.5 -56.667 -34.5 -74s-51.167 -26 -84.5 -26c-36 0 -63.667 8.66699 -83 26c-5.33301 5.33301 -5.33301 14 0 26
l9 18c6 12.667 14 15 24 7c12.667 -11.333 28 -17 46 -17c33.333 0 50 12.333 50 37c0 22 -16.333 33 -49 33c-7.33301 0 -22 -3.33301 -44 -10c-4.66699 -2 -9 -0.833008 -13 3.5s-5 8.83301 -3 13.5l50 99c-57.333 8 -105.166 34.167 -143.499 78.5
s-57.5 97.5 -57.5 159.5z" />
    <glyph glyph-name="egrave" unicode="&#xe8;" horiz-adv-x="518" 
d="M42 231c0 66.667 21.334 123.501 64.001 170.501s98 70.5 166 70.5c60 0 110.167 -20 150.5 -60s60.5 -90.667 60.5 -152c0 -10.667 -0.666992 -21.334 -2 -32.001c-1.33301 -13.333 -8.33301 -20 -21 -20h-319c0.666992 -32.667 14.167 -61.834 40.5 -87.501
s58.833 -38.5 97.5 -38.5s76.334 13 113.001 39c12 8 21 7.33301 27 -2l27 -42c9.33301 -11.333 8.66602 -21.666 -2.00098 -30.999c-43.333 -38 -100.333 -57 -171 -57c-68.667 0 -124.334 23.333 -167.001 70s-64 104 -64 172zM146.001 282.001l238 0.00195312
c-1.33301 29.333 -12.5 54.166 -33.5 74.499s-47.833 30.5 -80.5 30.5c-35.333 0 -64 -9.83301 -86 -29.5s-34.667 -44.834 -38 -75.501zM337.001 543.003l-168 72.001c-9.33301 4.66699 -11.333 12.667 -6 24l23 44c2 4 6.16699 6.16699 12.5 6.5
s10.833 -0.833984 13.5 -3.50098l157 -91c8 -4 10 -10.333 6 -19l-14 -29c-4 -8.66699 -12 -10 -24 -4z" />
    <glyph glyph-name="eacute" unicode="&#xe9;" horiz-adv-x="518" 
d="M42 231c0 66.667 21.334 123.501 64.001 170.501s98 70.5 166 70.5c60 0 110.167 -20 150.5 -60s60.5 -90.667 60.5 -152c0 -10.667 -0.666992 -21.334 -2 -32.001c-1.33301 -13.333 -8.33301 -20 -21 -20h-319c0.666992 -32.667 14.167 -61.834 40.5 -87.501
s58.833 -38.5 97.5 -38.5s76.334 13 113.001 39c12 8 21 7.33301 27 -2l27 -42c9.33301 -11.333 8.66602 -21.666 -2.00098 -30.999c-43.333 -38 -100.333 -57 -171 -57c-68.667 0 -124.334 23.333 -167.001 70s-64 104 -64 172zM146.001 282.001l238 0.00195312
c-1.33301 29.333 -12.5 54.166 -33.5 74.499s-47.833 30.5 -80.5 30.5c-35.333 0 -64 -9.83301 -86 -29.5s-34.667 -44.834 -38 -75.501zM200.001 543.003c-12 -6 -20 -4.66797 -24 3.99902l-14 29c-4 8.66699 -2 15 6 19l157 91
c2.66699 2.66699 7.16699 3.83398 13.5 3.50098s10.5 -2.5 12.5 -6.5l23 -44c5.33301 -11.333 3.33301 -19.333 -6 -24z" />
    <glyph glyph-name="ecircumflex" unicode="&#xea;" horiz-adv-x="518" 
d="M42 231c0 66.667 21.334 123.501 64.001 170.501s98 70.5 166 70.5c60 0 110.167 -20 150.5 -60s60.5 -90.667 60.5 -152c0 -10.667 -0.666992 -21.334 -2 -32.001c-1.33301 -13.333 -8.33301 -20 -21 -20h-319c0.666992 -32.667 14.167 -61.834 40.5 -87.501
s58.833 -38.5 97.5 -38.5s76.334 13 113.001 39c12 8 21 7.33301 27 -2l27 -42c9.33301 -11.333 8.66602 -21.666 -2.00098 -30.999c-43.333 -38 -100.333 -57 -171 -57c-68.667 0 -124.334 23.333 -167.001 70s-64 104 -64 172zM146.001 282.001l238 0.00195312
c-1.33301 29.333 -12.5 54.166 -33.5 74.499s-47.833 30.5 -80.5 30.5c-35.333 0 -64 -9.83301 -86 -29.5s-34.667 -44.834 -38 -75.501zM150.001 542.003l-20 27c-4.66699 6.66699 -2.66699 13 6 19l125 98c7.33301 6 15.333 6 24 0l125 -98
c8.66699 -6 10.667 -12.333 6 -19l-20 -27c-6 -8 -13.667 -9 -23 -3l-100 65l-100 -65c-9.33301 -5.33301 -17 -4.33301 -23 3z" />
    <glyph glyph-name="edieresis" unicode="&#xeb;" horiz-adv-x="518" 
d="M42 231c0 66.667 21.334 123.501 64.001 170.501s98 70.5 166 70.5c60 0 110.167 -20 150.5 -60s60.5 -90.667 60.5 -152c0 -10.667 -0.666992 -21.334 -2 -32.001c-1.33301 -13.333 -8.33301 -20 -21 -20h-319c0.666992 -32.667 14.167 -61.834 40.5 -87.501
s58.833 -38.5 97.5 -38.5s76.334 13 113.001 39c12 8 21 7.33301 27 -2l27 -42c9.33301 -11.333 8.66602 -21.666 -2.00098 -30.999c-43.333 -38 -100.333 -57 -171 -57c-68.667 0 -124.334 23.333 -167.001 70s-64 104 -64 172zM146.001 282.001l238 0.00195312
c-1.33301 29.333 -12.5 54.166 -33.5 74.499s-47.833 30.5 -80.5 30.5c-35.333 0 -64 -9.83301 -86 -29.5s-34.667 -44.834 -38 -75.501zM368.001 561.003c-17.333 0 -32 6 -44 18s-18 26.667 -18 44c0 18 6 33 18 45s26.667 18 44 18c18 0 33 -6 45 -18s18 -27 18 -45
c0 -17.333 -6 -32 -18 -44s-27 -18 -45 -18zM171.001 561.003c-17.333 0 -32 6 -44 18s-18 26.667 -18 44c0 18 6 33 18 45s26.667 18 44 18c18 0 33 -6 45 -18s18 -27 18 -45c0 -17.333 -6 -32 -18 -44s-27 -18 -45 -18z" />
    <glyph glyph-name="igrave" unicode="&#xec;" horiz-adv-x="240" 
d="M70 22v418c0 5.33301 2.16699 10.333 6.5 15s9.5 7 15.5 7h56c5.33301 0 10.333 -2.33301 15 -7s7 -9.66699 7 -15v-418c0 -6 -2.33301 -11.167 -7 -15.5s-9.66699 -6.5 -15 -6.5h-56c-6 0 -11.167 2.16699 -15.5 6.5s-6.5 9.5 -6.5 15.5zM186 543l-168 72.001
c-9.33301 4.66699 -11.333 12.667 -6 24l23 44c2 4 6.16699 6.16699 12.5 6.5s10.833 -0.833984 13.5 -3.50098l157 -91c8 -4 10 -10.333 6 -19l-14 -29c-4 -8.66699 -12 -10 -24 -4z" />
    <glyph glyph-name="iacute" unicode="&#xed;" horiz-adv-x="240" 
d="M70 22v418c0 5.33301 2.16699 10.333 6.5 15s9.5 7 15.5 7h56c5.33301 0 10.333 -2.33301 15 -7s7 -9.66699 7 -15v-418c0 -6 -2.33301 -11.167 -7 -15.5s-9.66699 -6.5 -15 -6.5h-56c-6 0 -11.167 2.16699 -15.5 6.5s-6.5 9.5 -6.5 15.5zM64 543
c-12 -6 -20 -4.66797 -24 3.99902l-14 29c-4 8.66699 -2 15 6 19l157 91c2.66699 2.66699 7.16699 3.83398 13.5 3.50098s10.5 -2.5 12.5 -6.5l23 -44c5.33301 -11.333 3.33301 -19.333 -6 -24z" />
    <glyph glyph-name="icircumflex" unicode="&#xee;" horiz-adv-x="240" 
d="M70 22v418c0 5.33301 2.16699 10.333 6.5 15s9.5 7 15.5 7h56c5.33301 0 10.333 -2.33301 15 -7s7 -9.66699 7 -15v-418c0 -6 -2.33301 -11.167 -7 -15.5s-9.66699 -6.5 -15 -6.5h-56c-6 0 -11.167 2.16699 -15.5 6.5s-6.5 9.5 -6.5 15.5zM1 542l-20 27
c-4.66699 6.66699 -2.66699 13 6 19l125 98c7.33301 6 15.333 6 24 0l125 -98c8.66699 -6 10.667 -12.333 6 -19l-20 -27c-6 -8 -13.667 -9 -23 -3l-100 65l-100 -65c-9.33301 -5.33301 -17 -4.33301 -23 3z" />
    <glyph glyph-name="idieresis" unicode="&#xef;" horiz-adv-x="240" 
d="M70 22v418c0 5.33301 2.16699 10.333 6.5 15s9.5 7 15.5 7h56c5.33301 0 10.333 -2.33301 15 -7s7 -9.66699 7 -15v-418c0 -6 -2.33301 -11.167 -7 -15.5s-9.66699 -6.5 -15 -6.5h-56c-6 0 -11.167 2.16699 -15.5 6.5s-6.5 9.5 -6.5 15.5zM223 561
c-17.333 0 -32 6 -44 18s-18 26.667 -18 44c0 18 6 33 18 45s26.667 18 44 18c18 0 33 -6 45 -18s18 -27 18 -45c0 -17.333 -6 -32 -18 -44s-27 -18 -45 -18zM26 561c-17.333 0 -32 6 -44 18s-18 26.667 -18 44c0 18 6 33 18 45s26.667 18 44 18c18 0 33 -6 45 -18
s18 -27 18 -45c0 -17.333 -6 -32 -18 -44s-27 -18 -45 -18z" />
    <glyph glyph-name="eth" unicode="&#xf0;" horiz-adv-x="565" 
d="M42 226c0 68 21.334 122.166 64.001 162.499s93 60.5 151 60.5c50.667 0 96.334 -12.667 137.001 -38c-14.667 54.667 -54.334 106.667 -119.001 156l-92 -52c-10 -5.33301 -18.667 -3.33301 -26 6l-5 10c-6.66699 11.333 -4.66699 20 6 26l72 41
c-29.333 18 -56.333 31.667 -81 41c-18.667 5.33301 -25 15 -19 29l18 43c4.66699 12 13 16 25 12c50.667 -19.333 97.667 -44.666 141 -75.999l73 43c12 6 21 3.33301 27 -8l6 -9c6 -11.333 3.66699 -20 -7 -26l-55 -32l-1 -1c104.667 -89.333 157 -201.333 157 -336
c0 -84 -20.833 -153 -62.5 -207s-101.834 -81 -180.501 -81c-62 0 -115.667 23.167 -161 69.5s-68 101.833 -68 166.5zM136.001 224.999c0 -39.333 13.166 -73.001 39.499 -101.001s58.5 -42 96.5 -42c35.333 0 64.833 11.333 88.5 34s39.334 48.834 47.001 78.501
s10.167 60.167 7.5 91.5c-5.33301 14.667 -21.333 31.5 -48 50.5s-58 28.5 -94 28.5c-38 0 -70.333 -13.667 -97 -41s-40 -60.333 -40 -99z" />
    <glyph glyph-name="ntilde" unicode="&#xf1;" horiz-adv-x="548" 
d="M70 22v418c0 5.33301 2.16699 10.333 6.5 15s9.5 7 15.5 7h24c10.667 0 17 -4.66699 19 -14l14 -40c6 6.66699 14 14.167 24 22.5s27.333 17.333 52 27s51 14.5 79 14.5c119.333 0 179 -72.667 179 -218v-232c0 -6 -2.33301 -11.167 -7 -15.5s-9.66699 -6.5 -15 -6.5h-56
c-6 0 -11.167 2.16699 -15.5 6.5s-6.5 9.5 -6.5 15.5v236c0 38 -7.66699 67.333 -23 88s-38 31 -68 31c-32 0 -58.833 -7.83301 -80.5 -23.5s-35.5 -30.167 -41.5 -43.5v-288c0 -14.667 -9 -22 -27 -22h-51c-6 0 -11.167 2.16699 -15.5 6.5s-6.5 9.5 -6.5 15.5zM162 568
l-22.999 15.001c-8.66699 5.33301 -10.667 13 -6 23c28 56 60.667 84 98 84c16.667 0 31.834 -5.33301 45.501 -16s25.5 -21.334 35.5 -32.001s19.333 -16 28 -16c5.33301 0 10.333 1.5 15 4.5s8.16699 6.16699 10.5 9.5s5.16602 8 8.49902 14s5.66602 10 6.99902 12
c6.66699 11.333 15 14.333 25 9c0.666992 0 4.5 -2.33301 11.5 -7s11.833 -8.66699 14.5 -12c3.33301 -6 2.33301 -15 -3 -27c-22.667 -50 -54 -75 -94 -75c-18.667 0 -39.167 10.833 -61.5 32.5s-37.5 32.5 -45.5 32.5c-16 0 -30.333 -13.667 -43 -41
c-5.33301 -12 -13 -15.333 -23 -10z" />
    <glyph glyph-name="ograve" unicode="&#xf2;" horiz-adv-x="553" 
d="M41 232c0 65.333 23.167 121.666 69.5 168.999s101.833 71 166.5 71c64 0 119.167 -23.667 165.5 -71s69.5 -103.666 69.5 -168.999c0 -66 -23 -123 -69 -171s-101.333 -72 -166 -72s-120.167 24 -166.5 72s-69.5 105 -69.5 171zM139 232c0 -42.667 13.167 -78 39.5 -106
s59.166 -42 98.499 -42c38.667 0 71.167 14.167 97.5 42.5s39.5 63.5 39.5 105.5c0 41.333 -13.167 75.833 -39.5 103.5s-58.833 41.5 -97.5 41.5c-39.333 0 -72.166 -13.833 -98.499 -41.5s-39.5 -62.167 -39.5 -103.5zM336 543l-168 72.001
c-9.33301 4.66699 -11.333 12.667 -6 24l23 44c2 4 6.16699 6.16699 12.5 6.5s10.833 -0.833984 13.5 -3.50098l157 -91c8 -4 10 -10.333 6 -19l-14 -29c-4 -8.66699 -12 -10 -24 -4z" />
    <glyph glyph-name="oacute" unicode="&#xf3;" horiz-adv-x="553" 
d="M41 232c0 65.333 23.167 121.666 69.5 168.999s101.833 71 166.5 71c64 0 119.167 -23.667 165.5 -71s69.5 -103.666 69.5 -168.999c0 -66 -23 -123 -69 -171s-101.333 -72 -166 -72s-120.167 24 -166.5 72s-69.5 105 -69.5 171zM139 232c0 -42.667 13.167 -78 39.5 -106
s59.166 -42 98.499 -42c38.667 0 71.167 14.167 97.5 42.5s39.5 63.5 39.5 105.5c0 41.333 -13.167 75.833 -39.5 103.5s-58.833 41.5 -97.5 41.5c-39.333 0 -72.166 -13.833 -98.499 -41.5s-39.5 -62.167 -39.5 -103.5zM209 543c-12 -6 -20 -4.66797 -24 3.99902l-14 29
c-4 8.66699 -2 15 6 19l157 91c2.66699 2.66699 7.16699 3.83398 13.5 3.50098s10.5 -2.5 12.5 -6.5l23 -44c5.33301 -11.333 3.33301 -19.333 -6 -24z" />
    <glyph glyph-name="ocircumflex" unicode="&#xf4;" horiz-adv-x="553" 
d="M41 232c0 65.333 23.167 121.666 69.5 168.999s101.833 71 166.5 71c64 0 119.167 -23.667 165.5 -71s69.5 -103.666 69.5 -168.999c0 -66 -23 -123 -69 -171s-101.333 -72 -166 -72s-120.167 24 -166.5 72s-69.5 105 -69.5 171zM139 232c0 -42.667 13.167 -78 39.5 -106
s59.166 -42 98.499 -42c38.667 0 71.167 14.167 97.5 42.5s39.5 63.5 39.5 105.5c0 41.333 -13.167 75.833 -39.5 103.5s-58.833 41.5 -97.5 41.5c-39.333 0 -72.166 -13.833 -98.499 -41.5s-39.5 -62.167 -39.5 -103.5zM151 542l-20 27c-4.66699 6.66699 -2.66699 13 6 19
l125 98c7.33301 6 15.333 6 24 0l125 -98c8.66699 -6 10.667 -12.333 6 -19l-20 -27c-6 -8 -13.667 -9 -23 -3l-100 65l-100 -65c-9.33301 -5.33301 -17 -4.33301 -23 3z" />
    <glyph glyph-name="otilde" unicode="&#xf5;" horiz-adv-x="553" 
d="M41 232c0 65.333 23.167 121.666 69.5 168.999s101.833 71 166.5 71c64 0 119.167 -23.667 165.5 -71s69.5 -103.666 69.5 -168.999c0 -66 -23 -123 -69 -171s-101.333 -72 -166 -72s-120.167 24 -166.5 72s-69.5 105 -69.5 171zM139 232c0 -42.667 13.167 -78 39.5 -106
s59.166 -42 98.499 -42c38.667 0 71.167 14.167 97.5 42.5s39.5 63.5 39.5 105.5c0 41.333 -13.167 75.833 -39.5 103.5s-58.833 41.5 -97.5 41.5c-39.333 0 -72.166 -13.833 -98.499 -41.5s-39.5 -62.167 -39.5 -103.5zM153 568l-22.999 15.001
c-8.66699 5.33301 -10.667 13 -6 23c28 56 60.667 84 98 84c16.667 0 31.834 -5.33301 45.501 -16s25.5 -21.334 35.5 -32.001s19.333 -16 28 -16c5.33301 0 10.333 1.5 15 4.5s8.16699 6.16699 10.5 9.5s5.16602 8 8.49902 14s5.66602 10 6.99902 12
c6.66699 11.333 15 14.333 25 9c0.666992 0 4.5 -2.33301 11.5 -7s11.833 -8.66699 14.5 -12c3.33301 -6 2.33301 -15 -3 -27c-22.667 -50 -54 -75 -94 -75c-18.667 0 -39.167 10.833 -61.5 32.5s-37.5 32.5 -45.5 32.5c-16 0 -30.333 -13.667 -43 -41
c-5.33301 -12 -13 -15.333 -23 -10z" />
    <glyph glyph-name="odieresis" unicode="&#xf6;" horiz-adv-x="553" 
d="M41 232c0 65.333 23.167 121.666 69.5 168.999s101.833 71 166.5 71c64 0 119.167 -23.667 165.5 -71s69.5 -103.666 69.5 -168.999c0 -66 -23 -123 -69 -171s-101.333 -72 -166 -72s-120.167 24 -166.5 72s-69.5 105 -69.5 171zM139 232c0 -42.667 13.167 -78 39.5 -106
s59.166 -42 98.499 -42c38.667 0 71.167 14.167 97.5 42.5s39.5 63.5 39.5 105.5c0 41.333 -13.167 75.833 -39.5 103.5s-58.833 41.5 -97.5 41.5c-39.333 0 -72.166 -13.833 -98.499 -41.5s-39.5 -62.167 -39.5 -103.5zM374 561c-17.333 0 -32 6 -44 18s-18 26.667 -18 44
c0 18 6 33 18 45s26.667 18 44 18c18 0 33 -6 45 -18s18 -27 18 -45c0 -17.333 -6 -32 -18 -44s-27 -18 -45 -18zM177 561c-17.333 0 -32 6 -44 18s-18 26.667 -18 44c0 18 6 33 18 45s26.667 18 44 18c18 0 33 -6 45 -18s18 -27 18 -45c0 -17.333 -6 -32 -18 -44
s-27 -18 -45 -18z" />
    <glyph glyph-name="divide" unicode="&#xf7;" 
d="M297 471c-16.667 0 -31.332 6.16699 -43.999 18.5s-19 27.166 -19 44.499s6.16699 32.166 18.5 44.499s27.166 18.5 44.499 18.5s32.166 -6.16699 44.499 -18.5s18.5 -27.166 18.5 -44.499s-6.16699 -32.166 -18.5 -44.499s-27.166 -18.5 -44.499 -18.5zM107.002 306
c-4.66699 0 -9 2 -13 6s-6 8.33301 -6 13v42c0 4.66699 2 9 6 13s8.33301 6 13 6h387c4.66699 0 8.83398 -1.83301 12.501 -5.5s5.5 -8.16699 5.5 -13.5v-42c0 -5.33301 -1.83301 -9.83301 -5.5 -13.5s-7.83398 -5.5 -12.501 -5.5h-387zM234.002 165
c0 17.333 6.16699 32.166 18.5 44.499s27.166 18.5 44.499 18.5s32.166 -6.16699 44.499 -18.5s18.5 -27.166 18.5 -44.499s-6.16699 -32.166 -18.5 -44.499s-27.166 -18.5 -44.499 -18.5s-32.166 6.16699 -44.499 18.5s-18.5 27.166 -18.5 44.499z" />
    <glyph glyph-name="oslash" unicode="&#xf8;" horiz-adv-x="553" 
d="M41 232c0 65.333 23.166 121.667 69.499 169s101.833 71 166.5 71c55.333 0 104.333 -18 147 -54l27 27c10.667 10.667 20.667 10.667 30 0l9 -8c11.333 -10 11.333 -20.333 0 -31l-28 -28c33.333 -44 50 -92.667 50 -146c0 -66 -23 -123 -69 -171s-101.333 -72 -166 -72
c-55.333 0 -104.333 17.667 -147 53l-21 -21c-3.33301 -4 -8.16602 -5.83301 -14.499 -5.5s-11.833 2.5 -16.5 6.5l-7 8c-10.667 10 -11 20 -1 30l22 22c-34 43.333 -51 93.333 -51 150zM138.999 232.001c0 -30.667 6.99902 -57.667 20.999 -81l197 199
c-23.333 18 -50 27 -80 27c-39.333 0 -72.166 -13.833 -98.499 -41.5s-39.5 -62.167 -39.5 -103.5zM413.998 232.001c0 26.667 -6.66797 52.333 -20.001 77l-197 -199c22.667 -17.333 49.334 -26 80.001 -26c38.667 0 71.167 14.167 97.5 42.5s39.5 63.5 39.5 105.5z" />
    <glyph glyph-name="ugrave" unicode="&#xf9;" horiz-adv-x="533" 
d="M65 201l-0.000976562 239c0 5.33301 2.33301 10.333 7 15s9.66699 7 15 7h56c6 0 11.167 -2.33301 15.5 -7s6.5 -9.66699 6.5 -15v-246c0 -73.333 30 -110 90 -110c29.333 0 54 9 74 27s31.333 34.333 34 49v280c0 8.66699 2 14.5 6 17.5s10.667 4.5 20 4.5h51
c6 0 11.333 -2.33301 16 -7s7 -9.66699 7 -15v-418c0 -6 -2.33301 -11.167 -7 -15.5s-10 -6.5 -16 -6.5h-24c-9.33301 -0 -16.333 6.33301 -21 19l-12 33l-5 -4c-2.66699 -3.33301 -5 -6 -7 -8s-5.16699 -4.83301 -9.5 -8.5s-8.66602 -7 -12.999 -10
s-9.5 -6.16699 -15.5 -9.5s-12.333 -6.33301 -19 -9s-14 -5.16699 -22 -7.5s-16.667 -4 -26 -5s-19 -1.5 -29 -1.5c-64.667 0 -109.5 18.5 -134.5 55.5s-37.5 89.167 -37.5 156.5zM339.999 544l-168 72.001c-9.33301 4.66699 -11.333 12.667 -6 24l23 44
c2 4 6.16699 6.16699 12.5 6.5s10.833 -0.833984 13.5 -3.50098l157 -91c8 -4 10 -10.333 6 -19l-14 -29c-4 -8.66699 -12 -10 -24 -4z" />
    <glyph glyph-name="uacute" unicode="&#xfa;" horiz-adv-x="533" 
d="M209 543c-12 -6 -20 -4.66797 -24 3.99902l-14 29c-4 8.66699 -2 15 6 19l157 91c2.66699 2.66699 7.16699 3.83398 13.5 3.50098s10.5 -2.5 12.5 -6.5l23 -44c5.33301 -11.333 3.33301 -19.333 -6 -24zM65 200.999l-0.000976562 239c0 5.33301 2.33301 10.333 7 15
s9.66699 7 15 7h56c6 0 11.167 -2.33301 15.5 -7s6.5 -9.66699 6.5 -15v-246c0 -73.333 30 -110 90 -110c29.333 0 54 9 74 27s31.333 34.333 34 49v280c0 8.66699 2 14.5 6 17.5s10.667 4.5 20 4.5h51c6 0 11.333 -2.33301 16 -7s7 -9.66699 7 -15v-418
c0 -6 -2.33301 -11.167 -7 -15.5s-10 -6.5 -16 -6.5h-24c-9.33301 0 -16.333 6.33301 -21 19l-12 33l-5 -4c-2.66699 -3.33301 -5 -6 -7 -8s-5.16699 -4.83301 -9.5 -8.5s-8.66602 -7 -12.999 -10s-9.5 -6.16699 -15.5 -9.5s-12.333 -6.33301 -19 -9s-14 -5.16699 -22 -7.5
s-16.667 -4 -26 -5s-19 -1.5 -29 -1.5c-64.667 0 -109.5 18.5 -134.5 55.5s-37.5 89.167 -37.5 156.5z" />
    <glyph glyph-name="ucircumflex" unicode="&#xfb;" horiz-adv-x="533" 
d="M152 542l-20 27c-4.66699 6.66699 -2.66699 13 6 19l125 98c7.33301 6 15.333 6 24 0l125 -98c8.66699 -6 10.667 -12.333 6 -19l-20 -27c-6 -8 -13.667 -9 -23 -3l-100 65l-100 -65c-9.33301 -5.33301 -17 -4.33301 -23 3zM65 201l-0.000976562 239
c0 5.33301 2.33301 10.333 7 15s9.66699 7 15 7h56c6 0 11.167 -2.33301 15.5 -7s6.5 -9.66699 6.5 -15v-246c0 -73.333 30 -110 90 -110c29.333 0 54 9 74 27s31.333 34.333 34 49v280c0 8.66699 2 14.5 6 17.5s10.667 4.5 20 4.5h51c6 0 11.333 -2.33301 16 -7
s7 -9.66699 7 -15v-418c0 -6 -2.33301 -11.167 -7 -15.5s-10 -6.5 -16 -6.5h-24c-9.33301 -0 -16.333 6.33301 -21 19l-12 33l-5 -4c-2.66699 -3.33301 -5 -6 -7 -8s-5.16699 -4.83301 -9.5 -8.5s-8.66602 -7 -12.999 -10s-9.5 -6.16699 -15.5 -9.5s-12.333 -6.33301 -19 -9
s-14 -5.16699 -22 -7.5s-16.667 -4 -26 -5s-19 -1.5 -29 -1.5c-64.667 0 -109.5 18.5 -134.5 55.5s-37.5 89.167 -37.5 156.5z" />
    <glyph glyph-name="udieresis" unicode="&#xfc;" horiz-adv-x="533" 
d="M368 561c-17.333 0 -32 6 -44 18s-18 26.667 -18 44c0 18 6 33 18 45s26.667 18 44 18c18 0 33 -6 45 -18s18 -27 18 -45c0 -17.333 -6 -32 -18 -44s-27 -18 -45 -18zM171 561c-17.333 0 -32 6 -44 18s-18 26.667 -18 44c0 18 6 33 18 45s26.667 18 44 18
c18 0 33 -6 45 -18s18 -27 18 -45c0 -17.333 -6 -32 -18 -44s-27 -18 -45 -18zM65 201l-0.000976562 239c0 5.33301 2.33301 10.333 7 15s9.66699 7 15 7h56c6 0 11.167 -2.33301 15.5 -7s6.5 -9.66699 6.5 -15v-246c0 -73.333 30 -110 90 -110c29.333 0 54 9 74 27
s31.333 34.333 34 49v280c0 8.66699 2 14.5 6 17.5s10.667 4.5 20 4.5h51c6 0 11.333 -2.33301 16 -7s7 -9.66699 7 -15v-418c0 -6 -2.33301 -11.167 -7 -15.5s-10 -6.5 -16 -6.5h-24c-9.33301 -0 -16.333 6.33301 -21 19l-12 33l-5 -4c-2.66699 -3.33301 -5 -6 -7 -8
s-5.16699 -4.83301 -9.5 -8.5s-8.66602 -7 -12.999 -10s-9.5 -6.16699 -15.5 -9.5s-12.333 -6.33301 -19 -9s-14 -5.16699 -22 -7.5s-16.667 -4 -26 -5s-19 -1.5 -29 -1.5c-64.667 0 -109.5 18.5 -134.5 55.5s-37.5 89.167 -37.5 156.5z" />
    <glyph glyph-name="yacute" unicode="&#xfd;" horiz-adv-x="497" 
d="M182 16l-159.002 416c-3.33301 8 -3 15 1 21s10.333 9 19 9h66c10 0 16.667 -4.33301 20 -13l107 -317h2l130 317c3.33301 8.66699 11.333 13 24 13h62c9.33301 0 15.833 -3 19.5 -9s3.83398 -13 0.500977 -21l-282 -656c-5.33301 -9.33301 -11.666 -14 -18.999 -14h-64
c-8.66699 0 -15.167 3.16699 -19.5 9.5s-4.5 13.5 -0.5 21.5zM205.998 543c-12 -6 -20 -4.66797 -24 3.99902l-14 29c-4 8.66699 -2 15 6 19l157 91c2.66699 2.66699 7.16699 3.83398 13.5 3.50098s10.5 -2.5 12.5 -6.5l23 -44c5.33301 -11.333 3.33301 -19.333 -6 -24z" />
    <glyph glyph-name="thorn" unicode="&#xfe;" horiz-adv-x="553" 
d="M171 21l-0.000976562 -237c0 -5.33301 -2.33301 -10.333 -7 -15s-9.66699 -7 -15 -7h-56c-6 0 -11.167 2.16699 -15.5 6.5s-6.5 9.5 -6.5 15.5v894c0 6 2.16699 11.167 6.5 15.5s9.5 6.5 15.5 6.5h56c5.33301 0 10.333 -2.33301 15 -7s7 -9.66699 7 -15v-245l7 5
c5.33301 2.66699 10 5.16699 14 7.5s10 5.33301 18 9s15.833 6.66699 23.5 9s16.834 4.33301 27.501 6s21.334 2.5 32.001 2.5c62.667 0 114.667 -23.5 156 -70.5s62 -104.167 62 -171.5c0 -68.667 -21.333 -126 -64 -172s-96 -69 -160 -69
c-38.667 0 -77.334 10.667 -116.001 32zM170.999 118c4 -6 16.5 -13 37.5 -21s43.5 -12 67.5 -12c38 0 70 14.333 96 43s39 63 39 103s-12.167 74.333 -36.5 103s-55.833 43 -94.5 43c-26 0 -49 -6.16699 -69 -18.5s-33.333 -23.833 -40 -34.5v-206z" />
    <glyph glyph-name="ydieresis" unicode="&#xff;" horiz-adv-x="497" 
d="M182 16l-159.002 416c-3.33301 8 -3 15 1 21s10.333 9 19 9h66c10 0 16.667 -4.33301 20 -13l107 -317h2l130 317c3.33301 8.66699 11.333 13 24 13h62c9.33301 0 15.833 -3 19.5 -9s3.83398 -13 0.500977 -21l-282 -656c-5.33301 -9.33301 -11.666 -14 -18.999 -14h-64
c-8.66699 0 -15.167 3.16699 -19.5 9.5s-4.5 13.5 -0.5 21.5zM353.998 561c-17.333 0 -32 6 -44 18s-18 26.667 -18 44c0 18 6 33 18 45s26.667 18 44 18c18 0 33 -6 45 -18s18 -27 18 -45c0 -17.333 -6 -32 -18 -44s-27 -18 -45 -18zM156.998 561c-17.333 0 -32 6 -44 18
s-18 26.667 -18 44c0 18 6 33 18 45s26.667 18 44 18c18 0 33 -6 45 -18s18 -27 18 -45c0 -17.333 -6 -32 -18 -44s-27 -18 -45 -18z" />
    <glyph glyph-name="Amacron" unicode="&#x100;" horiz-adv-x="667" 
d="M22 0c-7.33301 0 -12.8301 2.66699 -16.4971 8s-3.83398 11.333 -0.500977 18l307 673c4 7.33301 9.66699 11 17 11h10c7.33301 0 13 -3.66699 17 -11l305 -673c3.33301 -6.66699 3.16602 -12.667 -0.500977 -18s-9.16699 -8 -16.5 -8h-63
c-10.667 0 -18.334 5 -23.001 15l-62 137h-327l-61 -137c-4 -10 -11.667 -15 -23 -15h-63zM208.003 238h250l-123 274h-5zM204.003 814c-5.33301 0 -9.83301 1.66699 -13.5 5s-5.5 7.66602 -5.5 12.999v28c0 12.667 6.33301 19 19 19h256c12.667 0 19 -6.33301 19 -19v-28
c0 -5.33301 -1.83301 -9.66602 -5.5 -12.999s-8.16699 -5 -13.5 -5h-256z" />
    <glyph glyph-name="amacron" unicode="&#x101;" horiz-adv-x="477" 
d="M35 143c0 44 16.334 79.835 49.001 107.502s78 41.5 136 41.5c14 0 28.833 -1.16699 44.5 -3.5s27.5 -4.5 35.5 -6.5l13 -4c1.33301 37.333 -3.5 64.333 -14.5 81s-30.833 25 -59.5 25c-36 0 -79 -7.33301 -129 -22c-14 -2.66699 -22.667 3.66602 -26 18.999l-9 38
c-2.66699 13.333 2.33301 22.333 15 27c46 17.333 99 26 159 26c35.333 0 64.333 -4.83301 87 -14.5s39.167 -24.834 49.5 -45.501s17.166 -41.5 20.499 -62.5s5 -48.167 5 -81.5v-246c0 -6 -2.33301 -11.167 -7 -15.5s-9.66699 -6.5 -15 -6.5h-33
c-8 -0 -14.333 5.33301 -19 16l-11 31c-40 -38.667 -87.333 -58 -142 -58c-44 0 -79.833 13.833 -107.5 41.5s-41.5 65.167 -41.5 112.5zM133.001 144.002c0 -21.333 6.16797 -38.833 18.501 -52.5s30.166 -20.5 53.499 -20.5c21.333 0 42.5 6 63.5 18s35.5 24.667 43.5 38
v77c-4.66699 2.66699 -15.167 6 -31.5 10s-33.833 6 -52.5 6c-28 0 -50.833 -6.83301 -68.5 -20.5s-26.5 -32.167 -26.5 -55.5zM114.002 576.002c-5.33301 0 -9.83301 1.66699 -13.5 5s-5.5 7.66602 -5.5 12.999v28c0 12.667 6.33301 19 19 19h256
c12.667 0 19 -6.33301 19 -19v-28c0 -5.33301 -1.83301 -9.66602 -5.5 -12.999s-8.16699 -5 -13.5 -5h-256z" />
    <glyph glyph-name="Abreve" unicode="&#x102;" horiz-adv-x="667" 
d="M22 0c-7.33301 0 -12.8301 2.66699 -16.4971 8s-3.83398 11.333 -0.500977 18l307 673c4 7.33301 9.66699 11 17 11h10c7.33301 0 13 -3.66699 17 -11l305 -673c3.33301 -6.66699 3.16602 -12.667 -0.500977 -18s-9.16699 -8 -16.5 -8h-63
c-10.667 0 -18.334 5 -23.001 15l-62 137h-327l-61 -137c-4 -10 -11.667 -15 -23 -15h-63zM208.003 238h250l-123 274h-5zM333.003 768c-35.333 0 -65.8311 11 -91.498 33s-41.167 49.667 -46.5 83c-1.33301 6 -0.5 11 2.5 15s7.5 6 13.5 6h29
c9.33301 0 15.333 -5.33301 18 -16c12.667 -38.667 37.667 -58 75 -58c16 0 30.667 5.66699 44 17s22.666 25 27.999 41c3.33301 10.667 9.33301 16 18 16h31c6 0 10.5 -2 13.5 -6s3.83301 -9 2.5 -15c-5.33301 -33.333 -20.833 -61 -46.5 -83s-55.834 -33 -90.501 -33z" />
    <glyph glyph-name="abreve" unicode="&#x103;" horiz-adv-x="477" 
d="M35 143c0 44 16.334 79.835 49.001 107.502s78 41.5 136 41.5c14 0 28.833 -1.16699 44.5 -3.5s27.5 -4.5 35.5 -6.5l13 -4c1.33301 37.333 -3.5 64.333 -14.5 81s-30.833 25 -59.5 25c-36 0 -79 -7.33301 -129 -22c-14 -2.66699 -22.667 3.66602 -26 18.999l-9 38
c-2.66699 13.333 2.33301 22.333 15 27c46 17.333 99 26 159 26c35.333 0 64.333 -4.83301 87 -14.5s39.167 -24.834 49.5 -45.501s17.166 -41.5 20.499 -62.5s5 -48.167 5 -81.5v-246c0 -6 -2.33301 -11.167 -7 -15.5s-9.66699 -6.5 -15 -6.5h-33
c-8 -0 -14.333 5.33301 -19 16l-11 31c-40 -38.667 -87.333 -58 -142 -58c-44 0 -79.833 13.833 -107.5 41.5s-41.5 65.167 -41.5 112.5zM133.001 144.002c0 -21.333 6.16797 -38.833 18.501 -52.5s30.166 -20.5 53.499 -20.5c21.333 0 42.5 6 63.5 18s35.5 24.667 43.5 38
v77c-4.66699 2.66699 -15.167 6 -31.5 10s-33.833 6 -52.5 6c-28 0 -50.833 -6.83301 -68.5 -20.5s-26.5 -32.167 -26.5 -55.5zM243.002 529.002c-35.333 0 -65.8301 11 -91.4971 33s-41.167 49.667 -46.5 83c-2 14 3.33301 21 16 21h29c9.33301 0 15.333 -5 18 -15
c12.667 -39.333 37.667 -59 75 -59c16 0 30.667 5.66699 44 17s22.666 25.333 27.999 42c3.33301 10 9.33301 15 18 15h31c13.333 0 18.666 -7 15.999 -21c-5.33301 -33.333 -20.833 -61 -46.5 -83s-55.834 -33 -90.501 -33z" />
    <glyph glyph-name="Aogonek" unicode="&#x104;" horiz-adv-x="667" 
d="M22 0c-7.33301 0 -12.832 2.66602 -16.499 7.99902s-3.83398 11.333 -0.500977 18l307 673c4 7.33301 9.66699 11 17 11h10c7.33301 0 13 -3.66699 17 -11l305 -673c3.33301 -6.66699 3.16602 -12.667 -0.500977 -18s-9.16699 -8 -16.5 -8h-4
c-24 -15.333 -46.167 -34 -66.5 -56s-30.5 -45 -30.5 -69c0 -30.667 14.333 -46 43 -46c20.667 0 41.334 9 62.001 27c4 4 8 5.33301 12 4s6 -4.66602 6 -9.99902l1 -44c0 -13.333 -4.66699 -23 -14 -29c-25.333 -15.333 -54.333 -23 -87 -23s-58 9.66699 -76 29
s-27 44 -27 74c0 52 34 101.333 102 148l-69 147h-327l-61 -137c-4 -10 -11.667 -15 -23 -15h-63zM208.001 237.999h250l-123 274h-5z" />
    <glyph glyph-name="aogonek" unicode="&#x105;" horiz-adv-x="477" 
d="M35 143c0 44 16.335 79.834 49.002 107.501s78 41.5 136 41.5c14 0 28.833 -1.16699 44.5 -3.5s27.5 -4.5 35.5 -6.5l13 -4c1.33301 37.333 -3.5 64.333 -14.5 81s-30.833 25 -59.5 25c-36 0 -79 -7.33301 -129 -22c-14 -2.66699 -22.667 3.66602 -26 18.999l-9 38
c-2.66699 13.333 2.33301 22.333 15 27c46 17.333 99 26 159 26c35.333 0 64.333 -4.83301 87 -14.5s39.167 -24.834 49.5 -45.501s17.166 -41.5 20.499 -62.5s5 -48.167 5 -81.5v-242c0 -12 -5 -20.333 -15 -25c-22.667 -11.333 -44.834 -29 -66.501 -53
s-32.5 -48.333 -32.5 -73c0 -30.667 14.333 -46 43 -46c20.667 0 41.334 9 62.001 27c4 4 8 5.33301 12 4s6 -4.66602 6 -9.99902l1 -44c0 -13.333 -4.66699 -23 -14 -29c-25.333 -15.333 -54.333 -23 -87 -23s-58 9.66699 -76 29s-27 44 -27 74c0 34 12.667 64.833 38 92.5
s52.666 49.167 81.999 64.5l-11 33c-40 -38.667 -87.333 -58 -142 -58c-44 0 -79.833 13.833 -107.5 41.5s-41.5 65.167 -41.5 112.5zM133.002 144.001c0 -21.333 6.16797 -38.833 18.501 -52.5s30.166 -20.5 53.499 -20.5c21.333 0 42.5 6 63.5 18s35.5 24.667 43.5 38v77
c-4.66699 2.66699 -15.167 6 -31.5 10s-33.833 6 -52.5 6c-28 0 -50.833 -6.83301 -68.5 -20.5s-26.5 -32.167 -26.5 -55.5z" />
    <glyph glyph-name="Cacute" unicode="&#x106;" horiz-adv-x="698" 
d="M48 349c0 100 35.166 185.166 105.499 255.499s155.5 105.5 255.5 105.5c90 0 170.667 -31 242 -93c10 -9.33301 10.333 -18.666 1 -27.999l-44 -45c-7.33301 -9.33301 -15.666 -9.33301 -24.999 0c-51.333 44.667 -109 67 -173 67
c-70.667 0 -130.167 -25.667 -178.5 -77s-72.5 -112.333 -72.5 -183s24.333 -131.5 73 -182.5s108.334 -76.5 179.001 -76.5c57.333 0 114.666 22 171.999 66c8.66699 6.66699 16.667 7 24 1l46 -45c4 -4 5.83301 -8.5 5.5 -13.5s-2.5 -9.5 -6.5 -13.5
c-66.667 -64.667 -147.667 -97 -243 -97c-100 0 -185.167 34.833 -255.5 104.5s-105.5 154.5 -105.5 254.5zM337.999 773.999c-12 -5.33301 -20 -3.66797 -24 4.99902l-14 28c-4 8 -2 14.333 6 19l157 91c2.66699 2.66699 7.16699 3.83398 13.5 3.50098s10.5 -2.5 12.5 -6.5
l23 -44c6.66699 -10.667 4.66699 -18.667 -6 -24z" />
    <glyph glyph-name="cacute" unicode="&#x107;" horiz-adv-x="492" 
d="M41 230c0 67.333 23.333 124.499 70 171.499s102.334 70.5 167.001 70.5c68.667 0 124.667 -26.667 168 -80c9.33301 -11.333 8 -22.333 -4 -33l-36 -33c-8.66699 -8 -18.667 -6.33301 -30 5c-28 30.667 -59.667 46 -95 46c-39.333 0 -72.5 -14 -99.5 -42
s-40.5 -62.667 -40.5 -104s13.167 -76.166 39.5 -104.499s58.833 -42.5 97.5 -42.5c11.333 0 21.666 1 30.999 3s18.166 5.66699 26.499 11s14.5 9.5 18.5 12.5s10.167 8.5 18.5 16.5l14.5 14c10 10 20.333 10.667 31 2l31 -25c12.667 -11.333 15.334 -22.333 8.00098 -33
c-42.667 -64 -102.667 -96 -180 -96c-65.333 0 -121 23 -167 69s-69 103.333 -69 172zM205 542.999c-12 -6 -20 -4.66797 -24 3.99902l-14 29c-4 8.66699 -2 15 6 19l157 91c2.66699 2.66699 7.16699 3.83398 13.5 3.50098s10.5 -2.5 12.5 -6.5l23 -44
c5.33301 -11.333 3.33301 -19.333 -6 -24z" />
    <glyph glyph-name="Ccircumflex" unicode="&#x108;" horiz-adv-x="698" 
d="M48 349c0 100 35.166 185.166 105.499 255.499s155.5 105.5 255.5 105.5c90 0 170.667 -31 242 -93c10 -9.33301 10.333 -18.666 1 -27.999l-44 -45c-7.33301 -9.33301 -15.666 -9.33301 -24.999 0c-51.333 44.667 -109 67 -173 67
c-70.667 0 -130.167 -25.667 -178.5 -77s-72.5 -112.333 -72.5 -183s24.333 -131.5 73 -182.5s108.334 -76.5 179.001 -76.5c57.333 0 114.666 22 171.999 66c8.66699 6.66699 16.667 7 24 1l46 -45c4 -4 5.83301 -8.5 5.5 -13.5s-2.5 -9.5 -6.5 -13.5
c-66.667 -64.667 -147.667 -97 -243 -97c-100 0 -185.167 34.833 -255.5 104.5s-105.5 154.5 -105.5 254.5zM307.999 768.999c-9.33301 -5.33301 -17 -4.33301 -23 3l-20 27c-4.66699 6.66699 -2.66699 13 6 19l125 98c7.33301 6 15.333 6 24 0l125 -98
c8.66699 -6 10.667 -12.333 6 -19l-20 -27c-6 -8 -13.667 -9 -23 -3l-100 65z" />
    <glyph glyph-name="ccircumflex" unicode="&#x109;" horiz-adv-x="492" 
d="M41 230c0 67.333 23.333 124.499 70 171.499s102.334 70.5 167.001 70.5c68.667 0 124.667 -26.667 168 -80c9.33301 -11.333 8 -22.333 -4 -33l-36 -33c-8.66699 -8 -18.667 -6.33301 -30 5c-28 30.667 -59.667 46 -95 46c-39.333 0 -72.5 -14 -99.5 -42
s-40.5 -62.667 -40.5 -104s13.167 -76.166 39.5 -104.499s58.833 -42.5 97.5 -42.5c11.333 0 21.666 1 30.999 3s18.166 5.66699 26.499 11s14.5 9.5 18.5 12.5s10.167 8.5 18.5 16.5l14.5 14c10 10 20.333 10.667 31 2l31 -25c12.667 -11.333 15.334 -22.333 8.00098 -33
c-42.667 -64 -102.667 -96 -180 -96c-65.333 0 -121 23 -167 69s-69 103.333 -69 172zM161 541.999l-20 27c-4.66699 6.66699 -2.66699 13 6 19l125 98c7.33301 6 15.333 6 24 0l125 -98c8.66699 -6 10.667 -12.333 6 -19l-20 -27c-6 -8 -13.667 -9 -23 -3l-100 65l-100 -65
c-9.33301 -5.33301 -17 -4.33301 -23 3z" />
    <glyph glyph-name="Cdotaccent" unicode="&#x10a;" horiz-adv-x="698" 
d="M48 349c0 100 35.166 185.166 105.499 255.499s155.5 105.5 255.5 105.5c90 0 170.667 -31 242 -93c10 -9.33301 10.333 -18.666 1 -27.999l-44 -45c-7.33301 -9.33301 -15.666 -9.33301 -24.999 0c-51.333 44.667 -109 67 -173 67
c-70.667 0 -130.167 -25.667 -178.5 -77s-72.5 -112.333 -72.5 -183s24.333 -131.5 73 -182.5s108.334 -76.5 179.001 -76.5c57.333 0 114.666 22 171.999 66c8.66699 6.66699 16.667 7 24 1l46 -45c4 -4 5.83301 -8.5 5.5 -13.5s-2.5 -9.5 -6.5 -13.5
c-66.667 -64.667 -147.667 -97 -243 -97c-100 0 -185.167 34.833 -255.5 104.5s-105.5 154.5 -105.5 254.5zM408.999 784.999c-18.667 0 -34.334 6.5 -47.001 19.5s-19 28.833 -19 47.5c0 19.333 6.33301 35.5 19 48.5s28.334 19.5 47.001 19.5
c19.333 0 35.5 -6.66699 48.5 -20s19.5 -29.333 19.5 -48s-6.66699 -34.5 -20 -47.5s-29.333 -19.5 -48 -19.5z" />
    <glyph glyph-name="cdotaccent" unicode="&#x10b;" horiz-adv-x="492" 
d="M41 230c0 67.333 23.333 124.499 70 171.499s102.334 70.5 167.001 70.5c68.667 0 124.667 -26.667 168 -80c9.33301 -11.333 8 -22.333 -4 -33l-36 -33c-8.66699 -8 -18.667 -6.33301 -30 5c-28 30.667 -59.667 46 -95 46c-39.333 0 -72.5 -14 -99.5 -42
s-40.5 -62.667 -40.5 -104s13.167 -76.166 39.5 -104.499s58.833 -42.5 97.5 -42.5c11.333 0 21.666 1 30.999 3s18.166 5.66699 26.499 11s14.5 9.5 18.5 12.5s10.167 8.5 18.5 16.5l14.5 14c10 10 20.333 10.667 31 2l31 -25c12.667 -11.333 15.334 -22.333 8.00098 -33
c-42.667 -64 -102.667 -96 -180 -96c-65.333 0 -121 23 -167 69s-69 103.333 -69 172zM283 560.999c-18.667 0 -34.334 6.5 -47.001 19.5s-19 28.833 -19 47.5c0 19.333 6.33301 35.5 19 48.5s28.334 19.5 47.001 19.5c19.333 0 35.5 -6.66699 48.5 -20
s19.5 -29.333 19.5 -48s-6.66699 -34.5 -20 -47.5s-29.333 -19.5 -48 -19.5z" />
    <glyph glyph-name="Ccaron" unicode="&#x10c;" horiz-adv-x="698" 
d="M48 349c0 100 35.166 185.166 105.499 255.499s155.5 105.5 255.5 105.5c90 0 170.667 -31 242 -93c10 -9.33301 10.333 -18.666 1 -27.999l-44 -45c-7.33301 -9.33301 -15.666 -9.33301 -24.999 0c-51.333 44.667 -109 67 -173 67
c-70.667 0 -130.167 -25.667 -178.5 -77s-72.5 -112.333 -72.5 -183s24.333 -131.5 73 -182.5s108.334 -76.5 179.001 -76.5c57.333 0 114.666 22 171.999 66c8.66699 6.66699 16.667 7 24 1l46 -45c4 -4 5.83301 -8.5 5.5 -13.5s-2.5 -9.5 -6.5 -13.5
c-66.667 -64.667 -147.667 -97 -243 -97c-100 0 -185.167 34.833 -255.5 104.5s-105.5 154.5 -105.5 254.5zM395.999 767.999l-125 98c-8.66699 6 -10.667 12.333 -6 19l20 27c6 7.33301 13.667 8.33301 23 3l100 -65l100 65c9.33301 6 17 5 23 -3l20 -27
c4.66699 -6.66699 2.66699 -13 -6 -19l-125 -98c-8.66699 -6 -16.667 -6 -24 0z" />
    <glyph glyph-name="ccaron" unicode="&#x10d;" horiz-adv-x="492" 
d="M41 230c0 67.333 23.333 124.499 70 171.499s102.334 70.5 167.001 70.5c68.667 0 124.667 -26.667 168 -80c9.33301 -11.333 8 -22.333 -4 -33l-36 -33c-8.66699 -8 -18.667 -6.33301 -30 5c-28 30.667 -59.667 46 -95 46c-39.333 0 -72.5 -14 -99.5 -42
s-40.5 -62.667 -40.5 -104s13.167 -76.166 39.5 -104.499s58.833 -42.5 97.5 -42.5c11.333 0 21.666 1 30.999 3s18.166 5.66699 26.499 11s14.5 9.5 18.5 12.5s10.167 8.5 18.5 16.5l14.5 14c10 10 20.333 10.667 31 2l31 -25c12.667 -11.333 15.334 -22.333 8.00098 -33
c-42.667 -64 -102.667 -96 -180 -96c-65.333 0 -121 23 -167 69s-69 103.333 -69 172zM271 534.999l-125 98c-8.66699 6 -10.667 12.333 -6 19l20 27c6 7.33301 13.667 8.33301 23 3l100 -65l100 65c9.33301 6 17 5 23 -3l20 -27c4.66699 -6.66699 2.66699 -13 -6 -19
l-125 -98c-8.66699 -6 -16.667 -6 -24 0z" />
    <glyph glyph-name="Dcaron" unicode="&#x10e;" horiz-adv-x="739" 
d="M91 19v662.001c0 5.33301 1.83301 9.83301 5.5 13.5s7.83398 5.5 12.501 5.5h230c96.667 0 179.334 -34.167 248.001 -102.5s103 -150.5 103 -246.5c0 -96.667 -34.333 -179.334 -103 -248.001s-151.334 -103 -248.001 -103h-230
c-4.66699 -0 -8.83398 1.83301 -12.501 5.5s-5.5 8.16699 -5.5 13.5zM193 95.001h135c73.333 0 133.5 24.167 180.5 72.5s70.5 109.5 70.5 183.5s-23.5 134.833 -70.5 182.5s-107.167 71.5 -180.5 71.5h-135v-510zM317 768.001l-125 98c-8.66699 6 -10.667 12.333 -6 19
l20 27c6 7.33301 13.667 8.33301 23 3l100 -65l100 65c9.33301 6 17 5 23 -3l20 -27c4.66699 -6.66699 2.66699 -13 -6 -19l-125 -98c-8.66699 -6 -16.667 -6 -24 0z" />
    <glyph glyph-name="dcaron" unicode="&#x10f;" horiz-adv-x="555" 
d="M42 231c0 68 21.332 125.166 63.999 171.499s95.667 69.5 159 69.5c11.333 0 22.5 -0.666992 33.5 -2s21.167 -3.16602 30.5 -5.49902s17.166 -4.5 23.499 -6.5s12.5 -4.16699 18.5 -6.5s9.33301 -3.5 10 -3.5v230c0 5.33301 2.33301 10.333 7 15s9.66699 7 15 7h57
c6 0 11.167 -2.33301 15.5 -7s6.5 -9.66699 6.5 -15v-656c0 -6 -2.16699 -11.167 -6.5 -15.5s-9.5 -6.5 -15.5 -6.5h-24c-10.667 0 -17.667 6.66699 -21 20l-10 34c-4.66699 -4.66699 -11.167 -10.667 -19.5 -18s-25.666 -17 -51.999 -29s-53.166 -18 -80.499 -18
c-60 0 -110.167 23.667 -150.5 71s-60.5 104.333 -60.5 171zM141.999 230.999c0 -40 11.8311 -74.5 35.498 -103.5s53.5 -43.5 89.5 -43.5c30.667 0 56.334 8.33301 77.001 25s33.334 31 38.001 43v198c-30.667 18 -66 27 -106 27c-37.333 0 -69 -14.333 -95 -43
s-39 -63 -39 -103zM524.997 646.999c0 19.333 6.83301 34.668 20.5 46.001s31.5 17 53.5 17c26 0 47 -8.16699 63 -24.5s24 -40.5 24 -72.5c0 -50 -17.667 -94 -53 -132c-5.33301 -5.33301 -12 -5.66602 -20 -0.999023l-24 18c-8 6 -8.33301 12.667 -1 20
c20 17.333 30 39.666 30 66.999c0 7.33301 -1 13 -3 17c-6 -6 -16.667 -9 -32 -9c-17.333 0 -31.333 5.16699 -42 15.5s-16 23.166 -16 38.499z" />
    <glyph glyph-name="Dcroat" unicode="&#x110;" horiz-adv-x="739" 
d="M91 19v303.001h-29c-4.66699 0 -8.83398 1.83301 -12.501 5.5s-5.5 8.16699 -5.5 13.5v10c0 5.33301 1.83301 9.83301 5.5 13.5s7.83398 5.5 12.501 5.5h29v311c0 5.33301 1.83301 9.83301 5.5 13.5s7.83398 5.5 12.501 5.5h230c96.667 0 179.334 -34.167 248.001 -102.5
s103 -150.5 103 -246.5c0 -96.667 -34.333 -179.334 -103 -248.001s-151.334 -103 -248.001 -103h-230c-4.66699 -0 -8.83398 1.83301 -12.501 5.5s-5.5 8.16699 -5.5 13.5zM193 95.001l132 -0.000976562c73.333 0 134 24.167 182 72.5s72 109.5 72 183.5
c0 73.333 -24 134 -72 182s-108.667 72 -182 72h-132v-235h188c5.33301 0 9.83301 -1.83301 13.5 -5.5s5.5 -8.16699 5.5 -13.5v-11c0 -5.33301 -1.83301 -9.66602 -5.5 -12.999s-8.16699 -5 -13.5 -5h-188v-227z" />
    <glyph glyph-name="dcroat" unicode="&#x111;" horiz-adv-x="552" 
d="M42 231c0 68 21.332 125.167 63.999 171.5s95.667 69.5 159 69.5c11.333 0 22.5 -0.666992 33.5 -2s21.167 -3.16602 30.5 -5.49902s17.166 -4.5 23.499 -6.5s12.5 -4.16699 18.5 -6.5s9.33301 -3.5 10 -3.5v86h-137c-5.33301 0 -9.83301 1.66699 -13.5 5
s-5.5 7.66602 -5.5 12.999v11c0 5.33301 1.83301 9.83301 5.5 13.5s8.16699 5.5 13.5 5.5h137v96c0 5.33301 2.33301 10.333 7 15s9.66699 7 15 7h57c6 0 11.167 -2.33301 15.5 -7s6.5 -9.66699 6.5 -15v-96h26c4.66699 0 8.83398 -1.83301 12.501 -5.5
s5.5 -8.16699 5.5 -13.5v-10c0 -5.33301 -1.83301 -9.83301 -5.5 -13.5s-7.83398 -5.5 -12.501 -5.5h-26v-512c0 -6 -2.16699 -11.167 -6.5 -15.5s-9.5 -6.5 -15.5 -6.5h-24c-10.667 0 -17.667 6.66699 -21 20l-10 34c-4.66699 -4.66699 -11.167 -10.667 -19.5 -18
s-25.666 -17 -51.999 -29s-53.166 -18 -80.499 -18c-60 0 -110.167 23.667 -150.5 71s-60.5 104.333 -60.5 171zM141.999 231c0 -40 11.8311 -74.5 35.498 -103.5s53.5 -43.5 89.5 -43.5c30.667 0 56.334 8.33301 77.001 25s33.334 31 38.001 43v198
c-30.667 18 -66 27 -106 27c-37.333 0 -69 -14.333 -95 -43s-39 -63 -39 -103z" />
    <glyph glyph-name="Emacron" unicode="&#x112;" horiz-adv-x="576" 
d="M91 19v662c0 5.33301 1.83301 9.83301 5.5 13.5s8.16699 5.5 13.5 5.5h400c5.33301 0 9.83301 -1.83301 13.5 -5.5s5.5 -8.16699 5.5 -13.5v-56c0 -5.33301 -1.83301 -9.83301 -5.5 -13.5s-8.16699 -5.5 -13.5 -5.5h-316v-204h267c4.66699 0 9 -2 13 -6s6 -8.33301 6 -13
v-56c0 -5.33301 -1.83301 -9.83301 -5.5 -13.5s-8.16699 -5.5 -13.5 -5.5h-267v-215h316c5.33301 0 9.83301 -1.83301 13.5 -5.5s5.5 -8.16699 5.5 -13.5v-55c0 -5.33301 -1.83301 -9.83301 -5.5 -13.5s-8.16699 -5.5 -13.5 -5.5h-400
c-5.33301 -0 -9.83301 1.83301 -13.5 5.5s-5.5 8.16699 -5.5 13.5zM180 814c-5.33301 0 -9.83301 1.66699 -13.5 5s-5.5 7.66602 -5.5 12.999v28c0 12.667 6.33301 19 19 19h256c12.667 0 19 -6.33301 19 -19v-28c0 -5.33301 -1.83301 -9.66602 -5.5 -12.999
s-8.16699 -5 -13.5 -5h-256z" />
    <glyph glyph-name="emacron" unicode="&#x113;" horiz-adv-x="518" 
d="M42 231c0 66.667 21.334 123.501 64.001 170.501s98 70.5 166 70.5c60 0 110.167 -20 150.5 -60s60.5 -90.667 60.5 -152c0 -10.667 -0.666992 -21.334 -2 -32.001c-1.33301 -13.333 -8.33301 -20 -21 -20h-319c0.666992 -32.667 14.167 -61.834 40.5 -87.501
s58.833 -38.5 97.5 -38.5s76.334 13 113.001 39c12 8 21 7.33301 27 -2l27 -42c9.33301 -11.333 8.66602 -21.666 -2.00098 -30.999c-43.333 -38 -100.333 -57 -171 -57c-68.667 0 -124.334 23.333 -167.001 70s-64 104 -64 172zM146.001 282.001l238 0.00195312
c-1.33301 29.333 -12.5 54.166 -33.5 74.499s-47.833 30.5 -80.5 30.5c-35.333 0 -64 -9.83301 -86 -29.5s-34.667 -44.834 -38 -75.501zM145.001 576.003c-5.33301 0 -9.83301 1.66699 -13.5 5s-5.5 7.66602 -5.5 12.999v28c0 12.667 6.33301 19 19 19h256
c12.667 0 19 -6.33301 19 -19v-28c0 -5.33301 -1.83301 -9.66602 -5.5 -12.999s-8.16699 -5 -13.5 -5h-256z" />
    <glyph glyph-name="Ebreve" unicode="&#x114;" horiz-adv-x="576" 
d="M91 19v662c0 5.33301 1.83301 9.83301 5.5 13.5s8.16699 5.5 13.5 5.5h400c5.33301 0 9.83301 -1.83301 13.5 -5.5s5.5 -8.16699 5.5 -13.5v-56c0 -5.33301 -1.83301 -9.83301 -5.5 -13.5s-8.16699 -5.5 -13.5 -5.5h-316v-204h267c4.66699 0 9 -2 13 -6s6 -8.33301 6 -13
v-56c0 -5.33301 -1.83301 -9.83301 -5.5 -13.5s-8.16699 -5.5 -13.5 -5.5h-267v-215h316c5.33301 0 9.83301 -1.83301 13.5 -5.5s5.5 -8.16699 5.5 -13.5v-55c0 -5.33301 -1.83301 -9.83301 -5.5 -13.5s-8.16699 -5.5 -13.5 -5.5h-400
c-5.33301 -0 -9.83301 1.83301 -13.5 5.5s-5.5 8.16699 -5.5 13.5zM308 768c-35.333 0 -65.8311 11 -91.498 33s-41.167 49.667 -46.5 83c-1.33301 6 -0.5 11 2.5 15s7.5 6 13.5 6h29c9.33301 0 15.333 -5.33301 18 -16c12.667 -38.667 37.667 -58 75 -58
c16 0 30.667 5.66699 44 17s22.666 25 27.999 41c3.33301 10.667 9.33301 16 18 16h31c6 0 10.5 -2 13.5 -6s3.83301 -9 2.5 -15c-5.33301 -33.333 -20.833 -61 -46.5 -83s-55.834 -33 -90.501 -33z" />
    <glyph glyph-name="ebreve" unicode="&#x115;" horiz-adv-x="518" 
d="M42 231c0 66.667 21.334 123.501 64.001 170.501s98 70.5 166 70.5c60 0 110.167 -20 150.5 -60s60.5 -90.667 60.5 -152c0 -10.667 -0.666992 -21.334 -2 -32.001c-1.33301 -13.333 -8.33301 -20 -21 -20h-319c0.666992 -32.667 14.167 -61.834 40.5 -87.501
s58.833 -38.5 97.5 -38.5s76.334 13 113.001 39c12 8 21 7.33301 27 -2l27 -42c9.33301 -11.333 8.66602 -21.666 -2.00098 -30.999c-43.333 -38 -100.333 -57 -171 -57c-68.667 0 -124.334 23.333 -167.001 70s-64 104 -64 172zM146.001 282.001l238 0.00195312
c-1.33301 29.333 -12.5 54.166 -33.5 74.499s-47.833 30.5 -80.5 30.5c-35.333 0 -64 -9.83301 -86 -29.5s-34.667 -44.834 -38 -75.501zM276.001 529.003c-35.333 0 -65.8301 11 -91.4971 33s-41.167 49.667 -46.5 83c-2.66699 14 2.66602 21 15.999 21h29
c9.33301 0 15.333 -5 18 -15c12.667 -39.333 37.667 -59 75 -59c16 0 30.667 5.66699 44 17s22.666 25.333 27.999 42c3.33301 10 9.33301 15 18 15h31c12.667 0 18 -7 16 -21c-5.33301 -33.333 -20.833 -61 -46.5 -83s-55.834 -33 -90.501 -33z" />
    <glyph glyph-name="Edotaccent" unicode="&#x116;" horiz-adv-x="576" 
d="M91 19v662c0 5.33301 1.83301 9.83301 5.5 13.5s8.16699 5.5 13.5 5.5h400c5.33301 0 9.83301 -1.83301 13.5 -5.5s5.5 -8.16699 5.5 -13.5v-56c0 -5.33301 -1.83301 -9.83301 -5.5 -13.5s-8.16699 -5.5 -13.5 -5.5h-316v-204h267c4.66699 0 9 -2 13 -6s6 -8.33301 6 -13
v-56c0 -5.33301 -1.83301 -9.83301 -5.5 -13.5s-8.16699 -5.5 -13.5 -5.5h-267v-215h316c5.33301 0 9.83301 -1.83301 13.5 -5.5s5.5 -8.16699 5.5 -13.5v-55c0 -5.33301 -1.83301 -9.83301 -5.5 -13.5s-8.16699 -5.5 -13.5 -5.5h-400
c-5.33301 -0 -9.83301 1.83301 -13.5 5.5s-5.5 8.16699 -5.5 13.5zM312 785c-18.667 0 -34.334 6.5 -47.001 19.5s-19 28.833 -19 47.5c0 19.333 6.33301 35.5 19 48.5s28.334 19.5 47.001 19.5s34.667 -6.66699 48 -20s20 -29.333 20 -48s-6.66699 -34.5 -20 -47.5
s-29.333 -19.5 -48 -19.5z" />
    <glyph glyph-name="edotaccent" unicode="&#x117;" horiz-adv-x="518" 
d="M42 231c0 66.667 21.334 123.501 64.001 170.501s98 70.5 166 70.5c60 0 110.167 -20 150.5 -60s60.5 -90.667 60.5 -152c0 -10.667 -0.666992 -21.334 -2 -32.001c-1.33301 -13.333 -8.33301 -20 -21 -20h-319c0.666992 -32.667 14.167 -61.834 40.5 -87.501
s58.833 -38.5 97.5 -38.5s76.334 13 113.001 39c12 8 21 7.33301 27 -2l27 -42c9.33301 -11.333 8.66602 -21.666 -2.00098 -30.999c-43.333 -38 -100.333 -57 -171 -57c-68.667 0 -124.334 23.333 -167.001 70s-64 104 -64 172zM146.001 282.001l238 0.00195312
c-1.33301 29.333 -12.5 54.166 -33.5 74.499s-47.833 30.5 -80.5 30.5c-35.333 0 -64 -9.83301 -86 -29.5s-34.667 -44.834 -38 -75.501zM273.001 561.003c-18.667 0 -34.334 6.5 -47.001 19.5s-19 28.833 -19 47.5c0 19.333 6.33301 35.5 19 48.5s28.334 19.5 47.001 19.5
c19.333 0 35.5 -6.66699 48.5 -20s19.5 -29.333 19.5 -48s-6.66699 -34.5 -20 -47.5s-29.333 -19.5 -48 -19.5z" />
    <glyph glyph-name="Eogonek" unicode="&#x118;" horiz-adv-x="576" 
d="M91 19v662c0 5.33301 1.83301 9.83301 5.5 13.5s8.16699 5.5 13.5 5.5h400c5.33301 0 9.83301 -1.83301 13.5 -5.5s5.5 -8.16699 5.5 -13.5v-56c0 -5.33301 -1.83301 -9.83301 -5.5 -13.5s-8.16699 -5.5 -13.5 -5.5h-316v-204h267c4.66699 0 9 -2 13 -6s6 -8.33301 6 -13
v-56c0 -5.33301 -1.83301 -9.83301 -5.5 -13.5s-8.16699 -5.5 -13.5 -5.5h-267v-215h316c5.33301 0 9.83301 -1.83301 13.5 -5.5s5.5 -8.16699 5.5 -13.5v-53c0 -8.66699 -4 -15.334 -12 -20.001c-22.667 -11.333 -44.834 -29 -66.501 -53s-32.5 -48.333 -32.5 -73
c0 -30.667 14.333 -46 43 -46c20.667 0 41.334 9 62.001 27c4 4 8 5.33301 12 4s6 -4.66602 6 -9.99902l1 -44c0 -13.333 -4.66699 -23 -14 -29c-25.333 -15.333 -54.333 -23 -87 -23s-58 9.66699 -76 29s-27 44 -27 74c0 51.333 31.667 99 95 143h-323
c-5.33301 -0 -9.83301 1.83301 -13.5 5.5s-5.5 8.16699 -5.5 13.5z" />
    <glyph glyph-name="eogonek" unicode="&#x119;" horiz-adv-x="518" 
d="M42 231c0 66.667 21.332 123.499 63.999 170.499s98 70.5 166 70.5c60 0 110.167 -20 150.5 -60s60.5 -90.667 60.5 -152c0 -10.667 -0.666992 -21.334 -2 -32.001c-1.33301 -13.333 -8.33301 -20 -21 -20h-319c0.666992 -32.667 14.167 -61.834 40.5 -87.501
s58.833 -38.5 97.5 -38.5c34.667 0 72.334 13 113.001 39c12 8 21 7.33301 27 -2l27 -42c9.33301 -11.333 8.66602 -21.666 -2.00098 -30.999c-26.667 -23.333 -58.667 -39.333 -96 -48c-62.667 -41.333 -94 -82.333 -94 -123c0 -30.667 14.333 -46 43 -46
c20.667 0 41.334 9 62.001 27c4 4 8 5.33301 12 4s6 -4.66602 6 -9.99902l1 -44c0 -13.333 -4.66699 -23 -14 -29c-25.333 -15.333 -54.333 -23 -87 -23s-58 9.66699 -76 29s-27 44 -27 74c0 49.333 27 93.666 81 132.999c-64 4.66699 -115.5 29.834 -154.5 75.501
s-58.5 100.834 -58.5 165.501zM145.999 281.999l238 0.00195312c-1.33301 29.333 -12.5 54.166 -33.5 74.499s-47.833 30.5 -80.5 30.5c-35.333 0 -64 -9.83301 -86 -29.5s-34.667 -44.834 -38 -75.501z" />
    <glyph glyph-name="Ecaron" unicode="&#x11a;" horiz-adv-x="576" 
d="M91 19v662c0 5.33301 1.83301 9.83301 5.5 13.5s8.16699 5.5 13.5 5.5h400c5.33301 0 9.83301 -1.83301 13.5 -5.5s5.5 -8.16699 5.5 -13.5v-56c0 -5.33301 -1.83301 -9.83301 -5.5 -13.5s-8.16699 -5.5 -13.5 -5.5h-316v-204h267c4.66699 0 9 -2 13 -6s6 -8.33301 6 -13
v-56c0 -5.33301 -1.83301 -9.83301 -5.5 -13.5s-8.16699 -5.5 -13.5 -5.5h-267v-215h316c5.33301 0 9.83301 -1.83301 13.5 -5.5s5.5 -8.16699 5.5 -13.5v-55c0 -5.33301 -1.83301 -9.83301 -5.5 -13.5s-8.16699 -5.5 -13.5 -5.5h-400
c-5.33301 -0 -9.83301 1.83301 -13.5 5.5s-5.5 8.16699 -5.5 13.5zM293 768l-125 98c-8.66699 6 -10.667 12.333 -6 19l20 27c6 7.33301 13.667 8.33301 23 3l100 -65l100 65c9.33301 6 17 5 23 -3l20 -27c4.66699 -6.66699 2.66699 -13 -6 -19l-125 -98
c-8.66699 -6 -16.667 -6 -24 0z" />
    <glyph glyph-name="ecaron" unicode="&#x11b;" horiz-adv-x="518" 
d="M42 231c0 66.667 21.334 123.501 64.001 170.501s98 70.5 166 70.5c60 0 110.167 -20 150.5 -60s60.5 -90.667 60.5 -152c0 -10.667 -0.666992 -21.334 -2 -32.001c-1.33301 -13.333 -8.33301 -20 -21 -20h-319c0.666992 -32.667 14.167 -61.834 40.5 -87.501
s58.833 -38.5 97.5 -38.5s76.334 13 113.001 39c12 8 21 7.33301 27 -2l27 -42c9.33301 -11.333 8.66602 -21.666 -2.00098 -30.999c-43.333 -38 -100.333 -57 -171 -57c-68.667 0 -124.334 23.333 -167.001 70s-64 104 -64 172zM146.001 282.001l238 0.00195312
c-1.33301 29.333 -12.5 54.166 -33.5 74.499s-47.833 30.5 -80.5 30.5c-35.333 0 -64 -9.83301 -86 -29.5s-34.667 -44.834 -38 -75.501zM260.001 535.003l-125 98c-8.66699 6 -10.667 12.333 -6 19l20 27c6 7.33301 13.667 8.33301 23 3l100 -65l100 65
c9.33301 6 17 5 23 -3l20 -27c4.66699 -6.66699 2.66699 -13 -6 -19l-125 -98c-8.66699 -6 -16.667 -6 -24 0z" />
    <glyph glyph-name="Gcircumflex" unicode="&#x11c;" horiz-adv-x="726" 
d="M48 349c0 100 35.168 185.167 105.501 255.5s155.166 105.5 254.499 105.5c89.333 0 170.333 -31 243 -93c10 -10 10.333 -19.333 1 -28l-45 -47c-7.33301 -8 -16 -7.66699 -26 1c-52 45.333 -108.667 68 -170 68c-70 0 -129.333 -25.667 -178 -77s-73 -112.333 -73 -183
s24.333 -131.5 73 -182.5s108 -76.5 178 -76.5c11.333 0 22.5 0.5 33.5 1.5s21.167 2.5 30.5 4.5s18.166 4 26.499 6s16 4.33301 23 7l17 6.5c4.33301 1.66699 8.5 3.5 12.5 5.5s6.33301 3 7 3v112h-98c-5.33301 0 -9.83301 1.66699 -13.5 5s-5.5 7.66602 -5.5 12.999v58
c0 12.667 6.33301 19 19 19h183c4.66699 0 8.83398 -1.83301 12.501 -5.5s5.5 -8.16699 5.5 -13.5v-242c0 -6.66699 -2.66699 -12 -8 -16c-8 -4.66699 -19 -10.667 -33 -18s-42.667 -17.166 -86 -29.499s-86.333 -18.5 -129 -18.5c-100 0 -185 34.833 -255 104.5
s-105 154.5 -105 254.5zM307.001 769c-9.33301 -5.33301 -17 -4.33301 -23 3l-20 27c-4.66699 6.66699 -2.66699 13 6 19l125 98c7.33301 6 15.333 6 24 0l125 -98c8.66699 -6 10.667 -12.333 6 -19l-20 -27c-6 -8 -13.667 -9 -23 -3l-100 65z" />
    <glyph glyph-name="gcircumflex" unicode="&#x11d;" horiz-adv-x="554" 
d="M177 542l-20 27c-4.66699 6.66699 -2.66699 13 6 19l125 98c7.33301 6 15.333 6 24 0l125 -98c8.66699 -6 10.667 -12.333 6 -19l-20 -27c-6 -8 -13.667 -9 -23 -3l-100 65l-100 -65c-9.33301 -5.33301 -17 -4.33301 -23 3zM142 231c0 -40 13.168 -74.5 39.501 -103.5
s58.166 -43.5 95.499 -43.5c18 0 36 3 54 9s31.333 12.333 40 19l13 9v191c-7.33301 13.333 -21 27.5 -41 42.5s-43.333 22.5 -70 22.5c-38.667 0 -70.167 -14.333 -94.5 -43s-36.5 -63 -36.5 -103zM484.001 440v-443.001c0 -69.333 -19.833 -122.666 -59.5 -159.999
s-91.167 -56 -154.5 -56c-34 0 -65.833 6.33301 -95.5 19s-51.167 25.667 -64.5 39c-4 2.66699 -6.33301 6.83398 -7 12.501s0 10.167 2 13.5l24 44c7.33301 14.667 17.666 17 30.999 7c35.333 -28.667 71.333 -43 108 -43c34 0 61.667 9.66699 83 29s32 51 32 95v25
c-35.333 -22 -74.666 -33 -117.999 -33c-62.667 0 -115.5 23.333 -158.5 70s-64.5 104 -64.5 172c0 66.667 20.667 123.5 62 170.5s93.333 70.5 156 70.5c26 0 50.833 -4.33301 74.5 -13s40 -16.334 49 -23.001s16.5 -13 22.5 -19l12 29c3.33301 10.667 9 16 17 16h27
c6 0 11.167 -2.33301 15.5 -7s6.5 -9.66699 6.5 -15z" />
    <glyph glyph-name="Gbreve" unicode="&#x11e;" horiz-adv-x="726" 
d="M48 349c0 100 35.168 185.167 105.501 255.5s155.166 105.5 254.499 105.5c89.333 0 170.333 -31 243 -93c10 -10 10.333 -19.333 1 -28l-45 -47c-7.33301 -8 -16 -7.66699 -26 1c-52 45.333 -108.667 68 -170 68c-70 0 -129.333 -25.667 -178 -77s-73 -112.333 -73 -183
s24.333 -131.5 73 -182.5s108 -76.5 178 -76.5c11.333 0 22.5 0.5 33.5 1.5s21.167 2.5 30.5 4.5s18.166 4 26.499 6s16 4.33301 23 7l17 6.5c4.33301 1.66699 8.5 3.5 12.5 5.5s6.33301 3 7 3v112h-98c-5.33301 0 -9.83301 1.66699 -13.5 5s-5.5 7.66602 -5.5 12.999v58
c0 12.667 6.33301 19 19 19h183c4.66699 0 8.83398 -1.83301 12.501 -5.5s5.5 -8.16699 5.5 -13.5v-242c0 -6.66699 -2.66699 -12 -8 -16c-8 -4.66699 -19 -10.667 -33 -18s-42.667 -17.166 -86 -29.499s-86.333 -18.5 -129 -18.5c-100 0 -185 34.833 -255 104.5
s-105 154.5 -105 254.5zM409.001 768c-35.333 0 -65.8311 11 -91.498 33s-41.167 49.667 -46.5 83c-1.33301 6 -0.5 11 2.5 15s7.5 6 13.5 6h29c9.33301 0 15.333 -5.33301 18 -16c12.667 -38.667 37.667 -58 75 -58c16 0 30.667 5.66699 44 17s22.666 25 27.999 41
c3.33301 10.667 9.33301 16 18 16h31c6 0 10.5 -2 13.5 -6s3.83301 -9 2.5 -15c-5.33301 -33.333 -20.833 -61 -46.5 -83s-55.834 -33 -90.501 -33z" />
    <glyph glyph-name="gbreve" unicode="&#x11f;" horiz-adv-x="554" 
d="M300 529c-35.333 0 -65.8301 11 -91.4971 33s-41.167 49.667 -46.5 83c-2.66699 14 2.66602 21 15.999 21h29c9.33301 0 15.333 -5 18 -15c12.667 -39.333 37.667 -59 75 -59c16 0 30.667 5.66699 44 17s22.666 25.333 27.999 42c3.33301 10 9.33301 15 18 15h31
c12.667 0 18 -7 16 -21c-5.33301 -33.333 -20.833 -61 -46.5 -83s-55.834 -33 -90.501 -33zM142.003 231c0 -40 13.168 -74.5 39.501 -103.5s58.166 -43.5 95.499 -43.5c18 0 36 3 54 9s31.333 12.333 40 19l13 9v191c-7.33301 13.333 -21 27.5 -41 42.5
s-43.333 22.5 -70 22.5c-38.667 0 -70.167 -14.333 -94.5 -43s-36.5 -63 -36.5 -103zM484.004 440v-443.001c0 -69.333 -19.833 -122.666 -59.5 -159.999s-91.167 -56 -154.5 -56c-34 0 -65.833 6.33301 -95.5 19s-51.167 25.667 -64.5 39
c-4 2.66699 -6.33301 6.83398 -7 12.501s0 10.167 2 13.5l24 44c7.33301 14.667 17.666 17 30.999 7c35.333 -28.667 71.333 -43 108 -43c34 0 61.667 9.66699 83 29s32 51 32 95v25c-35.333 -22 -74.666 -33 -117.999 -33c-62.667 0 -115.5 23.333 -158.5 70
s-64.5 104 -64.5 172c0 66.667 20.667 123.5 62 170.5s93.333 70.5 156 70.5c26 0 50.833 -4.33301 74.5 -13s40 -16.334 49 -23.001s16.5 -13 22.5 -19l12 29c3.33301 10.667 9 16 17 16h27c6 0 11.167 -2.33301 15.5 -7s6.5 -9.66699 6.5 -15z" />
    <glyph glyph-name="Gdotaccent" unicode="&#x120;" horiz-adv-x="726" 
d="M48 349c0 100 35.168 185.167 105.501 255.5s155.166 105.5 254.499 105.5c89.333 0 170.333 -31 243 -93c10 -10 10.333 -19.333 1 -28l-45 -47c-7.33301 -8 -16 -7.66699 -26 1c-52 45.333 -108.667 68 -170 68c-70 0 -129.333 -25.667 -178 -77s-73 -112.333 -73 -183
s24.333 -131.5 73 -182.5s108 -76.5 178 -76.5c11.333 0 22.5 0.5 33.5 1.5s21.167 2.5 30.5 4.5s18.166 4 26.499 6s16 4.33301 23 7l17 6.5c4.33301 1.66699 8.5 3.5 12.5 5.5s6.33301 3 7 3v112h-98c-5.33301 0 -9.83301 1.66699 -13.5 5s-5.5 7.66602 -5.5 12.999v58
c0 12.667 6.33301 19 19 19h183c4.66699 0 8.83398 -1.83301 12.501 -5.5s5.5 -8.16699 5.5 -13.5v-242c0 -6.66699 -2.66699 -12 -8 -16c-8 -4.66699 -19 -10.667 -33 -18s-42.667 -17.166 -86 -29.499s-86.333 -18.5 -129 -18.5c-100 0 -185 34.833 -255 104.5
s-105 154.5 -105 254.5zM408.001 785c-18.667 0 -34.334 6.5 -47.001 19.5s-19 28.833 -19 47.5c0 19.333 6.33301 35.5 19 48.5s28.334 19.5 47.001 19.5s34.667 -6.66699 48 -20s20 -29.333 20 -48s-6.66699 -34.5 -20 -47.5s-29.333 -19.5 -48 -19.5z" />
    <glyph glyph-name="gdotaccent" unicode="&#x121;" horiz-adv-x="554" 
d="M299 561c-18.667 0 -34.334 6.5 -47.001 19.5s-19 28.833 -19 47.5c0 19.333 6.33301 35.5 19 48.5s28.334 19.5 47.001 19.5c19.333 0 35.5 -6.66699 48.5 -20s19.5 -29.333 19.5 -48s-6.66699 -34.5 -20 -47.5s-29.333 -19.5 -48 -19.5zM142 231
c0 -40 13.168 -74.5 39.501 -103.5s58.166 -43.5 95.499 -43.5c18 0 36 3 54 9s31.333 12.333 40 19l13 9v191c-7.33301 13.333 -21 27.5 -41 42.5s-43.333 22.5 -70 22.5c-38.667 0 -70.167 -14.333 -94.5 -43s-36.5 -63 -36.5 -103zM484.001 440v-443.001
c0 -69.333 -19.833 -122.666 -59.5 -159.999s-91.167 -56 -154.5 -56c-34 0 -65.833 6.33301 -95.5 19s-51.167 25.667 -64.5 39c-4 2.66699 -6.33301 6.83398 -7 12.501s0 10.167 2 13.5l24 44c7.33301 14.667 17.666 17 30.999 7c35.333 -28.667 71.333 -43 108 -43
c34 0 61.667 9.66699 83 29s32 51 32 95v25c-35.333 -22 -74.666 -33 -117.999 -33c-62.667 0 -115.5 23.333 -158.5 70s-64.5 104 -64.5 172c0 66.667 20.667 123.5 62 170.5s93.333 70.5 156 70.5c26 0 50.833 -4.33301 74.5 -13s40 -16.334 49 -23.001s16.5 -13 22.5 -19
l12 29c3.33301 10.667 9 16 17 16h27c6 0 11.167 -2.33301 15.5 -7s6.5 -9.66699 6.5 -15z" />
    <glyph glyph-name="Gcommaaccent" unicode="&#x122;" horiz-adv-x="726" 
d="M48 349c0 100 35.168 185.167 105.501 255.5s155.166 105.5 254.499 105.5c89.333 0 170.333 -31 243 -93c10 -10 10.333 -19.333 1 -28l-45 -47c-7.33301 -8 -16 -7.66699 -26 1c-52 45.333 -108.667 68 -170 68c-70 0 -129.333 -25.667 -178 -77s-73 -112.333 -73 -183
s24.333 -131.5 73 -182.5s108 -76.5 178 -76.5c11.333 0 22.5 0.5 33.5 1.5s21.167 2.5 30.5 4.5s18.166 4 26.499 6s16 4.33301 23 7l17 6.5c4.33301 1.66699 8.5 3.5 12.5 5.5s6.33301 3 7 3v112h-98c-5.33301 0 -9.83301 1.66699 -13.5 5s-5.5 7.66602 -5.5 12.999v58
c0 12.667 6.33301 19 19 19h183c4.66699 0 8.83398 -1.83301 12.501 -5.5s5.5 -8.16699 5.5 -13.5v-242c0 -6.66699 -2.66699 -12 -8 -16c-8 -4.66699 -19 -10.667 -33 -18s-42.667 -17.166 -86 -29.499s-86.333 -18.5 -129 -18.5c-100 0 -185 34.833 -255 104.5
s-105 154.5 -105 254.5zM338.001 -126c0 19.333 6.83301 34.668 20.5 46.001s31.5 17 53.5 17c26 0 47 -8.16699 63 -24.5s24 -40.5 24 -72.5c0 -50 -17.667 -94 -53 -132c-5.33301 -5.33301 -12 -5.66602 -20 -0.999023l-24 18c-8 6 -8.33301 12.667 -1 20
c20 17.333 30 39.666 30 66.999c0 7.33301 -1 13 -3 17c-6 -6 -16.667 -9 -32 -9c-17.333 0 -31.333 5.16699 -42 15.5s-16 23.166 -16 38.499z" />
    <glyph glyph-name="gcommaaccent" unicode="&#x123;" horiz-adv-x="554" 
d="M142 231c0 -40 13.168 -74.5 39.501 -103.5s58.166 -43.5 95.499 -43.5c18 0 36 3 54 9s31.333 12.333 40 19l13 9v191c-7.33301 13.333 -21 27.5 -41 42.5s-43.333 22.5 -70 22.5c-38.667 0 -70.167 -14.333 -94.5 -43s-36.5 -63 -36.5 -103zM484.001 440v-443.001
c0 -69.333 -19.833 -122.666 -59.5 -159.999s-91.167 -56 -154.5 -56c-34 0 -65.833 6.33301 -95.5 19s-51.167 25.667 -64.5 39c-4 2.66699 -6.33301 6.83398 -7 12.501s0 10.167 2 13.5l24 44c7.33301 14.667 17.666 17 30.999 7c35.333 -28.667 71.333 -43 108 -43
c34 0 61.667 9.66699 83 29s32 51 32 95v25c-35.333 -22 -74.666 -33 -117.999 -33c-62.667 0 -115.5 23.333 -158.5 70s-64.5 104 -64.5 172c0 66.667 20.667 123.5 62 170.5s93.333 70.5 156 70.5c26 0 50.833 -4.33301 74.5 -13s40 -16.334 49 -23.001s16.5 -13 22.5 -19
l12 29c3.33301 10.667 9 16 17 16h27c6 0 11.167 -2.33301 15.5 -7s6.5 -9.66699 6.5 -15zM351.001 598.999c0 -19.333 -6.83301 -34.668 -20.5 -46.001s-31.5 -17 -53.5 -17c-26 0 -47 8.16699 -63 24.5s-24 40.5 -24 72.5c0 50 17.667 94 53 132
c5.33301 5.33301 12 5.66602 20 0.999023l24 -18c8 -6 8.33301 -12.667 1 -20c-20 -17.333 -30 -39.666 -30 -66.999c0 -7.33301 1 -13 3 -17c6 6 16.667 9 32 9c17.333 0 31.333 -5.16699 42 -15.5s16 -23.166 16 -38.499z" />
    <glyph glyph-name="Hcircumflex" unicode="&#x124;" horiz-adv-x="756" 
d="M91 19v662c0 4.66699 1.83301 9 5.5 13s8.16699 6 13.5 6h66c5.33301 0 9.83301 -1.83301 13.5 -5.5s5.5 -8.16699 5.5 -13.5v-279h366v279c0 5.33301 1.83301 9.83301 5.5 13.5s8.16699 5.5 13.5 5.5h66c5.33301 0 9.83301 -2 13.5 -6s5.5 -8.33301 5.5 -13v-662
c0 -4.66699 -1.83301 -9 -5.5 -13s-8.16699 -6 -13.5 -6h-66c-5.33301 -0 -9.83301 1.83301 -13.5 5.5s-5.5 8.16699 -5.5 13.5v289h-366v-289c0 -5.33301 -1.83301 -9.83301 -5.5 -13.5s-8.16699 -5.5 -13.5 -5.5h-66c-5.33301 0 -9.83301 2 -13.5 6s-5.5 8.33301 -5.5 13z
M283 769c-9.33301 -5.33301 -17 -4.33301 -23 3l-20 27c-4.66699 6.66699 -2.66699 13 6 19l125 98c7.33301 6 15.333 6 24 0l125 -98c8.66699 -6 10.667 -12.333 6 -19l-20 -27c-6 -8 -13.667 -9 -23 -3l-100 65z" />
    <glyph glyph-name="hcircumflex" unicode="&#x125;" horiz-adv-x="548" 
d="M70 22v656c0 5.33301 2.16699 10.333 6.5 15s9.5 7 15.5 7h56c5.33301 0 10.333 -2.33301 15 -7s7 -9.66699 7 -15v-254c44 32 88.667 48 134 48c119.333 0 179 -72.667 179 -218v-232c0 -6 -2.33301 -11.167 -7 -15.5s-9.66699 -6.5 -15 -6.5h-56
c-6 0 -11.167 2.16699 -15.5 6.5s-6.5 9.5 -6.5 15.5v234c0 38.667 -7.83301 68.5 -23.5 89.5s-38.5 31.5 -68.5 31.5c-31.333 0 -57.5 -7.5 -78.5 -22.5s-35.167 -29.833 -42.5 -44.5v-288c0 -14.667 -7.66699 -22 -23 -22h-55c-6 0 -11.167 2.16699 -15.5 6.5
s-6.5 9.5 -6.5 15.5zM-9 759l-20 27c-4.66699 6.66699 -2.66699 13 6 19l125 98c7.33301 6 15.333 6 24 0l125 -98c8.66699 -6 10.667 -12.333 6 -19l-20 -27c-6 -8 -13.667 -9 -23 -3l-100 65l-100 -65c-9.33301 -5.33301 -17 -4.33301 -23 3z" />
    <glyph glyph-name="Hbar" unicode="&#x126;" horiz-adv-x="756" 
d="M91 19v514.999h-24c-4.66699 0 -8.83398 1.83301 -12.501 5.5s-5.5 8.16699 -5.5 13.5v10c0 5.33301 1.83301 9.83301 5.5 13.5s7.83398 5.5 12.501 5.5h24v99c0 4.66699 1.83301 9 5.5 13s8.16699 6 13.5 6h66c5.33301 0 9.83301 -1.83301 13.5 -5.5
s5.5 -8.16699 5.5 -13.5v-99h366v99c0 5.33301 1.83301 9.83301 5.5 13.5s8.16699 5.5 13.5 5.5h66c5.33301 0 9.83301 -2 13.5 -6s5.5 -8.33301 5.5 -13v-99h23c5.33301 0 9.83301 -1.83301 13.5 -5.5s5.5 -8.16699 5.5 -13.5v-11
c0 -5.33301 -1.83301 -9.66602 -5.5 -12.999s-8.16699 -5 -13.5 -5h-23v-515c0 -4.66699 -1.83301 -9 -5.5 -13s-8.16699 -6 -13.5 -6h-66c-5.33301 -0 -9.83301 1.83301 -13.5 5.5s-5.5 8.16699 -5.5 13.5v289h-366v-289c0 -5.33301 -1.83301 -9.83301 -5.5 -13.5
s-8.16699 -5.5 -13.5 -5.5h-66c-5.33301 0 -9.83301 2 -13.5 6s-5.5 8.33301 -5.5 13zM195 401.999h366v132h-366v-132z" />
    <glyph glyph-name="hbar" unicode="&#x127;" horiz-adv-x="568" 
d="M70 22l0.000976562 511.999h-26c-4.66699 0 -8.83398 1.83301 -12.501 5.5s-5.5 8.16699 -5.5 13.5v10c0 5.33301 1.83301 9.83301 5.5 13.5s7.83398 5.5 12.501 5.5h26v96c0 5.33301 2.16699 10.333 6.5 15s9.5 7 15.5 7h56c5.33301 0 10.333 -2.33301 15 -7
s7 -9.66699 7 -15v-96h138c5.33301 0 9.83301 -1.83301 13.5 -5.5s5.5 -8.16699 5.5 -13.5v-11c0 -5.33301 -1.83301 -9.66602 -5.5 -12.999s-8.16699 -5 -13.5 -5h-138v-110c44 32 92 48 144 48c62.667 0 109.834 -19.833 141.501 -59.5s47.5 -92.5 47.5 -158.5v-232
c0 -6 -2.33301 -11.167 -7 -15.5s-9.66699 -6.5 -15 -6.5h-56c-6 0 -11.167 2.16699 -15.5 6.5s-6.5 9.5 -6.5 15.5v234c0 37.333 -9.33301 66.833 -28 88.5s-43.334 32.5 -74.001 32.5c-31.333 0 -59.333 -7.66699 -84 -23s-40.334 -30 -47.001 -44v-288
c0 -14.667 -7.66699 -22 -23 -22h-55c-6 0 -11.167 2.16699 -15.5 6.5s-6.5 9.5 -6.5 15.5z" />
    <glyph glyph-name="Itilde" unicode="&#x128;" horiz-adv-x="286" 
d="M91 19v662c0 4.66699 1.83301 9 5.5 13s8.16699 6 13.5 6h66c5.33301 0 9.83301 -2 13.5 -6s5.5 -8.33301 5.5 -13v-662c0 -4.66699 -1.83301 -9 -5.5 -13s-8.16699 -6 -13.5 -6h-66c-5.33301 0 -9.83301 2 -13.5 6s-5.5 8.33301 -5.5 13zM21 792l-22.999 15.001
c-8.66699 5.33301 -10.667 13 -6 23c28 56 60.667 84 98 84c16.667 0 31.834 -5.33301 45.501 -16s25.5 -21.334 35.5 -32.001s19.333 -16 28 -16c5.33301 0 10.333 1.5 15 4.5s8.16699 6.16699 10.5 9.5s5.16602 8 8.49902 14s5.66602 10 6.99902 12
c6.66699 11.333 15 14.333 25 9c0.666992 0 4.5 -2.33301 11.5 -7s11.833 -8.66699 14.5 -12c3.33301 -6 2.33301 -15 -3 -27c-22.667 -50 -54 -75 -94 -75c-18.667 0 -39.167 10.833 -61.5 32.5s-37.5 32.5 -45.5 32.5c-16 0 -30.333 -13.667 -43 -41
c-5.33301 -12 -13 -15.333 -23 -10z" />
    <glyph glyph-name="itilde" unicode="&#x129;" horiz-adv-x="240" 
d="M70 22v418c0 5.33301 2.16699 10.333 6.5 15s9.5 7 15.5 7h56c5.33301 0 10.333 -2.33301 15 -7s7 -9.66699 7 -15v-418c0 -6 -2.33301 -11.167 -7 -15.5s-9.66699 -6.5 -15 -6.5h-56c-6 0 -11.167 2.16699 -15.5 6.5s-6.5 9.5 -6.5 15.5zM0 568l-22.999 15.001
c-8.66699 5.33301 -10.667 13 -6 23c28 56 60.667 84 98 84c16.667 0 31.834 -5.33301 45.501 -16s25.5 -21.334 35.5 -32.001s19.333 -16 28 -16c5.33301 0 10.333 1.5 15 4.5s8.16699 6.16699 10.5 9.5s5.16602 8 8.49902 14s5.66602 10 6.99902 12
c6.66699 11.333 15 14.333 25 9c0.666992 0 4.5 -2.33301 11.5 -7s11.833 -8.66699 14.5 -12c3.33301 -6 2.33301 -15 -3 -27c-22.667 -50 -54 -75 -94 -75c-18.667 0 -39.167 10.833 -61.5 32.5s-37.5 32.5 -45.5 32.5c-16 0 -30.333 -13.667 -43 -41
c-5.33301 -12 -13 -15.333 -23 -10z" />
    <glyph glyph-name="Imacron" unicode="&#x12a;" horiz-adv-x="286" 
d="M91 19v662c0 4.66699 1.83301 9 5.5 13s8.16699 6 13.5 6h66c5.33301 0 9.83301 -2 13.5 -6s5.5 -8.33301 5.5 -13v-662c0 -4.66699 -1.83301 -9 -5.5 -13s-8.16699 -6 -13.5 -6h-66c-5.33301 0 -9.83301 2 -13.5 6s-5.5 8.33301 -5.5 13zM16 814
c-5.33301 0 -9.83301 1.66699 -13.5 5s-5.5 7.66602 -5.5 12.999v28c0 12.667 6.33301 19 19 19h256c12.667 0 19 -6.33301 19 -19v-28c0 -5.33301 -1.83301 -9.66602 -5.5 -12.999s-8.16699 -5 -13.5 -5h-256z" />
    <glyph glyph-name="imacron" unicode="&#x12b;" horiz-adv-x="240" 
d="M70 22v418c0 5.33301 2.16699 10.333 6.5 15s9.5 7 15.5 7h56c5.33301 0 10.333 -2.33301 15 -7s7 -9.66699 7 -15v-418c0 -6 -2.33301 -11.167 -7 -15.5s-9.66699 -6.5 -15 -6.5h-56c-6 0 -11.167 2.16699 -15.5 6.5s-6.5 9.5 -6.5 15.5zM-5 576
c-5.33301 0 -9.83301 1.66699 -13.5 5s-5.5 7.66602 -5.5 12.999v28c0 12.667 6.33301 19 19 19h256c12.667 0 19 -6.33301 19 -19v-28c0 -5.33301 -1.83301 -9.66602 -5.5 -12.999s-8.16699 -5 -13.5 -5h-256z" />
    <glyph glyph-name="Ibreve" unicode="&#x12c;" horiz-adv-x="286" 
d="M91 19v662c0 4.66699 1.83301 9 5.5 13s8.16699 6 13.5 6h66c5.33301 0 9.83301 -2 13.5 -6s5.5 -8.33301 5.5 -13v-662c0 -4.66699 -1.83301 -9 -5.5 -13s-8.16699 -6 -13.5 -6h-66c-5.33301 0 -9.83301 2 -13.5 6s-5.5 8.33301 -5.5 13zM144 768
c-35.333 0 -65.8311 11 -91.498 33s-41.167 49.667 -46.5 83c-1.33301 6 -0.5 11 2.5 15s7.5 6 13.5 6h29c9.33301 0 15.333 -5.33301 18 -16c12.667 -38.667 37.667 -58 75 -58c16 0 30.667 5.66699 44 17s22.666 25 27.999 41c3.33301 10.667 9.33301 16 18 16h31
c6 0 10.5 -2 13.5 -6s3.83301 -9 2.5 -15c-5.33301 -33.333 -20.833 -61 -46.5 -83s-55.834 -33 -90.501 -33z" />
    <glyph glyph-name="ibreve" unicode="&#x12d;" horiz-adv-x="240" 
d="M70 22v418c0 5.33301 2.16699 10.333 6.5 15s9.5 7 15.5 7h56c5.33301 0 10.333 -2.33301 15 -7s7 -9.66699 7 -15v-418c0 -6 -2.33301 -11.167 -7 -15.5s-9.66699 -6.5 -15 -6.5h-56c-6 0 -11.167 2.16699 -15.5 6.5s-6.5 9.5 -6.5 15.5zM125 529
c-35.333 0 -65.8301 11 -91.4971 33s-41.167 49.667 -46.5 83c-2 14 3.33301 21 16 21h29c9.33301 0 15.333 -5 18 -15c12.667 -39.333 37.667 -59 75 -59c16 0 30.667 5.66699 44 17s22.666 25.333 27.999 42c3.33301 10 9.33301 15 18 15h31
c13.333 0 18.666 -7 15.999 -21c-5.33301 -33.333 -20.833 -61 -46.5 -83s-55.834 -33 -90.501 -33z" />
    <glyph glyph-name="Iogonek" unicode="&#x12e;" horiz-adv-x="286" 
d="M91 19l-0.000976562 661.999c0 4.66699 1.83301 9 5.5 13s8.16699 6 13.5 6h66c5.33301 0 9.83301 -2 13.5 -6s5.5 -8.33301 5.5 -13v-662c0 -7.33301 -3 -12.666 -9 -15.999c-68 -43.333 -102 -86 -102 -128c0 -30.667 14.333 -46 43 -46c20.667 0 41.334 9 62.001 27
c4 4 8 5.33301 12 4s6 -4.66602 6 -9.99902l1 -44c0 -13.333 -4.66699 -23 -14 -29c-25.333 -15.333 -54.333 -23 -87 -23s-58 9.66699 -76 29s-27 44 -27 74c0 53.333 32.667 101.666 98 144.999c-7.33301 3.33301 -11 9 -11 17z" />
    <glyph glyph-name="iogonek" unicode="&#x12f;" horiz-adv-x="240" 
d="M70 22v417.999c0 5.33301 2.16699 10.333 6.5 15s9.5 7 15.5 7h56c5.33301 0 10.333 -2.33301 15 -7s7 -9.66699 7 -15v-414c0 -12 -5 -20.333 -15 -25c-22.667 -11.333 -44.834 -29 -66.501 -53s-32.5 -48.333 -32.5 -73c0 -30.667 14.333 -46 43 -46
c20.667 0 41.334 9 62.001 27c4 4 8 5.33301 12 4s6 -4.66602 6 -9.99902l1 -44c0 -13.333 -4.66699 -23 -14 -29c-25.333 -15.333 -54.333 -23 -87 -23s-58 9.66699 -76 29s-27 44 -27 74c0 52 34 101.333 102 148c-5.33301 4 -8 9.66699 -8 17zM120 560.999
c-18.667 0 -34.334 6.5 -47.001 19.5s-19 28.833 -19 47.5c0 19.333 6.33301 35.5 19 48.5s28.334 19.5 47.001 19.5s34.667 -6.66699 48 -20s20 -29.333 20 -48s-6.66699 -34.5 -20 -47.5s-29.333 -19.5 -48 -19.5z" />
    <glyph glyph-name="Idotaccent" unicode="&#x130;" horiz-adv-x="286" 
d="M91 19v662c0 4.66699 1.83301 9 5.5 13s8.16699 6 13.5 6h66c5.33301 0 9.83301 -2 13.5 -6s5.5 -8.33301 5.5 -13v-662c0 -4.66699 -1.83301 -9 -5.5 -13s-8.16699 -6 -13.5 -6h-66c-5.33301 0 -9.83301 2 -13.5 6s-5.5 8.33301 -5.5 13zM143 785
c-18.667 0 -34.334 6.5 -47.001 19.5s-19 28.833 -19 47.5c0 19.333 6.33301 35.5 19 48.5s28.334 19.5 47.001 19.5c19.333 0 35.5 -6.66699 48.5 -20s19.5 -29.333 19.5 -48s-6.66699 -34.5 -20 -47.5s-29.333 -19.5 -48 -19.5z" />
    <glyph glyph-name="dotlessi" unicode="&#x131;" horiz-adv-x="240" 
d="M70 22v418c0 5.33301 2.16699 10.333 6.5 15s9.5 7 15.5 7h56c5.33301 0 10.333 -2.33301 15 -7s7 -9.66699 7 -15v-418c0 -6 -2.33301 -11.167 -7 -15.5s-9.66699 -6.5 -15 -6.5h-56c-6 0 -11.167 2.16699 -15.5 6.5s-6.5 9.5 -6.5 15.5z" />
    <glyph glyph-name="IJ" unicode="&#x132;" horiz-adv-x="732" 
d="M91 19v662c0 4.66699 1.83301 9 5.5 13s8.16699 6 13.5 6h66c5.33301 0 9.83301 -2 13.5 -6s5.5 -8.33301 5.5 -13v-662c0 -4.66699 -1.83301 -9 -5.5 -13s-8.16699 -6 -13.5 -6h-66c-5.33301 0 -9.83301 2 -13.5 6s-5.5 8.33301 -5.5 13zM289 63
c-5.33301 8.66699 -4.66602 17 2.00098 25l36 39c11.333 10 22 9.33301 32 -2c25.333 -28.667 52.666 -43 81.999 -43c28 0 51.833 9.16699 71.5 27.5s29.5 47.833 29.5 88.5v483c0 5.33301 1.83301 9.83301 5.5 13.5s8.16699 5.5 13.5 5.5h66
c5.33301 0 9.83301 -1.83301 13.5 -5.5s5.5 -8.16699 5.5 -13.5v-482c0 -67.333 -19 -119 -57 -155s-87.333 -54 -148 -54c-62 0 -112.667 24.333 -152 73z" />
    <glyph glyph-name="ij" unicode="&#x133;" horiz-adv-x="487" 
d="M70 22v418c0 5.33301 2.16699 10.333 6.5 15s9.5 7 15.5 7h56c5.33301 0 10.333 -2.33301 15 -7s7 -9.66699 7 -15v-418c0 -6 -2.33301 -11.167 -7 -15.5s-9.66699 -6.5 -15 -6.5h-56c-6 0 -11.167 2.16699 -15.5 6.5s-6.5 9.5 -6.5 15.5zM120 561
c-18.667 0 -34.334 6.5 -47.001 19.5s-19 28.833 -19 47.5c0 19.333 6.33301 35.5 19 48.5s28.334 19.5 47.001 19.5s34.667 -6.66699 48 -20s20 -29.333 20 -48s-6.66699 -34.5 -20 -47.5s-29.333 -19.5 -48 -19.5zM417 440l0.000976562 -481.999
c0 -54 -10.833 -98.333 -32.5 -133s-49.5 -58.334 -83.5 -71.001c-16 -6 -27.667 -2 -35 12l-21 39c-4 7.33301 -4.83301 14.5 -2.5 21.5s7.16602 12.167 14.499 15.5c40 20 60 54.667 60 104v494c0 6.66699 2.16699 12 6.5 16s9.5 6 15.5 6h56
c6 0 11.167 -2.16699 15.5 -6.5s6.5 -9.5 6.5 -15.5zM367.001 561.001c-18.667 0 -34.334 6.5 -47.001 19.5s-19 28.833 -19 47.5c0 19.333 6.33301 35.5 19 48.5s28.334 19.5 47.001 19.5c19.333 0 35.5 -6.66699 48.5 -20s19.5 -29.333 19.5 -48s-6.66699 -34.5 -20 -47.5
s-29.333 -19.5 -48 -19.5z" />
    <glyph glyph-name="Jcircumflex" unicode="&#x134;" horiz-adv-x="462" 
d="M19 63c-5.33301 8.66699 -4.66602 17 2.00098 25l36 39c11.333 10 22 9.33301 32 -2c25.333 -28.667 52.666 -43 81.999 -43c28 0 51.833 9.16699 71.5 27.5s29.5 47.833 29.5 88.5v483c0 5.33301 1.83301 9.83301 5.5 13.5s8.16699 5.5 13.5 5.5h66
c5.33301 0 9.83301 -1.83301 13.5 -5.5s5.5 -8.16699 5.5 -13.5v-482c0 -67.333 -19 -119 -57 -155s-87.333 -54 -148 -54c-62 0 -112.667 24.333 -152 73zM225 769c-9.33301 -5.33301 -17 -4.33301 -23 3l-20 27c-4.66699 6.66699 -2.66699 13 6 19l125 98
c7.33301 6 15.333 6 24 0l125 -98c8.66699 -6 10.667 -12.333 6 -19l-20 -27c-6 -8 -13.667 -9 -23 -3l-100 65z" />
    <glyph glyph-name="jcircumflex" unicode="&#x135;" horiz-adv-x="240" 
d="M170 440l0.000976562 -481.999c0 -54 -10.833 -98.333 -32.5 -133s-49.5 -58.334 -83.5 -71.001c-16 -6 -27.667 -2 -35 12l-21 39c-4 7.33301 -4.83301 14.5 -2.5 21.5s7.16602 12.167 14.499 15.5c40 20 60 54.667 60 104v494c0 6.66699 2.16699 12 6.5 16
s9.5 6 15.5 6h56c6 0 11.167 -2.16699 15.5 -6.5s6.5 -9.5 6.5 -15.5zM-3.99902 542.001l-20 27c-4.66699 6.66699 -2.66699 13 6 19l125 98c7.33301 6 15.333 6 24 0l125 -98c8.66699 -6 10.667 -12.333 6 -19l-20 -27c-6 -8 -13.667 -9 -23 -3l-100 65l-100 -65
c-9.33301 -5.33301 -17 -4.33301 -23 3z" />
    <glyph glyph-name="Kcommaaccent" unicode="&#x136;" horiz-adv-x="621" 
d="M91 24l0.00195312 652c0 6.66699 2.33301 12.334 7 17.001s10.334 7 17.001 7h58c6.66699 0 12.334 -2.33301 17.001 -7s7 -10.334 7 -17.001v-277l282 291c5.33301 6.66699 11.666 10 18.999 10h75c9.33301 0 15.666 -4.16699 18.999 -12.5
s1.66602 -16.166 -5.00098 -23.499l-289 -294l306 -337c4.66699 -4.66699 5.33398 -11.334 2.00098 -20.001s-10 -13 -20 -13h-80c-8.66699 -0 -14.667 2.33301 -18 7l-291 328v-311c0 -6.66699 -2.33301 -12.334 -7 -17.001s-10.334 -7 -17.001 -7h-58
c-6.66699 0 -12.334 2.33301 -17.001 7s-7 10.334 -7 17.001zM258.002 -126c0 19.333 6.83301 34.668 20.5 46.001s31.5 17 53.5 17c26 0 47 -8.16699 63 -24.5s24 -40.5 24 -72.5c0 -50 -17.667 -94 -53 -132c-5.33301 -5.33301 -12 -5.66602 -20 -0.999023l-24 18
c-8 6 -8.33301 12.667 -1 20c20 17.333 30 39.666 30 66.999c0 7.33301 -1 13 -3 17c-6 -6 -16.667 -9 -32 -9c-17.333 0 -31.333 5.16699 -42 15.5s-16 23.166 -16 38.499z" />
    </font>
</defs>
</svg>
