<?xml version="1.0" standalone="no"?>
<!DOCTYPE svg PUBLIC "-//W3C//DTD SVG 1.1//EN" "http://www.w3.org/Graphics/SVG/1.1/DTD/svg11.dtd" >
<svg>
<metadata>
Created by FontForge 20090914 at Tue Aug  1 12:19:01 2017
 By www-data
Copyright (c) 2009 by Hannes von Doehren. All rights reserved.
</metadata>
<defs>
<font id="BrandonGrotesque-Thin" horiz-adv-x="491" >
  <font-face 
    font-family="Brandon Grotesque Thin"
    font-weight="300"
    font-stretch="normal"
    units-per-em="1000"
    panose-1="2 11 4 3 2 2 3 6 2 2"
    ascent="700"
    descent="-300"
    x-height="400"
    cap-height="700"
    bbox="-156.501 -318.287 1036 1025.57"
    underline-thickness="50"
    underline-position="-50"
    unicode-range="U+0020-U+FB02"
  />
<missing-glyph horiz-adv-x="599" 
d="M50 30v640c0 20 10 30 30 30h439c20 0 30 -10 30 -30v-640c0 -20 -10 -30 -30 -30h-439c-20 0 -30 10 -30 30zM262 314c0 -8 4.66406 -12 13.9971 -12h36c10 0 15 4.33301 15 13v26c0 10.667 5.5 21.334 16.5 32.001s23 20.167 36 28.5s25 20.5 36 36.5
s16.5 33.667 16.5 53c0 32 -11.833 58.5 -35.5 79.5s-53.5 31.5 -89.5 31.5c-16 0 -31.5 -2.16699 -46.5 -6.5s-27.333 -9.33301 -37 -15s-18.167 -11.5 -25.5 -17.5s-12.666 -11 -15.999 -15l-5 -7c-5.33301 -8 -5.33301 -14 0 -18l22 -22c6 -4 11.667 -4 17 0
c0.666992 0.666992 3.16699 3 7.5 7s7.5 7 9.5 9s5.83301 4.83301 11.5 8.5s10.834 6.5 15.501 8.5s10.667 3.83301 18 5.5s14.666 2.5 21.999 2.5c19.333 0 34.333 -5 45 -15s16 -22.333 16 -37c0 -14 -5.16699 -27 -15.5 -39s-21.666 -22 -33.999 -30
s-23.666 -18.833 -33.999 -32.5s-15.5 -28.834 -15.5 -45.501v-29zM244.997 156c0 -13.333 4.83301 -24.666 14.5 -33.999s20.834 -14 33.501 -14c13.333 0 24.833 4.66699 34.5 14s14.5 20.666 14.5 33.999s-4.83301 24.666 -14.5 33.999s-21.167 14 -34.5 14
c-12.667 0 -23.834 -4.66699 -33.501 -14s-14.5 -20.666 -14.5 -33.999z" />
    <glyph glyph-name="fi" unicode="fi" horiz-adv-x="509" 
d="M104 7l-0.000976562 375h-70c-4.66699 0 -7 2.33301 -7 7v4c0 4.66699 2.33301 7 7 7h70v126c0 57.333 16 102.333 48 135s71 49 117 49c34.667 0 64.167 -6.5 88.5 -19.5s42.833 -26.5 55.5 -40.5c2 -2 1.66699 -4.33301 -1 -7l-6 -6c-2.66699 -2 -5 -2 -7 0
c-37.333 37.333 -80.666 56 -129.999 56c-40.667 0 -75.5 -15 -104.5 -45s-43.5 -70.667 -43.5 -122v-126h300c4.66699 0 7 -2.33301 7 -7v-386c0 -4.66699 -2.33301 -7 -7 -7h-4c-4.66699 -0 -7 2.33301 -7 7v375h-289v-375c0 -4.66699 -2.33301 -7 -7 -7h-3
c-4.66699 -0 -7 2.33301 -7 7z" />
    <glyph glyph-name="fl" unicode="fl" horiz-adv-x="516" 
d="M104 7l-0.00195312 375h-70c-4.66699 0 -7 2.33301 -7 7v4c0 4.66699 2.33301 7 7 7h70v136c0 56.667 15.833 99.834 47.5 129.501s70.834 44.5 117.501 44.5c58 0 107.333 -18.667 148 -56v39c0 4.66699 2.33301 7 7 7h4c4.66699 0 7 -2.33301 7 -7v-686
c0 -4.66699 -2.33301 -7 -7 -7h-4c-4.66699 0 -7 2.33301 -7 7v623c-43.333 41.333 -92.666 62 -147.999 62c-41.333 0 -76.333 -13.333 -105 -40s-43 -65.334 -43 -116.001v-136h191c4.66699 0 7 -2.33301 7 -7v-4c0 -4.66699 -2.33301 -7 -7 -7h-191v-375
c0 -4.66699 -2.33301 -7 -7 -7h-4c-4 -0 -6 2.33301 -6 7z" />
    <glyph glyph-name="f_f" unicode="ff" horiz-adv-x="567" 
d="M99 7l-0.000976562 374.999h-60c-4.66699 0 -7 2.33301 -7 7v4c0 4.66699 2.33301 7 7 7h60v114c0 62 15 108.5 45 139.5s70 46.5 120 46.5c48.667 0 91.334 -17.333 128.001 -52c25.333 41.333 66 62 122 62c46 0 84 -14.333 114 -43
c3.33301 -3.33301 3.33301 -6.66602 0 -9.99902l-3 -3c-3.33301 -3.33301 -6.66602 -3.33301 -9.99902 0c-26.667 25.333 -60.334 38 -101.001 38s-72.667 -13.167 -96 -39.5s-35 -65.833 -35 -118.5v-134h181c4.66699 0 7 -2.33301 7 -7v-4c0 -4.66699 -2.33301 -7 -7 -7
h-181v-375c0 -4.66699 -2.33301 -7 -7 -7h-4c-4.66699 -0 -7 2.33301 -7 7v375h-248v-375c0 -4.66699 -2.33301 -7 -7 -7h-4c-4.66699 -0 -7 2.33301 -7 7zM116.999 399.999l248.001 0.000976562v134c0 38.667 6 71 18 97c-10.667 12 -27 23.5 -49 34.5
s-45.333 16.5 -70 16.5c-44.667 0 -80.334 -13.833 -107.001 -41.5s-40 -69.834 -40 -126.501v-114z" />
    <glyph glyph-name="f_f_i" unicode="ffi" horiz-adv-x="771" 
d="M99 7l-0.00195312 375.001h-60c-4.66699 0 -7 2.33301 -7 7v4c0 4.66699 2.33301 7 7 7h60v114c0 61.333 15.333 107.666 46 138.999s69.334 47 116.001 47c52.667 0 99 -19 139 -57c31.333 44.667 75 67 131 67c34.667 0 64.167 -6.5 88.5 -19.5
s42.833 -26.5 55.5 -40.5c2 -2 1.66699 -4.33301 -1 -7l-6 -6c-2.66699 -2 -5 -2 -7 0c-37.333 37.333 -80.666 56 -129.999 56c-40.667 0 -75.5 -15 -104.5 -45s-43.5 -70.667 -43.5 -122v-126h300c4.66699 0 7 -2.33301 7 -7v-386c0 -4.66699 -2.33301 -7 -7 -7h-4
c-4.66699 -0 -7 2.33301 -7 7v375h-289v-375c0 -4.66699 -2.33301 -7 -7 -7h-3c-4.66699 -0 -7 2.33301 -7 7v375h-249v-375c0 -4.66699 -2.33301 -7 -7 -7h-4c-4.66699 -0 -7 2.33301 -7 7zM116.998 400.001h248.999v126c0 37.333 8 71 24 101
c-11.333 12.667 -28.833 25 -52.5 37s-49.167 18 -76.5 18c-41.333 0 -75.666 -14 -102.999 -42s-41 -70 -41 -126v-114z" />
    <glyph glyph-name="f_f_l" unicode="ffl" horiz-adv-x="777" 
d="M99 7l-0.00195312 375.001h-60c-4.66699 0 -7 2.33301 -7 7v4c0 4.66699 2.33301 7 7 7h60v114c0 62 15 108.5 45 139.5s70 46.5 120 46.5c46.667 0 90.334 -18.333 131.001 -55c30.667 43.333 75.667 65 135 65c58 0 107.333 -18.667 148 -56v39
c0 4.66699 2.33301 7 7 7h4c4.66699 0 7 -2.33301 7 -7v-686c0 -4.66699 -2.33301 -7 -7 -7h-4c-4.66699 0 -7 2.33301 -7 7v623c-43.333 41.333 -92.666 62 -147.999 62c-41.333 0 -76.333 -13.333 -105 -40s-43 -65.334 -43 -116.001v-136h182c4.66699 0 7 -2.33301 7 -7
v-4c0 -4.66699 -2.33301 -7 -7 -7h-182v-375c0 -4.66699 -2.33301 -7 -7 -7h-3c-4.66699 -0 -7 2.33301 -7 7v375h-248v-375c0 -4.66699 -2.33301 -7 -7 -7h-4c-4.66699 -0 -7 2.33301 -7 7zM116.998 400.001h248.001v136c0 36 6.66699 66.667 20 92
c-11.333 12.667 -28.333 24.834 -51 36.501s-46 17.5 -70 17.5c-44.667 0 -80.334 -13.833 -107.001 -41.5s-40 -69.834 -40 -126.501v-114z" />
    <glyph glyph-name="f_f_j" unicode="ffj" horiz-adv-x="771" 
d="M99 7l-0.00195312 375.002h-60c-4.66699 0 -7 2.33301 -7 7v4c0 4.66699 2.33301 7 7 7h60v114c0 61.333 15.333 107.666 46 138.999s69.334 47 116.001 47c52.667 0 99 -19 139 -57c31.333 44.667 75 67 131 67c34.667 0 64.167 -6.5 88.5 -19.5
s42.833 -26.5 55.5 -40.5c2 -2 1.66699 -4.33301 -1 -7l-6 -6c-2.66699 -2 -5 -2 -7 0c-37.333 37.333 -80.666 56 -129.999 56c-40.667 0 -75.5 -15 -104.5 -45s-43.5 -70.667 -43.5 -122v-126h300c4.66699 0 7 -2.33301 7 -7v-527c0 -117.333 -46.667 -176 -140 -176
c-46.667 0 -84.334 14.333 -113.001 43c-3.33301 3.33301 -3.33301 6.66602 0 9.99902l3 3c2.66699 2.66699 5.66699 2.66699 9 0c26.667 -25.333 60.334 -38 101.001 -38c81.333 0 122 52.667 122 158v516h-289v-375c0 -4.66699 -2.33301 -7 -7 -7h-3
c-4.66699 -0 -7 2.33301 -7 7v375h-249v-375c0 -4.66699 -2.33301 -7 -7 -7h-4c-4.66699 -0 -7 2.33301 -7 7zM116.998 400.002h248.999v126c0 37.333 8 71 24 101c-11.333 12.667 -28.833 25 -52.5 37s-49.167 18 -76.5 18c-41.333 0 -75.666 -14 -102.999 -42
s-41 -70 -41 -126v-114z" />
    <glyph glyph-name="f_j" unicode="fj" horiz-adv-x="509" 
d="M104 7l-0.000976562 375.001h-70c-4.66699 0 -7 2.33301 -7 7v4c0 4.66699 2.33301 7 7 7h70v126c0 57.333 16 102.333 48 135s71 49 117 49c34.667 0 64.167 -6.5 88.5 -19.5s42.833 -26.5 55.5 -40.5c2 -2 1.66699 -4.33301 -1 -7l-6 -6c-2.66699 -2 -5 -2 -7 0
c-37.333 37.333 -80.666 56 -129.999 56c-40.667 0 -75.5 -15 -104.5 -45s-43.5 -70.667 -43.5 -122v-126h300c4.66699 0 7 -2.33301 7 -7v-527c0 -117.333 -46.667 -176 -140 -176c-46.667 0 -84.334 14.333 -113.001 43c-3.33301 3.33301 -3.33301 6.66602 0 9.99902l3 3
c2.66699 2.66699 5.66699 2.66699 9 0c26.667 -25.333 60.334 -38 101.001 -38c81.333 0 122 52.667 122 158v516h-289v-375c0 -4.66699 -2.33301 -7 -7 -7h-3c-4.66699 -0 -7 2.33301 -7 7z" />
    <glyph glyph-name="f_f_k" unicode="ffk" horiz-adv-x="1009" 
d="M99 7l-0.00292969 375.002h-60c-4.66699 0 -7 2.33301 -7 7v4c0 4.66699 2.33301 7 7 7h60v114c0 62 15 108.5 45 139.5s70 46.5 120 46.5c46.667 0 90.334 -18.333 131.001 -55c30.667 43.333 75.667 65 135 65c58 0 107.333 -18.667 148 -56v39
c0 4.66699 2.33301 7 7 7h4c4.66699 0 7 -2.33301 7 -7v-462l261 176c3.33301 2 6 1.66699 8 -1l4 -7c2 -3.33301 1.33301 -6 -2 -8l-252 -169l270 -215c2.66699 -2.66699 3.33398 -5.33398 2.00098 -8.00098l-6 -7c-2 -2.66699 -4.33301 -3 -7 -1l-278 223v-207
c0 -4.66699 -2.33301 -7 -7 -7h-4c-4.66699 0 -7 2.33301 -7 7v623c-43.333 41.333 -92.666 62 -147.999 62c-41.333 0 -76.333 -13.333 -105 -40s-43 -65.334 -43 -116.001v-136h182c4.66699 0 7 -2.33301 7 -7v-4c0 -4.66699 -2.33301 -7 -7 -7h-182v-375
c0 -4.66699 -2.33301 -7 -7 -7h-3c-4.66699 -0 -7 2.33301 -7 7v375h-248v-375c0 -4.66699 -2.33301 -7 -7 -7h-4c-4.66699 -0 -7 2.33301 -7 7zM116.997 400.002h248.001v136c0 36 6.66699 66.667 20 92c-11.333 12.667 -28.333 24.834 -51 36.501s-46 17.5 -70 17.5
c-44.667 0 -80.334 -13.833 -107.001 -41.5s-40 -69.834 -40 -126.501v-114z" />
    <glyph glyph-name="f_k" unicode="fk" horiz-adv-x="748" 
d="M104 7l-0.00292969 375.001h-70c-4.66699 0 -7 2.33301 -7 7v4c0 4.66699 2.33301 7 7 7h70v136c0 56.667 15.833 99.834 47.5 129.501s70.834 44.5 117.501 44.5c58 0 107.333 -18.667 148 -56v39c0 4.66699 2.33301 7 7 7h4c4.66699 0 7 -2.33301 7 -7v-462l261 176
c3.33301 2 6 1.66699 8 -1l4 -7c2 -3.33301 1.33301 -6 -2 -8l-252 -169l270 -215c2.66699 -2.66699 3.33398 -5.33398 2.00098 -8.00098l-6 -7c-2 -2.66699 -4.33301 -3 -7 -1l-278 223v-207c0 -4.66699 -2.33301 -7 -7 -7h-4c-4.66699 0 -7 2.33301 -7 7v623
c-43.333 41.333 -92.666 62 -147.999 62c-41.333 0 -76.333 -13.333 -105 -40s-43 -65.334 -43 -116.001v-136h191c4.66699 0 7 -2.33301 7 -7v-4c0 -4.66699 -2.33301 -7 -7 -7h-191v-375c0 -4.66699 -2.33301 -7 -7 -7h-4c-4 -0 -6 2.33301 -6 7z" />
    <glyph glyph-name="f_b" unicode="fb" horiz-adv-x="827" 
d="M104 7l-0.000976562 375h-70c-4.66699 0 -7 2.33301 -7 7v4c0 4.66699 2.33301 7 7 7h70v136c0 56.667 15.833 99.834 47.5 129.501s70.834 44.5 117.501 44.5c58 0 107.333 -18.667 148 -56v39c0 4.66699 2 7 6 7h4c4.66699 0 7 -2.33301 7 -7v-336
c4 4 9.83301 9 17.5 15s23.667 13.833 48 23.5s49.166 14.5 74.499 14.5c58 0 106 -19.833 144 -59.5s57 -89.5 57 -149.5c0 -59.333 -18 -109.333 -54 -150s-80.333 -61 -133 -61c-64 0 -115.333 21.667 -154 65v-48c0 -4.66699 -2.33301 -7 -7 -7h-4c-4 0 -6 2.33301 -6 7
v623c-43.333 41.333 -92.666 62 -147.999 62c-41.333 0 -76.333 -13.333 -105 -40s-43 -65.334 -43 -116.001v-136h191c4.66699 0 7 -2.33301 7 -7v-4c0 -4.66699 -2.33301 -7 -7 -7h-191v-375c0 -4.66699 -2.33301 -7 -7 -7h-4c-4 -0 -6 2.33301 -6 7zM433.999 83
c1.33301 -2.66699 3.83301 -6.16699 7.5 -10.5s10.167 -10.5 19.5 -18.5s19.5 -15.167 30.5 -21.5s25.167 -12 42.5 -17s35.333 -7.5 54 -7.5c47.333 0 87.5 18.667 120.5 56s49.5 83 49.5 137c0 55.333 -17.333 101 -52 137s-78.667 54 -132 54
c-26.667 0 -51.667 -5 -75 -15s-40 -20.333 -50 -31l-15 -15v-248z" />
    <glyph glyph-name="f_h" unicode="fh" horiz-adv-x="832" 
d="M104 7l-0.000976562 374.999h-70c-4.66699 0 -7 2.33301 -7 7v4c0 4.66699 2.33301 7 7 7h70v136c0 56.667 15.833 99.834 47.5 129.501s70.834 44.5 117.501 44.5c58 0 107.333 -18.667 148 -56v39c0 4.66699 2.33301 7 7 7h4c4.66699 0 7 -2.33301 7 -7v-358
c46 50 98 75 156 75c54 0 95.167 -15.833 123.5 -47.5s42.5 -77.834 42.5 -138.501v-217c0 -4.66699 -2.33301 -7 -7 -7h-4c-4.66699 0 -7 2.33301 -7 7v217c0 54.667 -12.667 96.334 -38 125.001s-62 43 -110 43c-20.667 0 -40.667 -3.66699 -60 -11
s-35.833 -16.666 -49.5 -27.999s-23.834 -20.5 -30.501 -27.5s-12 -13.167 -16 -18.5v-300c0 -4.66699 -2.33301 -7 -7 -7h-4c-4.66699 0 -7 2.33301 -7 7v623c-43.333 41.333 -92.666 62 -147.999 62c-41.333 0 -76.333 -13.333 -105 -40s-43 -65.334 -43 -116.001v-136
h191c4.66699 0 7 -2.33301 7 -7v-4c0 -4.66699 -2.33301 -7 -7 -7h-191v-375c0 -4.66699 -2.33301 -7 -7 -7h-4c-4 -0 -6 2.33301 -6 7z" />
    <glyph glyph-name="f_f_h" unicode="ffh" horiz-adv-x="1093" 
d="M99 7l-0.000976562 375h-60c-4.66699 0 -7 2.33301 -7 7v4c0 4.66699 2.33301 7 7 7h60v114c0 62 15 108.5 45 139.5s70 46.5 120 46.5c46.667 0 90.334 -18.333 131.001 -55c30.667 43.333 75.667 65 135 65c58 0 107.333 -18.667 148 -56v39c0 4.66699 2.33301 7 7 7h4
c4.66699 0 7 -2.33301 7 -7v-358c46 50 98 75 156 75c54 0 95.167 -15.833 123.5 -47.5s42.5 -77.834 42.5 -138.501v-217c0 -4.66699 -2.33301 -7 -7 -7h-4c-4.66699 0 -7 2.33301 -7 7v217c0 54.667 -12.667 96.334 -38 125.001s-62 43 -110 43
c-20.667 0 -40.667 -3.66699 -60 -11s-35.833 -16.666 -49.5 -27.999s-23.834 -20.5 -30.501 -27.5s-12 -13.167 -16 -18.5v-300c0 -4.66699 -2.33301 -7 -7 -7h-4c-4.66699 0 -7 2.33301 -7 7v623c-43.333 41.333 -92.666 62 -147.999 62
c-41.333 0 -76.333 -13.333 -105 -40s-43 -65.334 -43 -116.001v-136h182c4.66699 0 7 -2.33301 7 -7v-4c0 -4.66699 -2.33301 -7 -7 -7h-182v-375c0 -4.66699 -2.33301 -7 -7 -7h-3c-4.66699 -0 -7 2.33301 -7 7v375h-248v-375c0 -4.66699 -2.33301 -7 -7 -7h-4
c-4.66699 -0 -7 2.33301 -7 7zM116.999 400h248.001v136c0 36 6.66699 66.667 20 92c-11.333 12.667 -28.333 24.834 -51 36.501s-46 17.5 -70 17.5c-44.667 0 -80.334 -13.833 -107.001 -41.5s-40 -69.834 -40 -126.501v-114z" />
    <glyph glyph-name="f_f_b" unicode="ffb" horiz-adv-x="1088" 
d="M99 7l-0.000976562 375.001h-60c-4.66699 0 -7 2.33301 -7 7v4c0 4.66699 2.33301 7 7 7h60v114c0 62 15 108.5 45 139.5s70 46.5 120 46.5c46.667 0 90.334 -18.333 131.001 -55c30.667 43.333 75.667 65 135 65c58 0 107.333 -18.667 148 -56v39c0 4.66699 2 7 6 7h4
c4.66699 0 7 -2.33301 7 -7v-336c4 4 9.83301 9 17.5 15s23.667 13.833 48 23.5s49.166 14.5 74.499 14.5c58 0 106 -19.833 144 -59.5s57 -89.5 57 -149.5c0 -59.333 -18 -109.333 -54 -150s-80.333 -61 -133 -61c-64 0 -115.333 21.667 -154 65v-48
c0 -4.66699 -2.33301 -7 -7 -7h-4c-4 0 -6 2.33301 -6 7v623c-43.333 41.333 -92.666 62 -147.999 62c-41.333 0 -76.333 -13.333 -105 -40s-43 -65.334 -43 -116.001v-136h182c4.66699 0 7 -2.33301 7 -7v-4c0 -4.66699 -2.33301 -7 -7 -7h-182v-375
c0 -4.66699 -2.33301 -7 -7 -7h-3c-4.66699 -0 -7 2.33301 -7 7v375h-248v-375c0 -4.66699 -2.33301 -7 -7 -7h-4c-4.66699 -0 -7 2.33301 -7 7zM116.999 400.001h248.001v136c0 36 6.66699 66.667 20 92c-11.333 12.667 -28.333 24.834 -51 36.501s-46 17.5 -70 17.5
c-44.667 0 -80.334 -13.833 -107.001 -41.5s-40 -69.834 -40 -126.501v-114zM695 83.001c1.33301 -2.66699 3.83301 -6.16699 7.5 -10.5s10.167 -10.5 19.5 -18.5s19.5 -15.167 30.5 -21.5s25.167 -12 42.5 -17s35.333 -7.5 54 -7.5c47.333 0 87.5 18.667 120.5 56
s49.5 83 49.5 137c0 55.333 -17.333 101 -52 137s-78.667 54 -132 54c-26.667 0 -51.667 -5 -75 -15s-40 -20.333 -50 -31l-15 -15v-248z" />
    <glyph glyph-name=".notdef" horiz-adv-x="599" 
d="M50 30v640c0 20 10 30 30 30h439c20 0 30 -10 30 -30v-640c0 -20 -10 -30 -30 -30h-439c-20 0 -30 10 -30 30zM262 314c0 -8 4.66406 -12 13.9971 -12h36c10 0 15 4.33301 15 13v26c0 10.667 5.5 21.334 16.5 32.001s23 20.167 36 28.5s25 20.5 36 36.5
s16.5 33.667 16.5 53c0 32 -11.833 58.5 -35.5 79.5s-53.5 31.5 -89.5 31.5c-16 0 -31.5 -2.16699 -46.5 -6.5s-27.333 -9.33301 -37 -15s-18.167 -11.5 -25.5 -17.5s-12.666 -11 -15.999 -15l-5 -7c-5.33301 -8 -5.33301 -14 0 -18l22 -22c6 -4 11.667 -4 17 0
c0.666992 0.666992 3.16699 3 7.5 7s7.5 7 9.5 9s5.83301 4.83301 11.5 8.5s10.834 6.5 15.501 8.5s10.667 3.83301 18 5.5s14.666 2.5 21.999 2.5c19.333 0 34.333 -5 45 -15s16 -22.333 16 -37c0 -14 -5.16699 -27 -15.5 -39s-21.666 -22 -33.999 -30
s-23.666 -18.833 -33.999 -32.5s-15.5 -28.834 -15.5 -45.501v-29zM244.997 156c0 -13.333 4.83301 -24.666 14.5 -33.999s20.834 -14 33.501 -14c13.333 0 24.833 4.66699 34.5 14s14.5 20.666 14.5 33.999s-4.83301 24.666 -14.5 33.999s-21.167 14 -34.5 14
c-12.667 0 -23.834 -4.66699 -33.501 -14s-14.5 -20.666 -14.5 -33.999z" />
    <glyph glyph-name="space" unicode=" " horiz-adv-x="213" 
 />
    <glyph glyph-name="exclam" unicode="!" horiz-adv-x="296" 
d="M146 267c-4.66699 0 -7 2.33301 -7 7v419c0 4.66699 2.33301 7 7 7h4c4.66699 0 7 -2.33301 7 -7v-419c0 -4.66699 -2.33301 -7 -7 -7h-4zM124 14c0 6.66699 2.33301 12.167 7 16.5s10.334 6.5 17.001 6.5s12.334 -2.16699 17.001 -6.5s7 -9.83301 7 -16.5
s-2.33301 -12.334 -7 -17.001s-10.334 -7 -17.001 -7s-12.334 2.33301 -17.001 7s-7 10.334 -7 17.001z" />
    <glyph glyph-name="quotedbl" unicode="&#x22;" horiz-adv-x="289" 
d="M217 491c-4.66699 0 -7 2.33301 -7 7v195c0 4.66699 2.33301 7 7 7h3c4.66699 0 7 -2.33301 7 -7v-195c0 -4.66699 -2.33301 -7 -7 -7h-3zM69 491c-4.66699 0 -7 2.33301 -7 7v195c0 4.66699 2.33301 7 7 7h3c4.66699 0 7 -2.33301 7 -7v-195
c0 -4.66699 -2.33301 -7 -7 -7h-3z" />
    <glyph glyph-name="numbersign" unicode="#" horiz-adv-x="564" 
d="M118 8l41 209h-97c-4 0 -6 2.33301 -6 7v3c0 4.66699 2 7 6 7h99l38 194h-109c-4.66699 0 -7 2.33301 -7 7v4c0 4.66699 2.33301 7 7 7h113l48 248c1.33301 4 3.66602 6 6.99902 6h3c6 0 8.33301 -2.66699 7 -8l-48 -246h175l48 248c1.33301 4 3.66602 6 6.99902 6h4
c5.33301 0 7.33301 -2.66699 6 -8l-48 -246h95c4 0 6 -2.33301 6 -7v-4c0 -4.66699 -2 -7 -6 -7h-98l-37 -194h107c4.66699 0 7 -2.33301 7 -7v-3c0 -4.66699 -2.33301 -7 -7 -7h-111l-40 -211c-1.33301 -4 -3.66602 -6 -6.99902 -6h-4c-6 0 -8.33301 2.66699 -7 8l41 209
h-175l-40 -211c-1.33301 -4 -3.66602 -6 -6.99902 -6h-4c-6 0 -8.33301 2.66699 -7 8zM180 234h174l37 194h-174z" />
    <glyph glyph-name="dollar" unicode="$" horiz-adv-x="545" 
d="M64 73c-3.33301 2.66699 -3.33301 5.66992 0 9.00293l3 3c3.33301 3.33301 6.66602 3.33301 9.99902 0c54.667 -50 119 -75.667 193 -77v339c-71.333 19.333 -124.666 42.166 -159.999 68.499s-53 66.166 -53 119.499c0 21.333 4 41.666 12 60.999
s20.167 37.666 36.5 54.999s38.666 31.166 66.999 41.499s60.833 15.833 97.5 16.5v43c0 4.66699 2.33301 7 7 7h4c4.66699 0 7 -2.33301 7 -7v-44c27.333 -1.33301 54.333 -6.16602 81 -14.499s46.334 -16.166 59.001 -23.499l20 -12c2 -2 3 -4 3 -6l-2 -4
c0 -2.66699 -1.16699 -4.66699 -3.5 -6s-4.83301 -1.33301 -7.5 0c-43.333 29.333 -93.333 45.333 -150 48v-329c70.667 -20 123.334 -44.667 158.001 -74s52 -70 52 -122c0 -46 -20.833 -86 -62.5 -120s-90.834 -52.333 -147.501 -55v-113c0 -4 -2.33301 -6 -7 -6h-4
c-4.66699 0 -7 2 -7 6v113c-34.667 0.666992 -68.667 7.66699 -102 21s-57 25 -71 35s-25 19 -33 27zM270 366.003l-0.000976562 325c-65.333 -0.666992 -114.166 -16.5 -146.499 -47.5s-48.5 -67.167 -48.5 -108.5c0 -47.333 16 -83 48 -107s81 -44.667 147 -62z
M287.999 8.00293c52 2 97 18.333 135 49s57 66.667 57 108c0 47.333 -16 84 -48 110s-80 48.333 -144 67v-334z" />
    <glyph glyph-name="percent" unicode="%" horiz-adv-x="704" 
d="M189 427c-39.333 0 -72.666 13.833 -99.999 41.5s-41 61.167 -41 100.5s13.667 72.666 41 99.999s60.666 41 99.999 41s72.666 -13.667 99.999 -41s41 -60.666 41 -99.999s-13.667 -72.833 -41 -100.5s-60.666 -41.5 -99.999 -41.5zM189 445c34 0 63.167 12 87.5 36
s36.5 53.333 36.5 88c0 34 -12.167 63 -36.5 87s-53.5 36 -87.5 36c-34.667 0 -63.834 -12 -87.501 -36s-35.5 -53 -35.5 -87c0 -34.667 11.833 -64 35.5 -88s52.834 -36 87.501 -36zM358 131c0 39.333 13.667 72.835 41 100.502s60.666 41.5 99.999 41.5
c38.667 0 71.834 -13.833 99.501 -41.5s41.5 -61.167 41.5 -100.5c0 -38.667 -13.833 -71.834 -41.5 -99.501s-60.834 -41.5 -99.501 -41.5c-39.333 0 -72.666 13.667 -99.999 41s-41 60.666 -41 99.999zM375 131.002c0 -34 12 -63 36 -87s53.333 -36 88 -36
c34 0 63 12 87 36s36 53 36 87c0 34.667 -12 64 -36 88s-53 36 -87 36c-34.667 0 -64 -12 -88 -36s-36 -53.333 -36 -88zM120 12.002l417 686c2 2.66699 4.66699 3 8 1l6 -3c3.33301 -2 4 -4.66699 2 -8l-417 -686c-2.66699 -3.33301 -5 -4.33301 -7 -3l-8 5
c-2.66699 2 -3 4.66699 -1 8z" />
    <glyph glyph-name="ampersand" unicode="&#x26;" horiz-adv-x="695" 
d="M102 173c0 85.333 51.999 153.666 155.999 204.999l-30 31c-52 52 -78 103 -78 153c0 36.667 14.167 70.5 42.5 101.5s69.166 46.5 122.499 46.5c50 0 88.333 -14.5 115 -43.5s40 -63.833 40 -104.5c0 -69.333 -60 -131.666 -180 -186.999h-1l242 -239
c53.333 71.333 80 148 80 230c0 6 -0.666992 16.333 -2 31c0 5.33301 2.33301 8 7 8h4c4.66699 0 7 -2 7 -6c1.33301 -14.667 2 -25.667 2 -33c0 -86 -28.333 -166.333 -85 -241l112 -111c2.66699 -2.66699 3 -5.33398 1 -8.00098l-7 -6c-2 -2 -4.33301 -1.66699 -7 1
l-111 109c-65.333 -80 -146.666 -120 -243.999 -120c-55.333 0 -100.166 17.833 -134.499 53.5s-51.5 78.834 -51.5 129.501zM275.999 387c118 54 177 112.332 177 174.999c0 35.333 -12 65.833 -36 91.5s-58 38.5 -102 38.5c-48 0 -84.667 -13.667 -110 -41
s-38 -57 -38 -89c0 -41.333 24.333 -87.666 73 -138.999l11 -11.5l13 -13.5c4 -4 8 -7.66699 12 -11zM118.999 172.999c0 -46 15.667 -85 47 -117s72 -48 122 -48c90.667 0 168 38 232 114l-249 245c-47.333 -24 -84.5 -51.167 -111.5 -81.5s-40.5 -67.833 -40.5 -112.5z
" />
    <glyph glyph-name="quotesingle" unicode="'" horiz-adv-x="142" 
d="M69 491c-4.66699 0 -7 2.33301 -7 7v195c0 4.66699 2.33301 7 7 7h4c4.66699 0 7 -2.33301 7 -7v-195c0 -4.66699 -2.33301 -7 -7 -7h-4z" />
    <glyph glyph-name="parenleft" unicode="(" horiz-adv-x="344" 
d="M309 -61c4.66699 0 7 -2.33008 7 -6.99707v-4c0 -4 -2.33301 -6 -7 -6c-30.667 1.33301 -59.667 9 -87 23s-52.833 35.5 -76.5 64.5s-42.5 69.667 -56.5 122s-21 113.833 -21 184.5c0 70 7 131.167 21 183.5s32.833 93 56.5 122s49 50.667 76 65
s56.167 22.166 87.5 23.499c4.66699 0 7 -2.33301 7 -7v-4c0 -4.66699 -2.33301 -7 -7 -7c-22.667 -1.33301 -44.167 -6 -64.5 -14s-40.5 -21.333 -60.5 -40s-37 -41.834 -51 -69.501s-25.333 -63.167 -34 -106.5s-13 -92 -13 -146c0 -54.667 4.33301 -103.667 13 -147
s20 -78.833 34 -106.5s31 -50.834 51 -69.501s40.167 -32 60.5 -40s41.833 -12.667 64.5 -14z" />
    <glyph glyph-name="parenright" unicode=")" horiz-adv-x="344" 
d="M35 -61c22.667 1.33301 44.167 5.99707 64.5 13.9971s40.5 21.333 60.5 40s37 41.834 51 69.501s25.333 63.167 34 106.5s13 92.333 13 147c0 54 -4.33301 102.667 -13 146s-20 78.833 -34 106.5s-31 50.834 -51 69.501s-40.167 32 -60.5 40s-41.833 12.667 -64.5 14
c-4.66699 0 -7 2.33301 -7 7v4c0 4.66699 2.33301 7 7 7c31.333 -1.33301 60.5 -9.16602 87.5 -23.499s52.333 -36 76 -65s42.5 -69.667 56.5 -122s21 -113.5 21 -183.5c0 -70.667 -7 -132.167 -21 -184.5s-32.833 -93 -56.5 -122s-49.167 -50.5 -76.5 -64.5
s-56.333 -21.667 -87 -23c-4.66699 0 -7 2 -7 6v4c0 4.66699 2.33301 7 7 7z" />
    <glyph glyph-name="asterisk" unicode="*" horiz-adv-x="352" 
d="M174 406c-4.66699 0 -7 2.33301 -7 7v124l-108 -62c-3.33301 -2 -6 -1.66699 -8 1l-4 7c-1.33301 3.33301 -0.333008 5.66602 3 6.99902l107 63l-107 63c-3.33301 1.33301 -4 3.66602 -2 6.99902l3 6c2 3.33301 4.66699 4 8 2l108 -62v124c0 4.66699 2.33301 7 7 7h4
c4.66699 0 7 -2.33301 7 -7v-124l108 62c3.33301 2 6 1.33301 8 -2l3 -6c2 -3.33301 1.33301 -5.66602 -2 -6.99902l-107 -63l107 -63c3.33301 -1.33301 4.33301 -3.66602 3 -6.99902l-4 -7c-2 -2.66699 -4.66699 -3 -8 -1l-108 62v-124c0 -4.66699 -2.33301 -7 -7 -7h-4z
" />
    <glyph glyph-name="plus" unicode="+" horiz-adv-x="513" 
d="M248 153v186h-186c-4.66699 0 -7 2.33301 -7 7v4c0 4.66699 2.33301 7 7 7h186v185c0 4.66699 2.33301 7 7 7h4c4.66699 0 7 -2.33301 7 -7v-185h185c4.66699 0 7 -2.33301 7 -7v-4c0 -4.66699 -2.33301 -7 -7 -7h-185v-186c0 -4.66699 -2.33301 -7 -7 -7h-4
c-4.66699 0 -7 2.33301 -7 7z" />
    <glyph glyph-name="comma" unicode="," horiz-adv-x="262" 
d="M103 13c0 6 2.16699 11.168 6.5 15.501s9.83301 6.5 16.5 6.5c12.667 0 24.5 -7.66699 35.5 -23s16.5 -38.333 16.5 -69c0 -20.667 -5.16699 -39.167 -15.5 -55.5s-20.5 -27.5 -30.5 -33.5l-16 -10c-4.66699 -2 -7.66699 -1.66699 -9 1l-3 6c-2 4.66699 -1 7.66699 3 9
c4 2 8.83301 4.83301 14.5 8.5s13.334 12.667 23.001 27s14.5 30.166 14.5 47.499c0 23.333 -4.33301 42.333 -13 57c-6.66699 -6.66699 -13.334 -10 -20.001 -10s-12.167 2.33301 -16.5 7s-6.5 10 -6.5 16z" />
    <glyph glyph-name="hyphen" unicode="-" horiz-adv-x="597" 
d="M177 243c-4 0 -6 2.33301 -6 7v4c0 4.66699 2 7 6 7h243c4 0 6 -2.33301 6 -7v-4c0 -4.66699 -2 -7 -6 -7h-243z" />
    <glyph glyph-name="period" unicode="." horiz-adv-x="240" 
d="M96 14c0 6.66699 2.33301 12.167 7 16.5s10.334 6.5 17.001 6.5s12.334 -2.16699 17.001 -6.5s7 -9.83301 7 -16.5s-2.33301 -12.334 -7 -17.001s-10.334 -7 -17.001 -7s-12.334 2.33301 -17.001 7s-7 10.334 -7 17.001z" />
    <glyph glyph-name="slash" unicode="/" horiz-adv-x="334" 
d="M44 6l245 689c1.33301 3.33301 3.66602 5 6.99902 5h7c4 0 5.33301 -2 4 -6l-246 -690c-1.33301 -2.66699 -3.66602 -4 -6.99902 -4h-7c-3.33301 0 -4.33301 2 -3 6z" />
    <glyph glyph-name="zero" unicode="0" horiz-adv-x="660" 
d="M330 -11c-78 0 -138.667 31.167 -182 93.5s-65 148.5 -65 258.5c0 110.667 21.667 197 65 259s104 93 182 93s138.667 -31 182 -93s65 -148.333 65 -259c0 -110 -21.667 -196.167 -65 -258.5s-104 -93.5 -182 -93.5zM330 7c73.333 0 129.833 29.333 169.5 88
s59.5 140.667 59.5 246s-19.833 187.333 -59.5 246s-96.167 88 -169.5 88s-129.833 -29.333 -169.5 -88s-59.5 -140.667 -59.5 -246s19.833 -187.333 59.5 -246s96.167 -88 169.5 -88z" />
    <glyph glyph-name="one" unicode="1" horiz-adv-x="320" 
d="M194 7l-0.000976562 648.999l-166 -123c-3.33301 -2 -6 -1.66699 -8 1l-5 7c-1.33301 2.66699 -0.666016 5 2.00098 7l184 135c2.66699 2 5.16699 2.33301 7.5 1s3.5 -3.66602 3.5 -6.99902v-670c0 -4.66699 -2.33301 -7 -7 -7h-4c-4.66699 -0 -7 2.33301 -7 7z" />
    <glyph glyph-name="two" unicode="2" horiz-adv-x="525" 
d="M39 12l284.998 265.997c80 74.667 120 146.667 120 216c0 50.667 -17.833 93.5 -53.5 128.5s-85.5 52.5 -149.5 52.5c-20.667 0 -40.334 -3.16699 -59.001 -9.5s-33.834 -14.166 -45.501 -23.499s-21.667 -18.5 -30 -27.5s-14.5 -16.5 -18.5 -22.5l-5 -10
c-2 -3.33301 -4.33301 -4.33301 -7 -3l-7 4c-3.33301 2.66699 -4 5.66699 -2 9c1.33301 2.66699 3.5 6.33398 6.5 11.001s9.66699 12.667 20 24s21.5 21.333 33.5 30s28.333 16.667 49 24s42.334 11 65.001 11c70 0 124.333 -19 163 -57s58 -85 58 -141
c0 -41.333 -10.667 -80.166 -32 -116.499s-52.666 -73.5 -93.999 -111.5l-265 -248h379c4.66699 0 7 -2.33301 7 -7v-4c0 -4.66699 -2.33301 -7 -7 -7h-406c-3.33301 0 -5.66602 1.5 -6.99902 4.5s-0.666016 5.5 2.00098 7.5z" />
    <glyph glyph-name="three" unicode="3" horiz-adv-x="561" 
d="M59 80c-2.66699 3.33301 -2.66602 6.33301 0.000976562 9l5 4c3.33301 2 6.33301 1.66699 9 -1c10 -10.667 18.167 -18.667 24.5 -24s17.666 -13.833 33.999 -25.5s35.666 -20.334 57.999 -26.001s46.833 -8.5 73.5 -8.5c64 0 115 16.667 153 50s57 76 57 128
c0 42 -16.667 79 -50 111s-75.666 48 -126.999 48h-135c-4.66699 0 -7 2.33301 -7 7v4c0 4.66699 2.33301 7 7 7h135c42.667 0 79.834 14.833 111.501 44.5s47.5 66.834 47.5 111.501c0 45.333 -16 82.666 -48 111.999s-74 44 -126 44c-22.667 0 -44.5 -2.83301 -65.5 -8.5
s-38.167 -12.5 -51.5 -20.5s-25.333 -16.167 -36 -24.5s-18.334 -15.5 -23.001 -21.5l-7 -8c-2 -3.33301 -4.66699 -4 -8 -2l-6 4c-3.33301 2 -4 4.66699 -2 8c2 2.66699 4.66699 6 8 10s11.333 11.167 24 21.5s26.167 19.5 40.5 27.5s32.833 15.167 55.5 21.5
s46.334 9.5 71.001 9.5c57.333 0 103.666 -16.167 138.999 -48.5s53 -73.833 53 -124.5c0 -38.667 -11.667 -73 -35 -103s-52.333 -50.333 -87 -61c40.667 -10.667 74.167 -32.167 100.5 -64.5s39.5 -67.166 39.5 -104.499c0 -56.667 -20.833 -103.5 -62.5 -140.5
s-96.834 -55.5 -165.501 -55.5c-28.667 0 -55 3.16699 -79 9.5s-44.667 15.5 -62 27.5s-29.666 21.167 -36.999 27.5s-16 14.833 -26 25.5z" />
    <glyph glyph-name="four" unicode="4" horiz-adv-x="588" 
d="M22 159c-3.33301 0 -5.5 1.16699 -6.5 3.5s-0.5 4.83301 1.5 7.5l433 524c1.33301 2.66699 3.5 3.5 6.5 2.5s4.5 -3.16699 4.5 -6.5v-514h71c4.66699 0 7 -2 7 -6v-4c0 -4.66699 -2.33301 -7 -7 -7h-71v-152c0 -4.66699 -2.33301 -7 -7 -7h-3
c-4.66699 -0 -7 2.33301 -7 7v152h-422zM45 176h399v484z" />
    <glyph glyph-name="five" unicode="5" horiz-adv-x="559" 
d="M76 76c-2.66699 3.33301 -2.66602 6.33203 0.000976562 8.99902l5 4c2.66699 2 5.66699 1.33301 9 -2c45.333 -52.667 106 -79 182 -79c63.333 0 115.666 20.667 156.999 62s62 92 62 152c0 62 -18.5 109 -55.5 141s-91.167 47.667 -162.5 47h-181
c-4.66699 0 -7 2.33301 -7 7v258c0 4.66699 2.33301 7 7 7h326c4.66699 0 7 -2.33301 7 -7v-3c0 -4.66699 -2.33301 -7 -7 -7h-315v-238h170c76.667 0.666992 135.167 -16.666 175.5 -51.999s60.5 -86.333 60.5 -153c0 -64.667 -22.5 -119.5 -67.5 -164.5
s-101.5 -67.5 -169.5 -67.5c-82.667 0 -148 28.667 -196 86z" />
    <glyph glyph-name="six" unicode="6" horiz-adv-x="566" 
d="M63 276c0 44 6.16309 85.834 18.4961 125.501s28.833 74 49.5 103s42.667 55.333 66 79s48 43.667 74 60s48.333 29.333 67 39s35.667 17.167 51 22.5c4 1.33301 6.66699 0.333008 8 -3l2 -7c0.666992 -3.33301 -0.666016 -6 -3.99902 -8
c-18 -6 -37.167 -14.167 -57.5 -24.5s-45 -26 -74 -47s-55.333 -44.333 -79 -70s-45.167 -57.834 -64.5 -96.501s-31.666 -80 -36.999 -124c58.667 78.667 132.334 118 221.001 118c60 0 111.5 -20.5 154.5 -61.5s64.5 -94.167 64.5 -159.5
c0 -64 -22.167 -118.667 -66.5 -164s-97.166 -68 -158.499 -68c-72.667 0 -130 27 -172 81s-63 122.333 -63 205zM79.9961 276.001c0 -78 19.502 -142.167 58.502 -192.5s92.167 -75.5 159.5 -75.5c56.667 0 105.5 20.833 146.5 62.5s61.5 92.167 61.5 151.5
c0 60.667 -19.833 109.667 -59.5 147s-87.167 56 -142.5 56c-26.667 0 -52 -4.16699 -76 -12.5s-43.833 -17.833 -59.5 -28.5s-30.334 -23 -44.001 -37s-23.334 -25 -29.001 -33s-10.5 -15.333 -14.5 -22l-1 -2v-14z" />
    <glyph glyph-name="seven" unicode="7" horiz-adv-x="479" 
d="M154 9l288 656h-410c-4.66699 0 -7 2.33301 -7 7v3c0 4.66699 2.33301 7 7 7h426c2.66699 0 4.66699 -1 6 -3s1.33301 -4 0 -6l-295 -672c-2 -4 -4.66699 -5 -8 -3l-5 2c-3.33301 1.33301 -4 4.33301 -2 9z" />
    <glyph glyph-name="eight" unicode="8" horiz-adv-x="584" 
d="M69 175c0 44 16 81.333 48 112s76 50.667 132 60c-48.667 9.33301 -87.834 28.666 -117.501 57.999s-44.5 64.333 -44.5 105c0 49.333 16.667 91.333 50 126s84.333 52 153 52s120.334 -17.5 155.001 -52.5s52 -76.833 52 -125.5c0 -40.667 -14.667 -75.667 -44 -105
s-68.333 -48.666 -117 -57.999c56.667 -10 100.667 -29.667 132 -59s47 -67 47 -113c0 -61.333 -20.667 -107.5 -62 -138.5s-95.333 -46.5 -162 -46.5c-66 0 -119.5 15.5 -160.5 46.5s-61.5 77.167 -61.5 138.5zM292 359c54.667 3.33301 99.5 18.333 134.5 45
s52.5 62 52.5 106c0 44.667 -16 82.834 -48 114.501s-79 47.5 -141 47.5s-108.333 -15.833 -139 -47.5s-46 -69.834 -46 -114.501c0 -44 17.5 -79.333 52.5 -106s79.833 -41.667 134.5 -45zM86 175c0 -56 19.001 -98.167 57.001 -126.5s87.333 -42.5 148 -42.5
c61.333 0 111.166 14.167 149.499 42.5s57.5 70.5 57.5 126.5c0 44 -18.833 80.667 -56.5 110s-87.5 46.333 -149.5 51c-63.333 -4.66699 -113.5 -21 -150.5 -49s-55.5 -65.333 -55.5 -112z" />
    <glyph glyph-name="nine" unicode="9" horiz-adv-x="566" 
d="M167 -8c-0.666992 3.33301 0.669922 5.99902 4.00293 7.99902c18 6 37.167 14.167 57.5 24.5s45 26 74 47s55.333 44.333 79 70s45.167 57.834 64.5 96.501s31.666 80 36.999 124c-58.667 -78.667 -132.334 -118 -221.001 -118c-60 0 -111.5 20.5 -154.5 61.5
s-64.5 94.167 -64.5 159.5c0 64 22.167 118.667 66.5 164s97.166 68 158.499 68c72.667 0 130 -27 172 -81s63 -122.333 63 -205c0 -44 -6.16699 -85.833 -18.5 -125.5s-28.833 -74 -49.5 -103s-42.667 -55.333 -66 -79s-48 -43.667 -74 -60s-48.333 -29.333 -67 -39
s-35.667 -17.167 -51 -22.5c-4 -1.33301 -6.66699 -0.333008 -8 3zM262.004 261.999c26.667 0 51.998 4.16699 75.998 12.5s43.833 17.833 59.5 28.5s30.334 23 44.001 37s23.334 25 29.001 33s10.5 15.333 14.5 22l1 2v14c0 78 -19.5 142.167 -58.5 192.5
s-92.167 75.5 -159.5 75.5c-56.667 0 -105.5 -20.833 -146.5 -62.5s-61.5 -92.167 -61.5 -151.5c0 -60.667 19.833 -109.667 59.5 -147s87.167 -56 142.5 -56z" />
    <glyph glyph-name="colon" unicode=":" horiz-adv-x="290" 
d="M145 363c-6.66699 0 -12.332 2.33301 -16.999 7s-7 10 -7 16c0 6.66699 2.33301 12.334 7 17.001s10.334 7 17.001 7c7.33301 0 13.166 -2.33301 17.499 -7s6.5 -10.334 6.5 -17.001c0 -6 -2.33301 -11.333 -7 -16s-10.334 -7 -17.001 -7zM121.002 14
c0 6.66699 2.33301 12.167 7 16.5s10.334 6.5 17.001 6.5s12.334 -2.16699 17.001 -6.5s7 -9.83301 7 -16.5s-2.33301 -12.334 -7 -17.001s-10.334 -7 -17.001 -7s-12.334 2.33301 -17.001 7s-7 10.334 -7 17.001z" />
    <glyph glyph-name="semicolon" unicode=";" horiz-adv-x="301" 
d="M145 363c-6 0 -11.3311 2.33301 -15.998 7s-7 10 -7 16c0 6.66699 2.33301 12.334 7 17.001s10 7 16 7c7.33301 0 13.166 -2.33301 17.499 -7s6.5 -10.334 6.5 -17.001c0 -6 -2.33301 -11.333 -7 -16s-10.334 -7 -17.001 -7zM123.002 13
c0 6 2.16992 11.1699 6.50293 15.5029s9.83301 6.5 16.5 6.5c12.667 0 24.5 -7.66699 35.5 -23s16.5 -38.333 16.5 -69c0 -20.667 -5.33301 -39.334 -16 -56.001s-21.334 -28.334 -32.001 -35.001l-15 -9c-0.666992 -0.666992 -1.83398 -0.833984 -3.50098 -0.500977
s-2.83398 0.833008 -3.50098 1.5l-3 5c-4.66699 4.66699 -4 8.33398 2 11.001c4 2 8.83301 4.83301 14.5 8.5s13.334 12.667 23.001 27s14.5 30.166 14.5 47.499c0 23.333 -4.33301 42.333 -13 57c-6.66699 -6.66699 -13.334 -10 -20.001 -10s-12.167 2.33301 -16.5 7
s-6.5 10 -6.5 16z" />
    <glyph glyph-name="less" unicode="&#x3c;" horiz-adv-x="438" 
d="M32 226c-6.66699 4 -6.66699 8 0 12l365 235c4 2 7 1.33301 9 -2l3 -5c2.66699 -4 2 -7 -2 -9l-350 -225l350 -218c4 -2 4.66699 -5 2 -9l-3 -5c-2 -3.33301 -5 -4 -9 -2z" />
    <glyph glyph-name="equal" unicode="=" horiz-adv-x="665" 
d="M167 382c-4.66699 0 -7 2.33301 -7 7v4c0 4.66699 2.33301 7 7 7h331c4.66699 0 7 -2.33301 7 -7v-4c0 -4.66699 -2.33301 -7 -7 -7h-331zM167 176c-4.66699 0 -7 2.33301 -7 7v4c0 4.66699 2.33301 7 7 7h331c4.66699 0 7 -2.33301 7 -7v-4
c0 -4.66699 -2.33301 -7 -7 -7h-331z" />
    <glyph glyph-name="greater" unicode="&#x3e;" horiz-adv-x="438" 
d="M29 5c-2.66699 4 -2 7 2 9l350 218l-350 225c-4 2 -4.66699 5 -2 9l3 5c2 3.33301 5 4 9 2l365 -235c6.66699 -4 6.66699 -8 0 -12l-365 -228c-4 -2 -7 -1.33301 -9 2z" />
    <glyph glyph-name="question" unicode="?" horiz-adv-x="504" 
d="M234 257c-4.66699 0 -6.99414 2.33301 -6.99414 7v60c0 11.333 1.66699 21.5 5 30.5s9.16602 17.167 17.499 24.5s13.833 11.833 16.5 13.5l19 11.5c84.667 45.333 127 98.333 127 159c0 37.333 -15 68.166 -45 92.499s-69 36.5 -117 36.5c-22 0 -43 -2.83301 -63 -8.5
s-36.333 -12.5 -49 -20.5s-23.834 -16 -33.501 -24s-16.5 -15 -20.5 -21l-6 -8c-2.66699 -4 -5.33398 -4.66699 -8.00098 -2l-5 4c-2.66699 2.66699 -3.33398 5.33398 -2.00098 8.00098s3.66602 6 6.99902 10s10.666 11.167 21.999 21.5s23.5 19.5 36.5 27.5
s30.5 15.167 52.5 21.5s45 9.5 69 9.5c52.667 0 95.667 -14 129 -42s50 -63 50 -105c0 -64.667 -45.333 -123 -136 -175c-32 -16.667 -48 -38 -48 -64v-60c0 -4.66699 -2.33301 -7 -7 -7h-4zM217.006 14c0 6.66699 2.16699 12.167 6.5 16.5s9.83301 6.5 16.5 6.5
s12.334 -2.16699 17.001 -6.5s7 -9.83301 7 -16.5s-2.33301 -12.334 -7 -17.001s-10.334 -7 -17.001 -7s-12.167 2.33301 -16.5 7s-6.5 10.334 -6.5 17.001z" />
    <glyph glyph-name="at" unicode="@" horiz-adv-x="1000" 
d="M52 225c0 143.333 41.833 260.001 125.5 350.001s195.167 135 334.5 135c130.667 0 233.667 -39 309 -117s113 -178.667 113 -302c0 -36.667 -3 -71.334 -9 -104.001s-15.833 -64.5 -29.5 -95.5s-34.334 -55.667 -62.001 -74s-60.834 -27.5 -99.501 -27.5
c-30 0 -54.333 7.33301 -73 22s-30.667 34 -36 58c-32 -53.333 -82.667 -80 -152 -80c-57.333 0 -103.666 20.333 -138.999 61s-53 91.667 -53 153c0 59.333 18.5 108.5 55.5 147.5s83.5 58.5 139.5 58.5c58 0 106.667 -18 146 -54v37c0 4.66699 2.33301 7 7 7h4
c4.66699 0 7 -2.33301 7 -7v-289c0 -28.667 8.16699 -51.834 24.5 -69.501s39.5 -26.5 69.5 -26.5c34.667 0 64.667 8.66699 90 26s44.333 40.5 57 69.5s21.834 58.833 27.501 89.5s8.5 63.334 8.5 98.001c0 118.667 -36 215.167 -108 289.5s-171 111.5 -297 111.5
c-134 0 -241.333 -43.167 -322 -129.5s-121 -198.833 -121 -337.5c0 -100.667 26.833 -188.5 80.5 -263.5s125.167 -131.5 214.5 -169.5c3.33301 -2 4.33301 -4.33301 3 -7l-3 -6c-2 -4 -4.66699 -5 -8 -3c-92 38.667 -165.667 97 -221 175s-83 169.333 -83 274z
M299 204.001c0 -56 16.002 -102.669 48.002 -140.002s74 -56 126 -56c22 0 42.167 3.33301 60.5 10s32.666 14.667 42.999 24s19.166 18.833 26.499 28.5s12.333 17.834 15 24.501l4 10v224c-2.66699 4.66699 -8.83398 11.334 -18.501 20.001s-26.5 18 -50.5 28
s-49.667 15 -77 15c-51.333 0 -93.666 -17.833 -126.999 -53.5s-50 -80.5 -50 -134.5z" />
    <glyph glyph-name="A" unicode="A" horiz-adv-x="639" 
d="M8 7l308 710c1.33301 2.66699 3 4 5 4h2c2 0 3.66699 -1.33301 5 -4l302 -710c1.33301 -3.33301 0.333008 -5.33301 -3 -6l-9 -3c-2 -0.666992 -3.66699 0.333008 -5 3l-89 209h-409l-90 -209c-1.33301 -2.66699 -3 -3.66699 -5 -3l-9 3
c-3.33301 0.666992 -4.33301 2.66699 -3 6zM123 227h393l-194 458z" />
    <glyph glyph-name="B" unicode="B" horiz-adv-x="625" 
d="M112 7v686c0 4.66699 2.33301 7 7 7h206c64 0 115 -15.5 153 -46.5s57 -74.5 57 -130.5c0 -40 -11.333 -74 -34 -102s-53.667 -48 -93 -60c46 -8.66699 82.333 -27.5 109 -56.5s40 -67.833 40 -116.5c0 -56 -20.667 -101.333 -62 -136s-95 -52 -161 -52h-215
c-4.66699 -0 -7 2.33301 -7 7zM130 367l197.001 -0.000976562c56.667 0 102.5 14 137.5 42s52.5 66 52.5 114c0 50.667 -17.333 89.834 -52 117.501s-81.334 41.5 -140.001 41.5h-195v-315zM130.001 17.999h204c61.333 0 110.833 15.667 148.5 47s56.5 72.333 56.5 123
c0 53.333 -17.5 93.5 -52.5 120.5s-81.833 40.5 -140.5 40.5h-216v-331z" />
    <glyph glyph-name="C" unicode="C" horiz-adv-x="730" 
d="M61 349c0 100.667 35.333 186.001 106 256.001s156.334 105 257.001 105c88 0 169 -31 243 -93c2.66699 -2.66699 3 -5.33398 1 -8.00098l-5 -6c-2.66699 -2.66699 -5.33398 -2.66699 -8.00098 0c-68.667 59.333 -145.667 89 -231 89
c-95.333 0 -176.666 -33.333 -243.999 -100s-101 -147.667 -101 -243s33.5 -176 100.5 -242s148.5 -99 244.5 -99c86 0 163 31 231 93c3.33301 3.33301 6 3.33301 8 0l5 -6c2.66699 -2 2.66699 -4.33301 0 -7c-68 -65.333 -149.333 -98 -244 -98
c-100.667 0 -186.334 34.833 -257.001 104.5s-106 154.5 -106 254.5z" />
    <glyph glyph-name="D" unicode="D" horiz-adv-x="733" 
d="M112 7v685.999c0 4.66699 2 7 6 7h200c97.333 0 180.5 -34 249.5 -102s103.5 -150.333 103.5 -247c0 -97.333 -34.5 -180.166 -103.5 -248.499s-152.167 -102.5 -249.5 -102.5h-200c-4 -0 -6 2.33301 -6 7zM129 17.999h189c92.667 0 171.834 32.5 237.501 97.5
s98.5 143.5 98.5 235.5c0 91.333 -32.833 169.333 -98.5 234s-144.834 97 -237.501 97h-189v-664z" />
    <glyph glyph-name="E" unicode="E" horiz-adv-x="610" 
d="M112 7v686c0 4.66699 2.33301 7 7 7h407c4.66699 0 7 -2.33301 7 -7v-4c0 -4.66699 -2.33301 -7 -7 -7h-396v-309h348c4.66699 0 7 -2.33301 7 -7v-4c0 -4.66699 -2.33301 -7 -7 -7h-348v-337h396c4.66699 0 7 -2.33301 7 -7v-4c0 -4.66699 -2.33301 -7 -7 -7h-407
c-4.66699 -0 -7 2.33301 -7 7z" />
    <glyph glyph-name="F" unicode="F" horiz-adv-x="585" 
d="M112 7v686c0 4.66699 2.33301 7 7 7h407c4.66699 0 7 -2.33301 7 -7v-4c0 -4.66699 -2.33301 -7 -7 -7h-396v-334h348c4.66699 0 7 -2.33301 7 -7v-4c0 -4.66699 -2.33301 -7 -7 -7h-348v-323c0 -4.66699 -2.33301 -7 -7 -7h-4c-4.66699 -0 -7 2.33301 -7 7z" />
    <glyph glyph-name="G" unicode="G" horiz-adv-x="755" 
d="M61 349c0 100.667 35.3311 186 105.998 256s156.334 105 257.001 105c88 0 169 -31 243 -93c2.66699 -2.66699 3 -5.33398 1 -8.00098l-5 -6c-2.66699 -2.66699 -5.33398 -2.66699 -8.00098 0c-68.667 59.333 -145.667 89 -231 89
c-95.333 0 -176.666 -33.333 -243.999 -100s-101 -147.667 -101 -243s33.5 -176 100.5 -242s148.5 -99 244.5 -99c40.667 0 79.167 4.83301 115.5 14.5s62.833 19.167 79.5 28.5s30 18 40 26v235h-227c-4.66699 0 -7 2.33301 -7 7v4c0 4 2.33301 6 7 6h238
c4.66699 0 7 -2 7 -6v-253c-4 -6 -14.667 -14.667 -32 -26s-46.666 -23.166 -87.999 -35.499s-85.666 -18.5 -132.999 -18.5c-100.667 0 -186.334 34.833 -257.001 104.5s-106 154.5 -106 254.5z" />
    <glyph glyph-name="H" unicode="H" horiz-adv-x="752" 
d="M112 7v686c0 4.66699 2.33301 7 7 7h4c4.66699 0 7 -2.33301 7 -7v-320h492v320c0 4.66699 2.33301 7 7 7h4c4.66699 0 7 -2.33301 7 -7v-686c0 -4.66699 -2.33301 -7 -7 -7h-4c-4.66699 -0 -7 2.33301 -7 7v348h-492v-348c0 -4.66699 -2.33301 -7 -7 -7h-4
c-4.66699 -0 -7 2.33301 -7 7z" />
    <glyph glyph-name="I" unicode="I" horiz-adv-x="242" 
d="M112 7v686c0 4.66699 2.33301 7 7 7h4c4.66699 0 7 -2.33301 7 -7v-686c0 -4.66699 -2.33301 -7 -7 -7h-4c-4.66699 -0 -7 2.33301 -7 7z" />
    <glyph glyph-name="J" unicode="J" horiz-adv-x="379" 
d="M-30 67c-2.66699 3.33301 -2.33398 6.33301 0.999023 9l4 3c3.33301 2 6 1.33301 8 -2c36.667 -46 84 -69 142 -69c54.667 0 96.5 17.833 125.5 53.5s43.5 86.5 43.5 152.5v479c0 4.66699 2.33301 7 7 7h3c4.66699 0 7 -2.33301 7 -7v-479
c0 -70.667 -16.167 -125.667 -48.5 -165s-78.166 -59 -137.499 -59c-64 0 -115.667 25.667 -155 77z" />
    <glyph glyph-name="K" unicode="K" horiz-adv-x="559" 
d="M112 7v686c0 4.66699 2.33301 7 7 7h4c4.66699 0 7 -2.33301 7 -7v-333l372 339c3.33301 3.33301 6.66602 3.33301 9.99902 0l3 -3c3.33301 -3.33301 3.33301 -6.66602 0 -9.99902l-369 -335l379 -340c4.66699 -4.66699 5.33398 -8.33398 2.00098 -11.001l-4 -4
c-2 -2.66699 -5 -2 -9 2l-384 344v-335c0 -4.66699 -2.33301 -7 -7 -7h-4c-4.66699 -0 -7 2.33301 -7 7z" />
    <glyph glyph-name="L" unicode="L" horiz-adv-x="489" 
d="M112 7v686c0 4.66699 2.33301 7 7 7h4c4 0 6 -2.33301 6 -7v-675h349c4.66699 0 7 -2.33301 7 -7v-4c0 -4.66699 -2.33301 -7 -7 -7h-359c-4.66699 -0 -7 2.33301 -7 7z" />
    <glyph glyph-name="M" unicode="M" horiz-adv-x="859" 
d="M52 8l147.002 704c0.666992 3.33301 3 5 7 5s6.33301 -1.66699 7 -5l217 -676l214 676c1.33301 3.33301 3.66602 5 6.99902 5s5.66602 -1.66699 6.99902 -5l151 -704c0.666992 -4.66699 -0.333008 -7.33398 -3 -8.00098l-8 -2c-2.66699 -1.33301 -4.66699 0.666992 -6 6
l-144 662l-211 -674c-0.666992 -3.33301 -3 -5 -7 -5s-6.33301 1.66699 -7 5l-215 674l-139 -662c-0.666992 -5.33301 -2.66699 -7.33301 -6 -6l-8 2c-2.66699 0.666992 -3.66699 3.33398 -3 8.00098z" />
    <glyph glyph-name="N" unicode="N" horiz-adv-x="772" 
d="M112 7v703c0 3.33301 1.66699 5.5 5 6.5s6 0.166992 8 -2.5l517 -689v668c0 4.66699 2.33301 7 7 7h4c4.66699 0 7 -2.33301 7 -7v-701c0 -3.33301 -1.66699 -5.5 -5 -6.5s-6 -0.166992 -8 2.5l-517 689v-670c0 -4.66699 -2.33301 -7 -7 -7h-4
c-4.66699 -0 -7 2.33301 -7 7z" />
    <glyph glyph-name="O" unicode="O" horiz-adv-x="846" 
d="M62 349c0 100.667 35 186 105 256s155.333 105 256 105s186.167 -35 256.5 -105s105.5 -155.333 105.5 -256c0 -100 -35.167 -184.833 -105.5 -254.5s-155.833 -104.5 -256.5 -104.5s-186 34.667 -256 104s-105 154.333 -105 255zM80 349c0 -95.333 33.333 -176 100 -242
s147.667 -99 243 -99c96 0 177.333 33 244 99s100 146.667 100 242s-33.5 176.333 -100.5 243s-148.167 100 -243.5 100s-176.333 -33.333 -243 -100s-100 -147.667 -100 -243z" />
    <glyph glyph-name="P" unicode="P" horiz-adv-x="596" 
d="M112 7l0.000976562 686c0 4.66699 2.33301 7 7 7h208c62.667 0 116.5 -22.167 161.5 -66.5s67.5 -97.5 67.5 -159.5c0 -62.667 -22.333 -116.5 -67 -161.5s-98.334 -67.5 -161.001 -67.5h-198v-238c0 -4.66699 -2.33301 -7 -7 -7h-4c-4.66699 -0 -7 2.33301 -7 7z
M130.001 263h198.001c57.333 0 106.666 20.667 147.999 62s62 91 62 149c0 57.333 -20.667 106.333 -62 147s-91 61 -149 61h-197v-419z" />
    <glyph glyph-name="Q" unicode="Q" horiz-adv-x="847" 
d="M62 349c0 100.667 35.001 186 105.001 256s155.333 105 256 105s186.167 -35 256.5 -105s105.5 -155.333 105.5 -256c0 -77.333 -21.833 -146.333 -65.5 -207s-100.834 -103.667 -171.501 -129l117 -192c2 -3.33301 1.66699 -6 -1 -8l-9 -5
c-2.66699 -0.666992 -4.66699 0.333008 -6 3l-118 196c-35.333 -11.333 -71.333 -17 -108 -17c-100.667 0 -186 34.667 -256 104s-105 154.333 -105 255zM80.001 349c0 -95.333 33.333 -176 100 -242s147.667 -99 243 -99c96 0 177.333 33 244 99s100 146.667 100 242
s-33.5 176.333 -100.5 243s-148.167 100 -243.5 100s-176.333 -33.333 -243 -100s-100 -147.667 -100 -243z" />
    <glyph glyph-name="R" unicode="R" horiz-adv-x="648" 
d="M112 7l0.000976562 686c0 4.66699 2.33301 7 7 7h237c63.333 0 117.166 -20.333 161.499 -61s66.5 -91.667 66.5 -153c0 -54.667 -17.167 -101.667 -51.5 -141s-77.833 -64 -130.5 -74l156 -261c2 -3.33301 1.66699 -6 -1 -8l-9 -5
c-2.66699 -0.666992 -4.66699 0.333008 -6 3l-159 268c-6 -0.666992 -14.667 -1 -26 -1h-228v-260c0 -4.66699 -2 -7 -6 -7h-4c-4.66699 -0 -7 2.33301 -7 7zM129.001 284h228c58 0 107.5 19.333 148.5 58s61.5 86.667 61.5 144c0 56 -20.5 102.667 -61.5 140
s-90.833 56 -149.5 56h-227v-398z" />
    <glyph glyph-name="S" unicode="S" horiz-adv-x="556" 
d="M72 73c-2.66699 3.33301 -2.66797 6.33105 -0.000976562 8.99805l4 4c2.66699 2.66699 5.66699 2.33398 9 -0.999023c60.667 -51.333 127.334 -77 200.001 -77c54 0 101.333 15.5 142 46.5s61 68.167 61 111.5c0 26.667 -4.83301 49.834 -14.5 69.501
s-24.834 36.334 -45.501 50.001s-42.667 25.167 -66 34.5s-52.666 18.666 -87.999 27.999c-34 9.33301 -62.167 18.5 -84.5 27.5s-43.833 20.5 -64.5 34.5s-35.834 31.333 -45.501 52s-14.5 45 -14.5 73c0 46.667 18.167 87.5 54.5 122.5s90.833 52.5 163.5 52.5
c29.333 0 58.5 -4.33301 87.5 -13s50.5 -17 64.5 -25l21 -13c3.33301 -2 4 -4.66699 2 -8l-4 -6c-2 -3.33301 -4.66699 -4 -8 -2l-22.5 13.5c-9.66699 5.66699 -28.667 13 -57 22s-56.166 13.5 -83.499 13.5c-66.667 0 -116.667 -15.667 -150 -47s-50 -68 -50 -110
c0 -47.333 16 -83 48 -107s81.333 -44.667 148 -62c77.333 -21.333 134.5 -46.5 171.5 -75.5s55.5 -70.5 55.5 -124.5c0 -48 -22.167 -89.333 -66.5 -124s-95.833 -52 -154.5 -52c-35.333 0 -70.5 6.66699 -105.5 20s-59.167 25 -72.5 35s-25 19.333 -35 28z" />
    <glyph glyph-name="T" unicode="T" horiz-adv-x="462" 
d="M221 7v675h-208c-4.66699 0 -7 2.33301 -7 7v4c0 4.66699 2.33301 7 7 7h436c4.66699 0 7 -2.33301 7 -7v-4c0 -4.66699 -2.33301 -7 -7 -7h-210v-675c0 -4.66699 -2.33301 -7 -7 -7h-4c-4.66699 -0 -7 2.33301 -7 7z" />
    <glyph glyph-name="U" unicode="U" horiz-adv-x="724" 
d="M103 252l0.00195312 441c0 4.66699 2.33301 7 7 7h4c4.66699 0 7 -2.33301 7 -7v-441c0 -72.667 21.667 -131.5 65 -176.5s101.666 -67.5 174.999 -67.5c74 0 132.833 22.5 176.5 67.5s65.5 103.833 65.5 176.5v441c0 4.66699 2.33301 7 7 7h4c4.66699 0 7 -2.33301 7 -7
v-441c0 -78 -23.5 -141.167 -70.5 -189.5s-110.167 -72.5 -189.5 -72.5c-78.667 0 -141.334 24.167 -188.001 72.5s-70 111.5 -70 189.5z" />
    <glyph glyph-name="V" unicode="V" horiz-adv-x="639" 
d="M310 -16l-301 709c-0.666992 3.33301 0.333008 5.33301 3 6l9 3c2 0.666992 3.66699 -0.333008 5 -3l290 -683l297 683c1.33301 2.66699 3 3.66699 5 3l9 -3c3.33301 -0.666992 4.33301 -2.66699 3 -6l-308 -709c-1.33301 -2.66699 -3.33301 -4 -6 -4
s-4.66699 1.33301 -6 4z" />
    <glyph glyph-name="W" unicode="W" horiz-adv-x="889" 
d="M245 -12l-204 705c-0.666992 3.33301 0.333008 5.33301 3 6l8 3c2.66699 1.33301 4.66699 0.333008 6 -3l194 -668l184 677c1.33301 3.33301 3.66602 5 6.99902 5s5.66602 -1.66699 6.99902 -5l193 -676l187 667c1.33301 3.33301 3.33301 4.33301 6 3l8 -3
c2.66699 -0.666992 3.66699 -2.66699 3 -6l-197 -705c-1.33301 -3.33301 -3.66602 -5 -6.99902 -5s-5.66602 1.66699 -6.99902 5l-193 676l-184 -676c-0.666992 -3.33301 -3 -5 -7 -5s-6.33301 1.66699 -7 5z" />
    <glyph glyph-name="X" unicode="X" horiz-adv-x="546" 
d="M39 3c-3.33301 2 -3.66504 5 -0.998047 9l223 345l-213 331c-2.66699 4 -2.33398 7 0.999023 9l6 4c3.33301 1.33301 6 0.333008 8 -3l210 -325l210 325c2 3.33301 4.66699 4.33301 8 3l6 -4c3.33301 -2 3.66602 -5 0.999023 -9l-214 -331l225 -345
c2.66699 -4 2.33398 -7 -0.999023 -9l-6 -4c-2.66699 -1.33301 -5.33398 -0.333008 -8.00098 3l-221 338l-220 -338c-2 -3.33301 -4.66699 -4.33301 -8 -3z" />
    <glyph glyph-name="Y" unicode="Y" horiz-adv-x="544" 
d="M263 7l0.000976562 336l-264 345c-2.66699 4 -2.33398 7 0.999023 9l6 4c2 1.33301 4.66699 0.333008 8 -3l258 -339l258 339c2.66699 4 5.33398 5 8.00098 3l6 -4c3.33301 -2 3.66602 -5 0.999023 -9l-264 -344v-337c0 -4.66699 -2.33301 -7 -7 -7h-4
c-4.66699 -0 -7 2.33301 -7 7z" />
    <glyph glyph-name="Z" unicode="Z" horiz-adv-x="528" 
d="M29 11l439 671h-399c-4.66699 0 -7 2.33301 -7 7v4c0 4.66699 2.33301 7 7 7h419c2.66699 0 4.66699 -1.16699 6 -3.5s1.33301 -4.83301 0 -7.5l-439 -671h411c4.66699 0 7 -2.33301 7 -7v-4c0 -4.66699 -2.33301 -7 -7 -7h-431c-2.66699 0 -4.66699 1.16699 -6 3.5
s-1.33301 4.83301 0 7.5z" />
    <glyph glyph-name="bracketleft" unicode="[" horiz-adv-x="333" 
d="M106 -282h192c4.66699 0 7 -2.33301 7 -7v-4c0 -4.66699 -2.33301 -7 -7 -7h-203c-4.66699 0 -7 2.33301 -7 7v986c0 4.66699 2.33301 7 7 7h203c4.66699 0 7 -2.33301 7 -7v-4c0 -4.66699 -2.33301 -7 -7 -7h-192v-964z" />
    <glyph glyph-name="backslash" unicode="\" horiz-adv-x="334" 
d="M273 4l-245.001 689c-1.33301 4 -0.333008 6.33301 3 7h7c4 0 6.33301 -1.33301 7 -4l245 -690c1.33301 -4 0.333008 -6 -3 -6h-7c-3.33301 -0 -5.66602 1.33301 -6.99902 4z" />
    <glyph glyph-name="bracketright" unicode="]" horiz-adv-x="333" 
d="M35 -282h192v964h-192c-4.66699 0 -7 2.33301 -7 7v4c0 4.66699 2.33301 7 7 7h203c4.66699 0 7 -2.33301 7 -7v-986c0 -4.66699 -2.33301 -7 -7 -7h-203c-4.66699 0 -7 2.33301 -7 7v4c0 4.66699 2.33301 7 7 7z" />
    <glyph glyph-name="asciicircum" unicode="^" horiz-adv-x="524" 
d="M48 398l-6 4c-3.33301 2 -4 4.66699 -2 8l219 305c4 5.33301 8 5.33301 12 0l213 -305c2 -3.33301 1.33301 -6 -2 -8l-6 -4c-3.33301 -2 -6 -1.33301 -8 2l-203 291l-209 -291c-2 -3.33301 -4.66699 -4 -8 -2z" />
    <glyph glyph-name="underscore" unicode="_" horiz-adv-x="401" 
d="M28 -17c0 4.66699 2.33301 7 7 7h331c4.66699 0 7 -2.33301 7 -7v-4c0 -4 -2.33301 -6 -7 -6h-331c-4.66699 0 -7 2 -7 6v4z" />
    <glyph glyph-name="grave" unicode="`" horiz-adv-x="302" 
d="M239 560l-182 90c-4 2 -5 5 -3 9l2 4c2 3.33301 5 4.33301 9 3l182 -91c3.33301 -2 4.33301 -4.33301 3 -7l-2 -5c-2 -3.33301 -5 -4.33301 -9 -3z" />
    <glyph glyph-name="a" unicode="a" horiz-adv-x="436" 
d="M47 125c0 40 16.166 72.834 48.499 98.501s74.833 38.5 127.5 38.5c36.667 0 76 -7.66699 118 -23v37c0 40.667 -8.16699 70.167 -24.5 88.5s-45.166 27.5 -86.499 27.5c-22.667 0 -44.167 -2.5 -64.5 -7.5s-34.833 -9.83301 -43.5 -14.5l-14 -8
c-3.33301 -2 -6.33301 -1.33301 -9 2l-3 5c-2 3.33301 -1.33301 6 2 8c33.333 22 77.333 33 132 33c48 0 81.5 -10.667 100.5 -32s28.5 -55.333 28.5 -102v-269c0 -4.66699 -2.33301 -7 -7 -7h-4c-4.66699 0 -7 2.33301 -7 7v45c-47.333 -41.333 -99 -62 -155 -62
c-40 0 -73.167 12.167 -99.5 36.5s-39.5 57.166 -39.5 98.499zM64.999 125.001c0 -36 11.332 -64.5 33.999 -85.5s51.667 -31.5 87 -31.5c32.667 0 63.5 7.5 92.5 22.5s49.833 30.5 62.5 46.5v144c-53.333 15.333 -92.666 23 -117.999 23
c-47.333 0 -85.5 -11.167 -114.5 -33.5s-43.5 -50.833 -43.5 -85.5z" />
    <glyph glyph-name="b" unicode="b" 
d="M81 7l0.000976562 686.001c0 4.66699 2 7 6 7h4c4.66699 0 7 -2.33301 7 -7v-339c4.66699 4 11 9.16699 19 15.5s24.667 14.666 50 24.999s50.666 15.5 75.999 15.5c58 0 105.167 -19.667 141.5 -59s54.5 -89.333 54.5 -150c0 -58.667 -18.667 -108.5 -56 -149.5
s-82.333 -61.5 -135 -61.5c-61.333 0 -111.333 21.667 -150 65v-48c0 -4.66699 -2.33301 -7 -7 -7h-4c-4 -0 -6 2.33301 -6 7zM98.001 83.001c4 -6.66699 10 -14.5 18 -23.5s24.5 -19.833 49.5 -32.5s52.5 -19 82.5 -19c48 0 89 18.667 123 56s51 83 51 137
c0 55.333 -16.5 101 -49.5 137s-76.167 54 -129.5 54c-16.667 0 -33.167 -2.16699 -49.5 -6.5s-30 -9.33301 -41 -15s-20.833 -11.5 -29.5 -17.5s-15 -11 -19 -15l-6 -7v-248z" />
    <glyph glyph-name="c" unicode="c" horiz-adv-x="476" 
d="M50 202c0 59.333 20.834 108.833 62.501 148.5s92.167 59.5 151.5 59.5c28 0 54.833 -4.66699 80.5 -14s44.167 -18.666 55.5 -27.999l17 -13c2.66699 -2.66699 2.66699 -5.33398 0 -8.00098l-4 -4c-3.33301 -3.33301 -6.66602 -3 -9.99902 1
c-4 3.33301 -9.66699 7.66602 -17 12.999s-23 12.5 -47 21.5s-49 13.5 -75 13.5c-54.667 0 -101.167 -18 -139.5 -54s-57.5 -81.333 -57.5 -136c0 -55.333 19.5 -101.5 58.5 -138.5s85.167 -55.5 138.5 -55.5c26.667 0 52.167 5.33301 76.5 16s42.166 21.334 53.499 32.001
l17 15c3.33301 3.33301 6 3.66602 8 0.999023l5 -5c2.66699 -2 3 -4 1 -6l-7.5 -7.5c-3 -3 -9.83301 -8.66699 -20.5 -17s-21.834 -15.666 -33.501 -21.999s-26.5 -12 -44.5 -17s-36.333 -7.5 -55 -7.5c-58 0 -108.167 20.167 -150.5 60.5s-63.5 90.833 -63.5 151.5z" />
    <glyph glyph-name="d" unicode="d" 
d="M52 201c0 60.667 18.333 110.666 55 149.999s84 59 142 59c25.333 0 50 -4.66699 74 -14s41.667 -18.666 53 -27.999l17 -15v340c0 4.66699 2.33301 7 7 7h4c4 0 6 -2.33301 6 -7v-686c0 -4.66699 -2 -7 -6 -7h-4c-4.66699 -0 -7 2.33301 -7 7v48
c-38.667 -43.333 -88.667 -65 -150 -65c-52.667 0 -97.667 20.5 -135 61.5s-56 90.833 -56 149.5zM69 200.999c0 -54 16.999 -99.667 50.999 -137s75 -56 123 -56c30 0 57.5 6.33301 82.5 19s41.5 23.5 49.5 32.5s14 16.833 18 23.5v244
c-4 4.66699 -9.83301 10.667 -17.5 18s-24 17 -49 29s-50.833 18 -77.5 18c-53.333 0 -96.666 -18 -129.999 -54s-50 -81.667 -50 -137z" />
    <glyph glyph-name="e" unicode="e" horiz-adv-x="477" 
d="M71 193c1.33301 -53.333 18.002 -97.501 50.002 -132.501s74.667 -52.5 128 -52.5c55.333 0 100.666 14.333 135.999 43c3.33301 2.66699 6 2.33398 8 -0.999023l4 -6c1.33301 -2 0.666016 -4.33301 -2.00098 -7c-41.333 -31.333 -90 -47 -146 -47
c-59.333 0 -107 20.167 -143 60.5s-54 90.833 -54 151.5c0 59.333 18 108.833 54 148.5s83.667 59.5 143 59.5c53.333 0 97 -17 131 -51s51 -78 51 -132c0 -15.333 -1.33301 -25.333 -4 -30c-1.33301 -2.66699 -3.33301 -4 -6 -4h-350zM71.002 209.999l341 -0.000976562
c0.666992 4 1 9.66699 1 17c0 48.667 -15.5 88.334 -46.5 119.001s-70.167 46 -117.5 46c-52.667 0 -95 -17.167 -127 -51.5s-49 -77.833 -51 -130.5z" />
    <glyph glyph-name="f" unicode="f" horiz-adv-x="301" 
d="M99 7v374.999h-60c-4.66699 0 -7 2.33301 -7 7v4c0 4.66699 2.33301 7 7 7h60v134c0 58 13.333 101.833 40 131.5s63 44.5 109 44.5s84 -14.333 114 -43c3.33301 -3.33301 3.33301 -6.66602 0 -9.99902l-3 -3c-3.33301 -3.33301 -6.66602 -3.33301 -9.99902 0
c-26.667 25.333 -60.334 38 -101.001 38s-72.667 -13.167 -96 -39.5s-35 -65.833 -35 -118.5v-134h181c4.66699 0 7 -2.33301 7 -7v-4c0 -4.66699 -2.33301 -7 -7 -7h-181v-375c0 -4.66699 -2.33301 -7 -7 -7h-4c-4.66699 -0 -7 2.33301 -7 7z" />
    <glyph glyph-name="g" unicode="g" horiz-adv-x="464" 
d="M40 50c0 44 21.332 76.665 63.999 97.998c-20 26.667 -30 60.334 -30 101.001c0 45.333 15.167 83.5 45.5 114.5s70.5 46.5 120.5 46.5h31h1h143c4.66699 0 7 -2.33301 7 -7v-4c0 -4.66699 -2.33301 -7 -7 -7h-91c53.333 -28 80 -75.667 80 -143
c0 -44.667 -15.167 -82.834 -45.5 -114.501s-69.833 -47.5 -118.5 -47.5c-53.333 0 -94.666 15.667 -123.999 47c-38.667 -18 -58 -46 -58 -84c0 -20.667 6.66699 -37.167 20 -49.5s28.666 -18.5 45.999 -18.5h184c97.333 0 146 -42.667 146 -128
c0 -44.667 -18.833 -83.167 -56.5 -115.5s-86.167 -48.5 -145.5 -48.5c-63.333 0 -112.166 16.5 -146.499 49.5s-51.5 69.167 -51.5 108.5c0 49.333 22.667 88.333 68 117c-21.333 0.666992 -40.333 8.83398 -57 24.501s-25 35.834 -25 60.501zM239.999 104.998
c43.333 0 78.499 13.998 105.499 41.998s40.5 62 40.5 102c0 25.333 -4 47.5 -12 66.5s-17.667 33.167 -29 42.5s-22.666 16.833 -33.999 22.5s-21 8.83398 -29 9.50098l-12 2h-30c-44.667 0 -80.5 -13.833 -107.5 -41.5s-40.5 -61.5 -40.5 -101.5
c0 -41.333 12.167 -75.666 36.5 -102.999s61.5 -41 111.5 -41zM71.998 -152.004c0 -35.333 15.5 -67.5 46.5 -96.5s75.5 -43.5 133.5 -43.5c55.333 0 99.833 14.333 133.5 43s50.5 63 50.5 103c0 74 -42.667 111 -128 111h-142c-16 -2 -35.667 -13.5 -59 -34.5
s-35 -48.5 -35 -82.5z" />
    <glyph glyph-name="h" unicode="h" horiz-adv-x="496" 
d="M81 7l0.000976562 685.999c0 4.66699 2.33301 7 7 7h4c4.66699 0 7 -2.33301 7 -7v-358c46 50 98 75 156 75c54 0 95.167 -15.833 123.5 -47.5s42.5 -77.834 42.5 -138.501v-217c0 -4.66699 -2.33301 -7 -7 -7h-4c-4.66699 0 -7 2.33301 -7 7v217
c0 54.667 -12.667 96.334 -38 125.001s-62 43 -110 43c-20.667 0 -40.667 -3.66699 -60 -11s-35.833 -16.666 -49.5 -27.999s-23.834 -20.5 -30.501 -27.5s-12 -13.167 -16 -18.5v-300c0 -4.66699 -2.33301 -7 -7 -7h-4c-4.66699 -0 -7 2.33301 -7 7z" />
    <glyph glyph-name="i" unicode="i" horiz-adv-x="180" 
d="M91 607c-6 0 -10.833 1.99902 -14.5 5.99902s-5.5 8.66699 -5.5 14c0 6 1.83301 11 5.5 15s8.5 6 14.5 6c5.33301 0 10 -2.16699 14 -6.5s6 -9.16602 6 -14.499s-2 -10 -6 -14s-8.66699 -6 -14 -6zM81 6.99902v386c0 4.66699 2.33301 7 7 7h4c4.66699 0 7 -2.33301 7 -7
v-386c0 -4.66699 -2.33301 -7 -7 -7h-4c-4.66699 0 -7 2.33301 -7 7z" />
    <glyph glyph-name="j" unicode="j" horiz-adv-x="180" 
d="M90 607c-6 0 -11 2 -15 6s-6 8.66699 -6 14s2 10.166 6 14.499s9 6.5 15 6.5c5.33301 0 10 -2.16699 14 -6.5s6 -9.16602 6 -14.499s-2 -10 -6 -14s-8.66699 -6 -14 -6zM81 -134v527.001c0 4.66699 2.33301 7 7 7h4c4.66699 0 7 -2.33301 7 -7v-527
c0 -117.333 -46.667 -176 -140 -176c-46.667 0 -84.334 14.333 -113.001 43c-3.33301 3.33301 -3.33301 6.66602 0 9.99902l3 3c3.33301 2.66699 6.33301 2.66699 9 0c26.667 -25.333 60.334 -38 101.001 -38c81.333 0 122 52.667 122 158z" />
    <glyph glyph-name="k" unicode="k" horiz-adv-x="413" 
d="M81 7l0.000976562 685.999c0 4.66699 2.33301 7 7 7h4c4.66699 0 7 -2.33301 7 -7v-462l261 174c3.33301 2 6 1.66699 8 -1l4 -7c2 -3.33301 1.33301 -6 -2 -8l-252 -167l268 -210c3.33301 -3.33301 3.66602 -6.33301 0.999023 -9l-5 -6
c-2 -3.33301 -4.33301 -3.66602 -7 -0.999023l-276 218v-207c0 -4.66699 -2.33301 -7 -7 -7h-4c-4.66699 -0 -7 2.33301 -7 7z" />
    <glyph glyph-name="l" unicode="l" horiz-adv-x="180" 
d="M81 7v686c0 4.66699 2.33301 7 7 7h4c4.66699 0 7 -2.33301 7 -7v-686c0 -4.66699 -2.33301 -7 -7 -7h-4c-4.66699 -0 -7 2.33301 -7 7z" />
    <glyph glyph-name="m" unicode="m" horiz-adv-x="763" 
d="M81 7l-0.00195312 385.998c0 4.66699 2.33301 7 7 7h4c4.66699 0 7 -2.33301 7 -7v-55c36.667 48 85.667 72 147 72c64.667 0 109.334 -26.667 134.001 -80c37.333 53.333 87.333 80 150 80c51.333 0 90.5 -15.833 117.5 -47.5s40.5 -77.834 40.5 -138.501v-217
c0 -4.66699 -2.33301 -7 -7 -7h-4c-4.66699 0 -7 2.33301 -7 7v217c0 54.667 -12 96.334 -36 125.001s-58.667 43 -104 43c-26 0 -50.167 -5.83301 -72.5 -17.5s-38 -22.5 -47 -32.5s-16.5 -20 -22.5 -30c8.66699 -27.333 13 -56.666 13 -87.999v-217
c0 -4.66699 -2.33301 -7 -7 -7h-4c-4.66699 0 -7 2.33301 -7 7v217c0 54.667 -11.833 96.334 -35.5 125.001s-57.5 43 -101.5 43c-21.333 0 -41.166 -3.33301 -59.499 -10s-33.5 -15.167 -45.5 -25.5s-21 -19 -27 -26s-11 -13.833 -15 -20.5v-303
c0 -4.66699 -2.33301 -7 -7 -7h-4c-4.66699 -0 -7 2.33301 -7 7z" />
    <glyph glyph-name="n" unicode="n" horiz-adv-x="496" 
d="M81 7l-0.000976562 386c0 4.66699 2.33301 7 7 7h4c4.66699 0 7 -2.33301 7 -7v-55c44.667 48 96.667 72 156 72c54 0 95.167 -15.833 123.5 -47.5s42.5 -77.834 42.5 -138.501v-217c0 -4.66699 -2.33301 -7 -7 -7h-4c-4.66699 0 -7 2.33301 -7 7v217
c0 54.667 -12.667 96.334 -38 125.001s-62 43 -110 43c-26.667 0 -52.667 -6.66699 -78 -20s-43.166 -25 -53.499 -35s-18.5 -19 -24.5 -27v-303c0 -4.66699 -2.33301 -7 -7 -7h-4c-4.66699 -0 -7 2.33301 -7 7z" />
    <glyph glyph-name="o" unicode="o" horiz-adv-x="508" 
d="M51 201c0 58 19.667 107.333 59 148s87.333 61 144 61s104.667 -20.333 144 -61s59 -90 59 -148c0 -59.333 -19.667 -109.333 -59 -150s-87.333 -61 -144 -61s-104.667 20.333 -144 61s-59 90.667 -59 150zM69 201c0 -54 17.833 -99.667 53.5 -137s79.5 -56 131.5 -56
s95.833 18.667 131.5 56s53.5 83 53.5 137c0 53.333 -17.833 98.5 -53.5 135.5s-79.5 55.5 -131.5 55.5s-95.833 -18.5 -131.5 -55.5s-53.5 -82.167 -53.5 -135.5z" />
    <glyph glyph-name="p" unicode="p" 
d="M98 40v-333c0 -4.66699 -2.33301 -7 -7 -7h-4c-4 0 -6 2.33301 -6 7v686c0 4.66699 2 7 6 7h4c4.66699 0 7 -2.33301 7 -7v-37c39.333 36 87.333 54 144 54s103.667 -19.833 141 -59.5s56 -89.167 56 -148.5c0 -61.333 -18.833 -112 -56.5 -152s-87.5 -60 -149.5 -60
c-53.333 0 -98.333 16.667 -135 50zM98 67c3.33301 -4.66699 9.49902 -10.832 18.499 -18.499s24.5 -16.334 46.5 -26.001s45.333 -14.5 70 -14.5c57.333 0 103.166 18.333 137.499 55s51.5 83 51.5 139c0 54 -17.167 99.167 -51.5 135.5s-77.166 54.5 -128.499 54.5
c-27.333 0 -52.666 -5 -75.999 -15s-39.5 -19 -48.5 -27s-15.5 -15 -19.5 -21v-262z" />
    <glyph glyph-name="q" unicode="q" 
d="M52 202c0 58.667 19.501 108 58.501 148s86.833 60 143.5 60c50.667 0 97 -18.333 139 -55v38c0 4.66699 2.33301 7 7 7h4c4 0 6 -2.33301 6 -7v-686c0 -4.66699 -2 -7 -6 -7h-4c-4.66699 0 -7 2.33301 -7 7v334c-37.333 -34 -82 -51 -134 -51
c-62.667 0 -112.834 20 -150.501 60s-56.5 90.667 -56.5 152zM69.001 202c0 -56 17.3311 -102.333 51.998 -139s80.667 -55 138 -55c24 0 46.833 4.66699 68.5 14s36.834 17.833 45.501 25.5s15.334 14.5 20.001 20.5v260c-4.66699 6.66699 -10.667 13.667 -18 21
s-22.5 16.333 -45.5 27s-48.167 16 -75.5 16c-52 0 -95.833 -18.167 -131.5 -54.5s-53.5 -81.5 -53.5 -135.5z" />
    <glyph glyph-name="r" unicode="r" horiz-adv-x="314" 
d="M81 7l0.000976562 386c0 4.66699 2.33301 7 7 7h4c4.66699 0 7 -2.33301 7 -7v-53c33.333 46.667 76.666 70 129.999 70c14.667 0 28.167 -1.5 40.5 -4.5s21.166 -6.16699 26.499 -9.5l7 -4c4 -2.66699 4.66699 -5.66699 2 -9l-3 -5c-2 -3.33301 -5 -4 -9 -2
c-15.333 10.667 -36.666 16 -63.999 16c-18.667 0 -36.167 -3.5 -52.5 -10.5s-30 -16 -41 -27s-19 -19.667 -24 -26s-9.16699 -12.5 -12.5 -18.5v-303c0 -4.66699 -2.33301 -7 -7 -7h-4c-4.66699 -0 -7 2.33301 -7 7z" />
    <glyph glyph-name="s" unicode="s" horiz-adv-x="381" 
d="M61 35c-2.66699 2 -3.66309 4.33203 -2.99609 6.99902l5 7c2 3.33301 5 3.33301 9 0c34 -27.333 74.333 -41 121 -41c36 0 66 8.83301 90 26.5s36 39.5 36 65.5s-11.167 45.833 -33.5 59.5s-56.166 26.834 -101.499 39.501c-46.667 13.333 -80.334 28 -101.001 44
s-31 37.333 -31 64c0 26 11.667 49.667 35 71s56.666 32 99.999 32s81.333 -10.667 114 -32c3.33301 -2 4 -4.66699 2 -8l-3 -5c-2.66699 -3.33301 -5.66699 -4 -9 -2c-30.667 19.333 -65.334 29 -104.001 29c-37.333 0 -66 -8.83301 -86 -26.5s-30 -37.167 -30 -58.5
c0 -22.667 9.16699 -40.5 27.5 -53.5s48.166 -25.5 89.499 -37.5c21.333 -6 37.166 -10.667 47.499 -14s23.5 -8.5 39.5 -15.5s27.667 -14 35 -21s14 -16.167 20 -27.5s9 -24 9 -38c0 -30.667 -14.167 -56.667 -42.5 -78s-62.833 -32 -103.5 -32
c-49.333 0 -93.333 15 -132 45z" />
    <glyph glyph-name="t" unicode="t" horiz-adv-x="315" 
d="M87 107v274.996h-42c-4 0 -6 2.33301 -6 7v4c0 4.66699 2 7 6 7h42v108c0 4.66699 2 7 6 7h4c4.66699 0 7 -2.33301 7 -7v-108h163c4.66699 0 7 -2.33301 7 -7v-4c0 -4.66699 -2.33301 -7 -7 -7h-163v-275c0 -17.333 0.5 -30.666 1.5 -39.999s3.66699 -19.166 8 -29.499
s11.666 -17.833 21.999 -22.5s23.833 -7 40.5 -7c19.333 0 40 3.83301 62 11.5s37.333 14.5 46 20.5c4 2.66699 6.66699 2 8 -2l3 -6c0.666992 -2.66699 0 -5 -2 -7c-10 -6.66699 -26.667 -14.167 -50 -22.5s-45.666 -12.5 -66.999 -12.5
c-20.667 0 -37.334 2.66699 -50.001 8s-21.667 14.333 -27 27s-8.66602 24.334 -9.99902 35.001s-2 26.334 -2 47.001z" />
    <glyph glyph-name="u" unicode="u" horiz-adv-x="486" 
d="M75 174l-0.000976562 219.001c0 4.66699 2.33301 7 7 7h4c4.66699 0 7 -2.33301 7 -7v-219c0 -54.667 12.667 -96 38 -124s62 -42 110 -42c20.667 0 40.334 3.66699 59.001 11s34.167 16.5 46.5 27.5s21.333 19.667 27 26s10.167 12.166 13.5 17.499v303
c0 4.66699 2.33301 7 7 7h4c4.66699 0 7 -2.33301 7 -7v-386c0 -4.66699 -2.33301 -7 -7 -7h-4c-4.66699 -0 -7 2.33301 -7 7v53c-38 -46.667 -86.667 -70 -146 -70c-54 0 -95.167 15.5 -123.5 46.5s-42.5 76.833 -42.5 137.5z" />
    <glyph glyph-name="v" unicode="v" horiz-adv-x="398" 
d="M193 -10l-177 405c-2 4.66699 -1.66699 7.33398 1 8.00098l7 3c2.66699 1.33301 5 0.333008 7 -3l168 -383l168 383c2 3.33301 4.33301 4.33301 7 3l7 -3c2.66699 -0.666992 3 -3.33398 1 -8.00098l-177 -405c-1.33301 -2.66699 -3.33301 -4 -6 -4s-4.66699 1.33301 -6 4
z" />
    <glyph glyph-name="w" unicode="w" horiz-adv-x="596" 
d="M165 -12l-134 408c-1.33301 4 -0.333008 6.66699 3 8l6 2c4 0.666992 6.33301 -0.333008 7 -3l125 -376l119 388c0.666992 3.33301 3 5 7 5s6.33301 -1.66699 7 -5l119 -388l125 376c0.666992 2.66699 3 3.66699 7 3l6 -2c3.33301 -1.33301 4.33301 -4 3 -8l-134 -408
c-0.666992 -3.33301 -3 -5 -7 -5s-6.33301 1.66699 -7 5l-119 387l-119 -387c-0.666992 -3.33301 -3 -5 -7 -5s-6.33301 1.66699 -7 5z" />
    <glyph glyph-name="x" unicode="x" horiz-adv-x="405" 
d="M38 3c-2.66699 2 -3 4.33301 -1 7l154 197l-147 187c-2 2.66699 -1.66699 5 1 7l6 4c2.66699 1.33301 5 1 7 -1l144 -183l145 183c2 2 4.33301 2.33301 7 1l6 -4c2.66699 -2 3 -4.33301 1 -7l-148 -187l155 -197c2 -2.66699 1.66699 -5 -1 -7l-6 -4
c-2.66699 -1.33301 -5 -1 -7 1l-152 193l-151 -193c-2 -2 -4.33301 -2.33301 -7 -1z" />
    <glyph glyph-name="y" unicode="y" horiz-adv-x="422" 
d="M207 8l-193.999 387c-2 4.66699 -1.66699 7.33398 1 8.00098l7 3c2.66699 1.33301 5 0.333008 7 -3l188 -376l176 376c2 3.33301 4.33301 4.33301 7 3l7 -3c2.66699 -0.666992 3 -3.33398 1 -8.00098l-326 -696c-2 -4 -4.66699 -5 -8 -3l-5 3
c-2.66699 2 -3.33398 4.66699 -2.00098 8z" />
    <glyph glyph-name="z" unicode="z" horiz-adv-x="377" 
d="M31 11l277 371h-243c-4 0 -6 2.33301 -6 7v4c0 4.66699 2 7 6 7h267c3.33301 0 5.66602 -1.16699 6.99902 -3.5s1 -4.83301 -1 -7.5l-279 -371h262c4.66699 0 7 -2.33301 7 -7v-4c0 -4.66699 -2.33301 -7 -7 -7h-284c-3.33301 0 -5.66602 1.16699 -6.99902 3.5
s-1 4.83301 1 7.5z" />
    <glyph glyph-name="braceleft" unicode="{" horiz-adv-x="333" 
d="M108 -65v167.998c0 27.333 -8.16699 49.333 -24.5 66s-32.5 25 -48.5 25c-4.66699 0 -7 2.33301 -7 7v4c0 4.66699 2.33301 7 7 7c14.667 0 30.5 8.16699 47.5 24.5s25.5 38.5 25.5 66.5v165c0 161.333 63.333 242 190 242c4.66699 0 7 -2.33301 7 -7v-4
c0 -4.66699 -2.33301 -7 -7 -7c-114.667 0 -172 -74.667 -172 -224v-165c0 -45.333 -20 -78.666 -60 -99.999c40 -21.333 60 -54.666 60 -99.999v-168c0 -151.333 57.333 -227 172 -227c4.66699 0 7 -2.33301 7 -7v-4c0 -4.66699 -2.33301 -7 -7 -7
c-126.667 0 -190 81.667 -190 245z" />
    <glyph glyph-name="bar" unicode="|" horiz-adv-x="192" 
d="M87 -293v1045c0 4.66699 2.33301 7 7 7h4c4.66699 0 7 -2.33301 7 -7v-1045c0 -4.66699 -2.33301 -7 -7 -7h-4c-4.66699 0 -7 2.33301 -7 7z" />
    <glyph glyph-name="braceright" unicode="}" horiz-adv-x="333" 
d="M207 -65v168.002c0 45.333 20 78.666 60 99.999c-40 21.333 -60 54.666 -60 99.999v165c0 149.333 -57.333 224 -172 224c-4.66699 0 -7 2.33301 -7 7v4c0 4.66699 2.33301 7 7 7c126.667 0 190 -80.667 190 -242v-165c0 -28 8.5 -50.167 25.5 -66.5
s32.833 -24.5 47.5 -24.5c4.66699 0 7 -2.33301 7 -7v-4c0 -4.66699 -2.33301 -7 -7 -7c-16 0 -32.167 -8.33301 -48.5 -25s-24.5 -38.667 -24.5 -66v-168c0 -163.333 -63.333 -245 -190 -245c-4.66699 0 -7 2.33301 -7 7v4c0 4.66699 2.33301 7 7 7
c114.667 0 172 75.667 172 227z" />
    <glyph glyph-name="asciitilde" unicode="~" horiz-adv-x="591" 
d="M84 250l-4.99902 3.00098c-2.66699 2 -3.33398 4.66699 -2.00098 8l5.5 10.5c2.33301 4.33301 7.5 12.166 15.5 23.499s16.833 21.333 26.5 30s22 16.5 37 23.5s30.833 10.5 47.5 10.5c35.333 0 69.333 -21 102 -63c28.667 -37.333 57.334 -56 86.001 -56
c22.667 0 43.834 7.33301 63.501 22s33.5 29.334 41.5 44.001l12 22c1.33301 3.33301 3.66602 4.33301 6.99902 3l5 -2c4 -2 5 -4.66699 3 -8l-5.5 -10.5c-2.33301 -4.33301 -7.5 -12.166 -15.5 -23.499s-16.833 -21.333 -26.5 -30s-22 -16.5 -37 -23.5
s-30.833 -10.5 -47.5 -10.5c-15.333 0 -30 3.66699 -44 11s-24.5 14.666 -31.5 21.999s-15.5 17.333 -25.5 30c-28 36.667 -57 55 -87 55c-22.667 0 -43.834 -7.33301 -63.501 -22s-33.5 -29.334 -41.5 -44.001l-12 -22c-2 -4 -4.66699 -5 -8 -3z" />
    <glyph glyph-name="uni00A0" unicode="&#xa0;" horiz-adv-x="213" 
 />
    <glyph glyph-name="exclamdown" unicode="&#xa1;" horiz-adv-x="222" 
d="M111 365c-6.66699 0 -12.334 2.16699 -17.001 6.5s-7 9.83301 -7 16.5s2.33301 12.334 7 17.001s10.334 7 17.001 7s12.334 -2.33301 17.001 -7s7 -10.334 7 -17.001s-2.33301 -12.167 -7 -16.5s-10.334 -6.5 -17.001 -6.5zM102 133c0 4.66699 2.33301 7 7 7h4
c4.66699 0 7 -2.33301 7 -7v-419c0 -4.66699 -2.33301 -7 -7 -7h-4c-4.66699 0 -7 2.33301 -7 7v419z" />
    <glyph glyph-name="cent" unicode="&#xa2;" horiz-adv-x="461" 
d="M158 -81l22.002 83.998c-41.333 14.667 -75 39.834 -101 75.501s-39 76.834 -39 123.501c0 59.333 20.833 108.833 62.5 148.5s92.167 59.5 151.5 59.5c12 0 23.667 -1 35 -3l10 38c1.33301 4.66699 4 6.33398 8 5.00098l4 -1
c4.66699 -1.33301 6.33398 -4.33301 5.00098 -9l-10 -36c18.667 -4 36.5 -10.167 53.5 -18.5s29.167 -15.5 36.5 -21.5l11 -9c2.66699 -2.66699 2.66699 -5.33398 0 -8.00098l-4 -4c-3.33301 -3.33301 -6.66602 -3 -9.99902 1c-22.667 20 -53 34.333 -91 43l-100 -373
c17.333 -4 34.666 -6 51.999 -6c26.667 0 52.167 5.33301 76.5 16s42.166 21.334 53.499 32.001l17 15c3.33301 3.33301 6 3.66602 8 0.999023l5 -5c2.66699 -2 3 -4 1 -6l-7.5 -7.5c-3 -3 -9.83301 -8.66699 -20.5 -17s-21.834 -15.666 -33.501 -21.999
s-26.5 -12 -44.5 -17s-36.333 -7.5 -55 -7.5s-37.667 2.66699 -57 8l-22 -84c-1.33301 -4.66699 -4 -6.33398 -8 -5.00098l-4 1c-4.66699 1.33301 -6.33398 4.33301 -5.00098 9zM185.002 19.998l99 370.001c-13.333 1.33301 -23.333 2 -30 2
c-54.667 0 -101.167 -18 -139.5 -54s-57.5 -81.333 -57.5 -136c0 -42.667 12 -80.334 36 -113.001s54.667 -55.667 92 -69z" />
    <glyph glyph-name="sterling" unicode="&#xa3;" horiz-adv-x="536" 
d="M82 10c34 82 50.999 154.333 50.999 217c0 23.333 -3 51.333 -9 84h-43c-4.66699 0 -7 2.33301 -7 7v4c0 4 2.33301 6 7 6h40c-1.33301 4 -3.83301 13.667 -7.5 29l-7.5 31c-1.33301 5.33301 -3.33301 14.5 -6 27.5s-4.5 23.5 -5.5 31.5s-2 17.833 -3 29.5
s-1.5 23.167 -1.5 34.5c0 58 19.5 105.667 58.5 143s84.833 56 137.5 56c72.667 0 135 -24 187 -72c3.33301 -2.66699 3.33301 -5.66699 0 -9l-4 -4c-3.33301 -3.33301 -6 -3.66602 -8 -0.999023c-49.333 45.333 -107.666 68 -174.999 68
c-48 0 -89.833 -16.833 -125.5 -50.5s-53.5 -77.167 -53.5 -130.5c0 -39.333 10.667 -100.333 32 -183h240c4.66699 0 7 -2 7 -6v-4c0 -4.66699 -2.33301 -7 -7 -7h-236c4.66699 -30 7 -58 7 -84c0 -62.667 -15.667 -132.334 -47 -209.001h350c4.66699 0 7 -2.33301 7 -7v-4
c0 -4.66699 -2.33301 -7 -7 -7h-365c-6.66699 -0 -8.66699 3.33301 -6 10z" />
    <glyph glyph-name="currency" unicode="&#xa4;" horiz-adv-x="449" 
d="M108 311c0 -31.333 11.334 -58.5 34.001 -81.5s50 -34.5 82 -34.5c31.333 0 58.666 11.5 81.999 34.5s35 50.5 35 82.5c0 31.333 -11.333 58.5 -34 81.5s-50 34.5 -82 34.5s-59.5 -11.5 -82.5 -34.5s-34.5 -50.5 -34.5 -82.5zM65.001 151l-1.99902 1.99902
c-2 3.33301 -2 6.66602 0 9.99902l60 61c-21.333 25.333 -32 54 -32 86c0 36 11 66.333 33 91l-61 62c-2 3.33301 -2 6.66602 0 9.99902l2 2c3.33301 2 6.66602 2 9.99902 0l62 -62c24 21.333 53.333 32 88 32c33.333 0 62.333 -10.667 87 -32l63 62
c3.33301 2 6.66602 2 9.99902 0l2 -2c2 -3.33301 2 -6.66602 0 -9.99902l-62 -63c22.667 -26 34 -55.333 34 -88c0 -33.333 -10.667 -62.666 -32 -87.999l60 -61c2 -3.33301 2 -6.66602 0 -9.99902l-2 -2c-3.33301 -2 -6.66602 -2 -9.99902 0l-61 60
c-24.667 -22 -54.334 -33 -89.001 -33c-34 0 -63.667 11 -89 33l-61 -60c-3.33301 -2 -6.66602 -2 -9.99902 0z" />
    <glyph glyph-name="yen" unicode="&#xa5;" horiz-adv-x="606" 
d="M125 155c-4 0 -5.99707 2 -5.99707 6v4c0 2 0.666992 3.83301 2 5.5s2.66602 2.16699 3.99902 1.5h169v101h-169c-4 0 -6 2 -6 6v4c0 2 0.666992 3.83301 2 5.5s2.66602 2.16699 3.99902 1.5h169v53l-264 345c-2.66699 4 -2.33398 7 0.999023 9l6 4
c2 1.33301 4.66699 0.333008 8 -3l258 -339l258 339c2.66699 4 5.33398 5 8.00098 3l6 -4c3.33301 -2 3.66602 -5 0.999023 -9l-264 -344v-54h170c4 0 6 -2.33301 6 -7v-4c0 -4 -2 -6 -6 -6h-170v-101h170c4 0 6 -2.33301 6 -7v-4c0 -4 -2 -6 -6 -6h-170v-148
c0 -4.66699 -2.33301 -7 -7 -7h-4c-4.66699 -0 -7 2.33301 -7 7v148h-169z" />
    <glyph glyph-name="brokenbar" unicode="&#xa6;" horiz-adv-x="358" 
d="M177 384c-4.66699 0 -7 2.33301 -7 7v361c0 4.66699 2.33301 7 7 7h4c4.66699 0 7 -2.33301 7 -7v-361c0 -4.66699 -2.33301 -7 -7 -7h-4zM170 69c0 4 2.33301 6 7 6h4c4.66699 0 7 -2 7 -6v-361c0 -4.66699 -2.33301 -7 -7 -7h-4c-4.66699 0 -7 2.33301 -7 7v361z" />
    <glyph glyph-name="section" unicode="&#xa7;" horiz-adv-x="541" 
d="M79 -120c2 2.66699 4.66797 2.33789 8.00098 -0.995117c8 -8 18.167 -16.5 30.5 -25.5s33.666 -19.333 63.999 -31s61.5 -17.5 93.5 -17.5c50.667 0 95 14.167 133 42.5s57 62.166 57 101.499c0 46.667 -17 82.667 -51 108s-84.333 46.333 -151 63s-118.167 39 -154.5 67
s-54.5 68 -54.5 120c0 44 16.333 81.333 49 112c-31.333 29.333 -47 67.666 -47 114.999c0 46.667 18.167 87.667 54.5 123s90.5 53 162.5 53c29.333 0 58.166 -4.33301 86.499 -13s49.166 -17 62.499 -25l21 -13c2.66699 -1.33301 3 -3.66602 1 -6.99902l-4 -7
c-2 -4.66699 -4.66699 -5.66699 -8 -3c-5.33301 4 -12.5 8.66699 -21.5 14s-27.333 12.666 -55 21.999s-55.167 14 -82.5 14c-66.667 0 -116.667 -15.833 -150 -47.5s-50 -68.5 -50 -110.5c0 -46 16.833 -82.333 50.5 -109s81.5 -47.334 143.5 -62.001
c72.667 -18.667 127 -41.334 163 -68.001s54 -66 54 -118c0 -34.667 -18.667 -70.667 -56 -108c36 -29.333 54 -69.333 54 -120c0 -44 -20.667 -81.833 -62 -113.5s-89.666 -47.5 -144.999 -47.5c-33.333 0 -66.333 6.16699 -99 18.5s-55.667 23.166 -69 32.499
s-24.333 18 -33 26c-3.33301 3.33301 -3.66602 6.33301 -0.999023 9zM267.001 137.004c66 -16.667 114.668 -35.666 146.001 -56.999c34.667 32 52 64.333 52 97c0 46 -17 81.5 -51 106.5s-84.333 45.833 -151 62.5c-64.667 15.333 -113.334 36 -146.001 62
c-29.333 -27.333 -44 -61 -44 -101c0 -45.333 16.833 -81.333 50.5 -108s81.5 -47.334 143.5 -62.001z" />
    <glyph glyph-name="dieresis" unicode="&#xa8;" horiz-adv-x="414" 
d="M319 607c-6 0 -10.833 2 -14.5 6s-5.5 8.66699 -5.5 14c0 14 6.66699 21 20 21c6 0 11 -2 15 -6s6 -9 6 -15c0 -5.33301 -2 -10 -6 -14s-9 -6 -15 -6zM130 607c-6 0 -11 2 -15 6s-6 8.66699 -6 14c0 6 2 11 6 15s9 6 15 6c13.333 0 20 -7 20 -21
c0 -5.33301 -1.83301 -10 -5.5 -14s-8.5 -6 -14.5 -6z" />
    <glyph glyph-name="copyright" unicode="&#xa9;" horiz-adv-x="845" 
d="M61 350c0 99.333 35.333 184.166 106 254.499s155.667 105.5 255 105.5s184.5 -35.167 255.5 -105.5s106.5 -155.166 106.5 -254.499s-35.5 -184.166 -106.5 -254.499s-156.167 -105.5 -255.5 -105.5s-184.333 35.167 -255 105.5s-106 155.166 -106 254.499zM79 350
c0 -94.667 33.5 -175.334 100.5 -242.001s147.833 -100 242.5 -100s175.667 33.333 243 100s101 147.334 101 242.001s-33.667 175.334 -101 242.001s-148.333 100 -243 100s-175.5 -33.333 -242.5 -100s-100.5 -147.334 -100.5 -242.001zM239 348
c0 54 18.6689 99.6689 56.002 137.002s82.666 56 135.999 56c44 0 83 -13 117 -39c3.33301 -2 4 -4.66699 2 -8l-4 -5c-2 -2.66699 -4.33301 -3 -7 -1c-30.667 24 -66.667 36 -108 36c-48 0 -89.167 -17.167 -123.5 -51.5s-51.5 -75.833 -51.5 -124.5
c0 -48 17.167 -89 51.5 -123s75.5 -51 123.5 -51c42 0 78.333 13 109 39c3.33301 3.33301 6.33301 2.66602 9 -2.00098l3 -5c1.33301 -2.66699 1 -5 -1 -7c-33.333 -28.667 -73.333 -43 -120 -43c-52.667 0 -97.834 18.667 -135.501 56s-56.5 82.666 -56.5 135.999z" />
    <glyph glyph-name="ordfeminine" unicode="&#xaa;" horiz-adv-x="336" 
d="M147 401c-29.333 0 -53.667 9.16699 -73 27.5s-29 42.833 -29 73.5c0 28.667 11.833 52.167 35.5 70.5s54.5 27.5 92.5 27.5c29.333 0 56.333 -4.33301 81 -13v26c0 28 -5.5 48.167 -16.5 60.5s-30.5 18.5 -58.5 18.5c-16 0 -31.333 -1.66699 -46 -5s-25 -7 -31 -11
l-10 -5c-2.66699 -0.666992 -5 -0.333984 -7 0.999023l-3 6c-2.66699 2.66699 -2 5.33398 2 8.00098c23.333 16 55 24 95 24c34 0 58 -7.83301 72 -23.5s21 -40.167 21 -73.5v-196c0 -4.66699 -2.33301 -7 -7 -7h-4c-4.66699 0 -7 2.33301 -7 7v25
c-33.333 -27.333 -69 -41 -107 -41zM146.999 419c22 0 42.999 5.16797 62.999 15.501s34.667 21.166 44 32.499v102c-30 10 -57 15 -81 15c-32.667 0 -59.167 -7.83301 -79.5 -23.5s-30.5 -35.167 -30.5 -58.5c0 -26 7.83301 -46.333 23.5 -61s35.834 -22 60.501 -22z" />
    <glyph glyph-name="guillemotleft" unicode="&#xab;" horiz-adv-x="390" 
d="M196 204c-2 2.66699 -2 5.33301 0 8l122 170c2 3.33301 5 4 9 2l5 -3c4 -2 4.66699 -4.66699 2 -8l-117 -165l117 -167c2.66699 -3.33301 2 -6 -2 -8l-5 -3c-4 -2 -7 -1.33301 -9 2zM158 31.999l-122 171.999c-2 2.66699 -2 5.33398 0 8.00098l122 170c2 3.33301 5 4 9 2
l5 -3c4 -2 4.66699 -4.66699 2 -8l-117 -165l117 -167c2.66699 -3.33301 2 -6 -2 -8l-5 -3c-4 -2 -7 -1.33301 -9 2z" />
    <glyph glyph-name="logicalnot" unicode="&#xac;" horiz-adv-x="565" 
d="M88 340c-4.66699 0 -7 2.33301 -7 7v4c0 4.66699 2.33301 7 7 7h389c4.66699 0 7 -2.33301 7 -7v-197c0 -4.66699 -2.33301 -7 -7 -7h-4c-4.66699 0 -7 2.33301 -7 7v186h-378z" />
    <glyph glyph-name="uni00AD" unicode="&#xad;" horiz-adv-x="347" 
d="M52 243c-4 0 -6 2.33301 -6 7v4c0 4.66699 2 7 6 7h243c4 0 6 -2.33301 6 -7v-4c0 -4.66699 -2 -7 -6 -7h-243z" />
    <glyph glyph-name="registered" unicode="&#xae;" horiz-adv-x="845" 
d="M61 350c0 99.333 35.333 184.166 106 254.499s155.667 105.5 255 105.5s184.5 -35.167 255.5 -105.5s106.5 -155.166 106.5 -254.499s-35.5 -184.166 -106.5 -254.499s-156.167 -105.5 -255.5 -105.5s-184.333 35.167 -255 105.5s-106 155.166 -106 254.499zM79 350
c0 -94.667 33.5 -175.334 100.5 -242.001s147.833 -100 242.5 -100s175.667 33.333 243 100s101 147.334 101 242.001s-33.667 175.334 -101 242.001s-148.333 100 -243 100s-175.5 -33.333 -242.5 -100s-100.5 -147.334 -100.5 -242.001zM291 173l0.000976562 359.001
c0 4.66699 2 7 6 7h150c36 0 66.667 -9.66699 92 -29s38 -47.666 38 -84.999c0 -32.667 -10.667 -58.834 -32 -78.501s-47 -31.834 -77 -36.501l78 -134c2 -2.66699 1.33301 -5 -2 -7l-6 -3c-2.66699 -2 -5.33398 -1 -8.00098 3l-81 140h-2h-139v-136
c0 -4.66699 -2.33301 -7 -7 -7h-4c-4 0 -6 2.33301 -6 7zM308.001 326.001l139 0.000976562c29.333 0 55.333 8.66699 78 26s34 41.666 34 72.999c0 32 -11 56.167 -33 72.5s-48.333 24.5 -79 24.5h-139v-196z" />
    <glyph glyph-name="macron" unicode="&#xaf;" horiz-adv-x="414" 
d="M63 607c-4.66699 0 -7 2.33301 -7 7v4c0 4.66699 2.33301 7 7 7h288c4.66699 0 7 -2.33301 7 -7v-4c0 -4.66699 -2.33301 -7 -7 -7h-288z" />
    <glyph glyph-name="degree" unicode="&#xb0;" horiz-adv-x="365" 
d="M183 427c-39.333 0 -72.666 13.835 -99.999 41.502s-41 61.167 -41 100.5s13.667 72.666 41 99.999s60.666 41 99.999 41c38.667 0 71.834 -13.833 99.501 -41.5s41.5 -60.834 41.5 -99.501c0 -39.333 -13.833 -72.833 -41.5 -100.5s-60.834 -41.5 -99.501 -41.5z
M183 445.002c34 0 62.833 12 86.5 36s35.5 53.333 35.5 88c0 34 -11.833 63 -35.5 87s-52.5 36 -86.5 36c-34.667 0 -63.834 -12 -87.501 -36s-35.5 -53 -35.5 -87c0 -34.667 11.833 -64 35.5 -88s52.834 -36 87.501 -36z" />
    <glyph glyph-name="plusminus" unicode="&#xb1;" horiz-adv-x="632" 
d="M306 225v156h-186c-4.66699 0 -7 2.33301 -7 7v4c0 4.66699 2.33301 7 7 7h186v185c0 4.66699 2.33301 7 7 7h4c4.66699 0 7 -2.33301 7 -7v-185h185c4.66699 0 7 -2.33301 7 -7v-4c0 -4.66699 -2.33301 -7 -7 -7h-185v-156c0 -4.66699 -2.33301 -7 -7 -7h-4
c-4.66699 0 -7 2.33301 -7 7zM116 92v4c0 4.66699 2.33301 7 7 7h389c4.66699 0 7 -2.33301 7 -7v-4c0 -4.66699 -2.33301 -7 -7 -7h-389c-4.66699 0 -7 2.33301 -7 7z" />
    <glyph glyph-name="twosuperior" unicode="&#xb2;" horiz-adv-x="330" 
d="M69 504c-3.33301 0 -5.66797 1.5 -7.00098 4.5s-0.666016 5.5 2.00098 7.5l132 110c37.333 31.333 56 62.333 56 93c0 20 -7.83301 37.167 -23.5 51.5s-36.5 21.5 -62.5 21.5c-16 0 -30.167 -3 -42.5 -9s-20.833 -12 -25.5 -18l-6 -9c-2 -4.66699 -5 -5.66699 -9 -3l-5 4
c-2.66699 2.66699 -3.33398 5.33398 -2.00098 8.00098c2 3.33301 5 7.5 9 12.5s13.833 11.667 29.5 20s32.834 12.5 51.501 12.5c32 0 57.333 -9 76 -27s28 -39.333 28 -64c0 -34.667 -20.667 -69.334 -62 -104.001l-112 -93h165c4 0 6 -2.33301 6 -7v-4
c0 -4.66699 -2 -7 -6 -7h-192z" />
    <glyph glyph-name="threesuperior" unicode="&#xb3;" horiz-adv-x="334" 
d="M170 494c-40.667 0 -76.333 13.999 -107 41.999c-3.33301 3.33301 -3.33301 6.66602 0 9.99902l3 3c3.33301 3.33301 6.66602 3.33301 9.99902 0c27.333 -24.667 59 -37 95 -37c28.667 0 51.5 6.5 68.5 19.5s25.5 29.5 25.5 49.5c0 18 -7.5 33.333 -22.5 46
s-35.167 19 -60.5 19h-65c-4.66699 0 -7 2.33301 -7 7v4c0 4.66699 2.33301 7 7 7h65c21.333 0 39 6.33301 53 19s21 28 21 46c0 19.333 -7.16699 34.666 -21.5 45.999s-34.166 17 -59.499 17c-17.333 0 -33.333 -3 -48 -9s-25 -12 -31 -18l-8 -9
c-2.66699 -2.66699 -5 -3 -7 -1l-5 4c-3.33301 2.66699 -4 5.66699 -2 9c2.66699 3.33301 6.5 7.33301 11.5 12s16.167 10.834 33.5 18.501s36 11.5 56 11.5c30.667 0 55 -7.16699 73 -21.5s27 -34.166 27 -59.499c0 -14.667 -5.16699 -29 -15.5 -43s-22.5 -24 -36.5 -30
c18 -6 32.667 -16 44 -30s17 -29 17 -45c0 -25.333 -10.5 -46.166 -31.5 -62.499s-48.5 -24.5 -82.5 -24.5z" />
    <glyph glyph-name="acute" unicode="&#xb4;" horiz-adv-x="302" 
d="M63 560c-4 -1.33301 -7 -0.333008 -9 3l-2 5c-1.33301 2.66699 -0.333008 5 3 7l182 91c4 1.33301 7 0.333008 9 -3l2 -4c2 -4 1 -7 -3 -9z" />
    <glyph glyph-name="mu" unicode="&#xb5;" horiz-adv-x="504" 
d="M100 78v-370.999c0 -4.66699 -2.33301 -7 -7 -7h-4c-4.66699 0 -7 2.33301 -7 7v686c0 4.66699 2.33301 7 7 7h4c4.66699 0 7 -2.33301 7 -7v-219c0 -54.667 12.667 -96 38 -124s62 -42 110 -42c20.667 0 40.334 3.66699 59.001 11s34.167 16.5 46.5 27.5
s21.333 19.667 27 26s10.167 12.166 13.5 17.499v303c0 4.66699 2.33301 7 7 7h4c4.66699 0 7 -2.33301 7 -7v-386c0 -4.66699 -2.33301 -7 -7 -7h-4c-4.66699 -0 -7 2.33301 -7 7v53c-38.667 -46.667 -87.334 -70 -146.001 -70c-78 0 -127.333 29.333 -148 88z" />
    <glyph glyph-name="paragraph" unicode="&#xb6;" horiz-adv-x="669" 
d="M241 274c-58.667 0 -108.832 20.833 -150.499 62.5s-62.5 92.167 -62.5 151.5c0 58.667 19.167 108.667 57.5 150s85.5 62 141.5 62h414c4.66699 0 7 -2.33301 7 -7v-4c0 -4.66699 -2.33301 -7 -7 -7h-100v-975c0 -4.66699 -2.33301 -7 -7 -7h-4
c-4.66699 0 -7 2.33301 -7 7v975h-193v-975c0 -4.66699 -2.33301 -7 -7 -7h-4c-4 0 -6 2.33301 -6 7v975h-86c-50.667 0 -93.5 -18.833 -128.5 -56.5s-52.5 -83.5 -52.5 -137.5c0 -55.333 19.167 -102 57.5 -140s84.166 -57 137.499 -57c4.66699 0 7 -2.33301 7 -7v-4
c0 -4 -2.33301 -6 -7 -6z" />
    <glyph glyph-name="periodcentered" unicode="&#xb7;" horiz-adv-x="258" 
d="M129 238c-6.66699 0 -12.334 2.33301 -17.001 7s-7 10.334 -7 17.001s2.33301 12.167 7 16.5s10.334 6.5 17.001 6.5s12.334 -2.16699 17.001 -6.5s7 -9.83301 7 -16.5s-2.33301 -12.334 -7 -17.001s-10.334 -7 -17.001 -7z" />
    <glyph glyph-name="cedilla" unicode="&#xb8;" horiz-adv-x="247" 
d="M88 -6c0 4 2.00098 6 6.00098 6h6c3.33301 0 5 -2 5 -6v-48c72.667 -7.33301 109 -37.666 109 -90.999c0 -24.667 -8.66699 -45.834 -26 -63.501s-39 -26.5 -65 -26.5c-30.667 0 -56.667 11.333 -78 34c-3.33301 3.33301 -3.33301 6.33301 0 9l6 5
c3.33301 2 6.33301 1.66699 9 -1c16.667 -19.333 37.667 -29 63 -29c21.333 0 38.666 7 51.999 21s20 31 20 51c0 44 -33.667 68.667 -101 74c-4 0 -6 2 -6 6v59z" />
    <glyph glyph-name="onesuperior" unicode="&#xb9;" horiz-adv-x="181" 
d="M103 504c-4.66699 0 -7.00098 2.33203 -7.00098 6.99902v266l-55 -41c-3.33301 -2 -6 -1.66699 -8 1l-5 7c-1.33301 2.66699 -0.666016 5 2.00098 7l73 53c2.66699 2 5.16699 2.33301 7.5 1s3.5 -3.66602 3.5 -6.99902v-287c0 -4.66699 -2.33301 -7 -7 -7h-4z" />
    <glyph glyph-name="ordmasculine" unicode="&#xba;" horiz-adv-x="337" 
d="M168 394c-38 0 -67.667 14.167 -89 42.5s-32 66.833 -32 115.5c0 49.333 10.667 88 32 116s51 42 89 42s67.833 -14 89.5 -42s32.5 -66.667 32.5 -116c0 -48.667 -10.833 -87.167 -32.5 -115.5s-51.5 -42.5 -89.5 -42.5zM168 412c32.667 0 58.167 12.333 76.5 37
s27.5 59 27.5 103s-9.16699 78.5 -27.5 103.5s-43.833 37.5 -76.5 37.5s-58.167 -12.5 -76.5 -37.5s-27.5 -59.5 -27.5 -103.5c0 -43.333 9.16699 -77.5 27.5 -102.5s43.833 -37.5 76.5 -37.5z" />
    <glyph glyph-name="guillemotright" unicode="&#xbb;" horiz-adv-x="390" 
d="M216 41l117 167.001l-117 165c-2.66699 3.33301 -2 6 2 8l5 3c4 2 7 1.33301 9 -2l122 -170c2 -2.66699 2 -5.33398 0 -8.00098l-122 -172c-2 -3.33301 -5 -4 -9 -2l-5 3c-4 2 -4.66699 4.66699 -2 8zM58 33.001c-4 2 -4.66699 4.66797 -2 8.00098l117 167l-117 165
c-2.66699 3.33301 -2 6 2 8l5 3c4 2 7 1.33301 9 -2l122 -170c2 -2.66699 2 -5.33398 0 -8.00098l-122 -172c-2 -3.33301 -5 -4 -9 -2z" />
    <glyph glyph-name="onequarter" unicode="&#xbc;" horiz-adv-x="637" 
d="M130 404c-4.66699 0 -7.00098 2.33203 -7.00098 6.99902v266l-55 -41c-3.33301 -2 -6 -1.66699 -8 1l-5 7c-1.33301 2.66699 -0.666016 5 2.00098 7l73 53c2.66699 2 5.16699 2.33301 7.5 1s3.5 -3.66602 3.5 -6.99902v-287c0 -4.66699 -2.33301 -7 -7 -7h-4z
M65.999 11.999l417 686c2 2.66699 4.66699 3 8 1l6 -3c3.33301 -2 4 -4.66699 2 -8l-417 -686c-2.66699 -3.33301 -5 -4.33301 -7 -3l-8 5c-2.66699 2 -3 4.66699 -1 8zM305.999 78.999l202.999 223c2.66699 2 5.33398 2.5 8.00098 1.5s4 -3.16699 4 -6.5v-212h50
c4.66699 0 7 -2.33301 7 -7v-4c0 -4 -2.33301 -6 -7 -6h-50v-61c0 -4.66699 -2.33301 -7 -7 -7h-4c-4.66699 0 -7 2.33301 -7 7v61h-192c-3.33301 0 -5.5 1.16699 -6.5 3.5s-0.5 4.83301 1.5 7.5zM332.998 84.999h170v185z" />
    <glyph glyph-name="onehalf" unicode="&#xbd;" horiz-adv-x="625" 
d="M130 404c-4.66699 0 -7.00098 2.33203 -7.00098 6.99902v266l-55 -41c-3.33301 -2 -6 -1.66699 -8 1l-5 7c-1.33301 2.66699 -0.666016 5 2.00098 7l73 53c2.66699 2 5.16699 2.33301 7.5 1s3.5 -3.66602 3.5 -6.99902v-287c0 -4.66699 -2.33301 -7 -7 -7h-4z
M65.999 11.999l417 686c2 2.66699 4.66699 3 8 1l6 -3c3.33301 -2 4 -4.66699 2 -8l-417 -686c-2.66699 -3.33301 -5 -4.33301 -7 -3l-8 5c-2.66699 2 -3 4.66699 -1 8zM346.999 11.999l131.998 110c37.333 31.333 56 62.333 56 93c0 20 -7.83301 37.167 -23.5 51.5
s-36.5 21.5 -62.5 21.5c-16 0 -30.167 -3 -42.5 -9s-20.5 -12 -24.5 -18l-7 -9c-2 -4.66699 -5 -5.66699 -9 -3l-5 4c-2.66699 2.66699 -3.33398 5.33398 -2.00098 8.00098c2 3.33301 5 7.5 9 12.5s13.833 11.667 29.5 20s32.834 12.5 51.501 12.5c32 0 57.333 -9 76 -27
s28 -39.333 28 -64c0 -34.667 -20.667 -69.334 -62 -104.001l-112 -93h165c4 0 6 -2.33301 6 -7v-4c0 -4.66699 -2 -7 -6 -7h-192c-3.33301 0 -5.66602 1.5 -6.99902 4.5s-0.666016 5.5 2.00098 7.5z" />
    <glyph glyph-name="threequarters" unicode="&#xbe;" horiz-adv-x="695" 
d="M162 394c-40.667 0 -76.333 13.999 -107 41.999c-3.33301 3.33301 -3.33301 6.66602 0 9.99902l3 3c3.33301 3.33301 6.66602 3.33301 9.99902 0c27.333 -24.667 59 -37 95 -37c28.667 0 51.5 6.5 68.5 19.5s25.5 29.5 25.5 49.5c0 18 -7.5 33.333 -22.5 46
s-35.167 19 -60.5 19h-65c-4.66699 0 -7 2.33301 -7 7v4c0 4.66699 2.33301 7 7 7h65c21.333 0 39 6.33301 53 19s21 28 21 46c0 19.333 -7.16699 34.666 -21.5 45.999s-34.166 17 -59.499 17c-17.333 0 -33.333 -3 -48 -9s-25 -12 -31 -18l-8 -9
c-2.66699 -2.66699 -5 -3 -7 -1l-5 4c-3.33301 2.66699 -4 5.66699 -2 9c2.66699 3.33301 6.5 7.33301 11.5 12s16.167 10.834 33.5 18.501s36 11.5 56 11.5c30.667 0 55 -7.16699 73 -21.5s27 -34.166 27 -59.499c0 -14.667 -5.16699 -29 -15.5 -43s-22.5 -24 -36.5 -30
c18 -6 32.667 -16 44 -30s17 -29 17 -45c0 -25.333 -10.5 -46.166 -31.5 -62.499s-48.5 -24.5 -82.5 -24.5zM124.001 11.999l417 686c2 2.66699 4.66699 3 8 1l6 -3c3.33301 -2 4 -4.66699 2 -8l-417 -686c-2.66699 -3.33301 -5 -4.33301 -7 -3l-8 5
c-2.66699 2 -3 4.66699 -1 8zM364.001 78.999l202.999 223c2.66699 2 5.33398 2.5 8.00098 1.5s4 -3.16699 4 -6.5v-212h50c4.66699 0 7 -2.33301 7 -7v-4c0 -4 -2.33301 -6 -7 -6h-50v-61c0 -4.66699 -2.33301 -7 -7 -7h-4c-4.66699 0 -7 2.33301 -7 7v61h-192
c-3.33301 0 -5.5 1.16699 -6.5 3.5s-0.5 4.83301 1.5 7.5zM391 84.999h170v185z" />
    <glyph glyph-name="questiondown" unicode="&#xbf;" horiz-adv-x="241" 
d="M131 364c-6.66699 0 -12.334 2.16699 -17.001 6.5s-7 9.83301 -7 16.5s2.33301 12.334 7 17.001s10.334 7 17.001 7s12.167 -2.33301 16.5 -7s6.5 -10.334 6.5 -17.001s-2.16699 -12.167 -6.5 -16.5s-9.83301 -6.5 -16.5 -6.5zM78 13c32 16.667 47.9941 38 47.9941 64v60
c0 4.66699 2.33301 7 7 7h4c4.66699 0 7 -2.33301 7 -7v-60c0 -11.333 -1.66699 -21.5 -5 -30.5s-9.16602 -17.167 -17.499 -24.5s-13.833 -11.833 -16.5 -13.5l-19 -11.5c-84.667 -45.333 -127 -98.333 -127 -159c0 -37.333 15 -68.166 45 -92.499s69 -36.5 117 -36.5
c22 0 43 2.83301 63 8.5s36.333 12.5 49 20.5s23.834 16 33.501 24s16.5 14.667 20.5 20l6 9c2.66699 4 5.33398 4.66699 8.00098 2l5 -4c2.66699 -2.66699 3.33398 -5.33398 2.00098 -8.00098s-3.66602 -6 -6.99902 -10s-10.666 -11.167 -21.999 -21.5
s-23.5 -19.5 -36.5 -27.5s-30.5 -15.167 -52.5 -21.5s-45 -9.5 -69 -9.5c-52.667 0 -95.667 14 -129 42s-50 63 -50 105c0 64.667 45.333 123 136 175z" />
    <glyph glyph-name="Agrave" unicode="&#xc0;" horiz-adv-x="639" 
d="M8 7l308 710c1.33301 2.66699 3 4 5 4h2c2 0 3.66699 -1.33301 5 -4l302 -710c1.33301 -3.33301 0.333008 -5.33301 -3 -6l-9 -3c-2 -0.666992 -3.66699 0.333008 -5 3l-89 209h-409l-90 -209c-1.33301 -2.66699 -3 -3.66699 -5 -3l-9 3
c-3.33301 0.666992 -4.33301 2.66699 -3 6zM123 227h393l-194 458zM419 778l-182 90c-4 2 -5 5 -3 9l2 4c2 3.33301 5 4.33301 9 3l182 -91c3.33301 -2 4.33301 -4.33301 3 -7l-2 -5c-2 -3.33301 -5 -4.33301 -9 -3z" />
    <glyph glyph-name="Aacute" unicode="&#xc1;" horiz-adv-x="639" 
d="M8 7l308 710c1.33301 2.66699 3 4 5 4h2c2 0 3.66699 -1.33301 5 -4l302 -710c1.33301 -3.33301 0.333008 -5.33301 -3 -6l-9 -3c-2 -0.666992 -3.66699 0.333008 -5 3l-89 209h-409l-90 -209c-1.33301 -2.66699 -3 -3.66699 -5 -3l-9 3
c-3.33301 0.666992 -4.33301 2.66699 -3 6zM123 227h393l-194 458zM241 778c-4 -1.33301 -7 -0.333008 -9 3l-2 5c-1.33301 2.66699 -0.333008 5 3 7l182 91c4 1.33301 7 0.333008 9 -3l2 -4c2 -4 1 -7 -3 -9z" />
    <glyph glyph-name="Acircumflex" unicode="&#xc2;" horiz-adv-x="639" 
d="M8 7l308 710c1.33301 2.66699 3 4 5 4h2c2 0 3.66699 -1.33301 5 -4l302 -710c1.33301 -3.33301 0.333008 -5.33301 -3 -6l-9 -3c-2 -0.666992 -3.66699 0.333008 -5 3l-89 209h-409l-90 -209c-1.33301 -2.66699 -3 -3.66699 -5 -3l-9 3
c-3.33301 0.666992 -4.33301 2.66699 -3 6zM123 227h393l-194 458zM197 763c-2 -2 -4.33594 -1.66699 -7.00293 1l-4 5c-1.33301 2.66699 -0.666016 5.33398 2.00098 8.00098l129 106c2.66699 2.66699 5.33398 2.66699 8.00098 0l129 -106
c2.66699 -2.66699 3.33398 -5.33398 2.00098 -8.00098l-4 -5c-2.66699 -2.66699 -5 -3 -7 -1l-124 101z" />
    <glyph glyph-name="Atilde" unicode="&#xc3;" horiz-adv-x="639" 
d="M8 7l308 710c1.33301 2.66699 3 4 5 4h2c2 0 3.66699 -1.33301 5 -4l302 -710c1.33301 -3.33301 0.333008 -5.33301 -3 -6l-9 -3c-2 -0.666992 -3.66699 0.333008 -5 3l-89 209h-409l-90 -209c-1.33301 -2.66699 -3 -3.66699 -5 -3l-9 3
c-3.33301 0.666992 -4.33301 2.66699 -3 6zM123 227h393l-194 458zM185 802l-7.99805 1.99902c-4 1.33301 -5 4.33301 -3 9c18 56 46.667 84 86 84c10.667 0 20 -1.83301 28 -5.5s14.667 -9.33398 20 -17.001s9.16602 -13.667 11.499 -18s5.5 -11.166 9.5 -20.499
c12.667 -30.667 30.334 -46 53.001 -46c31.333 0 54 24 68 72c1.33301 4.66699 3.66602 6.33398 6.99902 5.00098l8 -2c4 -0.666992 5 -3.66699 3 -9c-18.667 -56 -47.334 -84 -86.001 -84c-30.667 0 -54.334 20 -71.001 60c-4 9.33301 -7.16699 16.333 -9.5 21
s-7.33301 10.334 -15 17.001s-16.5 10 -26.5 10c-31.333 0 -54 -24.333 -68 -73c-1.33301 -4.66699 -3.66602 -6.33398 -6.99902 -5.00098z" />
    <glyph glyph-name="Adieresis" unicode="&#xc4;" horiz-adv-x="639" 
d="M8 7l308 710c1.33301 2.66699 3 4 5 4h2c2 0 3.66699 -1.33301 5 -4l302 -710c1.33301 -3.33301 0.333008 -5.33301 -3 -6l-9 -3c-2 -0.666992 -3.66699 0.333008 -5 3l-89 209h-409l-90 -209c-1.33301 -2.66699 -3 -3.66699 -5 -3l-9 3
c-3.33301 0.666992 -4.33301 2.66699 -3 6zM123 227h393l-194 458zM425 810c-6 0 -11 2 -15 6s-6 8.66699 -6 14c0 6 2 11 6 15s9 6 15 6s11 -2 15 -6s6 -9 6 -15c0 -5.33301 -2 -10 -6 -14s-9 -6 -15 -6zM218 810c-6 0 -11 2 -15 6s-6 8.66699 -6 14c0 6 2 11 6 15
s9 6 15 6s11 -2 15 -6s6 -9 6 -15c0 -5.33301 -2 -10 -6 -14s-9 -6 -15 -6z" />
    <glyph glyph-name="Aring" unicode="&#xc5;" horiz-adv-x="639" 
d="M8 7l308 710c1.33301 2.66699 3 4 5 4h2c2 0 3.66699 -1.33301 5 -4l302 -710c1.33301 -3.33301 0.333008 -5.33301 -3 -6l-9 -3c-2 -0.666992 -3.66699 0.333008 -5 3l-89 209h-409l-90 -209c-1.33301 -2.66699 -3 -3.66699 -5 -3l-9 3
c-3.33301 0.666992 -4.33301 2.66699 -3 6zM123 227h393l-194 458zM322 750c-29.333 0 -54 10 -74 30s-30 44.667 -30 74s10 54 30 74s44.667 30 74 30s54 -10 74 -30s30 -44.667 30 -74s-10 -54 -30 -74s-44.667 -30 -74 -30zM322 766c23.333 0 43.666 8.66699 60.999 26
s26 38 26 62c0 23.333 -8.66699 43.833 -26 61.5s-37.666 26.5 -60.999 26.5c-24 0 -44.5 -8.66699 -61.5 -26s-25.5 -38 -25.5 -62s8.5 -44.667 25.5 -62s37.5 -26 61.5 -26z" />
    <glyph glyph-name="AE" unicode="&#xc6;" horiz-adv-x="936" 
d="M-1 -1l-5 3c-3.33301 2 -4 4.66699 -2 8l445 682c3.33301 5.33301 9 8 17 8h398c4.66699 0 7 -2.33301 7 -7v-4c0 -4.66699 -2.33301 -7 -7 -7h-396v-309h348c4.66699 0 7 -2.33301 7 -7v-4c0 -4.66699 -2.33301 -7 -7 -7h-348v-337h396c4.66699 0 7 -2.33301 7 -7v-4
c0 -4.66699 -2.33301 -7 -7 -7h-406c-4.66699 -0 -7 2.33301 -7 7v203h-295l-137 -210c-2 -2.66699 -4.66699 -3 -8 -1zM154 227h285v435z" />
    <glyph glyph-name="Ccedilla" unicode="&#xc7;" horiz-adv-x="731" 
d="M62 349c0 100.667 35.333 186.002 106 256.002s156.334 105 257.001 105c88 0 169 -31 243 -93c2.66699 -2.66699 3 -5.33398 1 -8.00098l-5 -6c-2.66699 -2.66699 -5.33398 -2.66699 -8.00098 0c-68.667 59.333 -145.667 89 -231 89
c-95.333 0 -176.666 -33.333 -243.999 -100s-101 -147.667 -101 -243s33.5 -176 100.5 -242s148.5 -99 244.5 -99c86 0 163 31 231 93c3.33301 3.33301 6 3.33301 8 0l5 -6c2 -2 2 -4.33301 0 -7c-68 -65.333 -149.333 -98 -244 -98c-2 0 -4.5 0.166992 -7.5 0.5
s-5.16699 0.5 -6.5 0.5v-45c72.667 -7.33301 109 -37.666 109 -90.999c0 -24.667 -8.66699 -45.834 -26 -63.501s-39 -26.5 -65 -26.5c-30.667 0 -56.667 11.333 -78 34c-3.33301 3.33301 -3.33301 6.33301 0 9l6 5c3.33301 2 6.33301 1.66699 9 -1
c16.667 -19.333 37.667 -29 63 -29c21.333 0 38.666 7 51.999 21s20 31 20 51c0 44 -33.667 68.667 -101 74c-4 0 -6 2 -6 6v56c-94 7.33301 -172.833 45.166 -236.5 113.499s-95.5 149.833 -95.5 244.5z" />
    <glyph glyph-name="Egrave" unicode="&#xc8;" horiz-adv-x="610" 
d="M112 7v686c0 4.66699 2.33301 7 7 7h407c4.66699 0 7 -2.33301 7 -7v-4c0 -4.66699 -2.33301 -7 -7 -7h-396v-309h348c4.66699 0 7 -2.33301 7 -7v-4c0 -4.66699 -2.33301 -7 -7 -7h-348v-337h396c4.66699 0 7 -2.33301 7 -7v-4c0 -4.66699 -2.33301 -7 -7 -7h-407
c-4.66699 -0 -7 2.33301 -7 7zM421 778l-182 90c-4 2 -5 5 -3 9l2 4c2 3.33301 5 4.33301 9 3l182 -91c3.33301 -2 4.33301 -4.33301 3 -7l-2 -5c-2 -3.33301 -5 -4.33301 -9 -3z" />
    <glyph glyph-name="Eacute" unicode="&#xc9;" horiz-adv-x="610" 
d="M112 7v686c0 4.66699 2.33301 7 7 7h407c4.66699 0 7 -2.33301 7 -7v-4c0 -4.66699 -2.33301 -7 -7 -7h-396v-309h348c4.66699 0 7 -2.33301 7 -7v-4c0 -4.66699 -2.33301 -7 -7 -7h-348v-337h396c4.66699 0 7 -2.33301 7 -7v-4c0 -4.66699 -2.33301 -7 -7 -7h-407
c-4.66699 -0 -7 2.33301 -7 7zM243 778c-4 -1.33301 -7 -0.333008 -9 3l-2 5c-1.33301 2.66699 -0.333008 5 3 7l182 91c4 1.33301 7 0.333008 9 -3l2 -4c2 -4 1 -7 -3 -9z" />
    <glyph glyph-name="Ecircumflex" unicode="&#xca;" horiz-adv-x="610" 
d="M112 7v686c0 4.66699 2.33301 7 7 7h407c4.66699 0 7 -2.33301 7 -7v-4c0 -4.66699 -2.33301 -7 -7 -7h-396v-309h348c4.66699 0 7 -2.33301 7 -7v-4c0 -4.66699 -2.33301 -7 -7 -7h-348v-337h396c4.66699 0 7 -2.33301 7 -7v-4c0 -4.66699 -2.33301 -7 -7 -7h-407
c-4.66699 -0 -7 2.33301 -7 7zM198 763c-2 -2 -4.33594 -1.66699 -7.00293 1l-4 5c-1.33301 2.66699 -0.666016 5.33398 2.00098 8.00098l129 106c2.66699 2.66699 5.33398 2.66699 8.00098 0l129 -106c2.66699 -2.66699 3.33398 -5.33398 2.00098 -8.00098l-4 -5
c-2.66699 -2.66699 -5 -3 -7 -1l-124 101z" />
    <glyph glyph-name="Edieresis" unicode="&#xcb;" horiz-adv-x="610" 
d="M112 7v686c0 4.66699 2.33301 7 7 7h407c4.66699 0 7 -2.33301 7 -7v-4c0 -4.66699 -2.33301 -7 -7 -7h-396v-309h348c4.66699 0 7 -2.33301 7 -7v-4c0 -4.66699 -2.33301 -7 -7 -7h-348v-337h396c4.66699 0 7 -2.33301 7 -7v-4c0 -4.66699 -2.33301 -7 -7 -7h-407
c-4.66699 -0 -7 2.33301 -7 7zM427 810c-6 0 -11 2 -15 6s-6 8.66699 -6 14c0 6 2 11 6 15s9 6 15 6s11 -2 15 -6s6 -9 6 -15c0 -5.33301 -2 -10 -6 -14s-9 -6 -15 -6zM220 810c-6 0 -11 2 -15 6s-6 8.66699 -6 14c0 6 2 11 6 15s9 6 15 6s11 -2 15 -6s6 -9 6 -15
c0 -5.33301 -2 -10 -6 -14s-9 -6 -15 -6z" />
    <glyph glyph-name="Igrave" unicode="&#xcc;" horiz-adv-x="242" 
d="M112 7v686c0 4.66699 2.33301 7 7 7h4c4.66699 0 7 -2.33301 7 -7v-686c0 -4.66699 -2.33301 -7 -7 -7h-4c-4.66699 -0 -7 2.33301 -7 7zM219 778l-182 90c-4 2 -5 5 -3 9l2 4c2 3.33301 5 4.33301 9 3l182 -91c3.33301 -2 4.33301 -4.33301 3 -7l-2 -5
c-2 -3.33301 -5 -4.33301 -9 -3z" />
    <glyph glyph-name="Iacute" unicode="&#xcd;" horiz-adv-x="242" 
d="M112 7v686c0 4.66699 2.33301 7 7 7h4c4.66699 0 7 -2.33301 7 -7v-686c0 -4.66699 -2.33301 -7 -7 -7h-4c-4.66699 -0 -7 2.33301 -7 7zM40 778c-4 -1.33301 -7 -0.333008 -9 3l-2 5c-1.33301 2.66699 -0.333008 5 3 7l182 91c4 1.33301 7 0.333008 9 -3l2 -4
c2 -4 1 -7 -3 -9z" />
    <glyph glyph-name="Icircumflex" unicode="&#xce;" horiz-adv-x="242" 
d="M112 7v686c0 4.66699 2.33301 7 7 7h4c4.66699 0 7 -2.33301 7 -7v-686c0 -4.66699 -2.33301 -7 -7 -7h-4c-4.66699 -0 -7 2.33301 -7 7zM-3 763c-2 -2 -4.33594 -1.66699 -7.00293 1l-4 5c-1.33301 2.66699 -0.666016 5.33398 2.00098 8.00098l129 106
c2.66699 2.66699 5.33398 2.66699 8.00098 0l129 -106c2.66699 -2.66699 3.33398 -5.33398 2.00098 -8.00098l-4 -5c-2.66699 -2.66699 -5 -3 -7 -1l-124 101z" />
    <glyph glyph-name="Idieresis" unicode="&#xcf;" horiz-adv-x="242" 
d="M112 7v686c0 4.66699 2.33301 7 7 7h4c4.66699 0 7 -2.33301 7 -7v-686c0 -4.66699 -2.33301 -7 -7 -7h-4c-4.66699 -0 -7 2.33301 -7 7zM225 810c-6 0 -11 2 -15 6s-6 8.66699 -6 14c0 6 2 11 6 15s9 6 15 6s11 -2 15 -6s6 -9 6 -15c0 -5.33301 -2 -10 -6 -14
s-9 -6 -15 -6zM18 810c-6 0 -11 2 -15 6s-6 8.66699 -6 14c0 6 2 11 6 15s9 6 15 6s11 -2 15 -6s6 -9 6 -15c0 -5.33301 -2 -10 -6 -14s-9 -6 -15 -6z" />
    <glyph glyph-name="Eth" unicode="&#xd0;" horiz-adv-x="755" 
d="M114 7v332.999h-40c-4.66699 0 -7 2.33301 -7 7v4c0 4.66699 2.33301 7 7 7h40v335c0 4.66699 2.33301 7 7 7h220c97.333 0 180.5 -34 249.5 -102s103.5 -150.333 103.5 -247c0 -97.333 -34.5 -180.166 -103.5 -248.499s-152.167 -102.5 -249.5 -102.5h-220
c-4.66699 -0 -7 2.33301 -7 7zM132 17.999h209c92 0 170.833 32.5 236.5 97.5s98.5 143.5 98.5 235.5c0 91.333 -32.833 169.333 -98.5 234s-144.5 97 -236.5 97h-209v-324h289c4.66699 0 7 -2.33301 7 -7v-4c0 -4.66699 -2.33301 -7 -7 -7h-289v-322z" />
    <glyph glyph-name="Ntilde" unicode="&#xd1;" horiz-adv-x="772" 
d="M112 7v703c0 3.33301 1.66699 5.5 5 6.5s6 0.166992 8 -2.5l517 -689v668c0 4.66699 2.33301 7 7 7h4c4.66699 0 7 -2.33301 7 -7v-701c0 -3.33301 -1.66699 -5.5 -5 -6.5s-6 -0.166992 -8 2.5l-517 689v-670c0 -4.66699 -2.33301 -7 -7 -7h-4
c-4.66699 -0 -7 2.33301 -7 7zM272 802l-7.99805 1.99902c-4 1.33301 -5 4.33301 -3 9c18 56 46.667 84 86 84c10.667 0 20 -1.83301 28 -5.5s14.667 -9.33398 20 -17.001s9.16602 -13.667 11.499 -18s5.5 -11.166 9.5 -20.499c12.667 -30.667 30.334 -46 53.001 -46
c31.333 0 54 24 68 72c1.33301 4.66699 3.66602 6.33398 6.99902 5.00098l8 -2c4 -0.666992 5 -3.66699 3 -9c-18.667 -56 -47.334 -84 -86.001 -84c-30.667 0 -54.334 20 -71.001 60c-4 9.33301 -7.16699 16.333 -9.5 21s-7.33301 10.334 -15 17.001s-16.5 10 -26.5 10
c-31.333 0 -54 -24.333 -68 -73c-1.33301 -4.66699 -3.66602 -6.33398 -6.99902 -5.00098z" />
    <glyph glyph-name="Ograve" unicode="&#xd2;" horiz-adv-x="846" 
d="M62 349c0 100.667 35 186 105 256s155.333 105 256 105s186.167 -35 256.5 -105s105.5 -155.333 105.5 -256c0 -100 -35.167 -184.833 -105.5 -254.5s-155.833 -104.5 -256.5 -104.5s-186 34.667 -256 104s-105 154.333 -105 255zM80 349c0 -95.333 33.333 -176 100 -242
s147.667 -99 243 -99c96 0 177.333 33 244 99s100 146.667 100 242s-33.5 176.333 -100.5 243s-148.167 100 -243.5 100s-176.333 -33.333 -243 -100s-100 -147.667 -100 -243zM521 778l-182 90c-4 2 -5 5 -3 9l2 4c2 3.33301 5 4.33301 9 3l182 -91
c3.33301 -2 4.33301 -4.33301 3 -7l-2 -5c-2 -3.33301 -5 -4.33301 -9 -3z" />
    <glyph glyph-name="Oacute" unicode="&#xd3;" horiz-adv-x="846" 
d="M62 349c0 100.667 35 186 105 256s155.333 105 256 105s186.167 -35 256.5 -105s105.5 -155.333 105.5 -256c0 -100 -35.167 -184.833 -105.5 -254.5s-155.833 -104.5 -256.5 -104.5s-186 34.667 -256 104s-105 154.333 -105 255zM80 349c0 -95.333 33.333 -176 100 -242
s147.667 -99 243 -99c96 0 177.333 33 244 99s100 146.667 100 242s-33.5 176.333 -100.5 243s-148.167 100 -243.5 100s-176.333 -33.333 -243 -100s-100 -147.667 -100 -243zM343 778c-4 -1.33301 -7 -0.333008 -9 3l-2 5c-1.33301 2.66699 -0.333008 5 3 7l182 91
c4 1.33301 7 0.333008 9 -3l2 -4c2 -4 1 -7 -3 -9z" />
    <glyph glyph-name="Ocircumflex" unicode="&#xd4;" horiz-adv-x="846" 
d="M62 349c0 100.667 35 186 105 256s155.333 105 256 105s186.167 -35 256.5 -105s105.5 -155.333 105.5 -256c0 -100 -35.167 -184.833 -105.5 -254.5s-155.833 -104.5 -256.5 -104.5s-186 34.667 -256 104s-105 154.333 -105 255zM80 349c0 -95.333 33.333 -176 100 -242
s147.667 -99 243 -99c96 0 177.333 33 244 99s100 146.667 100 242s-33.5 176.333 -100.5 243s-148.167 100 -243.5 100s-176.333 -33.333 -243 -100s-100 -147.667 -100 -243zM298 763c-2 -2 -4.33594 -1.66699 -7.00293 1l-4 5
c-1.33301 2.66699 -0.666016 5.33398 2.00098 8.00098l129 106c2.66699 2.66699 5.33398 2.66699 8.00098 0l129 -106c2.66699 -2.66699 3.33398 -5.33398 2.00098 -8.00098l-4 -5c-2.66699 -2.66699 -5 -3 -7 -1l-124 101z" />
    <glyph glyph-name="Otilde" unicode="&#xd5;" horiz-adv-x="846" 
d="M62 349c0 100.667 35 186 105 256s155.333 105 256 105s186.167 -35 256.5 -105s105.5 -155.333 105.5 -256c0 -100 -35.167 -184.833 -105.5 -254.5s-155.833 -104.5 -256.5 -104.5s-186 34.667 -256 104s-105 154.333 -105 255zM80 349c0 -95.333 33.333 -176 100 -242
s147.667 -99 243 -99c96 0 177.333 33 244 99s100 146.667 100 242s-33.5 176.333 -100.5 243s-148.167 100 -243.5 100s-176.333 -33.333 -243 -100s-100 -147.667 -100 -243zM286 802l-7.99805 1.99902c-4 1.33301 -5 4.33301 -3 9c18 56 46.667 84 86 84
c10.667 0 20 -1.83301 28 -5.5s14.667 -9.33398 20 -17.001s9.16602 -13.667 11.499 -18s5.5 -11.166 9.5 -20.499c12.667 -30.667 30.334 -46 53.001 -46c31.333 0 54 24 68 72c1.33301 4.66699 3.66602 6.33398 6.99902 5.00098l8 -2c4 -0.666992 5 -3.66699 3 -9
c-18.667 -56 -47.334 -84 -86.001 -84c-30.667 0 -54.334 20 -71.001 60c-4 9.33301 -7.16699 16.333 -9.5 21s-7.33301 10.334 -15 17.001s-16.5 10 -26.5 10c-31.333 0 -54 -24.333 -68 -73c-1.33301 -4.66699 -3.66602 -6.33398 -6.99902 -5.00098z" />
    <glyph glyph-name="Odieresis" unicode="&#xd6;" horiz-adv-x="846" 
d="M62 349c0 100.667 35 186 105 256s155.333 105 256 105s186.167 -35 256.5 -105s105.5 -155.333 105.5 -256c0 -100 -35.167 -184.833 -105.5 -254.5s-155.833 -104.5 -256.5 -104.5s-186 34.667 -256 104s-105 154.333 -105 255zM80 349c0 -95.333 33.333 -176 100 -242
s147.667 -99 243 -99c96 0 177.333 33 244 99s100 146.667 100 242s-33.5 176.333 -100.5 243s-148.167 100 -243.5 100s-176.333 -33.333 -243 -100s-100 -147.667 -100 -243zM527 810c-6 0 -11 2 -15 6s-6 8.66699 -6 14c0 6 2 11 6 15s9 6 15 6s11 -2 15 -6s6 -9 6 -15
c0 -5.33301 -2 -10 -6 -14s-9 -6 -15 -6zM320 810c-6 0 -11 2 -15 6s-6 8.66699 -6 14c0 6 2 11 6 15s9 6 15 6s11 -2 15 -6s6 -9 6 -15c0 -5.33301 -2 -10 -6 -14s-9 -6 -15 -6z" />
    <glyph glyph-name="multiply" unicode="&#xd7;" horiz-adv-x="432" 
d="M75 204l-2.99805 3c-1.33301 0.666992 -2 2 -2 4s0.666992 3.66699 2 5l131 132l-131 131c-2 3.33301 -2 6.66602 0 9.99902l3 3c3.33301 2 6.66602 2 9.99902 0l131 -131l131 131c3.33301 2 6.66602 2 9.99902 0l3 -3c2 -3.33301 2 -6.66602 0 -9.99902l-131 -131
l131 -132c1.33301 -1.33301 2 -3 2 -5s-0.666992 -3.33301 -2 -4l-3 -3c-0.666992 -1.33301 -2 -2 -4 -2s-3.66699 0.666992 -5 2l-132 131l-132 -131c-1.33301 -1.33301 -3 -2 -5 -2s-3.33301 0.666992 -4 2z" />
    <glyph glyph-name="Oslash" unicode="&#xd8;" horiz-adv-x="848" 
d="M88 34c-3.33301 3.33301 -3.33301 6.66699 0 10l66 64c-60.667 69.333 -91 149.666 -91 240.999c0 100.667 35 186 105 256s155.333 105 256 105s185.667 -34.667 255 -104l68 65c2.66699 3.33301 5.66699 3.33301 9 0l3 -3
c3.33301 -3.33301 3.33301 -6.66602 0 -9.99902l-68 -65c63.333 -70.667 95 -152 95 -244c0 -100 -35.167 -184.833 -105.5 -254.5s-155.833 -104.5 -256.5 -104.5c-102.667 0 -188.667 34.667 -258 104l-66 -63c-2.66699 -3.33301 -5.66699 -3.33301 -9 0zM167 120.001
l499 474c-67.333 65.333 -148 98 -242 98c-95.333 0 -176.333 -33.333 -243 -100s-100 -147.667 -100 -243c0 -88.667 28.667 -165 86 -229zM180 107.001c64.667 -66 146 -99 244 -99c96 0 177.333 33 244 99s100 146.667 100 242c0 88.667 -29.667 166 -89 232z" />
    <glyph glyph-name="Ugrave" unicode="&#xd9;" horiz-adv-x="726" 
d="M103 252l0.00195312 441c0 4.66699 2.33301 7 7 7h4c4.66699 0 7 -2.33301 7 -7v-441c0 -72.667 21.667 -131.5 65 -176.5s101.666 -67.5 174.999 -67.5c74 0 132.833 22.5 176.5 67.5s65.5 103.833 65.5 176.5v441c0 4.66699 2.33301 7 7 7h4c4.66699 0 7 -2.33301 7 -7
v-441c0 -78 -23.5 -141.167 -70.5 -189.5s-110.167 -72.5 -189.5 -72.5c-78.667 0 -141.334 24.167 -188.001 72.5s-70 111.5 -70 189.5zM460.002 778l-182 90c-4 2 -5 5 -3 9l2 4c2 3.33301 5 4.33301 9 3l182 -91c3.33301 -2 4.33301 -4.33301 3 -7l-2 -5
c-2 -3.33301 -5 -4.33301 -9 -3z" />
    <glyph glyph-name="Uacute" unicode="&#xda;" horiz-adv-x="726" 
d="M103 252l0.00195312 441c0 4.66699 2.33301 7 7 7h4c4.66699 0 7 -2.33301 7 -7v-441c0 -72.667 21.667 -131.5 65 -176.5s101.666 -67.5 174.999 -67.5c74 0 132.833 22.5 176.5 67.5s65.5 103.833 65.5 176.5v441c0 4.66699 2.33301 7 7 7h4c4.66699 0 7 -2.33301 7 -7
v-441c0 -78 -23.5 -141.167 -70.5 -189.5s-110.167 -72.5 -189.5 -72.5c-78.667 0 -141.334 24.167 -188.001 72.5s-70 111.5 -70 189.5zM282.002 778c-4 -1.33301 -7 -0.333008 -9 3l-2 5c-1.33301 2.66699 -0.333008 5 3 7l182 91c4 1.33301 7 0.333008 9 -3l2 -4
c2 -4 1 -7 -3 -9z" />
    <glyph glyph-name="Ucircumflex" unicode="&#xdb;" horiz-adv-x="726" 
d="M103 252l0.00195312 441c0 4.66699 2.33301 7 7 7h4c4.66699 0 7 -2.33301 7 -7v-441c0 -72.667 21.667 -131.5 65 -176.5s101.666 -67.5 174.999 -67.5c74 0 132.833 22.5 176.5 67.5s65.5 103.833 65.5 176.5v441c0 4.66699 2.33301 7 7 7h4c4.66699 0 7 -2.33301 7 -7
v-441c0 -78 -23.5 -141.167 -70.5 -189.5s-110.167 -72.5 -189.5 -72.5c-78.667 0 -141.334 24.167 -188.001 72.5s-70 111.5 -70 189.5zM237.002 763c-2 -2 -4.33594 -1.66699 -7.00293 1l-4 5c-1.33301 2.66699 -0.666016 5.33398 2.00098 8.00098l129 106
c2.66699 2.66699 5.33398 2.66699 8.00098 0l129 -106c2.66699 -2.66699 3.33398 -5.33398 2.00098 -8.00098l-4 -5c-2.66699 -2.66699 -5 -3 -7 -1l-124 101z" />
    <glyph glyph-name="Udieresis" unicode="&#xdc;" horiz-adv-x="726" 
d="M103 252l0.00195312 441c0 4.66699 2.33301 7 7 7h4c4.66699 0 7 -2.33301 7 -7v-441c0 -72.667 21.667 -131.5 65 -176.5s101.666 -67.5 174.999 -67.5c74 0 132.833 22.5 176.5 67.5s65.5 103.833 65.5 176.5v441c0 4.66699 2.33301 7 7 7h4c4.66699 0 7 -2.33301 7 -7
v-441c0 -78 -23.5 -141.167 -70.5 -189.5s-110.167 -72.5 -189.5 -72.5c-78.667 0 -141.334 24.167 -188.001 72.5s-70 111.5 -70 189.5zM466.002 810c-6 0 -11 2 -15 6s-6 8.66699 -6 14c0 6 2 11 6 15s9 6 15 6s11 -2 15 -6s6 -9 6 -15c0 -5.33301 -2 -10 -6 -14
s-9 -6 -15 -6zM259.002 810c-6 0 -11 2 -15 6s-6 8.66699 -6 14c0 6 2 11 6 15s9 6 15 6s11 -2 15 -6s6 -9 6 -15c0 -5.33301 -2 -10 -6 -14s-9 -6 -15 -6z" />
    <glyph glyph-name="Yacute" unicode="&#xdd;" horiz-adv-x="544" 
d="M263 7l0.000976562 336l-264 345c-2.66699 4 -2.33398 7 0.999023 9l6 4c2 1.33301 4.66699 0.333008 8 -3l258 -339l258 339c2.66699 4 5.33398 5 8.00098 3l6 -4c3.33301 -2 3.66602 -5 0.999023 -9l-264 -344v-337c0 -4.66699 -2.33301 -7 -7 -7h-4
c-4.66699 -0 -7 2.33301 -7 7zM186.001 778c-4 -1.33301 -7 -0.333008 -9 3l-2 5c-1.33301 2.66699 -0.333008 5 3 7l182 91c4 1.33301 7 0.333008 9 -3l2 -4c2 -4 1 -7 -3 -9z" />
    <glyph glyph-name="Thorn" unicode="&#xde;" horiz-adv-x="598" 
d="M112 7l0.000976562 685.999c0 4.66699 2.33301 7 7 7h4c4.66699 0 7 -2.33301 7 -7v-115h197c62.667 0.666992 116.5 -21.166 161.5 -65.499s67.5 -97.5 67.5 -159.5c0 -63.333 -22.333 -117.333 -67 -162s-98.334 -67 -161.001 -67h-198v-117
c0 -4.66699 -2.33301 -7 -7 -7h-4c-4.66699 -0 -7 2.33301 -7 7zM130.001 140.999h198.001c57.333 0 106.666 20.667 147.999 62s62 91.333 62 150c0 57.333 -20.667 106.5 -62 147.5s-91 61.167 -149 60.5h-197v-420z" />
    <glyph glyph-name="germandbls" unicode="&#xdf;" horiz-adv-x="569" 
d="M81 7l0.00292969 402.998c0 99.333 18.333 174.166 55 224.499s90 75.5 160 75.5c49.333 0 90.666 -13 123.999 -39s50 -65.333 50 -118c0 -25.333 -7.16699 -51.833 -21.5 -79.5s-28.666 -52 -42.999 -73s-21.5 -36.833 -21.5 -47.5c0 -9.33301 13 -24.666 39 -45.999
c15.333 -13.333 27.166 -24 35.499 -32s18.666 -19.333 30.999 -34s21.5 -30.5 27.5 -47.5s9 -35.167 9 -54.5c0 -49.333 -16.5 -86.5 -49.5 -111.5s-73.167 -37.5 -120.5 -37.5c-36.667 0 -69.667 6.66699 -99 20c-3.33301 1.33301 -4.33301 3.66602 -3 6.99902l3 6
c2 3.33301 4.66699 4.33301 8 3c21.333 -12 51.666 -18 90.999 -18c42 0 77.833 11 107.5 33s44.5 54.667 44.5 98c0 20.667 -6 41.834 -18 63.501s-23.5 38.167 -34.5 49.5s-25.833 25 -44.5 41c-30.667 26.667 -46 46.334 -46 59.001c0 12 7.16699 28.833 21.5 50.5
s28.833 46 43.5 73s22 52.833 22 77.5c0 46.667 -15 81.5 -45 104.5s-67 34.5 -111 34.5c-64 0 -112.833 -23.667 -146.5 -71s-50.5 -117.666 -50.5 -210.999v-403c0 -4.66699 -2.33301 -7 -7 -7h-4c-4.66699 -0 -7 2.33301 -7 7z" />
    <glyph glyph-name="agrave" unicode="&#xe0;" horiz-adv-x="436" 
d="M47 125c0 40 16.166 72.834 48.499 98.501s74.833 38.5 127.5 38.5c36.667 0 76 -7.66699 118 -23v37c0 40.667 -8.16699 70.167 -24.5 88.5s-45.166 27.5 -86.499 27.5c-22.667 0 -44.167 -2.5 -64.5 -7.5s-34.833 -9.83301 -43.5 -14.5l-14 -8
c-3.33301 -2 -6.33301 -1.33301 -9 2l-3 5c-2 3.33301 -1.33301 6 2 8c33.333 22 77.333 33 132 33c48 0 81.5 -10.667 100.5 -32s28.5 -55.333 28.5 -102v-269c0 -4.66699 -2.33301 -7 -7 -7h-4c-4.66699 0 -7 2.33301 -7 7v45c-47.333 -41.333 -99 -62 -155 -62
c-40 0 -73.167 12.167 -99.5 36.5s-39.5 57.166 -39.5 98.499zM64.999 125.001c0 -36 11.332 -64.5 33.999 -85.5s51.667 -31.5 87 -31.5c32.667 0 63.5 7.5 92.5 22.5s49.833 30.5 62.5 46.5v144c-53.333 15.333 -92.666 23 -117.999 23
c-47.333 0 -85.5 -11.167 -114.5 -33.5s-43.5 -50.833 -43.5 -85.5zM310.998 560.001l-182 90c-4 2 -5 5 -3 9l2 4c2 3.33301 5 4.33301 9 3l182 -91c3.33301 -2 4.33301 -4.33301 3 -7l-2 -5c-2 -3.33301 -5 -4.33301 -9 -3z" />
    <glyph glyph-name="aacute" unicode="&#xe1;" horiz-adv-x="436" 
d="M47 125c0 40 16.166 72.834 48.499 98.501s74.833 38.5 127.5 38.5c36.667 0 76 -7.66699 118 -23v37c0 40.667 -8.16699 70.167 -24.5 88.5s-45.166 27.5 -86.499 27.5c-22.667 0 -44.167 -2.5 -64.5 -7.5s-34.833 -9.83301 -43.5 -14.5l-14 -8
c-3.33301 -2 -6.33301 -1.33301 -9 2l-3 5c-2 3.33301 -1.33301 6 2 8c33.333 22 77.333 33 132 33c48 0 81.5 -10.667 100.5 -32s28.5 -55.333 28.5 -102v-269c0 -4.66699 -2.33301 -7 -7 -7h-4c-4.66699 0 -7 2.33301 -7 7v45c-47.333 -41.333 -99 -62 -155 -62
c-40 0 -73.167 12.167 -99.5 36.5s-39.5 57.166 -39.5 98.499zM64.999 125.001c0 -36 11.332 -64.5 33.999 -85.5s51.667 -31.5 87 -31.5c32.667 0 63.5 7.5 92.5 22.5s49.833 30.5 62.5 46.5v144c-53.333 15.333 -92.666 23 -117.999 23
c-47.333 0 -85.5 -11.167 -114.5 -33.5s-43.5 -50.833 -43.5 -85.5zM134.998 560.001c-4 -1.33301 -7 -0.333008 -9 3l-2 5c-1.33301 2.66699 -0.333008 5 3 7l182 91c4 1.33301 7 0.333008 9 -3l2 -4c2 -4 1 -7 -3 -9z" />
    <glyph glyph-name="acircumflex" unicode="&#xe2;" horiz-adv-x="436" 
d="M47 125c0 40 16.166 72.834 48.499 98.501s74.833 38.5 127.5 38.5c36.667 0 76 -7.66699 118 -23v37c0 40.667 -8.16699 70.167 -24.5 88.5s-45.166 27.5 -86.499 27.5c-22.667 0 -44.167 -2.5 -64.5 -7.5s-34.833 -9.83301 -43.5 -14.5l-14 -8
c-3.33301 -2 -6.33301 -1.33301 -9 2l-3 5c-2 3.33301 -1.33301 6 2 8c33.333 22 77.333 33 132 33c48 0 81.5 -10.667 100.5 -32s28.5 -55.333 28.5 -102v-269c0 -4.66699 -2.33301 -7 -7 -7h-4c-4.66699 0 -7 2.33301 -7 7v45c-47.333 -41.333 -99 -62 -155 -62
c-40 0 -73.167 12.167 -99.5 36.5s-39.5 57.166 -39.5 98.499zM64.999 125.001c0 -36 11.332 -64.5 33.999 -85.5s51.667 -31.5 87 -31.5c32.667 0 63.5 7.5 92.5 22.5s49.833 30.5 62.5 46.5v144c-53.333 15.333 -92.666 23 -117.999 23
c-47.333 0 -85.5 -11.167 -114.5 -33.5s-43.5 -50.833 -43.5 -85.5zM97.998 548.001c-2 -2 -4.33594 -1.66699 -7.00293 1l-4 5c-1.33301 2.66699 -0.666016 5.33398 2.00098 8.00098l129 106c2.66699 2.66699 5.33398 2.66699 8.00098 0l129 -106
c2.66699 -2.66699 3.33398 -5.33398 2.00098 -8.00098l-4 -5c-2.66699 -2.66699 -5 -3 -7 -1l-124 101z" />
    <glyph glyph-name="atilde" unicode="&#xe3;" horiz-adv-x="436" 
d="M47 125c0 40 16.166 72.834 48.499 98.501s74.833 38.5 127.5 38.5c36.667 0 76 -7.66699 118 -23v37c0 40.667 -8.16699 70.167 -24.5 88.5s-45.166 27.5 -86.499 27.5c-22.667 0 -44.167 -2.5 -64.5 -7.5s-34.833 -9.83301 -43.5 -14.5l-14 -8
c-3.33301 -2 -6.33301 -1.33301 -9 2l-3 5c-2 3.33301 -1.33301 6 2 8c33.333 22 77.333 33 132 33c48 0 81.5 -10.667 100.5 -32s28.5 -55.333 28.5 -102v-269c0 -4.66699 -2.33301 -7 -7 -7h-4c-4.66699 0 -7 2.33301 -7 7v45c-47.333 -41.333 -99 -62 -155 -62
c-40 0 -73.167 12.167 -99.5 36.5s-39.5 57.166 -39.5 98.499zM64.999 125.001c0 -36 11.332 -64.5 33.999 -85.5s51.667 -31.5 87 -31.5c32.667 0 63.5 7.5 92.5 22.5s49.833 30.5 62.5 46.5v144c-53.333 15.333 -92.666 23 -117.999 23
c-47.333 0 -85.5 -11.167 -114.5 -33.5s-43.5 -50.833 -43.5 -85.5zM90.998 583.001l-7.99805 1.99902c-4 0.666992 -5 3.66699 -3 9c18 56 46.667 84 86 84c10.667 0 20 -1.83301 28 -5.5s14.667 -9.33398 20 -17.001s9.16602 -13.667 11.499 -18s5.5 -11.166 9.5 -20.499
c12.667 -30.667 30.334 -46 53.001 -46c31.333 0 54 24 68 72c1.33301 4.66699 3.66602 6.33398 6.99902 5.00098l8 -2c4 -1.33301 5 -4.33301 3 -9c-18.667 -56 -47.334 -84 -86.001 -84c-30.667 0 -54.334 20 -71.001 60c-4 9.33301 -7.16699 16.333 -9.5 21
s-7.33301 10.334 -15 17.001s-16.5 10 -26.5 10c-31.333 0 -54 -24.333 -68 -73c-1.33301 -4.66699 -3.66602 -6.33398 -6.99902 -5.00098z" />
    <glyph glyph-name="adieresis" unicode="&#xe4;" horiz-adv-x="436" 
d="M47 125c0 40 16.166 72.834 48.499 98.501s74.833 38.5 127.5 38.5c36.667 0 76 -7.66699 118 -23v37c0 40.667 -8.16699 70.167 -24.5 88.5s-45.166 27.5 -86.499 27.5c-22.667 0 -44.167 -2.5 -64.5 -7.5s-34.833 -9.83301 -43.5 -14.5l-14 -8
c-3.33301 -2 -6.33301 -1.33301 -9 2l-3 5c-2 3.33301 -1.33301 6 2 8c33.333 22 77.333 33 132 33c48 0 81.5 -10.667 100.5 -32s28.5 -55.333 28.5 -102v-269c0 -4.66699 -2.33301 -7 -7 -7h-4c-4.66699 0 -7 2.33301 -7 7v45c-47.333 -41.333 -99 -62 -155 -62
c-40 0 -73.167 12.167 -99.5 36.5s-39.5 57.166 -39.5 98.499zM64.999 125.001c0 -36 11.332 -64.5 33.999 -85.5s51.667 -31.5 87 -31.5c32.667 0 63.5 7.5 92.5 22.5s49.833 30.5 62.5 46.5v144c-53.333 15.333 -92.666 23 -117.999 23
c-47.333 0 -85.5 -11.167 -114.5 -33.5s-43.5 -50.833 -43.5 -85.5zM324.998 607.001c-6 0 -10.833 2 -14.5 6s-5.5 8.66699 -5.5 14c0 14 6.66699 21 20 21c6 0 11 -2 15 -6s6 -9 6 -15c0 -5.33301 -2 -10 -6 -14s-9 -6 -15 -6zM135.998 607.001c-6 0 -11 2 -15 6
s-6 8.66699 -6 14c0 6 2 11 6 15s9 6 15 6c13.333 0 20 -7 20 -21c0 -5.33301 -1.83301 -10 -5.5 -14s-8.5 -6 -14.5 -6z" />
    <glyph glyph-name="aring" unicode="&#xe5;" horiz-adv-x="436" 
d="M47 125c0 40 16.166 72.834 48.499 98.501s74.833 38.5 127.5 38.5c36.667 0 76 -7.66699 118 -23v37c0 40.667 -8.16699 70.167 -24.5 88.5s-45.166 27.5 -86.499 27.5c-22.667 0 -44.167 -2.5 -64.5 -7.5s-34.833 -9.83301 -43.5 -14.5l-14 -8
c-3.33301 -2 -6.33301 -1.33301 -9 2l-3 5c-2 3.33301 -1.33301 6 2 8c33.333 22 77.333 33 132 33c48 0 81.5 -10.667 100.5 -32s28.5 -55.333 28.5 -102v-269c0 -4.66699 -2.33301 -7 -7 -7h-4c-4.66699 0 -7 2.33301 -7 7v45c-47.333 -41.333 -99 -62 -155 -62
c-40 0 -73.167 12.167 -99.5 36.5s-39.5 57.166 -39.5 98.499zM64.999 125.001c0 -36 11.332 -64.5 33.999 -85.5s51.667 -31.5 87 -31.5c32.667 0 63.5 7.5 92.5 22.5s49.833 30.5 62.5 46.5v144c-53.333 15.333 -92.666 23 -117.999 23
c-47.333 0 -85.5 -11.167 -114.5 -33.5s-43.5 -50.833 -43.5 -85.5zM222.998 500.001c-29.333 0 -54 10 -74 30s-30 44.667 -30 74s10 54 30 74s44.667 30 74 30c28.667 0 53.167 -10 73.5 -30s30.5 -44.667 30.5 -74s-10 -54 -30 -74s-44.667 -30 -74 -30zM222.998 516.001
c23.333 0 43.666 8.66699 60.999 26s26 38 26 62c0 23.333 -8.66699 43.833 -26 61.5s-37.666 26.5 -60.999 26.5c-24 0 -44.5 -8.66699 -61.5 -26s-25.5 -38 -25.5 -62s8.5 -44.667 25.5 -62s37.5 -26 61.5 -26z" />
    <glyph glyph-name="ae" unicode="&#xe6;" horiz-adv-x="721" 
d="M47 126c0 40 16.1729 72.667 48.5059 98s74.833 38 127.5 38c38.667 0 79 -7.66699 121 -23v37c0 40.667 -8.5 70.167 -25.5 88.5s-46.167 27.5 -87.5 27.5c-22.667 0 -44.334 -2.5 -65.001 -7.5s-35.334 -9.83301 -44.001 -14.5l-14 -8c-4 -2 -7 -1.33301 -9 2l-3 6
c-1.33301 3.33301 -0.666016 5.66602 2.00098 6.99902c33.333 22 77.666 33 132.999 33c64 0 104 -21.333 120 -64c37.333 42.667 84.666 64 141.999 64c53.333 0 97.166 -17.167 131.499 -51.5s51.5 -78.5 51.5 -132.5c0 -14.667 -1.66699 -24.667 -5 -30
c-1.33301 -2.66699 -3.33301 -4 -6 -4h-303v-121c37.333 -42 81 -63 131 -63c54.667 0 100.334 14.333 137.001 43c3.33301 2.66699 5.66602 2.33398 6.99902 -0.999023l3 -6c1.33301 -2.66699 1 -5 -1 -7c-39.333 -31.333 -88 -47 -146 -47
c-54.667 0 -101.334 21.667 -140.001 65c-16.667 -16.667 -40.334 -31.667 -71.001 -45s-62.667 -20 -96 -20c-40 0 -73.167 12.333 -99.5 37s-39.5 57.667 -39.5 99zM362.006 210h294.999c0.666992 4 1 9.33301 1 16c0 48.667 -15.5 88.5 -46.5 119.5
s-70.5 46.5 -118.5 46.5c-59.333 0 -104.666 -22.667 -135.999 -68c3.33301 -15.333 5 -31.333 5 -48v-66zM65.0049 126c0 -36 11.5 -64.667 34.5 -86s51.833 -32 86.5 -32c32.667 0 64.167 6.83301 94.5 20.5s51.5 28.167 63.5 43.5v149c-54 15.333 -94.333 23 -121 23
c-47.333 0 -85.5 -11 -114.5 -33s-43.5 -50.333 -43.5 -85z" />
    <glyph glyph-name="ccedilla" unicode="&#xe7;" horiz-adv-x="479" 
d="M52 202c0 59.333 20.8359 108.833 62.5029 148.5s92.167 59.5 151.5 59.5c28 0 54.833 -4.66699 80.5 -14s44.167 -18.666 55.5 -27.999l17 -13c2.66699 -2.66699 2.66699 -5.33398 0 -8.00098l-4 -4c-3.33301 -3.33301 -6.66602 -3 -9.99902 1
c-4 3.33301 -9.66699 7.66602 -17 12.999s-23 12.5 -47 21.5s-49 13.5 -75 13.5c-54.667 0 -101.167 -18 -139.5 -54s-57.5 -81.333 -57.5 -136c0 -55.333 19.5 -101.5 58.5 -138.5s85.167 -55.5 138.5 -55.5c26.667 0 52.167 5.33301 76.5 16s42.166 21.334 53.499 32.001
l17 15c3.33301 3.33301 6 3.66602 8 0.999023l5 -5c2.66699 -2 3 -4 1 -6l-7.5 -7.5c-3 -3 -9.83301 -8.66699 -20.5 -17s-21.834 -15.666 -33.501 -21.999s-26.5 -12 -44.5 -17s-36.333 -7.5 -55 -7.5c-6.66699 0 -11.334 0.333008 -14.001 1v-45
c72.667 -7.33301 109 -37.666 109 -90.999c0 -24.667 -8.66699 -45.834 -26 -63.501s-39 -26.5 -65 -26.5c-30.667 0 -56.667 11.333 -78 34c-2.66699 3.33301 -2.66699 6.33301 0 9l6 5c3.33301 2 6.33301 1.66699 9 -1c16.667 -19.333 37.667 -29 63 -29
c21.333 0 38.666 7 51.999 21s20 31 20 51c0 44 -33.667 68.667 -101 74c-4 0 -6 2 -6 6v57c-52 7.33301 -95.5 30.5 -130.5 69.5s-52.5 85.833 -52.5 140.5z" />
    <glyph glyph-name="egrave" unicode="&#xe8;" horiz-adv-x="477" 
d="M71 193c1.33301 -53.333 18.002 -97.501 50.002 -132.501s74.667 -52.5 128 -52.5c55.333 0 100.666 14.333 135.999 43c3.33301 2.66699 6 2.33398 8 -0.999023l4 -6c1.33301 -2 0.666016 -4.33301 -2.00098 -7c-41.333 -31.333 -90 -47 -146 -47
c-59.333 0 -107 20.167 -143 60.5s-54 90.833 -54 151.5c0 59.333 18 108.833 54 148.5s83.667 59.5 143 59.5c53.333 0 97 -17 131 -51s51 -78 51 -132c0 -15.333 -1.33301 -25.333 -4 -30c-1.33301 -2.66699 -3.33301 -4 -6 -4h-350zM71.002 209.999l341 -0.000976562
c0.666992 4 1 9.66699 1 17c0 48.667 -15.5 88.334 -46.5 119.001s-70.167 46 -117.5 46c-52.667 0 -95 -17.167 -127 -51.5s-49 -77.833 -51 -130.5zM334.002 559.998l-182 90c-4 2 -5 5 -3 9l2 4c2 3.33301 5 4.33301 9 3l182 -91c3.33301 -2 4.33301 -4.33301 3 -7l-2 -5
c-2 -3.33301 -5 -4.33301 -9 -3z" />
    <glyph glyph-name="eacute" unicode="&#xe9;" horiz-adv-x="477" 
d="M71 193c1.33301 -53.333 18.002 -97.501 50.002 -132.501s74.667 -52.5 128 -52.5c55.333 0 100.666 14.333 135.999 43c3.33301 2.66699 6 2.33398 8 -0.999023l4 -6c1.33301 -2 0.666016 -4.33301 -2.00098 -7c-41.333 -31.333 -90 -47 -146 -47
c-59.333 0 -107 20.167 -143 60.5s-54 90.833 -54 151.5c0 59.333 18 108.833 54 148.5s83.667 59.5 143 59.5c53.333 0 97 -17 131 -51s51 -78 51 -132c0 -15.333 -1.33301 -25.333 -4 -30c-1.33301 -2.66699 -3.33301 -4 -6 -4h-350zM71.002 209.999l341 -0.000976562
c0.666992 4 1 9.66699 1 17c0 48.667 -15.5 88.334 -46.5 119.001s-70.167 46 -117.5 46c-52.667 0 -95 -17.167 -127 -51.5s-49 -77.833 -51 -130.5zM158.002 559.998c-4 -1.33301 -7 -0.333008 -9 3l-2 5c-1.33301 2.66699 -0.333008 5 3 7l182 91
c4 1.33301 7 0.333008 9 -3l2 -4c2 -4 1 -7 -3 -9z" />
    <glyph glyph-name="ecircumflex" unicode="&#xea;" horiz-adv-x="477" 
d="M71 193c1.33301 -53.333 18.002 -97.501 50.002 -132.501s74.667 -52.5 128 -52.5c55.333 0 100.666 14.333 135.999 43c3.33301 2.66699 6 2.33398 8 -0.999023l4 -6c1.33301 -2 0.666016 -4.33301 -2.00098 -7c-41.333 -31.333 -90 -47 -146 -47
c-59.333 0 -107 20.167 -143 60.5s-54 90.833 -54 151.5c0 59.333 18 108.833 54 148.5s83.667 59.5 143 59.5c53.333 0 97 -17 131 -51s51 -78 51 -132c0 -15.333 -1.33301 -25.333 -4 -30c-1.33301 -2.66699 -3.33301 -4 -6 -4h-350zM71.002 209.999l341 -0.000976562
c0.666992 4 1 9.66699 1 17c0 48.667 -15.5 88.334 -46.5 119.001s-70.167 46 -117.5 46c-52.667 0 -95 -17.167 -127 -51.5s-49 -77.833 -51 -130.5zM121.002 547.998c-2 -2 -4.33594 -1.66699 -7.00293 1l-4 5c-1.33301 2.66699 -0.666016 5.33398 2.00098 8.00098
l129 106c2.66699 2.66699 5.33398 2.66699 8.00098 0l129 -106c2.66699 -2.66699 3.33398 -5.33398 2.00098 -8.00098l-4 -5c-2.66699 -2.66699 -5 -3 -7 -1l-124 101z" />
    <glyph glyph-name="edieresis" unicode="&#xeb;" horiz-adv-x="477" 
d="M71 193c1.33301 -53.333 18.002 -97.501 50.002 -132.501s74.667 -52.5 128 -52.5c55.333 0 100.666 14.333 135.999 43c3.33301 2.66699 6 2.33398 8 -0.999023l4 -6c1.33301 -2 0.666016 -4.33301 -2.00098 -7c-41.333 -31.333 -90 -47 -146 -47
c-59.333 0 -107 20.167 -143 60.5s-54 90.833 -54 151.5c0 59.333 18 108.833 54 148.5s83.667 59.5 143 59.5c53.333 0 97 -17 131 -51s51 -78 51 -132c0 -15.333 -1.33301 -25.333 -4 -30c-1.33301 -2.66699 -3.33301 -4 -6 -4h-350zM71.002 209.999l341 -0.000976562
c0.666992 4 1 9.66699 1 17c0 48.667 -15.5 88.334 -46.5 119.001s-70.167 46 -117.5 46c-52.667 0 -95 -17.167 -127 -51.5s-49 -77.833 -51 -130.5zM358.002 606.998c-6 0 -10.833 2 -14.5 6s-5.5 8.66699 -5.5 14c0 14 6.66699 21 20 21c6 0 11 -2 15 -6s6 -9 6 -15
c0 -5.33301 -2 -10 -6 -14s-9 -6 -15 -6zM169.002 606.998c-6 0 -11 2 -15 6s-6 8.66699 -6 14c0 6 2 11 6 15s9 6 15 6c13.333 0 20 -7 20 -21c0 -5.33301 -1.83301 -10 -5.5 -14s-8.5 -6 -14.5 -6z" />
    <glyph glyph-name="igrave" unicode="&#xec;" horiz-adv-x="180" 
d="M81 7v386c0 4.66699 2.33301 7 7 7h4c4.66699 0 7 -2.33301 7 -7v-386c0 -4.66699 -2.33301 -7 -7 -7h-4c-4.66699 -0 -7 2.33301 -7 7zM178 560l-182 90c-4 2 -5 5 -3 9l2 4c2 3.33301 5 4.33301 9 3l182 -91c3.33301 -2 4.33301 -4.33301 3 -7l-2 -5
c-2 -3.33301 -5 -4.33301 -9 -3z" />
    <glyph glyph-name="iacute" unicode="&#xed;" horiz-adv-x="180" 
d="M81 7v386c0 4.66699 2.33301 7 7 7h4c4.66699 0 7 -2.33301 7 -7v-386c0 -4.66699 -2.33301 -7 -7 -7h-4c-4.66699 -0 -7 2.33301 -7 7zM2 560c-4 -1.33301 -7 -0.333008 -9 3l-2 5c-1.33301 2.66699 -0.333008 5 3 7l182 91c4 1.33301 7 0.333008 9 -3l2 -4
c2 -4 1 -7 -3 -9z" />
    <glyph glyph-name="icircumflex" unicode="&#xee;" horiz-adv-x="180" 
d="M81 7v386c0 4.66699 2.33301 7 7 7h4c4.66699 0 7 -2.33301 7 -7v-386c0 -4.66699 -2.33301 -7 -7 -7h-4c-4.66699 -0 -7 2.33301 -7 7zM-34 548c-2 -2 -4.33594 -1.66699 -7.00293 1l-4 5c-1.33301 2.66699 -0.666016 5.33398 2.00098 8.00098l129 106
c2.66699 2.66699 5.33398 2.66699 8.00098 0l129 -106c2.66699 -2.66699 3.33398 -5.33398 2.00098 -8.00098l-4 -5c-2.66699 -2.66699 -5 -3 -7 -1l-124 101z" />
    <glyph glyph-name="idieresis" unicode="&#xef;" horiz-adv-x="180" 
d="M81 7v386c0 4.66699 2.33301 7 7 7h4c4.66699 0 7 -2.33301 7 -7v-386c0 -4.66699 -2.33301 -7 -7 -7h-4c-4.66699 -0 -7 2.33301 -7 7zM185 607c-6 0 -10.833 2 -14.5 6s-5.5 8.66699 -5.5 14c0 14 6.66699 21 20 21c6 0 11 -2 15 -6s6 -9 6 -15
c0 -5.33301 -2 -10 -6 -14s-9 -6 -15 -6zM-4 607c-6 0 -11 2 -15 6s-6 8.66699 -6 14c0 6 2 11 6 15s9 6 15 6c13.333 0 20 -7 20 -21c0 -5.33301 -1.83301 -10 -5.5 -14s-8.5 -6 -14.5 -6z" />
    <glyph glyph-name="eth" unicode="&#xf0;" horiz-adv-x="564" 
d="M49 222c0 65.333 21.4971 118.501 64.4971 159.501s94.5 61.5 154.5 61.5c88.667 0 162.334 -39.333 221.001 -118c-12.667 105.333 -64.667 196 -156 272l-134 -77c-4 -2.66699 -7 -1.66699 -9 3l-2 3c-2.66699 4 -1.66699 7 3 9l127 73
c-44 33.333 -91 59.666 -141 78.999c-3.33301 2 -4.66602 4.66699 -3.99902 8l2 7c1.33301 3.33301 4 4.33301 8 3c52 -18.667 102.667 -47.667 152 -87l68 39c3.33301 2.66699 6.33301 2 9 -2l2 -3c2 -4.66699 1 -8 -3 -10l-62 -36c106.667 -90 160 -200 160 -330
c0 -82.667 -21 -151 -63 -205s-99.333 -81 -172 -81c-61.333 0 -114.166 22.667 -158.499 68s-66.5 100 -66.5 164zM65.9971 222.001c0 -59.333 20.5 -109.833 61.5 -151.5s89.833 -62.5 146.5 -62.5c67.333 0 120.5 25.167 159.5 75.5s58.5 114.5 58.5 192.5v14
c-24 36 -48 63.333 -72 82c-45.333 35.333 -96 53 -152 53c-55.333 0 -102.833 -18.667 -142.5 -56s-59.5 -86.333 -59.5 -147z" />
    <glyph glyph-name="ntilde" unicode="&#xf1;" horiz-adv-x="495" 
d="M81 7l-0.000976562 386c0 4.66699 2.33301 7 7 7h4c4.66699 0 7 -2.33301 7 -7v-55c44.667 48 96.667 72 156 72c54 0 95.167 -15.833 123.5 -47.5s42.5 -77.834 42.5 -138.501v-217c0 -4.66699 -2.33301 -7 -7 -7h-4c-4.66699 0 -7 2.33301 -7 7v217
c0 54.667 -12.667 96.334 -38 125.001s-62 43 -110 43c-26.667 0 -52.667 -6.66699 -78 -20s-43.166 -25 -53.499 -35s-18.5 -19 -24.5 -27v-303c0 -4.66699 -2.33301 -7 -7 -7h-4c-4.66699 -0 -7 2.33301 -7 7zM106.999 584l-7.99805 1.99902c-4 1.33301 -5 4.33301 -3 9
c18 56 46.667 84 86 84c10.667 0 20 -1.83301 28 -5.5s14.667 -9.33398 20 -17.001s9.16602 -13.667 11.499 -18s5.5 -11.166 9.5 -20.499c12.667 -30.667 30.334 -46 53.001 -46c31.333 0 54 24 68 72c1.33301 4.66699 3.66602 6.33398 6.99902 5.00098l8 -2
c4 -0.666992 5 -3.66699 3 -9c-18.667 -56 -47.334 -84 -86.001 -84c-30.667 0 -54.334 20 -71.001 60c-4 9.33301 -7.16699 16.333 -9.5 21s-7.33301 10.334 -15 17.001s-16.5 10 -26.5 10c-31.333 0 -54 -24.333 -68 -73
c-1.33301 -4.66699 -3.66602 -6.33398 -6.99902 -5.00098z" />
    <glyph glyph-name="ograve" unicode="&#xf2;" horiz-adv-x="508" 
d="M51 201c0 58 19.667 107.333 59 148s87.333 61 144 61s104.667 -20.333 144 -61s59 -90 59 -148c0 -59.333 -19.667 -109.333 -59 -150s-87.333 -61 -144 -61s-104.667 20.333 -144 61s-59 90.667 -59 150zM69 201c0 -54 17.833 -99.667 53.5 -137s79.5 -56 131.5 -56
s95.833 18.667 131.5 56s53.5 83 53.5 137c0 53.333 -17.833 98.5 -53.5 135.5s-79.5 55.5 -131.5 55.5s-95.833 -18.5 -131.5 -55.5s-53.5 -82.167 -53.5 -135.5zM342 560l-182 90c-4 2 -5 5 -3 9l2 4c2 3.33301 5 4.33301 9 3l182 -91c3.33301 -2 4.33301 -4.33301 3 -7
l-2 -5c-2 -3.33301 -5 -4.33301 -9 -3z" />
    <glyph glyph-name="oacute" unicode="&#xf3;" horiz-adv-x="508" 
d="M51 201c0 58 19.667 107.333 59 148s87.333 61 144 61s104.667 -20.333 144 -61s59 -90 59 -148c0 -59.333 -19.667 -109.333 -59 -150s-87.333 -61 -144 -61s-104.667 20.333 -144 61s-59 90.667 -59 150zM69 201c0 -54 17.833 -99.667 53.5 -137s79.5 -56 131.5 -56
s95.833 18.667 131.5 56s53.5 83 53.5 137c0 53.333 -17.833 98.5 -53.5 135.5s-79.5 55.5 -131.5 55.5s-95.833 -18.5 -131.5 -55.5s-53.5 -82.167 -53.5 -135.5zM166 560c-4 -1.33301 -7 -0.333008 -9 3l-2 5c-1.33301 2.66699 -0.333008 5 3 7l182 91
c4 1.33301 7 0.333008 9 -3l2 -4c2 -4 1 -7 -3 -9z" />
    <glyph glyph-name="ocircumflex" unicode="&#xf4;" horiz-adv-x="508" 
d="M51 201c0 58 19.667 107.333 59 148s87.333 61 144 61s104.667 -20.333 144 -61s59 -90 59 -148c0 -59.333 -19.667 -109.333 -59 -150s-87.333 -61 -144 -61s-104.667 20.333 -144 61s-59 90.667 -59 150zM69 201c0 -54 17.833 -99.667 53.5 -137s79.5 -56 131.5 -56
s95.833 18.667 131.5 56s53.5 83 53.5 137c0 53.333 -17.833 98.5 -53.5 135.5s-79.5 55.5 -131.5 55.5s-95.833 -18.5 -131.5 -55.5s-53.5 -82.167 -53.5 -135.5zM129 548c-2 -2 -4.33594 -1.66699 -7.00293 1l-4 5c-1.33301 2.66699 -0.666016 5.33398 2.00098 8.00098
l129 106c2.66699 2.66699 5.33398 2.66699 8.00098 0l129 -106c2.66699 -2.66699 3.33398 -5.33398 2.00098 -8.00098l-4 -5c-2.66699 -2.66699 -5 -3 -7 -1l-124 101z" />
    <glyph glyph-name="otilde" unicode="&#xf5;" horiz-adv-x="508" 
d="M51 201c0 58 19.667 107.333 59 148s87.333 61 144 61s104.667 -20.333 144 -61s59 -90 59 -148c0 -59.333 -19.667 -109.333 -59 -150s-87.333 -61 -144 -61s-104.667 20.333 -144 61s-59 90.667 -59 150zM69 201c0 -54 17.833 -99.667 53.5 -137s79.5 -56 131.5 -56
s95.833 18.667 131.5 56s53.5 83 53.5 137c0 53.333 -17.833 98.5 -53.5 135.5s-79.5 55.5 -131.5 55.5s-95.833 -18.5 -131.5 -55.5s-53.5 -82.167 -53.5 -135.5zM118 583l-7.99805 1.99902c-4 0.666992 -5 3.66699 -3 9c18 56 46.667 84 86 84
c10.667 0 20 -1.83301 28 -5.5s14.667 -9.33398 20 -17.001s9.16602 -13.667 11.499 -18s5.5 -11.166 9.5 -20.499c12.667 -30.667 30.334 -46 53.001 -46c31.333 0 54 24 68 72c1.33301 4.66699 3.66602 6.33398 6.99902 5.00098l8 -2c4 -1.33301 5 -4.33301 3 -9
c-18.667 -56 -47.334 -84 -86.001 -84c-30.667 0 -54.334 20 -71.001 60c-4 9.33301 -7.16699 16.333 -9.5 21s-7.33301 10.334 -15 17.001s-16.5 10 -26.5 10c-31.333 0 -54 -24.333 -68 -73c-1.33301 -4.66699 -3.66602 -6.33398 -6.99902 -5.00098z" />
    <glyph glyph-name="odieresis" unicode="&#xf6;" horiz-adv-x="508" 
d="M51 201c0 58 19.667 107.333 59 148s87.333 61 144 61s104.667 -20.333 144 -61s59 -90 59 -148c0 -59.333 -19.667 -109.333 -59 -150s-87.333 -61 -144 -61s-104.667 20.333 -144 61s-59 90.667 -59 150zM69 201c0 -54 17.833 -99.667 53.5 -137s79.5 -56 131.5 -56
s95.833 18.667 131.5 56s53.5 83 53.5 137c0 53.333 -17.833 98.5 -53.5 135.5s-79.5 55.5 -131.5 55.5s-95.833 -18.5 -131.5 -55.5s-53.5 -82.167 -53.5 -135.5zM347 607c-6 0 -10.833 2 -14.5 6s-5.5 8.66699 -5.5 14c0 14 6.66699 21 20 21c6 0 11 -2 15 -6s6 -9 6 -15
c0 -5.33301 -2 -10 -6 -14s-9 -6 -15 -6zM158 607c-6 0 -11 2 -15 6s-6 8.66699 -6 14c0 6 2 11 6 15s9 6 15 6c13.333 0 20 -7 20 -21c0 -5.33301 -1.83301 -10 -5.5 -14s-8.5 -6 -14.5 -6z" />
    <glyph glyph-name="divide" unicode="&#xf7;" horiz-adv-x="713" 
d="M352 465c-6.66699 0 -12.334 2.33301 -17.001 7s-7 10.334 -7 17.001s2.33301 12.167 7 16.5s10.334 6.5 17.001 6.5s12.334 -2.16699 17.001 -6.5s7 -9.83301 7 -16.5s-2.33301 -12.334 -7 -17.001s-10.334 -7 -17.001 -7zM161 340c-4.66699 0 -7 2.33301 -7 7v4
c0 4.66699 2.33301 7 7 7h389c4.66699 0 7 -2.33301 7 -7v-4c0 -4.66699 -2.33301 -7 -7 -7h-389zM328 209c0 6.66699 2.33301 12.167 7 16.5s10.334 6.5 17.001 6.5s12.334 -2.16699 17.001 -6.5s7 -9.83301 7 -16.5s-2.33301 -12.334 -7 -17.001s-10.334 -7 -17.001 -7
s-12.334 2.33301 -17.001 7s-7 10.334 -7 17.001z" />
    <glyph glyph-name="oslash" unicode="&#xf8;" horiz-adv-x="510" 
d="M72 43c-3.33301 3.33301 -3.33203 6.66504 0.000976562 9.99805l20 20c-26.667 36.667 -40 78.334 -40 125.001c0 58.667 19.667 108.667 59 150s87.333 62 144 62c59.333 0 108.666 -22 147.999 -66l26 23c2.66699 2.66699 5.66699 2.66699 9 0l3 -3
c3.33301 -3.33301 3.33301 -6.66602 0 -9.99902l-26 -24c28.667 -39.333 43 -83.333 43 -132c0 -58.667 -19.5 -108 -58.5 -148s-87.167 -60 -144.5 -60c-60.667 0 -111 22.667 -151 68l-20 -19c-2.66699 -3.33301 -6 -3 -10 1zM107.001 84.999l280.999 246
c-35.333 40.667 -79.666 61 -132.999 61c-51.333 0 -95 -19 -131 -57s-54 -83.667 -54 -137c0 -42 12.333 -79.667 37 -113zM119 70.999c35.333 -42 80.667 -63 136 -63c52 0 95.833 18.167 131.5 54.5s53.5 81.5 53.5 135.5c0 44.667 -13 84.667 -39 120z" />
    <glyph glyph-name="ugrave" unicode="&#xf9;" horiz-adv-x="486" 
d="M75 174l-0.000976562 219.001c0 4.66699 2.33301 7 7 7h4c4.66699 0 7 -2.33301 7 -7v-219c0 -54.667 12.667 -96 38 -124s62 -42 110 -42c20.667 0 40.334 3.66699 59.001 11s34.167 16.5 46.5 27.5s21.333 19.667 27 26s10.167 12.166 13.5 17.499v303
c0 4.66699 2.33301 7 7 7h4c4.66699 0 7 -2.33301 7 -7v-386c0 -4.66699 -2.33301 -7 -7 -7h-4c-4.66699 -0 -7 2.33301 -7 7v53c-38 -46.667 -86.667 -70 -146 -70c-54 0 -95.167 15.5 -123.5 46.5s-42.5 76.833 -42.5 137.5zM330.999 560.001l-182 90c-4 2 -5 5 -3 9l2 4
c2 3.33301 5 4.33301 9 3l182 -91c3.33301 -2 4.33301 -4.33301 3 -7l-2 -5c-2 -3.33301 -5 -4.33301 -9 -3z" />
    <glyph glyph-name="uacute" unicode="&#xfa;" horiz-adv-x="486" 
d="M75 174l-0.000976562 219.001c0 4.66699 2.33301 7 7 7h4c4.66699 0 7 -2.33301 7 -7v-219c0 -54.667 12.667 -96 38 -124s62 -42 110 -42c20.667 0 40.334 3.66699 59.001 11s34.167 16.5 46.5 27.5s21.333 19.667 27 26s10.167 12.166 13.5 17.499v303
c0 4.66699 2.33301 7 7 7h4c4.66699 0 7 -2.33301 7 -7v-386c0 -4.66699 -2.33301 -7 -7 -7h-4c-4.66699 -0 -7 2.33301 -7 7v53c-38 -46.667 -86.667 -70 -146 -70c-54 0 -95.167 15.5 -123.5 46.5s-42.5 76.833 -42.5 137.5zM154.999 560.001
c-4 -1.33301 -7 -0.333008 -9 3l-2 5c-1.33301 2.66699 -0.333008 5 3 7l182 91c4 1.33301 7 0.333008 9 -3l2 -4c2 -4 1 -7 -3 -9z" />
    <glyph glyph-name="ucircumflex" unicode="&#xfb;" horiz-adv-x="486" 
d="M75 174l-0.000976562 219.001c0 4.66699 2.33301 7 7 7h4c4.66699 0 7 -2.33301 7 -7v-219c0 -54.667 12.667 -96 38 -124s62 -42 110 -42c20.667 0 40.334 3.66699 59.001 11s34.167 16.5 46.5 27.5s21.333 19.667 27 26s10.167 12.166 13.5 17.499v303
c0 4.66699 2.33301 7 7 7h4c4.66699 0 7 -2.33301 7 -7v-386c0 -4.66699 -2.33301 -7 -7 -7h-4c-4.66699 -0 -7 2.33301 -7 7v53c-38 -46.667 -86.667 -70 -146 -70c-54 0 -95.167 15.5 -123.5 46.5s-42.5 76.833 -42.5 137.5zM117.999 548.001
c-2 -2 -4.33594 -1.66699 -7.00293 1l-4 5c-1.33301 2.66699 -0.666016 5.33398 2.00098 8.00098l129 106c2.66699 2.66699 5.33398 2.66699 8.00098 0l129 -106c2.66699 -2.66699 3.33398 -5.33398 2.00098 -8.00098l-4 -5c-2.66699 -2.66699 -5 -3 -7 -1l-124 101z" />
    <glyph glyph-name="udieresis" unicode="&#xfc;" horiz-adv-x="486" 
d="M75 174l-0.000976562 219.001c0 4.66699 2.33301 7 7 7h4c4.66699 0 7 -2.33301 7 -7v-219c0 -54.667 12.667 -96 38 -124s62 -42 110 -42c20.667 0 40.334 3.66699 59.001 11s34.167 16.5 46.5 27.5s21.333 19.667 27 26s10.167 12.166 13.5 17.499v303
c0 4.66699 2.33301 7 7 7h4c4.66699 0 7 -2.33301 7 -7v-386c0 -4.66699 -2.33301 -7 -7 -7h-4c-4.66699 -0 -7 2.33301 -7 7v53c-38 -46.667 -86.667 -70 -146 -70c-54 0 -95.167 15.5 -123.5 46.5s-42.5 76.833 -42.5 137.5zM339.999 607.001c-6 0 -10.833 2 -14.5 6
s-5.5 8.66699 -5.5 14c0 14 6.66699 21 20 21c6 0 11 -2 15 -6s6 -9 6 -15c0 -5.33301 -2 -10 -6 -14s-9 -6 -15 -6zM150.999 607.001c-6 0 -11 2 -15 6s-6 8.66699 -6 14c0 6 2 11 6 15s9 6 15 6c13.333 0 20 -7 20 -21c0 -5.33301 -1.83301 -10 -5.5 -14s-8.5 -6 -14.5 -6
z" />
    <glyph glyph-name="yacute" unicode="&#xfd;" horiz-adv-x="422" 
d="M207 8l-193.999 387c-2 4.66699 -1.66699 7.33398 1 8.00098l7 3c2.66699 1.33301 5 0.333008 7 -3l188 -376l176 376c2 3.33301 4.33301 4.33301 7 3l7 -3c2.66699 -0.666992 3 -3.33398 1 -8.00098l-326 -696c-2 -4 -4.66699 -5 -8 -3l-5 3
c-2.66699 2 -3.33398 4.66699 -2.00098 8zM128.001 560c-4 -1.33301 -7 -0.333008 -9 3l-2 5c-1.33301 2.66699 -0.333008 5 3 7l182 91c4 1.33301 7 0.333008 9 -3l2 -4c2 -4 1 -7 -3 -9z" />
    <glyph glyph-name="thorn" unicode="&#xfe;" 
d="M98 41l-0.00195312 -334c0 -4.66699 -2.33301 -7 -7 -7h-4c-4 0 -6 2.33301 -6 7v986c0 4.66699 2 7 6 7h4c4.66699 0 7 -2.33301 7 -7v-339c40.667 37.333 89.334 56 146.001 56c56 0 102.5 -20.333 139.5 -61s55.5 -90.667 55.5 -150
c0 -60.667 -19.5 -110.667 -58.5 -150s-89.833 -59 -152.5 -59c-49.333 0 -92.666 17 -129.999 51zM97.998 68c4 -5.33301 9.83301 -11.668 17.5 -19.001s22.167 -16 43.5 -26s44.333 -15 69 -15c58 0 104.833 18 140.5 54s53.5 81.667 53.5 137
c0 54.667 -16.833 100.5 -50.5 137.5s-76.167 55.5 -127.5 55.5c-27.333 0 -52.833 -5.16699 -76.5 -15.5s-40.167 -19.666 -49.5 -27.999s-16 -15.5 -20 -21.5v-259z" />
    <glyph glyph-name="ydieresis" unicode="&#xff;" horiz-adv-x="422" 
d="M207 8l-193.999 387c-2 4.66699 -1.66699 7.33398 1 8.00098l7 3c2.66699 1.33301 5 0.333008 7 -3l188 -376l176 376c2 3.33301 4.33301 4.33301 7 3l7 -3c2.66699 -0.666992 3 -3.33398 1 -8.00098l-326 -696c-2 -4 -4.66699 -5 -8 -3l-5 3
c-2.66699 2 -3.33398 4.66699 -2.00098 8zM310.001 607c-6 0 -10.833 2 -14.5 6s-5.5 8.66699 -5.5 14c0 14 6.66699 21 20 21c6 0 11 -2 15 -6s6 -9 6 -15c0 -5.33301 -2 -10 -6 -14s-9 -6 -15 -6zM121.001 607c-6 0 -11 2 -15 6s-6 8.66699 -6 14c0 6 2 11 6 15s9 6 15 6
c13.333 0 20 -7 20 -21c0 -5.33301 -1.83301 -10 -5.5 -14s-8.5 -6 -14.5 -6z" />
    <glyph glyph-name="Amacron" unicode="&#x100;" horiz-adv-x="639" 
d="M8 7l308 710c1.33301 2.66699 3 4 5 4h2c2 0 3.66699 -1.33301 5 -4l302 -710c1.33301 -3.33301 0.333008 -5.33301 -3 -6l-9 -3c-2 -0.666992 -3.66699 0.333008 -5 3l-89 209h-409l-90 -209c-1.33301 -2.66699 -3 -3.66699 -5 -3l-9 3
c-3.33301 0.666992 -4.33301 2.66699 -3 6zM123 227h393l-194 458zM177 842c-4.66699 0 -7 2.33301 -7 7v4c0 4.66699 2.33301 7 7 7h288c4.66699 0 7 -2.33301 7 -7v-4c0 -4.66699 -2.33301 -7 -7 -7h-288z" />
    <glyph glyph-name="amacron" unicode="&#x101;" horiz-adv-x="436" 
d="M47 125c0 40 16.166 72.834 48.499 98.501s74.833 38.5 127.5 38.5c36.667 0 76 -7.66699 118 -23v37c0 40.667 -8.16699 70.167 -24.5 88.5s-45.166 27.5 -86.499 27.5c-22.667 0 -44.167 -2.5 -64.5 -7.5s-34.833 -9.83301 -43.5 -14.5l-14 -8
c-3.33301 -2 -6.33301 -1.33301 -9 2l-3 5c-2 3.33301 -1.33301 6 2 8c33.333 22 77.333 33 132 33c48 0 81.5 -10.667 100.5 -32s28.5 -55.333 28.5 -102v-269c0 -4.66699 -2.33301 -7 -7 -7h-4c-4.66699 0 -7 2.33301 -7 7v45c-47.333 -41.333 -99 -62 -155 -62
c-40 0 -73.167 12.167 -99.5 36.5s-39.5 57.166 -39.5 98.499zM64.999 125.001c0 -36 11.332 -64.5 33.999 -85.5s51.667 -31.5 87 -31.5c32.667 0 63.5 7.5 92.5 22.5s49.833 30.5 62.5 46.5v144c-53.333 15.333 -92.666 23 -117.999 23
c-47.333 0 -85.5 -11.167 -114.5 -33.5s-43.5 -50.833 -43.5 -85.5zM78.998 607.001c-4.66699 0 -7 2.33301 -7 7v4c0 4.66699 2.33301 7 7 7h288c4.66699 0 7 -2.33301 7 -7v-4c0 -4.66699 -2.33301 -7 -7 -7h-288z" />
    <glyph glyph-name="Abreve" unicode="&#x102;" horiz-adv-x="639" 
d="M8 7l308 710c1.33301 2.66699 3 4 5 4h2c2 0 3.66699 -1.33301 5 -4l302 -710c1.33301 -3.33301 0.333008 -5.33301 -3 -6l-9 -3c-2 -0.666992 -3.66699 0.333008 -5 3l-89 209h-409l-90 -209c-1.33301 -2.66699 -3 -3.66699 -5 -3l-9 3
c-3.33301 0.666992 -4.33301 2.66699 -3 6zM123 227h393l-194 458zM321 780c-33.333 0 -61.6699 10.3311 -85.0029 30.998s-37.333 46.334 -42 77.001c-0.666992 1.33301 -0.166992 2.83301 1.5 4.5s3.16699 2.5 4.5 2.5h5c3.33301 0 5 -2 5 -6
c4 -26.667 16.333 -48.667 37 -66s45.334 -26 74.001 -26c28 0 52.333 8.66699 73 26s33.334 39.333 38.001 66c0 4 1.66699 6 5 6h5c1.33301 0 2.83301 -0.833008 4.5 -2.5s2.16699 -3.16699 1.5 -4.5c-5.33301 -31.333 -19.666 -57.166 -42.999 -77.499
s-51.333 -30.5 -84 -30.5z" />
    <glyph glyph-name="abreve" unicode="&#x103;" horiz-adv-x="436" 
d="M47 125c0 40 16.166 72.834 48.499 98.501s74.833 38.5 127.5 38.5c36.667 0 76 -7.66699 118 -23v37c0 40.667 -8.16699 70.167 -24.5 88.5s-45.166 27.5 -86.499 27.5c-22.667 0 -44.167 -2.5 -64.5 -7.5s-34.833 -9.83301 -43.5 -14.5l-14 -8
c-3.33301 -2 -6.33301 -1.33301 -9 2l-3 5c-2 3.33301 -1.33301 6 2 8c33.333 22 77.333 33 132 33c48 0 81.5 -10.667 100.5 -32s28.5 -55.333 28.5 -102v-269c0 -4.66699 -2.33301 -7 -7 -7h-4c-4.66699 0 -7 2.33301 -7 7v45c-47.333 -41.333 -99 -62 -155 -62
c-40 0 -73.167 12.167 -99.5 36.5s-39.5 57.166 -39.5 98.499zM64.999 125.001c0 -36 11.332 -64.5 33.999 -85.5s51.667 -31.5 87 -31.5c32.667 0 63.5 7.5 92.5 22.5s49.833 30.5 62.5 46.5v144c-53.333 15.333 -92.666 23 -117.999 23
c-47.333 0 -85.5 -11.167 -114.5 -33.5s-43.5 -50.833 -43.5 -85.5zM222.998 545.001c-32.667 0 -60.835 10.167 -84.502 30.5s-37.834 45.833 -42.501 76.5c-0.666992 2 -0.166992 3.83301 1.5 5.5s3.16699 2.5 4.5 2.5h5c3.33301 0 5 -2 5 -6
c4 -27.333 16.333 -49.666 37 -66.999s45.334 -26 74.001 -26c28 0 52.333 8.66699 73 26s33.334 39.666 38.001 66.999c0 4 1.66699 6 5 6h5c1.33301 0 2.83301 -0.833008 4.5 -2.5s2.16699 -3.5 1.5 -5.5c-5.33301 -30.667 -19.666 -56.167 -42.999 -76.5
s-51.333 -30.5 -84 -30.5z" />
    <glyph glyph-name="Aogonek" unicode="&#x104;" horiz-adv-x="639" 
d="M8 7l307.999 709.998c1.33301 2.66699 3 4 5 4h2c2 0 3.66699 -1.33301 5 -4l300 -705c2.66699 -6 2 -10.333 -2 -13c-2.66699 -1.33301 -6 -3.16602 -10 -5.49902s-11.333 -7.66602 -22 -15.999s-20 -17 -28 -26s-15.333 -20.667 -22 -35s-10 -28.833 -10 -43.5
c0 -26 8.66699 -45.167 26 -57.5s39 -18.5 65 -18.5c26.667 0 49.334 4.66699 68.001 14c4 2 6.66699 1.33301 8 -2l3 -6c2 -3.33301 1 -6 -3 -8c-23.333 -10.667 -48.666 -16 -75.999 -16c-31.333 0 -57.333 7.66699 -78 23s-31 39 -31 71c0 22.667 6.5 44.5 19.5 65.5
s25.667 36.5 38 46.5s24.166 18 35.499 24l-85 201h-409l-90 -209c-1.33301 -2.66699 -3 -3.66699 -5 -3l-9 3c-3.33301 0.666992 -4.33301 2.66699 -3 6zM122.999 226.998h393l-194 458z" />
    <glyph glyph-name="aogonek" unicode="&#x105;" horiz-adv-x="436" 
d="M47 125c0 40 16.1631 72.8311 48.4961 98.498s74.833 38.5 127.5 38.5c36.667 0 76 -7.66699 118 -23v37c0 40.667 -8.16699 70.167 -24.5 88.5s-45.166 27.5 -86.499 27.5c-22.667 0 -44.167 -2.5 -64.5 -7.5s-34.833 -9.83301 -43.5 -14.5l-14 -8
c-3.33301 -2 -6.33301 -1.33301 -9 2l-3 5c-2 3.33301 -1.33301 6 2 8c33.333 22 77.333 33 132 33c48 0 81.5 -10.667 100.5 -32s28.5 -55.333 28.5 -102v-269c0 -3.33301 -1.66699 -6 -5 -8c-2.66699 -1.33301 -6 -3.16602 -10 -5.49902s-11.333 -7.66602 -22 -15.999
s-20 -17 -28 -26s-15.333 -20.667 -22 -35s-10 -28.833 -10 -43.5c0 -26 8.66699 -45.167 26 -57.5s39 -18.5 65 -18.5c26.667 0 49.334 4.66699 68.001 14c4 2 6.66699 1.33301 8 -2l3 -6c2 -3.33301 1 -6 -3 -8c-23.333 -10.667 -48.666 -16 -75.999 -16
c-31.333 0 -57.333 7.66699 -78 23s-31 39 -31 71c0 24 7.33301 47 22 69s27.834 37.333 39.501 46s23.5 16.334 35.5 23.001v41c-47.333 -41.333 -99 -62 -155 -62c-40 0 -73.167 12.167 -99.5 36.5s-39.5 57.166 -39.5 98.499zM64.9961 124.998
c0 -36 11.332 -64.5 33.999 -85.5s51.667 -31.5 87 -31.5c32.667 0 63.5 7.5 92.5 22.5s49.833 30.5 62.5 46.5v144c-53.333 15.333 -92.666 23 -117.999 23c-47.333 0 -85.5 -11.167 -114.5 -33.5s-43.5 -50.833 -43.5 -85.5z" />
    <glyph glyph-name="Cacute" unicode="&#x106;" horiz-adv-x="730" 
d="M61 349c0 100.667 35.333 186.001 106 256.001s156.334 105 257.001 105c88 0 169 -31 243 -93c2.66699 -2.66699 3 -5.33398 1 -8.00098l-5 -6c-2.66699 -2.66699 -5.33398 -2.66699 -8.00098 0c-68.667 59.333 -145.667 89 -231 89
c-95.333 0 -176.666 -33.333 -243.999 -100s-101 -147.667 -101 -243s33.5 -176 100.5 -242s148.5 -99 244.5 -99c86 0 163 31 231 93c3.33301 3.33301 6 3.33301 8 0l5 -6c2.66699 -2 2.66699 -4.33301 0 -7c-68 -65.333 -149.333 -98 -244 -98
c-100.667 0 -186.334 34.833 -257.001 104.5s-106 154.5 -106 254.5zM346 778.001c-4 -1.33301 -7 -0.333008 -9 3l-2 5c-1.33301 2.66699 -0.333008 5 3 7l182 91c4 1.33301 7 0.333008 9 -3l2 -4c2 -4 1 -7 -3 -9z" />
    <glyph glyph-name="cacute" unicode="&#x107;" horiz-adv-x="476" 
d="M50 202c0 59.333 20.834 108.833 62.501 148.5s92.167 59.5 151.5 59.5c28 0 54.833 -4.66699 80.5 -14s44.167 -18.666 55.5 -27.999l17 -13c2.66699 -2.66699 2.66699 -5.33398 0 -8.00098l-4 -4c-3.33301 -3.33301 -6.66602 -3 -9.99902 1
c-4 3.33301 -9.66699 7.66602 -17 12.999s-23 12.5 -47 21.5s-49 13.5 -75 13.5c-54.667 0 -101.167 -18 -139.5 -54s-57.5 -81.333 -57.5 -136c0 -55.333 19.5 -101.5 58.5 -138.5s85.167 -55.5 138.5 -55.5c26.667 0 52.167 5.33301 76.5 16s42.166 21.334 53.499 32.001
l17 15c3.33301 3.33301 6 3.66602 8 0.999023l5 -5c2.66699 -2 3 -4 1 -6l-7.5 -7.5c-3 -3 -9.83301 -8.66699 -20.5 -17s-21.834 -15.666 -33.501 -21.999s-26.5 -12 -44.5 -17s-36.333 -7.5 -55 -7.5c-58 0 -108.167 20.167 -150.5 60.5s-63.5 90.833 -63.5 151.5z
M169.001 560c-4 -1.33301 -7 -0.333008 -9 3l-2 5c-1.33301 2.66699 -0.333008 5 3 7l182 91c4 1.33301 7 0.333008 9 -3l2 -4c2 -4 1 -7 -3 -9z" />
    <glyph glyph-name="Ccircumflex" unicode="&#x108;" horiz-adv-x="730" 
d="M61 349c0 100.667 35.333 186.001 106 256.001s156.334 105 257.001 105c88 0 169 -31 243 -93c2.66699 -2.66699 3 -5.33398 1 -8.00098l-5 -6c-2.66699 -2.66699 -5.33398 -2.66699 -8.00098 0c-68.667 59.333 -145.667 89 -231 89
c-95.333 0 -176.666 -33.333 -243.999 -100s-101 -147.667 -101 -243s33.5 -176 100.5 -242s148.5 -99 244.5 -99c86 0 163 31 231 93c3.33301 3.33301 6 3.33301 8 0l5 -6c2.66699 -2 2.66699 -4.33301 0 -7c-68 -65.333 -149.333 -98 -244 -98
c-100.667 0 -186.334 34.833 -257.001 104.5s-106 154.5 -106 254.5zM301 763.001c-2 -2 -4.33594 -1.66699 -7.00293 1l-4 5c-1.33301 2.66699 -0.666016 5.33398 2.00098 8.00098l129 106c2.66699 2.66699 5.33398 2.66699 8.00098 0l129 -106
c2.66699 -2.66699 3.33398 -5.33398 2.00098 -8.00098l-4 -5c-2.66699 -2.66699 -5 -3 -7 -1l-124 101z" />
    <glyph glyph-name="ccircumflex" unicode="&#x109;" horiz-adv-x="476" 
d="M50 202c0 59.333 20.834 108.833 62.501 148.5s92.167 59.5 151.5 59.5c28 0 54.833 -4.66699 80.5 -14s44.167 -18.666 55.5 -27.999l17 -13c2.66699 -2.66699 2.66699 -5.33398 0 -8.00098l-4 -4c-3.33301 -3.33301 -6.66602 -3 -9.99902 1
c-4 3.33301 -9.66699 7.66602 -17 12.999s-23 12.5 -47 21.5s-49 13.5 -75 13.5c-54.667 0 -101.167 -18 -139.5 -54s-57.5 -81.333 -57.5 -136c0 -55.333 19.5 -101.5 58.5 -138.5s85.167 -55.5 138.5 -55.5c26.667 0 52.167 5.33301 76.5 16s42.166 21.334 53.499 32.001
l17 15c3.33301 3.33301 6 3.66602 8 0.999023l5 -5c2.66699 -2 3 -4 1 -6l-7.5 -7.5c-3 -3 -9.83301 -8.66699 -20.5 -17s-21.834 -15.666 -33.501 -21.999s-26.5 -12 -44.5 -17s-36.333 -7.5 -55 -7.5c-58 0 -108.167 20.167 -150.5 60.5s-63.5 90.833 -63.5 151.5z
M132.001 548c-2 -2 -4.33594 -1.66699 -7.00293 1l-4 5c-1.33301 2.66699 -0.666016 5.33398 2.00098 8.00098l129 106c2.66699 2.66699 5.33398 2.66699 8.00098 0l129 -106c2.66699 -2.66699 3.33398 -5.33398 2.00098 -8.00098l-4 -5c-2.66699 -2.66699 -5 -3 -7 -1
l-124 101z" />
    <glyph glyph-name="Cdotaccent" unicode="&#x10a;" horiz-adv-x="730" 
d="M61 349c0 100.667 35.333 186.001 106 256.001s156.334 105 257.001 105c88 0 169 -31 243 -93c2.66699 -2.66699 3 -5.33398 1 -8.00098l-5 -6c-2.66699 -2.66699 -5.33398 -2.66699 -8.00098 0c-68.667 59.333 -145.667 89 -231 89
c-95.333 0 -176.666 -33.333 -243.999 -100s-101 -147.667 -101 -243s33.5 -176 100.5 -242s148.5 -99 244.5 -99c86 0 163 31 231 93c3.33301 3.33301 6 3.33301 8 0l5 -6c2.66699 -2 2.66699 -4.33301 0 -7c-68 -65.333 -149.333 -98 -244 -98
c-100.667 0 -186.334 34.833 -257.001 104.5s-106 154.5 -106 254.5zM425 825.001c-5.33301 0 -9.83301 1.83105 -13.5 5.49805s-5.5 7.83398 -5.5 12.501c0 5.33301 1.83301 9.83301 5.5 13.5s8.16699 5.5 13.5 5.5c12.667 0 19 -6.33301 19 -19
c0 -5.33301 -1.83301 -9.66602 -5.5 -12.999s-8.16699 -5 -13.5 -5z" />
    <glyph glyph-name="cdotaccent" unicode="&#x10b;" horiz-adv-x="476" 
d="M50 202c0 59.333 20.834 108.833 62.501 148.5s92.167 59.5 151.5 59.5c28 0 54.833 -4.66699 80.5 -14s44.167 -18.666 55.5 -27.999l17 -13c2.66699 -2.66699 2.66699 -5.33398 0 -8.00098l-4 -4c-3.33301 -3.33301 -6.66602 -3 -9.99902 1
c-4 3.33301 -9.66699 7.66602 -17 12.999s-23 12.5 -47 21.5s-49 13.5 -75 13.5c-54.667 0 -101.167 -18 -139.5 -54s-57.5 -81.333 -57.5 -136c0 -55.333 19.5 -101.5 58.5 -138.5s85.167 -55.5 138.5 -55.5c26.667 0 52.167 5.33301 76.5 16s42.166 21.334 53.499 32.001
l17 15c3.33301 3.33301 6 3.66602 8 0.999023l5 -5c2.66699 -2 3 -4 1 -6l-7.5 -7.5c-3 -3 -9.83301 -8.66699 -20.5 -17s-21.834 -15.666 -33.501 -21.999s-26.5 -12 -44.5 -17s-36.333 -7.5 -55 -7.5c-58 0 -108.167 20.167 -150.5 60.5s-63.5 90.833 -63.5 151.5z
M256.001 599c-5.33301 0 -9.83301 1.83105 -13.5 5.49805s-5.5 8.16699 -5.5 13.5c0 4.66699 1.83301 8.83398 5.5 12.501s8.16699 5.5 13.5 5.5s9.83301 -1.66699 13.5 -5s5.5 -7.66602 5.5 -12.999s-1.83301 -9.83301 -5.5 -13.5s-8.16699 -5.5 -13.5 -5.5z" />
    <glyph glyph-name="Ccaron" unicode="&#x10c;" horiz-adv-x="730" 
d="M61 349c0 100.667 35.333 186.001 106 256.001s156.334 105 257.001 105c88 0 169 -31 243 -93c2.66699 -2.66699 3 -5.33398 1 -8.00098l-5 -6c-2.66699 -2.66699 -5.33398 -2.66699 -8.00098 0c-68.667 59.333 -145.667 89 -231 89
c-95.333 0 -176.666 -33.333 -243.999 -100s-101 -147.667 -101 -243s33.5 -176 100.5 -242s148.5 -99 244.5 -99c86 0 163 31 231 93c3.33301 3.33301 6 3.33301 8 0l5 -6c2.66699 -2 2.66699 -4.33301 0 -7c-68 -65.333 -149.333 -98 -244 -98
c-100.667 0 -186.334 34.833 -257.001 104.5s-106 154.5 -106 254.5zM421 771.001l-128.997 106c-2.66699 2.66699 -3.33398 5.33398 -2.00098 8.00098l4 5c2.66699 2.66699 5 3 7 1l124 -101l124 101c2 2 4.33301 1.66699 7 -1l4 -5
c1.33301 -2.66699 0.666016 -5.33398 -2.00098 -8.00098l-129 -106c-2.66699 -2.66699 -5.33398 -2.66699 -8.00098 0z" />
    <glyph glyph-name="ccaron" unicode="&#x10d;" horiz-adv-x="476" 
d="M50 202c0 59.333 20.834 108.833 62.501 148.5s92.167 59.5 151.5 59.5c28 0 54.833 -4.66699 80.5 -14s44.167 -18.666 55.5 -27.999l17 -13c2.66699 -2.66699 2.66699 -5.33398 0 -8.00098l-4 -4c-3.33301 -3.33301 -6.66602 -3 -9.99902 1
c-4 3.33301 -9.66699 7.66602 -17 12.999s-23 12.5 -47 21.5s-49 13.5 -75 13.5c-54.667 0 -101.167 -18 -139.5 -54s-57.5 -81.333 -57.5 -136c0 -55.333 19.5 -101.5 58.5 -138.5s85.167 -55.5 138.5 -55.5c26.667 0 52.167 5.33301 76.5 16s42.166 21.334 53.499 32.001
l17 15c3.33301 3.33301 6 3.66602 8 0.999023l5 -5c2.66699 -2 3 -4 1 -6l-7.5 -7.5c-3 -3 -9.83301 -8.66699 -20.5 -17s-21.834 -15.666 -33.501 -21.999s-26.5 -12 -44.5 -17s-36.333 -7.5 -55 -7.5c-58 0 -108.167 20.167 -150.5 60.5s-63.5 90.833 -63.5 151.5z
M252.001 553l-128.997 106c-2.66699 2.66699 -3.33398 5.33398 -2.00098 8.00098l4 5c2.66699 2.66699 5 3 7 1l124 -101l124 101c2 2 4.33301 1.66699 7 -1l4 -5c1.33301 -2.66699 0.666016 -5.33398 -2.00098 -8.00098l-129 -106
c-2.66699 -2.66699 -5.33398 -2.66699 -8.00098 0z" />
    <glyph glyph-name="Dcaron" unicode="&#x10e;" horiz-adv-x="733" 
d="M112 7v685.999c0 4.66699 2 7 6 7h200c97.333 0 180.5 -34 249.5 -102s103.5 -150.333 103.5 -247c0 -97.333 -34.5 -180.166 -103.5 -248.499s-152.167 -102.5 -249.5 -102.5h-200c-4 -0 -6 2.33301 -6 7zM129 17.999h189c92.667 0 171.834 32.5 237.501 97.5
s98.5 143.5 98.5 235.5c0 91.333 -32.833 169.333 -98.5 234s-144.834 97 -237.501 97h-189v-664zM303 770.999l-128.997 106c-2.66699 2.66699 -3.33398 5.33398 -2.00098 8.00098l4 5c2.66699 2.66699 5 3 7 1l124 -101l124 101c2 2 4.33301 1.66699 7 -1l4 -5
c1.33301 -2.66699 0.666016 -5.33398 -2.00098 -8.00098l-129 -106c-2.66699 -2.66699 -5.33398 -2.66699 -8.00098 0z" />
    <glyph glyph-name="dcaron" unicode="&#x10f;" horiz-adv-x="521" 
d="M52 201c0 60 19.001 109.833 57.001 149.5s86 59.5 144 59.5c25.333 0 49.666 -4.33301 72.999 -13s40.333 -17.667 51 -27l16 -13v336c0 4.66699 2.33301 7 7 7h4c4 0 6 -2.33301 6 -7v-686c0 -4.66699 -2 -7 -6 -7h-4c-4.66699 -0 -7 2.33301 -7 7v48
c-38.667 -43.333 -90 -65 -154 -65c-52.667 0 -97 20.333 -133 61s-54 90.667 -54 150zM69.001 201c0 -54 16.5 -99.668 49.5 -137.001s73.167 -56 120.5 -56c18.667 0 36.667 2.5 54 7.5s31.5 10.667 42.5 17s21.167 13.5 30.5 21.5s15.833 14.167 19.5 18.5
s6.16699 7.83301 7.5 10.5v248c-4 4.66699 -9.5 10.334 -16.5 17.001s-22.667 15.667 -47 27s-49.833 17 -76.5 17c-53.333 0 -97.333 -18 -132 -54s-52 -81.667 -52 -137zM522.001 519.999l-3 6.00098c-2 4 -1 7 3 9s8.83301 4.83301 14.5 8.5s13.334 12.667 23.001 27
s14.5 30.166 14.5 47.499c0 23.333 -4.33301 42.333 -13 57c-6.66699 -6.66699 -13.334 -10 -20.001 -10s-12.167 2.33301 -16.5 7s-6.5 10 -6.5 16s2.16699 11.167 6.5 15.5s9.83301 6.5 16.5 6.5c12.667 0 24.5 -7.66699 35.5 -23s16.5 -38.333 16.5 -69
c0 -20.667 -5.16699 -39.167 -15.5 -55.5s-20.833 -27.833 -31.5 -34.5l-15 -9c-4.66699 -2 -7.66699 -1.66699 -9 1z" />
    <glyph glyph-name="Dcroat" unicode="&#x110;" horiz-adv-x="755" 
d="M114 7v332.999h-40c-4.66699 0 -7 2.33301 -7 7v4c0 4.66699 2.33301 7 7 7h40v335c0 4.66699 2.33301 7 7 7h220c97.333 0 180.5 -34 249.5 -102s103.5 -150.333 103.5 -247c0 -97.333 -34.5 -180.166 -103.5 -248.499s-152.167 -102.5 -249.5 -102.5h-220
c-4.66699 -0 -7 2.33301 -7 7zM132 17.999h209c92 0 170.833 32.5 236.5 97.5s98.5 143.5 98.5 235.5c0 91.333 -32.833 169.333 -98.5 234s-144.5 97 -236.5 97h-209v-324h289c4.66699 0 7 -2.33301 7 -7v-4c0 -4.66699 -2.33301 -7 -7 -7h-289v-322z" />
    <glyph glyph-name="dcroat" unicode="&#x111;" 
d="M52 201c0 60.667 18.5 110.667 55.5 150s84.5 59 142.5 59c25.333 0 50 -4.33301 74 -13s41.333 -17.667 52 -27l17 -13v191h-228c-4.66699 0 -7 2.33301 -7 7v4c0 4.66699 2.33301 7 7 7h228v127c0 4.66699 2.33301 7 7 7h4c4 0 6 -2.33301 6 -7v-127h44
c4.66699 0 7 -2.33301 7 -7v-4c0 -4.66699 -2.33301 -7 -7 -7h-44v-541c0 -4.66699 -2 -7 -6 -7h-4c-4.66699 -0 -7 2.33301 -7 7v52c-40.667 -46 -90.667 -69 -150 -69c-52.667 0 -97.667 20.5 -135 61.5s-56 90.833 -56 149.5zM69 201
c0 -54 17.0029 -99.666 51.0029 -136.999s75 -56 123 -56c18.667 0 36.667 2.66699 54 8s31.166 11.333 41.499 18s20 14.167 29 22.5s15 14.666 18 18.999s5.5 8.16602 7.5 11.499v244c-4 4.66699 -9.83301 10.334 -17.5 17.001s-23.834 15.667 -48.501 27
s-50.334 17 -77.001 17c-53.333 0 -96.833 -18 -130.5 -54s-50.5 -81.667 -50.5 -137z" />
    <glyph glyph-name="Emacron" unicode="&#x112;" horiz-adv-x="610" 
d="M112 7v686c0 4.66699 2.33301 7 7 7h407c4.66699 0 7 -2.33301 7 -7v-4c0 -4.66699 -2.33301 -7 -7 -7h-396v-309h348c4.66699 0 7 -2.33301 7 -7v-4c0 -4.66699 -2.33301 -7 -7 -7h-348v-337h396c4.66699 0 7 -2.33301 7 -7v-4c0 -4.66699 -2.33301 -7 -7 -7h-407
c-4.66699 -0 -7 2.33301 -7 7zM179 842c-4.66699 0 -7 2.33301 -7 7v4c0 4.66699 2.33301 7 7 7h288c4.66699 0 7 -2.33301 7 -7v-4c0 -4.66699 -2.33301 -7 -7 -7h-288z" />
    <glyph glyph-name="emacron" unicode="&#x113;" horiz-adv-x="477" 
d="M71 193c1.33301 -53.333 18.002 -97.501 50.002 -132.501s74.667 -52.5 128 -52.5c55.333 0 100.666 14.333 135.999 43c3.33301 2.66699 6 2.33398 8 -0.999023l4 -6c1.33301 -2 0.666016 -4.33301 -2.00098 -7c-41.333 -31.333 -90 -47 -146 -47
c-59.333 0 -107 20.167 -143 60.5s-54 90.833 -54 151.5c0 59.333 18 108.833 54 148.5s83.667 59.5 143 59.5c53.333 0 97 -17 131 -51s51 -78 51 -132c0 -15.333 -1.33301 -25.333 -4 -30c-1.33301 -2.66699 -3.33301 -4 -6 -4h-350zM71.002 209.999l341 -0.000976562
c0.666992 4 1 9.66699 1 17c0 48.667 -15.5 88.334 -46.5 119.001s-70.167 46 -117.5 46c-52.667 0 -95 -17.167 -127 -51.5s-49 -77.833 -51 -130.5zM102.002 606.998c-4.66699 0 -7 2.33301 -7 7v4c0 4.66699 2.33301 7 7 7h288c4.66699 0 7 -2.33301 7 -7v-4
c0 -4.66699 -2.33301 -7 -7 -7h-288z" />
    <glyph glyph-name="Ebreve" unicode="&#x114;" horiz-adv-x="610" 
d="M112 7v686c0 4.66699 2.33301 7 7 7h407c4.66699 0 7 -2.33301 7 -7v-4c0 -4.66699 -2.33301 -7 -7 -7h-396v-309h348c4.66699 0 7 -2.33301 7 -7v-4c0 -4.66699 -2.33301 -7 -7 -7h-348v-337h396c4.66699 0 7 -2.33301 7 -7v-4c0 -4.66699 -2.33301 -7 -7 -7h-407
c-4.66699 -0 -7 2.33301 -7 7zM323 780c-33.333 0 -61.6699 10.3311 -85.0029 30.998s-37.333 46.334 -42 77.001c-0.666992 1.33301 -0.166992 2.83301 1.5 4.5s3.16699 2.5 4.5 2.5h5c3.33301 0 5 -2 5 -6c4 -26.667 16.333 -48.667 37 -66s45.334 -26 74.001 -26
c28 0 52.333 8.66699 73 26s33.334 39.333 38.001 66c0 4 1.66699 6 5 6h5c1.33301 0 2.83301 -0.833008 4.5 -2.5s2.16699 -3.16699 1.5 -4.5c-5.33301 -31.333 -19.666 -57.166 -42.999 -77.499s-51.333 -30.5 -84 -30.5z" />
    <glyph glyph-name="ebreve" unicode="&#x115;" horiz-adv-x="477" 
d="M71 193c1.33301 -53.333 18.002 -97.501 50.002 -132.501s74.667 -52.5 128 -52.5c55.333 0 100.666 14.333 135.999 43c3.33301 2.66699 6 2.33398 8 -0.999023l4 -6c1.33301 -2 0.666016 -4.33301 -2.00098 -7c-41.333 -31.333 -90 -47 -146 -47
c-59.333 0 -107 20.167 -143 60.5s-54 90.833 -54 151.5c0 59.333 18 108.833 54 148.5s83.667 59.5 143 59.5c53.333 0 97 -17 131 -51s51 -78 51 -132c0 -15.333 -1.33301 -25.333 -4 -30c-1.33301 -2.66699 -3.33301 -4 -6 -4h-350zM71.002 209.999l341 -0.000976562
c0.666992 4 1 9.66699 1 17c0 48.667 -15.5 88.334 -46.5 119.001s-70.167 46 -117.5 46c-52.667 0 -95 -17.167 -127 -51.5s-49 -77.833 -51 -130.5zM246.002 544.998c-32.667 0 -60.835 10.167 -84.502 30.5s-37.834 45.833 -42.501 76.5
c-0.666992 2 -0.166992 3.83301 1.5 5.5s3.16699 2.5 4.5 2.5h5c3.33301 0 5 -2 5 -6c4 -27.333 16.333 -49.666 37 -66.999s45.334 -26 74.001 -26c28 0 52.333 8.66699 73 26s33.334 39.666 38.001 66.999c0 4 1.66699 6 5 6h5c1.33301 0 2.83301 -0.833008 4.5 -2.5
s2.16699 -3.5 1.5 -5.5c-5.33301 -30.667 -19.666 -56.167 -42.999 -76.5s-51.333 -30.5 -84 -30.5z" />
    <glyph glyph-name="Edotaccent" unicode="&#x116;" horiz-adv-x="610" 
d="M112 7v686c0 4.66699 2.33301 7 7 7h407c4.66699 0 7 -2.33301 7 -7v-4c0 -4.66699 -2.33301 -7 -7 -7h-396v-309h348c4.66699 0 7 -2.33301 7 -7v-4c0 -4.66699 -2.33301 -7 -7 -7h-348v-337h396c4.66699 0 7 -2.33301 7 -7v-4c0 -4.66699 -2.33301 -7 -7 -7h-407
c-4.66699 -0 -7 2.33301 -7 7zM322 825c-5.33301 0 -9.83301 1.83105 -13.5 5.49805s-5.5 7.83398 -5.5 12.501c0 5.33301 1.83301 9.83301 5.5 13.5s8.16699 5.5 13.5 5.5c12.667 0 19 -6.33301 19 -19c0 -5.33301 -1.83301 -9.66602 -5.5 -12.999s-8.16699 -5 -13.5 -5z
" />
    <glyph glyph-name="edotaccent" unicode="&#x117;" horiz-adv-x="477" 
d="M71 193c1.33301 -53.333 18.002 -97.501 50.002 -132.501s74.667 -52.5 128 -52.5c55.333 0 100.666 14.333 135.999 43c3.33301 2.66699 6 2.33398 8 -0.999023l4 -6c1.33301 -2 0.666016 -4.33301 -2.00098 -7c-41.333 -31.333 -90 -47 -146 -47
c-59.333 0 -107 20.167 -143 60.5s-54 90.833 -54 151.5c0 59.333 18 108.833 54 148.5s83.667 59.5 143 59.5c53.333 0 97 -17 131 -51s51 -78 51 -132c0 -15.333 -1.33301 -25.333 -4 -30c-1.33301 -2.66699 -3.33301 -4 -6 -4h-350zM71.002 209.999l341 -0.000976562
c0.666992 4 1 9.66699 1 17c0 48.667 -15.5 88.334 -46.5 119.001s-70.167 46 -117.5 46c-52.667 0 -95 -17.167 -127 -51.5s-49 -77.833 -51 -130.5zM245.002 598.998c-4.66699 0 -9 1.83105 -13 5.49805s-6 8.16699 -6 13.5c0 4.66699 1.83301 8.83398 5.5 12.501
s8.16699 5.5 13.5 5.5s9.83301 -1.66699 13.5 -5s5.5 -7.66602 5.5 -12.999s-1.83301 -9.83301 -5.5 -13.5s-8.16699 -5.5 -13.5 -5.5z" />
    <glyph glyph-name="Eogonek" unicode="&#x118;" horiz-adv-x="610" 
d="M112 7l-0.00195312 685.996c0 4.66699 2.33301 7 7 7h407c4.66699 0 7 -2.33301 7 -7v-4c0 -4.66699 -2.33301 -7 -7 -7h-396v-309h348c4.66699 0 7 -2.33301 7 -7v-4c0 -4.66699 -2.33301 -7 -7 -7h-348v-337h396c4.66699 0 7 -2.33301 7 -7v-4
c0 -3.33301 -1.33301 -5.66602 -4 -6.99902s-6 -3.16602 -10 -5.49902s-11.5 -7.66602 -22.5 -15.999s-20.667 -17 -29 -26s-15.833 -20.667 -22.5 -35s-10 -29.166 -10 -44.499c0 -26 8.66699 -45.167 26 -57.5s39 -18.5 65 -18.5c26.667 0 49.334 4.66699 68.001 14
c4 2 6.66699 1.33301 8 -2l3 -6c2 -3.33301 1 -6 -3 -8c-23.333 -10.667 -48.666 -16 -75.999 -16c-31.333 0 -57.333 7.66699 -78 23s-31 39 -31 71c0 48 26 90.333 78 127h-376c-4.66699 -0 -7 2.33301 -7 7z" />
    <glyph glyph-name="eogonek" unicode="&#x119;" horiz-adv-x="479" 
d="M72 193c1.33301 -53.333 18.001 -97.501 50.001 -132.501s74.667 -52.5 128 -52.5c55.333 0 100.666 14.333 135.999 43c3.33301 2.66699 6 2.33398 8 -0.999023l4 -6c1.33301 -2 0.666016 -4.33301 -2.00098 -7c-32.667 -25.333 -73.334 -40.666 -122.001 -45.999
c-4.66699 -2 -10.667 -5.83301 -18 -11.5s-17 -13.834 -29 -24.501s-22 -24.167 -30 -40.5s-12 -33.5 -12 -51.5c0 -26 8.66699 -45.167 26 -57.5s39 -18.5 65 -18.5c26.667 0 49.334 4.66699 68.001 14c4 2 6.66699 1.33301 8 -2l3 -6c2 -3.33301 1 -6 -3 -8
c-23.333 -10.667 -48.666 -16 -75.999 -16c-31.333 0 -57.333 7.66699 -78 23s-31 39 -31 71c0 48 26 90.333 78 127c-58 1.33301 -104.5 22 -139.5 62s-52.5 90 -52.5 150c0 59.333 18 108.833 54 148.5s83.667 59.5 143 59.5c53.333 0 97 -17 131 -51s51 -78 51 -132
c0 -15.333 -1.33301 -25.333 -4 -30c-1.33301 -2.66699 -3.33301 -4 -6 -4h-350zM72.001 209.999l341 -0.000976562c0.666992 4 1 9.66699 1 17c0 48.667 -15.5 88.334 -46.5 119.001s-70.167 46 -117.5 46c-52.667 0 -95 -17.167 -127 -51.5s-49 -77.833 -51 -130.5z" />
    <glyph glyph-name="Ecaron" unicode="&#x11a;" horiz-adv-x="610" 
d="M112 7v686c0 4.66699 2.33301 7 7 7h407c4.66699 0 7 -2.33301 7 -7v-4c0 -4.66699 -2.33301 -7 -7 -7h-396v-309h348c4.66699 0 7 -2.33301 7 -7v-4c0 -4.66699 -2.33301 -7 -7 -7h-348v-337h396c4.66699 0 7 -2.33301 7 -7v-4c0 -4.66699 -2.33301 -7 -7 -7h-407
c-4.66699 -0 -7 2.33301 -7 7zM318 771l-128.997 106c-2.66699 2.66699 -3.33398 5.33398 -2.00098 8.00098l4 5c2.66699 2.66699 5 3 7 1l124 -101l124 101c2 2 4.33301 1.66699 7 -1l4 -5c1.33301 -2.66699 0.666016 -5.33398 -2.00098 -8.00098l-129 -106
c-2.66699 -2.66699 -5.33398 -2.66699 -8.00098 0z" />
    <glyph glyph-name="ecaron" unicode="&#x11b;" horiz-adv-x="477" 
d="M71 193c1.33301 -53.333 18.002 -97.501 50.002 -132.501s74.667 -52.5 128 -52.5c55.333 0 100.666 14.333 135.999 43c3.33301 2.66699 6 2.33398 8 -0.999023l4 -6c1.33301 -2 0.666016 -4.33301 -2.00098 -7c-41.333 -31.333 -90 -47 -146 -47
c-59.333 0 -107 20.167 -143 60.5s-54 90.833 -54 151.5c0 59.333 18 108.833 54 148.5s83.667 59.5 143 59.5c53.333 0 97 -17 131 -51s51 -78 51 -132c0 -15.333 -1.33301 -25.333 -4 -30c-1.33301 -2.66699 -3.33301 -4 -6 -4h-350zM71.002 209.999l341 -0.000976562
c0.666992 4 1 9.66699 1 17c0 48.667 -15.5 88.334 -46.5 119.001s-70.167 46 -117.5 46c-52.667 0 -95 -17.167 -127 -51.5s-49 -77.833 -51 -130.5zM241.002 552.998l-128.997 106c-2.66699 2.66699 -3.33398 5.33398 -2.00098 8.00098l4 5c2.66699 2.66699 5 3 7 1
l124 -101l124 101c2 2 4.33301 1.66699 7 -1l4 -5c1.33301 -2.66699 0.666016 -5.33398 -2.00098 -8.00098l-129 -106c-2.66699 -2.66699 -5.33398 -2.66699 -8.00098 0z" />
    <glyph glyph-name="Gcircumflex" unicode="&#x11c;" horiz-adv-x="755" 
d="M61 349c0 100.667 35.3311 186 105.998 256s156.334 105 257.001 105c88 0 169 -31 243 -93c2.66699 -2.66699 3 -5.33398 1 -8.00098l-5 -6c-2.66699 -2.66699 -5.33398 -2.66699 -8.00098 0c-68.667 59.333 -145.667 89 -231 89
c-95.333 0 -176.666 -33.333 -243.999 -100s-101 -147.667 -101 -243s33.5 -176 100.5 -242s148.5 -99 244.5 -99c40.667 0 79.167 4.83301 115.5 14.5s62.833 19.167 79.5 28.5s30 18 40 26v235h-227c-4.66699 0 -7 2.33301 -7 7v4c0 4 2.33301 6 7 6h238
c4.66699 0 7 -2 7 -6v-253c-4 -6 -14.667 -14.667 -32 -26s-46.666 -23.166 -87.999 -35.499s-85.666 -18.5 -132.999 -18.5c-100.667 0 -186.334 34.833 -257.001 104.5s-106 154.5 -106 254.5zM299.998 763c-2 -2 -4.33594 -1.66699 -7.00293 1l-4 5
c-1.33301 2.66699 -0.666016 5.33398 2.00098 8.00098l129 106c2.66699 2.66699 5.33398 2.66699 8.00098 0l129 -106c2.66699 -2.66699 3.33398 -5.33398 2.00098 -8.00098l-4 -5c-2.66699 -2.66699 -5 -3 -7 -1l-124 101z" />
    <glyph glyph-name="gcircumflex" unicode="&#x11d;" horiz-adv-x="464" 
d="M40 50c0 44 21.332 76.665 63.999 97.998c-20 26.667 -30 60.334 -30 101.001c0 45.333 15.167 83.5 45.5 114.5s70.5 46.5 120.5 46.5h31h1h143c4.66699 0 7 -2.33301 7 -7v-4c0 -4.66699 -2.33301 -7 -7 -7h-91c53.333 -28 80 -75.667 80 -143
c0 -44.667 -15.167 -82.834 -45.5 -114.501s-69.833 -47.5 -118.5 -47.5c-53.333 0 -94.666 15.667 -123.999 47c-38.667 -18 -58 -46 -58 -84c0 -20.667 6.66699 -37.167 20 -49.5s28.666 -18.5 45.999 -18.5h184c97.333 0 146 -42.667 146 -128
c0 -44.667 -18.833 -83.167 -56.5 -115.5s-86.167 -48.5 -145.5 -48.5c-63.333 0 -112.166 16.5 -146.499 49.5s-51.5 69.167 -51.5 108.5c0 49.333 22.667 88.333 68 117c-21.333 0.666992 -40.333 8.83398 -57 24.501s-25 35.834 -25 60.501zM239.999 104.998
c43.333 0 78.499 13.998 105.499 41.998s40.5 62 40.5 102c0 25.333 -4 47.5 -12 66.5s-17.667 33.167 -29 42.5s-22.666 16.833 -33.999 22.5s-21 8.83398 -29 9.50098l-12 2h-30c-44.667 0 -80.5 -13.833 -107.5 -41.5s-40.5 -61.5 -40.5 -101.5
c0 -41.333 12.167 -75.666 36.5 -102.999s61.5 -41 111.5 -41zM71.998 -152.004c0 -35.333 15.5 -67.5 46.5 -96.5s75.5 -43.5 133.5 -43.5c55.333 0 99.833 14.333 133.5 43s50.5 63 50.5 103c0 74 -42.667 111 -128 111h-142c-16 -2 -35.667 -13.5 -59 -34.5
s-35 -48.5 -35 -82.5zM130.998 547.996c-2 -2 -4.33594 -1.66699 -7.00293 1l-4 5c-1.33301 2.66699 -0.666016 5.33398 2.00098 8.00098l129 106c2.66699 2.66699 5.33398 2.66699 8.00098 0l129 -106c2.66699 -2.66699 3.33398 -5.33398 2.00098 -8.00098l-4 -5
c-2.66699 -2.66699 -5 -3 -7 -1l-124 101z" />
    <glyph glyph-name="Gbreve" unicode="&#x11e;" horiz-adv-x="755" 
d="M61 349c0 100.667 35.3311 186 105.998 256s156.334 105 257.001 105c88 0 169 -31 243 -93c2.66699 -2.66699 3 -5.33398 1 -8.00098l-5 -6c-2.66699 -2.66699 -5.33398 -2.66699 -8.00098 0c-68.667 59.333 -145.667 89 -231 89
c-95.333 0 -176.666 -33.333 -243.999 -100s-101 -147.667 -101 -243s33.5 -176 100.5 -242s148.5 -99 244.5 -99c40.667 0 79.167 4.83301 115.5 14.5s62.833 19.167 79.5 28.5s30 18 40 26v235h-227c-4.66699 0 -7 2.33301 -7 7v4c0 4 2.33301 6 7 6h238
c4.66699 0 7 -2 7 -6v-253c-4 -6 -14.667 -14.667 -32 -26s-46.666 -23.166 -87.999 -35.499s-85.666 -18.5 -132.999 -18.5c-100.667 0 -186.334 34.833 -257.001 104.5s-106 154.5 -106 254.5zM424.998 780c-33.333 0 -61.6699 10.3311 -85.0029 30.998
s-37.333 46.334 -42 77.001c-0.666992 1.33301 -0.166992 2.83301 1.5 4.5s3.16699 2.5 4.5 2.5h5c3.33301 0 5 -2 5 -6c4 -26.667 16.333 -48.667 37 -66s45.334 -26 74.001 -26c28 0 52.333 8.66699 73 26s33.334 39.333 38.001 66c0 4 1.66699 6 5 6h5
c1.33301 0 2.83301 -0.833008 4.5 -2.5s2.16699 -3.16699 1.5 -4.5c-5.33301 -31.333 -19.666 -57.166 -42.999 -77.499s-51.333 -30.5 -84 -30.5z" />
    <glyph glyph-name="gbreve" unicode="&#x11f;" horiz-adv-x="464" 
d="M40 50c0 44 21.332 76.665 63.999 97.998c-20 26.667 -30 60.334 -30 101.001c0 45.333 15.167 83.5 45.5 114.5s70.5 46.5 120.5 46.5h31h1h143c4.66699 0 7 -2.33301 7 -7v-4c0 -4.66699 -2.33301 -7 -7 -7h-91c53.333 -28 80 -75.667 80 -143
c0 -44.667 -15.167 -82.834 -45.5 -114.501s-69.833 -47.5 -118.5 -47.5c-53.333 0 -94.666 15.667 -123.999 47c-38.667 -18 -58 -46 -58 -84c0 -20.667 6.66699 -37.167 20 -49.5s28.666 -18.5 45.999 -18.5h184c97.333 0 146 -42.667 146 -128
c0 -44.667 -18.833 -83.167 -56.5 -115.5s-86.167 -48.5 -145.5 -48.5c-63.333 0 -112.166 16.5 -146.499 49.5s-51.5 69.167 -51.5 108.5c0 49.333 22.667 88.333 68 117c-21.333 0.666992 -40.333 8.83398 -57 24.501s-25 35.834 -25 60.501zM239.999 104.998
c43.333 0 78.499 13.998 105.499 41.998s40.5 62 40.5 102c0 25.333 -4 47.5 -12 66.5s-17.667 33.167 -29 42.5s-22.666 16.833 -33.999 22.5s-21 8.83398 -29 9.50098l-12 2h-30c-44.667 0 -80.5 -13.833 -107.5 -41.5s-40.5 -61.5 -40.5 -101.5
c0 -41.333 12.167 -75.666 36.5 -102.999s61.5 -41 111.5 -41zM71.998 -152.004c0 -35.333 15.5 -67.5 46.5 -96.5s75.5 -43.5 133.5 -43.5c55.333 0 99.833 14.333 133.5 43s50.5 63 50.5 103c0 74 -42.667 111 -128 111h-142c-16 -2 -35.667 -13.5 -59 -34.5
s-35 -48.5 -35 -82.5zM255.998 544.996c-32.667 0 -60.835 10.167 -84.502 30.5s-37.834 45.833 -42.501 76.5c-0.666992 2 -0.166992 3.83301 1.5 5.5s3.16699 2.5 4.5 2.5h5c3.33301 0 5 -2 5 -6c4 -27.333 16.333 -49.666 37 -66.999s45.334 -26 74.001 -26
c28 0 52.333 8.66699 73 26s33.334 39.666 38.001 66.999c0 4 1.66699 6 5 6h5c1.33301 0 2.83301 -0.833008 4.5 -2.5s2.16699 -3.5 1.5 -5.5c-5.33301 -30.667 -19.666 -56.167 -42.999 -76.5s-51.333 -30.5 -84 -30.5z" />
    <glyph glyph-name="Gdotaccent" unicode="&#x120;" horiz-adv-x="755" 
d="M61 349c0 100.667 35.3311 186 105.998 256s156.334 105 257.001 105c88 0 169 -31 243 -93c2.66699 -2.66699 3 -5.33398 1 -8.00098l-5 -6c-2.66699 -2.66699 -5.33398 -2.66699 -8.00098 0c-68.667 59.333 -145.667 89 -231 89
c-95.333 0 -176.666 -33.333 -243.999 -100s-101 -147.667 -101 -243s33.5 -176 100.5 -242s148.5 -99 244.5 -99c40.667 0 79.167 4.83301 115.5 14.5s62.833 19.167 79.5 28.5s30 18 40 26v235h-227c-4.66699 0 -7 2.33301 -7 7v4c0 4 2.33301 6 7 6h238
c4.66699 0 7 -2 7 -6v-253c-4 -6 -14.667 -14.667 -32 -26s-46.666 -23.166 -87.999 -35.499s-85.666 -18.5 -132.999 -18.5c-100.667 0 -186.334 34.833 -257.001 104.5s-106 154.5 -106 254.5zM423.998 825c-5.33301 0 -9.83301 1.83105 -13.5 5.49805
s-5.5 7.83398 -5.5 12.501c0 5.33301 1.83301 9.83301 5.5 13.5s8.16699 5.5 13.5 5.5c12.667 0 19 -6.33301 19 -19c0 -5.33301 -1.83301 -9.66602 -5.5 -12.999s-8.16699 -5 -13.5 -5z" />
    <glyph glyph-name="gdotaccent" unicode="&#x121;" horiz-adv-x="464" 
d="M40 50c0 44 21.332 76.665 63.999 97.998c-20 26.667 -30 60.334 -30 101.001c0 45.333 15.167 83.5 45.5 114.5s70.5 46.5 120.5 46.5h31h1h143c4.66699 0 7 -2.33301 7 -7v-4c0 -4.66699 -2.33301 -7 -7 -7h-91c53.333 -28 80 -75.667 80 -143
c0 -44.667 -15.167 -82.834 -45.5 -114.501s-69.833 -47.5 -118.5 -47.5c-53.333 0 -94.666 15.667 -123.999 47c-38.667 -18 -58 -46 -58 -84c0 -20.667 6.66699 -37.167 20 -49.5s28.666 -18.5 45.999 -18.5h184c97.333 0 146 -42.667 146 -128
c0 -44.667 -18.833 -83.167 -56.5 -115.5s-86.167 -48.5 -145.5 -48.5c-63.333 0 -112.166 16.5 -146.499 49.5s-51.5 69.167 -51.5 108.5c0 49.333 22.667 88.333 68 117c-21.333 0.666992 -40.333 8.83398 -57 24.501s-25 35.834 -25 60.501zM239.999 104.998
c43.333 0 78.499 13.998 105.499 41.998s40.5 62 40.5 102c0 25.333 -4 47.5 -12 66.5s-17.667 33.167 -29 42.5s-22.666 16.833 -33.999 22.5s-21 8.83398 -29 9.50098l-12 2h-30c-44.667 0 -80.5 -13.833 -107.5 -41.5s-40.5 -61.5 -40.5 -101.5
c0 -41.333 12.167 -75.666 36.5 -102.999s61.5 -41 111.5 -41zM71.998 -152.004c0 -35.333 15.5 -67.5 46.5 -96.5s75.5 -43.5 133.5 -43.5c55.333 0 99.833 14.333 133.5 43s50.5 63 50.5 103c0 74 -42.667 111 -128 111h-142c-16 -2 -35.667 -13.5 -59 -34.5
s-35 -48.5 -35 -82.5zM254.998 598.996c-4.66699 0 -9 1.83105 -13 5.49805s-6 8.16699 -6 13.5c0 4.66699 1.83301 8.83398 5.5 12.501s8.16699 5.5 13.5 5.5s9.83301 -1.66699 13.5 -5s5.5 -7.66602 5.5 -12.999s-1.83301 -9.83301 -5.5 -13.5s-8.16699 -5.5 -13.5 -5.5z
" />
    <glyph glyph-name="Gcommaaccent" unicode="&#x122;" horiz-adv-x="755" 
d="M61 349c0 100.667 35.3311 186 105.998 256s156.334 105 257.001 105c88 0 169 -31 243 -93c2.66699 -2.66699 3 -5.33398 1 -8.00098l-5 -6c-2.66699 -2.66699 -5.33398 -2.66699 -8.00098 0c-68.667 59.333 -145.667 89 -231 89
c-95.333 0 -176.666 -33.333 -243.999 -100s-101 -147.667 -101 -243s33.5 -176 100.5 -242s148.5 -99 244.5 -99c40.667 0 79.167 4.83301 115.5 14.5s62.833 19.167 79.5 28.5s30 18 40 26v235h-227c-4.66699 0 -7 2.33301 -7 7v4c0 4 2.33301 6 7 6h238
c4.66699 0 7 -2 7 -6v-253c-4 -6 -14.667 -14.667 -32 -26s-46.666 -23.166 -87.999 -35.499s-85.666 -18.5 -132.999 -18.5c-100.667 0 -186.334 34.833 -257.001 104.5s-106 154.5 -106 254.5zM395.998 -133c0 6 2.16699 11.168 6.5 15.501s9.83301 6.5 16.5 6.5
c12.667 0 24.5 -7.66699 35.5 -23s16.5 -38.333 16.5 -69c0 -20.667 -5.16699 -39.167 -15.5 -55.5s-20.833 -27.5 -31.5 -33.5l-15 -10c-4.66699 -2 -7.66699 -1.66699 -9 1l-3 6c-2 4.66699 -1 7.66699 3 9c4 2 8.83301 4.83301 14.5 8.5s13.334 12.667 23.001 27
s14.5 30.166 14.5 47.499c0 23.333 -4.33301 42.333 -13 57c-6.66699 -6.66699 -13.334 -10 -20.001 -10s-12.167 2.33301 -16.5 7s-6.5 10 -6.5 16z" />
    <glyph glyph-name="gcommaaccent" unicode="&#x123;" horiz-adv-x="464" 
d="M263 545c-12.667 0 -24.5 7.66602 -35.5 22.999s-16.5 38.333 -16.5 69c0 20.667 5.16699 39.167 15.5 55.5s20.833 27.5 31.5 33.5l15 10c4.66699 2 7.66699 1.66699 9 -1l3 -6c2 -4.66699 1 -7.66699 -3 -9c-4 -2 -8.83301 -4.83301 -14.5 -8.5
s-13.334 -12.667 -23.001 -27s-14.5 -30.166 -14.5 -47.499c0 -23.333 4.33301 -42.333 13 -57c6.66699 6.66699 13.334 10 20.001 10s12.167 -2.33301 16.5 -7s6.5 -10 6.5 -16s-2.16699 -11.167 -6.5 -15.5s-9.83301 -6.5 -16.5 -6.5zM40 49.999
c0 44 21.332 76.665 63.999 97.998c-20 26.667 -30 60.334 -30 101.001c0 45.333 15.167 83.5 45.5 114.5s70.5 46.5 120.5 46.5h31h1h143c4.66699 0 7 -2.33301 7 -7v-4c0 -4.66699 -2.33301 -7 -7 -7h-91c53.333 -28 80 -75.667 80 -143
c0 -44.667 -15.167 -82.834 -45.5 -114.501s-69.833 -47.5 -118.5 -47.5c-53.333 0 -94.666 15.667 -123.999 47c-38.667 -18 -58 -46 -58 -84c0 -20.667 6.66699 -37.167 20 -49.5s28.666 -18.5 45.999 -18.5h184c97.333 0 146 -42.667 146 -128
c0 -44.667 -18.833 -83.167 -56.5 -115.5s-86.167 -48.5 -145.5 -48.5c-63.333 0 -112.166 16.5 -146.499 49.5s-51.5 69.167 -51.5 108.5c0 49.333 22.667 88.333 68 117c-21.333 0.666992 -40.333 8.83398 -57 24.501s-25 35.834 -25 60.501zM239.999 104.997
c43.333 0 78.499 13.998 105.499 41.998s40.5 62 40.5 102c0 25.333 -4 47.5 -12 66.5s-17.667 33.167 -29 42.5s-22.666 16.833 -33.999 22.5s-21 8.83398 -29 9.50098l-12 2h-30c-44.667 0 -80.5 -13.833 -107.5 -41.5s-40.5 -61.5 -40.5 -101.5
c0 -41.333 12.167 -75.666 36.5 -102.999s61.5 -41 111.5 -41zM71.998 -152.005c0 -35.333 15.5 -67.5 46.5 -96.5s75.5 -43.5 133.5 -43.5c55.333 0 99.833 14.333 133.5 43s50.5 63 50.5 103c0 74 -42.667 111 -128 111h-142c-16 -2 -35.667 -13.5 -59 -34.5
s-35 -48.5 -35 -82.5z" />
    <glyph glyph-name="Hcircumflex" unicode="&#x124;" horiz-adv-x="752" 
d="M112 7v686c0 4.66699 2.33301 7 7 7h4c4.66699 0 7 -2.33301 7 -7v-320h492v320c0 4.66699 2.33301 7 7 7h4c4.66699 0 7 -2.33301 7 -7v-686c0 -4.66699 -2.33301 -7 -7 -7h-4c-4.66699 -0 -7 2.33301 -7 7v348h-492v-348c0 -4.66699 -2.33301 -7 -7 -7h-4
c-4.66699 -0 -7 2.33301 -7 7zM251 763c-2 -2 -4.33594 -1.66699 -7.00293 1l-4 5c-1.33301 2.66699 -0.666016 5.33398 2.00098 8.00098l129 106c2.66699 2.66699 5.33398 2.66699 8.00098 0l129 -106c2.66699 -2.66699 3.33398 -5.33398 2.00098 -8.00098l-4 -5
c-2.66699 -2.66699 -5 -3 -7 -1l-124 101z" />
    <glyph glyph-name="hcircumflex" unicode="&#x125;" horiz-adv-x="496" 
d="M81 7l0.000976562 685.999c0 4.66699 2.33301 7 7 7h4c4.66699 0 7 -2.33301 7 -7v-358c46 50 98 75 156 75c54 0 95.167 -15.833 123.5 -47.5s42.5 -77.834 42.5 -138.501v-217c0 -4.66699 -2.33301 -7 -7 -7h-4c-4.66699 0 -7 2.33301 -7 7v217
c0 54.667 -12.667 96.334 -38 125.001s-62 43 -110 43c-20.667 0 -40.667 -3.66699 -60 -11s-35.833 -16.666 -49.5 -27.999s-23.834 -20.5 -30.501 -27.5s-12 -13.167 -16 -18.5v-300c0 -4.66699 -2.33301 -7 -7 -7h-4c-4.66699 -0 -7 2.33301 -7 7zM-33.999 764.999
c-2 -2 -4.33594 -1.66699 -7.00293 1l-4 5c-1.33301 2.66699 -0.666016 5.33398 2.00098 8.00098l129 106c2.66699 2.66699 5.33398 2.66699 8.00098 0l129 -106c2.66699 -2.66699 3.33398 -5.33398 2.00098 -8.00098l-4 -5c-2.66699 -2.66699 -5 -3 -7 -1l-124 101z" />
    <glyph glyph-name="Hbar" unicode="&#x126;" horiz-adv-x="752" 
d="M112 7v541h-29c-4.66699 0 -7 2.33301 -7 7v4c0 4.66699 2.33301 7 7 7h29v127c0 4.66699 2.33301 7 7 7h4c4.66699 0 7 -2.33301 7 -7v-127h492v127c0 4.66699 2.33301 7 7 7h4c4.66699 0 7 -2.33301 7 -7v-127h32c4.66699 0 7 -2.33301 7 -7v-4
c0 -4.66699 -2.33301 -7 -7 -7h-32v-541c0 -4.66699 -2.33301 -7 -7 -7h-4c-4.66699 -0 -7 2.33301 -7 7v348h-492v-348c0 -4.66699 -2.33301 -7 -7 -7h-4c-4.66699 -0 -7 2.33301 -7 7zM130 373h492v175h-492v-175z" />
    <glyph glyph-name="hbar" unicode="&#x127;" horiz-adv-x="505" 
d="M81 7l0.00292969 540.999h-44c-4.66699 0 -7 2.33301 -7 7v4c0 4.66699 2.33301 7 7 7h44v127c0 4.66699 2.33301 7 7 7h4c4.66699 0 7 -2.33301 7 -7v-127h227c4.66699 0 7 -2.33301 7 -7v-4c0 -4.66699 -2.33301 -7 -7 -7h-227v-213c44.667 50 96.667 75 156 75
c54 0 96.667 -16.167 128 -48.5s47 -78.166 47 -137.499v-217c0 -4.66699 -2.33301 -7 -7 -7h-4c-4.66699 -0 -7 2.33301 -7 7v217c0 54 -13.833 95.5 -41.5 124.5s-66.167 43.5 -115.5 43.5c-26.667 0 -52.834 -6.83301 -78.501 -20.5s-43.834 -26 -54.501 -37
s-18.334 -20.167 -23.001 -27.5v-300c0 -4.66699 -2.33301 -7 -7 -7h-4c-4.66699 -0 -7 2.33301 -7 7z" />
    <glyph glyph-name="Itilde" unicode="&#x128;" horiz-adv-x="242" 
d="M112 7v686c0 4.66699 2.33301 7 7 7h4c4.66699 0 7 -2.33301 7 -7v-686c0 -4.66699 -2.33301 -7 -7 -7h-4c-4.66699 -0 -7 2.33301 -7 7zM-16 802l-7.99805 1.99902c-4 1.33301 -5 4.33301 -3 9c18 56 46.667 84 86 84c10.667 0 20 -1.83301 28 -5.5
s14.667 -9.33398 20 -17.001s9.16602 -13.667 11.499 -18s5.5 -11.166 9.5 -20.499c12.667 -30.667 30.334 -46 53.001 -46c31.333 0 54 24 68 72c1.33301 4.66699 3.66602 6.33398 6.99902 5.00098l8 -2c4 -0.666992 5 -3.66699 3 -9c-18.667 -56 -47.334 -84 -86.001 -84
c-30.667 0 -54.334 20 -71.001 60c-4 9.33301 -7.16699 16.333 -9.5 21s-7.33301 10.334 -15 17.001s-16.5 10 -26.5 10c-31.333 0 -54 -24.333 -68 -73c-1.33301 -4.66699 -3.66602 -6.33398 -6.99902 -5.00098z" />
    <glyph glyph-name="itilde" unicode="&#x129;" horiz-adv-x="180" 
d="M81 7v386c0 4.66699 2.33301 7 7 7h4c4.66699 0 7 -2.33301 7 -7v-386c0 -4.66699 -2.33301 -7 -7 -7h-4c-4.66699 -0 -7 2.33301 -7 7zM-46 583l-7.99805 1.99902c-4 0.666992 -5 3.66699 -3 9c18 56 46.667 84 86 84c10.667 0 20 -1.83301 28 -5.5
s14.667 -9.33398 20 -17.001s9.16602 -13.667 11.499 -18s5.5 -11.166 9.5 -20.499c12.667 -30.667 30.334 -46 53.001 -46c31.333 0 54 24 68 72c1.33301 4.66699 3.66602 6.33398 6.99902 5.00098l8 -2c4 -1.33301 5 -4.33301 3 -9c-18.667 -56 -47.334 -84 -86.001 -84
c-30.667 0 -54.334 20 -71.001 60c-4 9.33301 -7.16699 16.333 -9.5 21s-7.33301 10.334 -15 17.001s-16.5 10 -26.5 10c-31.333 0 -54 -24.333 -68 -73c-1.33301 -4.66699 -3.66602 -6.33398 -6.99902 -5.00098z" />
    <glyph glyph-name="Imacron" unicode="&#x12a;" horiz-adv-x="242" 
d="M112 7v686c0 4.66699 2.33301 7 7 7h4c4.66699 0 7 -2.33301 7 -7v-686c0 -4.66699 -2.33301 -7 -7 -7h-4c-4.66699 -0 -7 2.33301 -7 7zM-24 842c-4.66699 0 -7 2.33301 -7 7v4c0 4.66699 2.33301 7 7 7h288c4.66699 0 7 -2.33301 7 -7v-4c0 -4.66699 -2.33301 -7 -7 -7
h-288z" />
    <glyph glyph-name="imacron" unicode="&#x12b;" horiz-adv-x="180" 
d="M81 7v386c0 4.66699 2.33301 7 7 7h4c4.66699 0 7 -2.33301 7 -7v-386c0 -4.66699 -2.33301 -7 -7 -7h-4c-4.66699 -0 -7 2.33301 -7 7zM-54 607c-4.66699 0 -7 2.33301 -7 7v4c0 4.66699 2.33301 7 7 7h288c4.66699 0 7 -2.33301 7 -7v-4c0 -4.66699 -2.33301 -7 -7 -7
h-288z" />
    <glyph glyph-name="Ibreve" unicode="&#x12c;" horiz-adv-x="242" 
d="M112 7v686c0 4.66699 2.33301 7 7 7h4c4.66699 0 7 -2.33301 7 -7v-686c0 -4.66699 -2.33301 -7 -7 -7h-4c-4.66699 -0 -7 2.33301 -7 7zM120 780c-33.333 0 -61.6699 10.3311 -85.0029 30.998s-37.333 46.334 -42 77.001c-0.666992 1.33301 -0.166992 2.83301 1.5 4.5
s3.16699 2.5 4.5 2.5h5c3.33301 0 5 -2 5 -6c4 -26.667 16.333 -48.667 37 -66s45.334 -26 74.001 -26c28 0 52.333 8.66699 73 26s33.334 39.333 38.001 66c0 4 1.66699 6 5 6h5c1.33301 0 2.83301 -0.833008 4.5 -2.5s2.16699 -3.16699 1.5 -4.5
c-5.33301 -31.333 -19.666 -57.166 -42.999 -77.499s-51.333 -30.5 -84 -30.5z" />
    <glyph glyph-name="ibreve" unicode="&#x12d;" horiz-adv-x="180" 
d="M81 7v386c0 4.66699 2.33301 7 7 7h4c4.66699 0 7 -2.33301 7 -7v-386c0 -4.66699 -2.33301 -7 -7 -7h-4c-4.66699 -0 -7 2.33301 -7 7zM90 545c-32.667 0 -60.835 10.167 -84.502 30.5s-37.834 45.833 -42.501 76.5c-0.666992 2 -0.166992 3.83301 1.5 5.5
s3.16699 2.5 4.5 2.5h5c3.33301 0 5 -2 5 -6c4 -27.333 16.333 -49.666 37 -66.999s45.334 -26 74.001 -26c28 0 52.333 8.66699 73 26s33.334 39.666 38.001 66.999c0 4 1.66699 6 5 6h5c1.33301 0 2.83301 -0.833008 4.5 -2.5s2.16699 -3.5 1.5 -5.5
c-5.33301 -30.667 -19.666 -56.167 -42.999 -76.5s-51.333 -30.5 -84 -30.5z" />
    <glyph glyph-name="Iogonek" unicode="&#x12e;" horiz-adv-x="243" 
d="M113 11l-0.00195312 681.997c0 4.66699 2.33301 7 7 7h4c4.66699 0 7 -2.33301 7 -7v-682c0 -6.66699 -1.33301 -10.667 -4 -12s-6 -3.16602 -10 -5.49902s-11.333 -7.66602 -22 -15.999s-20 -17 -28 -26s-15.333 -20.667 -22 -35s-10 -28.833 -10 -43.5
c0 -26 8.66699 -45.167 26 -57.5s39 -18.5 65 -18.5c26.667 0 49.334 4.66699 68.001 14c4 2 6.66699 1.33301 8 -2l3 -6c2 -3.33301 1 -6 -3 -8c-23.333 -10.667 -48.666 -16 -75.999 -16c-31.333 0 -57.333 7.66699 -78 23s-31 39 -31 71c0 18 3.83301 35.333 11.5 52
s17.5 30.834 29.5 42.501s22.167 20.667 30.5 27s16.5 11.833 24.5 16.5z" />
    <glyph glyph-name="iogonek" unicode="&#x12f;" horiz-adv-x="180" 
d="M-13 -127c0 23.333 6.66699 45.498 20 66.498s26.166 36.5 38.499 46.5s24.166 18 35.499 24v383c0 4.66699 2.33301 7 7 7h4c4.66699 0 7 -2.33301 7 -7v-388c0 -2.66699 -1.33301 -4.66699 -4 -6s-6 -3.16602 -10 -5.49902s-11.167 -7.66602 -21.5 -15.999
s-19.5 -17 -27.5 -26s-15.167 -20.667 -21.5 -35s-9.5 -28.833 -9.5 -43.5c0 -26 8.66699 -45.167 26 -57.5s39 -18.5 65 -18.5c26.667 0 49.334 4.66699 68.001 14c4 2 6.66699 1.33301 8 -2l3 -6c2 -3.33301 1 -6 -3 -8c-23.333 -10.667 -48.666 -16 -75.999 -16
c-31.333 0 -57.333 7.66699 -78 23s-31 39 -31 71zM91 606.998c-6 0 -10.833 1.99902 -14.5 5.99902s-5.5 8.66699 -5.5 14c0 6 1.83301 11 5.5 15s8.5 6 14.5 6c5.33301 0 10 -2.16699 14 -6.5s6 -9.16602 6 -14.499s-2 -10 -6 -14s-8.66699 -6 -14 -6z" />
    <glyph glyph-name="Idotaccent" unicode="&#x130;" horiz-adv-x="242" 
d="M112 7v686c0 4.66699 2.33301 7 7 7h4c4.66699 0 7 -2.33301 7 -7v-686c0 -4.66699 -2.33301 -7 -7 -7h-4c-4.66699 -0 -7 2.33301 -7 7zM120 825c-5.33301 0 -9.83301 1.83105 -13.5 5.49805s-5.5 7.83398 -5.5 12.501c0 5.33301 1.83301 9.83301 5.5 13.5
s8.16699 5.5 13.5 5.5c12.667 0 19 -6.33301 19 -19c0 -5.33301 -1.83301 -9.66602 -5.5 -12.999s-8.16699 -5 -13.5 -5z" />
    <glyph glyph-name="dotlessi" unicode="&#x131;" horiz-adv-x="180" 
d="M81 7v386c0 4.66699 2.33301 7 7 7h4c4.66699 0 7 -2.33301 7 -7v-386c0 -4.66699 -2.33301 -7 -7 -7h-4c-4.66699 -0 -7 2.33301 -7 7z" />
    <glyph glyph-name="IJ" unicode="&#x132;" horiz-adv-x="624" 
d="M112 7v686c0 4.66699 2.33301 7 7 7h4c4.66699 0 7 -2.33301 7 -7v-686c0 -4.66699 -2.33301 -7 -7 -7h-4c-4.66699 -0 -7 2.33301 -7 7zM215 67c-2.66699 3.33301 -2.33398 6.33301 0.999023 9l4 3c3.33301 2 6 1.33301 8 -2c36.667 -46 84 -69 142 -69
c54.667 0 96.5 17.833 125.5 53.5s43.5 86.5 43.5 152.5v479c0 4.66699 2.33301 7 7 7h3c4.66699 0 7 -2.33301 7 -7v-479c0 -70.667 -16.167 -125.667 -48.5 -165s-78.166 -59 -137.499 -59c-64 0 -115.667 25.667 -155 77z" />
    <glyph glyph-name="ij" unicode="&#x133;" horiz-adv-x="417" 
d="M91 607c-6 0 -10.833 1.99902 -14.5 5.99902s-5.5 8.66699 -5.5 14c0 6 1.83301 11 5.5 15s8.5 6 14.5 6c5.33301 0 10 -2.16699 14 -6.5s6 -9.16602 6 -14.499s-2 -10 -6 -14s-8.66699 -6 -14 -6zM81 6.99902v386c0 4.66699 2.33301 7 7 7h4c4.66699 0 7 -2.33301 7 -7
v-386c0 -4.66699 -2.33301 -7 -7 -7h-4c-4.66699 0 -7 2.33301 -7 7zM327 606.999c-6 0 -11 2 -15 6s-6 8.66699 -6 14s2 10.166 6 14.499s9 6.5 15 6.5c5.33301 0 10 -2.16699 14 -6.5s6 -9.16602 6 -14.499s-2 -10 -6 -14s-8.66699 -6 -14 -6zM318 -134.001v527.001
c0 4.66699 2.33301 7 7 7h4c4.66699 0 7 -2.33301 7 -7v-527c0 -117.333 -46.667 -176 -140 -176c-46.667 0 -84.334 14.333 -113.001 43c-3.33301 3.33301 -3.33301 6.66602 0 9.99902l3 3c2.66699 2.66699 5.66699 2.66699 9 0c26.667 -25.333 60.334 -38 101.001 -38
c81.333 0 122 52.667 122 158z" />
    <glyph glyph-name="Jcircumflex" unicode="&#x134;" horiz-adv-x="379" 
d="M-30 67c-2.66699 3.33301 -2.33398 6.33301 0.999023 9l4 3c3.33301 2 6 1.33301 8 -2c36.667 -46 84 -69 142 -69c54.667 0 96.5 17.833 125.5 53.5s43.5 86.5 43.5 152.5v479c0 4.66699 2.33301 7 7 7h3c4.66699 0 7 -2.33301 7 -7v-479
c0 -70.667 -16.167 -125.667 -48.5 -165s-78.166 -59 -137.499 -59c-64 0 -115.667 25.667 -155 77zM179 763c-2 -2 -4.33594 -1.66699 -7.00293 1l-4 5c-1.33301 2.66699 -0.666016 5.33398 2.00098 8.00098l129 106c2.66699 2.66699 5.33398 2.66699 8.00098 0l129 -106
c2.66699 -2.66699 3.33398 -5.33398 2.00098 -8.00098l-4 -5c-2.66699 -2.66699 -5 -3 -7 -1l-124 101z" />
    <glyph glyph-name="jcircumflex" unicode="&#x135;" horiz-adv-x="180" 
d="M81 -134v527.001c0 4.66699 2.33301 7 7 7h4c4.66699 0 7 -2.33301 7 -7v-527c0 -117.333 -46.667 -176 -140 -176c-46.667 0 -84.334 14.333 -113.001 43c-3.33301 3.33301 -3.33301 6.66602 0 9.99902l3 3c3.33301 2.66699 6.33301 2.66699 9 0
c26.667 -25.333 60.334 -38 101.001 -38c81.333 0 122 52.667 122 158zM-35 548.001c-2 -2 -4.33594 -1.66699 -7.00293 1l-4 5c-1.33301 2.66699 -0.666016 5.33398 2.00098 8.00098l129 106c2.66699 2.66699 5.33398 2.66699 8.00098 0l129 -106
c2.66699 -2.66699 3.33398 -5.33398 2.00098 -8.00098l-4 -5c-2.66699 -2.66699 -5 -3 -7 -1l-124 101z" />
    <glyph glyph-name="Kcommaaccent" unicode="&#x136;" horiz-adv-x="559" 
d="M112 7v686c0 4.66699 2.33301 7 7 7h4c4.66699 0 7 -2.33301 7 -7v-333l372 339c3.33301 3.33301 6.66602 3.33301 9.99902 0l3 -3c3.33301 -3.33301 3.33301 -6.66602 0 -9.99902l-369 -335l379 -340c4.66699 -4.66699 5.33398 -8.33398 2.00098 -11.001l-4 -4
c-2 -2.66699 -5 -2 -9 2l-384 344v-335c0 -4.66699 -2.33301 -7 -7 -7h-4c-4.66699 -0 -7 2.33301 -7 7zM306 -133c0 6 2.16699 11.168 6.5 15.501s9.83301 6.5 16.5 6.5c12.667 0 24.5 -7.66699 35.5 -23s16.5 -38.333 16.5 -69c0 -20.667 -5.16699 -39.167 -15.5 -55.5
s-20.833 -27.5 -31.5 -33.5l-15 -10c-4.66699 -2 -7.66699 -1.66699 -9 1l-3 6c-2 4.66699 -1 7.66699 3 9c4 2 8.83301 4.83301 14.5 8.5s13.334 12.667 23.001 27s14.5 30.166 14.5 47.499c0 23.333 -4.33301 42.333 -13 57c-6.66699 -6.66699 -13.334 -10 -20.001 -10
s-12.167 2.33301 -16.5 7s-6.5 10 -6.5 16z" />
    <glyph glyph-name="kcommaaccent" unicode="&#x137;" horiz-adv-x="413" 
d="M81 7l0.000976562 685.999c0 4.66699 2.33301 7 7 7h4c4.66699 0 7 -2.33301 7 -7v-462l261 174c3.33301 2 6 1.66699 8 -1l4 -7c2 -3.33301 1.33301 -6 -2 -8l-252 -167l268 -210c3.33301 -3.33301 3.66602 -6.33301 0.999023 -9l-5 -6
c-2 -3.33301 -4.33301 -3.66602 -7 -0.999023l-276 218v-207c0 -4.66699 -2.33301 -7 -7 -7h-4c-4.66699 -0 -7 2.33301 -7 7zM181.001 -133.001c0 6 2.16699 11.168 6.5 15.501s9.83301 6.5 16.5 6.5c12.667 0 24.5 -7.66699 35.5 -23s16.5 -38.333 16.5 -69
c0 -20.667 -5.16699 -39.167 -15.5 -55.5s-20.5 -27.5 -30.5 -33.5l-16 -10c-4.66699 -2 -7.66699 -1.66699 -9 1l-3 6c-2 4.66699 -1 7.66699 3 9c4 2 8.83301 4.83301 14.5 8.5s13.334 12.667 23.001 27s14.5 30.166 14.5 47.499c0 23.333 -4.33301 42.333 -13 57
c-6.66699 -6.66699 -13.334 -10 -20.001 -10s-12.167 2.33301 -16.5 7s-6.5 10 -6.5 16z" />
    <glyph glyph-name="kgreenlandic" unicode="&#x138;" horiz-adv-x="413" 
d="M81 7v385.999c0 4.66699 2.33301 7 7 7h4c4.66699 0 7 -2.33301 7 -7v-185l260 197c3.33301 2 6 1.66699 8 -1l5 -7c2 -3.33301 1.33301 -6 -2 -8l-252 -190l268 -187c4 -2.66699 4.33301 -5.66699 1 -9l-5 -6c-2 -3.33301 -4.33301 -3.66602 -7 -0.999023l-276 195v-184
c0 -4.66699 -2.33301 -7 -7 -7h-4c-4.66699 -0 -7 2.33301 -7 7z" />
    <glyph glyph-name="Lacute" unicode="&#x139;" horiz-adv-x="489" 
d="M112 7v686c0 4.66699 2.33301 7 7 7h4c4 0 6 -2.33301 6 -7v-675h349c4.66699 0 7 -2.33301 7 -7v-4c0 -4.66699 -2.33301 -7 -7 -7h-359c-4.66699 -0 -7 2.33301 -7 7zM89 778c-4 -1.33301 -7 -0.333008 -9 3l-2 5c-1.33301 2.66699 -0.333008 5 3 7l182 91
c4 1.33301 7 0.333008 9 -3l2 -4c2 -4 1 -7 -3 -9z" />
    <glyph glyph-name="lacute" unicode="&#x13a;" horiz-adv-x="180" 
d="M81 7v686c0 4.66699 2.33301 7 7 7h4c4.66699 0 7 -2.33301 7 -7v-686c0 -4.66699 -2.33301 -7 -7 -7h-4c-4.66699 -0 -7 2.33301 -7 7zM2 777c-4 -2 -7 -1 -9 3l-2 5c-1.33301 2.66699 -0.333008 5 3 7l182 91c4 1.33301 7 0.333008 9 -3l2 -4c2 -4 1 -7 -3 -9z" />
    <glyph glyph-name="Lcommaaccent" unicode="&#x13b;" horiz-adv-x="492" 
d="M112 7v686c0 4.66699 2.33301 7 7 7h4c4 0 6 -2.33301 6 -7v-675h349c4.66699 0 7 -2.33301 7 -7v-4c0 -4.66699 -2.33301 -7 -7 -7h-359c-4.66699 -0 -7 2.33301 -7 7zM263 -133c0 6 2.16699 11.168 6.5 15.501s9.83301 6.5 16.5 6.5c12.667 0 24.5 -7.66699 35.5 -23
s16.5 -38.333 16.5 -69c0 -20.667 -5.16699 -39.167 -15.5 -55.5s-20.5 -27.5 -30.5 -33.5l-16 -10c-4.66699 -2 -7.66699 -1.66699 -9 1l-3 6c-2 4.66699 -1 7.66699 3 9c4 2 8.83301 4.83301 14.5 8.5s13.334 12.667 23.001 27s14.5 30.166 14.5 47.499
c0 23.333 -4.33301 42.333 -13 57c-6.66699 -6.66699 -13.334 -10 -20.001 -10s-12.167 2.33301 -16.5 7s-6.5 10 -6.5 16z" />
    <glyph glyph-name="lcommaaccent" unicode="&#x13c;" horiz-adv-x="180" 
d="M81 7v686c0 4.66699 2.33301 7 7 7h4c4.66699 0 7 -2.33301 7 -7v-686c0 -4.66699 -2.33301 -7 -7 -7h-4c-4.66699 -0 -7 2.33301 -7 7zM64 -133c0 6 2.16699 11.168 6.5 15.501s9.83301 6.5 16.5 6.5c12.667 0 24.5 -7.66699 35.5 -23s16.5 -38.333 16.5 -69
c0 -20.667 -5.16699 -39.167 -15.5 -55.5s-20.833 -27.5 -31.5 -33.5l-15 -10c-4.66699 -2 -7.66699 -1.66699 -9 1l-3 6c-2 4.66699 -1 7.66699 3 9c4 2 8.83301 4.83301 14.5 8.5s13.334 12.667 23.001 27s14.5 30.166 14.5 47.499c0 23.333 -4.33301 42.333 -13 57
c-6.66699 -6.66699 -13.334 -10 -20.001 -10s-12.167 2.33301 -16.5 7s-6.5 10 -6.5 16z" />
    <glyph glyph-name="Lcaron" unicode="&#x13d;" horiz-adv-x="489" 
d="M112 7v686c0 4.66699 2.33301 7 7 7h4c4 0 6 -2.33301 6 -7v-675h349c4.66699 0 7 -2.33301 7 -7v-4c0 -4.66699 -2.33301 -7 -7 -7h-359c-4.66699 -0 -7 2.33301 -7 7zM359 688c0 6 2.16699 11.168 6.5 15.501s9.83301 6.5 16.5 6.5c12.667 0 24.5 -7.66699 35.5 -23
s16.5 -38.333 16.5 -69c0 -20.667 -5.16699 -39.167 -15.5 -55.5s-20.5 -27.833 -30.5 -34.5l-16 -9c-4.66699 -2 -7.66699 -1.66699 -9 1l-3 6c-2 4 -1 7 3 9s8.83301 4.83301 14.5 8.5s13.334 12.667 23.001 27s14.5 30.166 14.5 47.499c0 23.333 -4.33301 42.333 -13 57
c-6.66699 -6.66699 -13.334 -10 -20.001 -10s-12.167 2.33301 -16.5 7s-6.5 10 -6.5 16z" />
    <glyph glyph-name="lcaron" unicode="&#x13e;" horiz-adv-x="210" 
d="M81 7v686c0 4.66699 2.33301 7 7 7h4c4.66699 0 7 -2.33301 7 -7v-686c0 -4.66699 -2.33301 -7 -7 -7h-4c-4.66699 -0 -7 2.33301 -7 7zM227 689c0 6 2.16699 11.168 6.5 15.501s9.83301 6.5 16.5 6.5c12.667 0 24.5 -7.66699 35.5 -23s16.5 -38.333 16.5 -69
c0 -20.667 -5.16699 -39.167 -15.5 -55.5s-20.5 -27.5 -30.5 -33.5l-16 -10c-4.66699 -2 -7.66699 -1.66699 -9 1l-3 6c-2 4.66699 -1 7.66699 3 9c4 2 8.83301 4.83301 14.5 8.5s13.334 12.667 23.001 27s14.5 30.166 14.5 47.499c0 23.333 -4.33301 42.333 -13 57
c-6.66699 -6.66699 -13.334 -10 -20.001 -10s-12.167 2.33301 -16.5 7s-6.5 10 -6.5 16z" />
    <glyph glyph-name="Ldot" unicode="&#x13f;" horiz-adv-x="530" 
d="M112 7v686c0 4.66699 2.33301 7 7 7h4c4 0 6 -2.33301 6 -7v-675h349c4.66699 0 7 -2.33301 7 -7v-4c0 -4.66699 -2.33301 -7 -7 -7h-359c-4.66699 -0 -7 2.33301 -7 7zM433 282c-6.66699 0 -12.334 2.33301 -17.001 7s-7 10.334 -7 17.001s2.33301 12.167 7 16.5
s10.334 6.5 17.001 6.5s12.334 -2.16699 17.001 -6.5s7 -9.83301 7 -16.5s-2.33301 -12.334 -7 -17.001s-10.334 -7 -17.001 -7z" />
    <glyph glyph-name="ldot" unicode="&#x140;" horiz-adv-x="325" 
d="M81 7v686c0 4.66699 2.33301 7 7 7h4c4.66699 0 7 -2.33301 7 -7v-686c0 -4.66699 -2.33301 -7 -7 -7h-4c-4.66699 -0 -7 2.33301 -7 7zM263 281c-6.66699 0 -12.334 2.33301 -17.001 7s-7 10.334 -7 17.001s2.33301 12.167 7 16.5s10.334 6.5 17.001 6.5
s12.334 -2.16699 17.001 -6.5s7 -9.83301 7 -16.5s-2.33301 -12.334 -7 -17.001s-10.334 -7 -17.001 -7z" />
    <glyph glyph-name="Lslash" unicode="&#x141;" horiz-adv-x="498" 
d="M120 7v322.001l-44 -20c-4 -2 -6.66699 -1.66699 -8 1l-4 8c-1.33301 3.33301 0 5.66602 4 6.99902l52 24v344c0 4.66699 2.33301 7 7 7h4c4.66699 0 7 -2.33301 7 -7v-336l180 85c4.66699 1.33301 7.66699 0.333008 9 -3l3 -6c1.33301 -2.66699 0 -5 -4 -7l-188 -89
v-319h369c4.66699 0 7 -2.33301 7 -7v-4c0 -4.66699 -2.33301 -7 -7 -7h-380c-4.66699 -0 -7 2.33301 -7 7z" />
    <glyph glyph-name="lslash" unicode="&#x142;" horiz-adv-x="226" 
d="M101 7l-0.000976562 340.999l-85 -39c-3.33301 -1.33301 -5.66602 -0.666016 -6.99902 2.00098l-3 6c-2 3.33301 -1 6 3 8l92 43v325c0 4.66699 2.33301 7 7 7h4c4 0 6 -2.33301 6 -7v-318l141 67c2.66699 2 5 1 7 -3l3 -6c1.33301 -2.66699 0.333008 -5 -3 -7l-148 -69
v-350c0 -4.66699 -2 -7 -6 -7h-4c-4.66699 -0 -7 2.33301 -7 7z" />
    <glyph glyph-name="Nacute" unicode="&#x143;" horiz-adv-x="772" 
d="M112 7v703c0 3.33301 1.66699 5.5 5 6.5s6 0.166992 8 -2.5l517 -689v668c0 4.66699 2.33301 7 7 7h4c4.66699 0 7 -2.33301 7 -7v-701c0 -3.33301 -1.66699 -5.5 -5 -6.5s-6 -0.166992 -8 2.5l-517 689v-670c0 -4.66699 -2.33301 -7 -7 -7h-4
c-4.66699 -0 -7 2.33301 -7 7zM329 778c-4 -1.33301 -7 -0.333008 -9 3l-2 5c-1.33301 2.66699 -0.333008 5 3 7l182 91c4 1.33301 7 0.333008 9 -3l2 -4c2 -4 1 -7 -3 -9z" />
    <glyph glyph-name="nacute" unicode="&#x144;" horiz-adv-x="495" 
d="M81 7l-0.000976562 386c0 4.66699 2.33301 7 7 7h4c4.66699 0 7 -2.33301 7 -7v-55c44.667 48 96.667 72 156 72c54 0 95.167 -15.833 123.5 -47.5s42.5 -77.834 42.5 -138.501v-217c0 -4.66699 -2.33301 -7 -7 -7h-4c-4.66699 0 -7 2.33301 -7 7v217
c0 54.667 -12.667 96.334 -38 125.001s-62 43 -110 43c-26.667 0 -52.667 -6.66699 -78 -20s-43.166 -25 -53.499 -35s-18.5 -19 -24.5 -27v-303c0 -4.66699 -2.33301 -7 -7 -7h-4c-4.66699 -0 -7 2.33301 -7 7zM164.999 561c-4 -2 -7 -1 -9 3l-2 5
c-1.33301 2.66699 -0.333008 5 3 7l182 91c4 1.33301 7 0.333008 9 -3l2 -4c2 -4 1 -7 -3 -9z" />
    <glyph glyph-name="Ncommaaccent" unicode="&#x145;" horiz-adv-x="772" 
d="M112 7v703c0 3.33301 1.66699 5.5 5 6.5s6 0.166992 8 -2.5l517 -689v668c0 4.66699 2.33301 7 7 7h4c4.66699 0 7 -2.33301 7 -7v-701c0 -3.33301 -1.66699 -5.5 -5 -6.5s-6 -0.166992 -8 2.5l-517 689v-670c0 -4.66699 -2.33301 -7 -7 -7h-4
c-4.66699 -0 -7 2.33301 -7 7zM370 -133c0 6 2.16699 11.168 6.5 15.501s9.83301 6.5 16.5 6.5c12.667 0 24.5 -7.66699 35.5 -23s16.5 -38.333 16.5 -69c0 -20.667 -5.16699 -39.167 -15.5 -55.5s-20.833 -27.5 -31.5 -33.5l-15 -10c-4.66699 -2 -7.66699 -1.66699 -9 1
l-3 6c-2 4.66699 -1 7.66699 3 9c4 2 8.83301 4.83301 14.5 8.5s13.334 12.667 23.001 27s14.5 30.166 14.5 47.499c0 23.333 -4.33301 42.333 -13 57c-6.66699 -6.66699 -13.334 -10 -20.001 -10s-12.167 2.33301 -16.5 7s-6.5 10 -6.5 16z" />
    <glyph glyph-name="ncommaaccent" unicode="&#x146;" horiz-adv-x="496" 
d="M81 7l-0.000976562 386c0 4.66699 2.33301 7 7 7h4c4.66699 0 7 -2.33301 7 -7v-55c44.667 48 96.667 72 156 72c54 0 95.167 -15.833 123.5 -47.5s42.5 -77.834 42.5 -138.501v-217c0 -4.66699 -2.33301 -7 -7 -7h-4c-4.66699 0 -7 2.33301 -7 7v217
c0 54.667 -12.667 96.334 -38 125.001s-62 43 -110 43c-26.667 0 -52.667 -6.66699 -78 -20s-43.166 -25 -53.499 -35s-18.5 -19 -24.5 -27v-303c0 -4.66699 -2.33301 -7 -7 -7h-4c-4.66699 -0 -7 2.33301 -7 7zM225.999 -132c0 6 2.16699 11.168 6.5 15.501
s9.83301 6.5 16.5 6.5c12.667 0 24.5 -7.66699 35.5 -23s16.5 -38.333 16.5 -69c0 -20.667 -5.16699 -39.167 -15.5 -55.5s-20.833 -27.833 -31.5 -34.5l-15 -9c-4.66699 -2 -7.66699 -1.66699 -9 1l-3 6c-2 4 -1 7 3 9s8.83301 4.83301 14.5 8.5s13.334 12.667 23.001 27
s14.5 30.166 14.5 47.499c0 23.333 -4.33301 42.333 -13 57c-6.66699 -6.66699 -13.334 -10 -20.001 -10s-12.167 2.33301 -16.5 7s-6.5 10 -6.5 16z" />
    <glyph glyph-name="Ncaron" unicode="&#x147;" horiz-adv-x="772" 
d="M112 7v703c0 3.33301 1.66699 5.5 5 6.5s6 0.166992 8 -2.5l517 -689v668c0 4.66699 2.33301 7 7 7h4c4.66699 0 7 -2.33301 7 -7v-701c0 -3.33301 -1.66699 -5.5 -5 -6.5s-6 -0.166992 -8 2.5l-517 689v-670c0 -4.66699 -2.33301 -7 -7 -7h-4
c-4.66699 -0 -7 2.33301 -7 7zM404 771l-128.997 106c-2.66699 2.66699 -3.33398 5.33398 -2.00098 8.00098l4 5c2.66699 2.66699 5 3 7 1l124 -101l124 101c2 2 4.33301 1.66699 7 -1l4 -5c1.33301 -2.66699 0.666016 -5.33398 -2.00098 -8.00098l-129 -106
c-2.66699 -2.66699 -5.33398 -2.66699 -8.00098 0z" />
    <glyph glyph-name="ncaron" unicode="&#x148;" horiz-adv-x="495" 
d="M81 7l-0.000976562 386c0 4.66699 2.33301 7 7 7h4c4.66699 0 7 -2.33301 7 -7v-55c44.667 48 96.667 72 156 72c54 0 95.167 -15.833 123.5 -47.5s42.5 -77.834 42.5 -138.501v-217c0 -4.66699 -2.33301 -7 -7 -7h-4c-4.66699 0 -7 2.33301 -7 7v217
c0 54.667 -12.667 96.334 -38 125.001s-62 43 -110 43c-26.667 0 -52.667 -6.66699 -78 -20s-43.166 -25 -53.499 -35s-18.5 -19 -24.5 -27v-303c0 -4.66699 -2.33301 -7 -7 -7h-4c-4.66699 -0 -7 2.33301 -7 7zM247.999 554l-128.997 106
c-2.66699 2.66699 -3.33398 5.33398 -2.00098 8.00098l4 5c2.66699 2.66699 5 3 7 1l124 -101l124 101c2 2 4.33301 1.66699 7 -1l4 -5c1.33301 -2.66699 0.666016 -5.33398 -2.00098 -8.00098l-129 -106c-2.66699 -2.66699 -5.33398 -2.66699 -8.00098 0z" />
    <glyph glyph-name="napostrophe" unicode="&#x149;" horiz-adv-x="495" 
d="M82 7l-0.000976562 386c0 4.66699 2.33301 7 7 7h4c4.66699 0 7 -2.33301 7 -7v-55c44.667 48 96.667 72 156 72c54 0 95.167 -15.833 123.5 -47.5s42.5 -77.834 42.5 -138.501v-217c0 -4.66699 -2.33301 -7 -7 -7h-4c-4.66699 0 -7 2.33301 -7 7v217
c0 54.667 -12.667 96.334 -38 125.001s-62 43 -110 43c-26.667 0 -52.667 -6.66699 -78 -20s-43.166 -25 -53.499 -35s-18.5 -19 -24.5 -27v-303c0 -4.66699 -2.33301 -7 -7 -7h-4c-4.66699 -0 -7 2.33301 -7 7zM-48.001 688c0 6 2.16699 11.168 6.5 15.501
s9.83301 6.5 16.5 6.5c12.667 0 24.5 -7.66699 35.5 -23s16.5 -38.333 16.5 -69c0 -20.667 -5.16699 -39.167 -15.5 -55.5s-20.833 -27.833 -31.5 -34.5l-15 -9c-4.66699 -2 -7.66699 -1.66699 -9 1l-3 6c-2 4 -1 7 3 9s8.83301 4.83301 14.5 8.5s13.334 12.667 23.001 27
s14.5 30.166 14.5 47.499c0 23.333 -4.33301 42.333 -13 57c-6.66699 -6.66699 -13.334 -10 -20.001 -10s-12.167 2.33301 -16.5 7s-6.5 10 -6.5 16z" />
    <glyph glyph-name="Eng" unicode="&#x14a;" horiz-adv-x="772" 
d="M112 7v703.001c0 3.33301 1.66699 5.5 5 6.5s6 0.166992 8 -2.5l517 -689v668c0 4.66699 2.33301 7 7 7h4c4.66699 0 7 -2.33301 7 -7v-826c0 -117.333 -46.667 -176 -140 -176c-46.667 0 -84.334 14.333 -113.001 43c-3.33301 3.33301 -3.33301 6.66602 0 9.99902l3 3
c2.66699 3.33301 5.66699 3.33301 9 0c26.667 -25.333 60.334 -38 101.001 -38c81.333 0 122 52.667 122 158v128l-512 682v-670c0 -4.66699 -2.33301 -7 -7 -7h-4c-4.66699 -0 -7 2.33301 -7 7z" />
    <glyph glyph-name="eng" unicode="&#x14b;" horiz-adv-x="496" 
d="M81 7l-0.000976562 386.001c0 4.66699 2.33301 7 7 7h4c4.66699 0 7 -2.33301 7 -7v-55c44.667 48 96.667 72 156 72c54 0 95.167 -15.833 123.5 -47.5s42.5 -77.834 42.5 -138.501v-357c0 -117.333 -46.667 -176 -140 -176c-46.667 0 -84.334 14.333 -113.001 43
c-3.33301 3.33301 -3.33301 6.66602 0 9.99902l3 3c3.33301 3.33301 6.33301 3.33301 9 0c26.667 -25.333 60.334 -38 101.001 -38c81.333 0 122 52.667 122 158v357c0 54.667 -12.667 96.334 -38 125.001s-62 43 -110 43c-26.667 0 -52.667 -6.66699 -78 -20
s-43.166 -25 -53.499 -35s-18.5 -19 -24.5 -27v-303c0 -4.66699 -2.33301 -7 -7 -7h-4c-4.66699 -0 -7 2.33301 -7 7z" />
    <glyph glyph-name="Omacron" unicode="&#x14c;" horiz-adv-x="846" 
d="M62 349c0 100.667 35 186 105 256s155.333 105 256 105s186.167 -35 256.5 -105s105.5 -155.333 105.5 -256c0 -100 -35.167 -184.833 -105.5 -254.5s-155.833 -104.5 -256.5 -104.5s-186 34.667 -256 104s-105 154.333 -105 255zM80 349c0 -95.333 33.333 -176 100 -242
s147.667 -99 243 -99c96 0 177.333 33 244 99s100 146.667 100 242s-33.5 176.333 -100.5 243s-148.167 100 -243.5 100s-176.333 -33.333 -243 -100s-100 -147.667 -100 -243zM279 842c-4.66699 0 -7 2.33301 -7 7v4c0 4.66699 2.33301 7 7 7h288
c4.66699 0 7 -2.33301 7 -7v-4c0 -4.66699 -2.33301 -7 -7 -7h-288z" />
    <glyph glyph-name="omacron" unicode="&#x14d;" horiz-adv-x="508" 
d="M51 201c0 58 19.667 107.333 59 148s87.333 61 144 61s104.667 -20.333 144 -61s59 -90 59 -148c0 -59.333 -19.667 -109.333 -59 -150s-87.333 -61 -144 -61s-104.667 20.333 -144 61s-59 90.667 -59 150zM69 201c0 -54 17.833 -99.667 53.5 -137s79.5 -56 131.5 -56
s95.833 18.667 131.5 56s53.5 83 53.5 137c0 53.333 -17.833 98.5 -53.5 135.5s-79.5 55.5 -131.5 55.5s-95.833 -18.5 -131.5 -55.5s-53.5 -82.167 -53.5 -135.5zM110 607c-4.66699 0 -7 2.33301 -7 7v4c0 4.66699 2.33301 7 7 7h288c4.66699 0 7 -2.33301 7 -7v-4
c0 -4.66699 -2.33301 -7 -7 -7h-288z" />
    <glyph glyph-name="Obreve" unicode="&#x14e;" horiz-adv-x="846" 
d="M62 349c0 100.667 35 186 105 256s155.333 105 256 105s186.167 -35 256.5 -105s105.5 -155.333 105.5 -256c0 -100 -35.167 -184.833 -105.5 -254.5s-155.833 -104.5 -256.5 -104.5s-186 34.667 -256 104s-105 154.333 -105 255zM80 349c0 -95.333 33.333 -176 100 -242
s147.667 -99 243 -99c96 0 177.333 33 244 99s100 146.667 100 242s-33.5 176.333 -100.5 243s-148.167 100 -243.5 100s-176.333 -33.333 -243 -100s-100 -147.667 -100 -243zM423 780c-33.333 0 -61.6699 10.3311 -85.0029 30.998s-37.333 46.334 -42 77.001
c-0.666992 1.33301 -0.166992 2.83301 1.5 4.5s3.16699 2.5 4.5 2.5h5c3.33301 0 5 -2 5 -6c4 -26.667 16.333 -48.667 37 -66s45.334 -26 74.001 -26c28 0 52.333 8.66699 73 26s33.334 39.333 38.001 66c0 4 1.66699 6 5 6h5c1.33301 0 2.83301 -0.833008 4.5 -2.5
s2.16699 -3.16699 1.5 -4.5c-5.33301 -31.333 -19.666 -57.166 -42.999 -77.499s-51.333 -30.5 -84 -30.5z" />
    <glyph glyph-name="obreve" unicode="&#x14f;" horiz-adv-x="508" 
d="M51 201c0 58 19.667 107.333 59 148s87.333 61 144 61s104.667 -20.333 144 -61s59 -90 59 -148c0 -59.333 -19.667 -109.333 -59 -150s-87.333 -61 -144 -61s-104.667 20.333 -144 61s-59 90.667 -59 150zM69 201c0 -54 17.833 -99.667 53.5 -137s79.5 -56 131.5 -56
s95.833 18.667 131.5 56s53.5 83 53.5 137c0 53.333 -17.833 98.5 -53.5 135.5s-79.5 55.5 -131.5 55.5s-95.833 -18.5 -131.5 -55.5s-53.5 -82.167 -53.5 -135.5zM254 545c-32.667 0 -60.835 10.167 -84.502 30.5s-37.834 45.833 -42.501 76.5
c-0.666992 2 -0.166992 3.83301 1.5 5.5s3.16699 2.5 4.5 2.5h5c3.33301 0 5 -2 5 -6c4 -27.333 16.333 -49.666 37 -66.999s45.334 -26 74.001 -26c28 0 52.333 8.66699 73 26s33.334 39.666 38.001 66.999c0 4 1.66699 6 5 6h5c1.33301 0 2.83301 -0.833008 4.5 -2.5
s2.16699 -3.5 1.5 -5.5c-5.33301 -30.667 -19.666 -56.167 -42.999 -76.5s-51.333 -30.5 -84 -30.5z" />
    <glyph glyph-name="Ohungarumlaut" unicode="&#x150;" horiz-adv-x="846" 
d="M62 349c0 100.667 35 186 105 256s155.333 105 256 105s186.167 -35 256.5 -105s105.5 -155.333 105.5 -256c0 -100 -35.167 -184.833 -105.5 -254.5s-155.833 -104.5 -256.5 -104.5s-186 34.667 -256 104s-105 154.333 -105 255zM80 349c0 -95.333 33.333 -176 100 -242
s147.667 -99 243 -99c96 0 177.333 33 244 99s100 146.667 100 242s-33.5 176.333 -100.5 243s-148.167 100 -243.5 100s-176.333 -33.333 -243 -100s-100 -147.667 -100 -243zM507 757l-5 3c-3.33301 2.66699 -4 5.66699 -2 9l108 173c2.66699 3.33301 5.66699 4 9 2l5 -3
c3.33301 -2.66699 4 -5.66699 2 -9l-108 -173c-2.66699 -3.33301 -5.66699 -4 -9 -2zM341 757l-5 3c-3.33301 2.66699 -4 5.66699 -2 9l108 173c2.66699 3.33301 5.66699 4 9 2l5 -3c3.33301 -2.66699 4 -5.66699 2 -9l-108 -173c-2.66699 -3.33301 -5.66699 -4 -9 -2z" />
    <glyph glyph-name="ohungarumlaut" unicode="&#x151;" horiz-adv-x="508" 
d="M51 201c0 58 19.667 107.333 59 148s87.333 61 144 61s104.667 -20.333 144 -61s59 -90 59 -148c0 -59.333 -19.667 -109.333 -59 -150s-87.333 -61 -144 -61s-104.667 20.333 -144 61s-59 90.667 -59 150zM69 201c0 -54 17.833 -99.667 53.5 -137s79.5 -56 131.5 -56
s95.833 18.667 131.5 56s53.5 83 53.5 137c0 53.333 -17.833 98.5 -53.5 135.5s-79.5 55.5 -131.5 55.5s-95.833 -18.5 -131.5 -55.5s-53.5 -82.167 -53.5 -135.5zM342 513l-5 3c-3.33301 2.66699 -4 5.66699 -2 9l108 173c2.66699 3.33301 5.66699 4 9 2l5 -3
c3.33301 -2.66699 4 -5.66699 2 -9l-108 -173c-2.66699 -3.33301 -5.66699 -4 -9 -2zM176 513l-5 3c-3.33301 2.66699 -4 5.66699 -2 9l108 173c2.66699 3.33301 5.66699 4 9 2l5 -3c3.33301 -2.66699 4 -5.66699 2 -9l-108 -173c-2.66699 -3.33301 -5.66699 -4 -9 -2z" />
    <glyph glyph-name="OE" unicode="&#x152;" horiz-adv-x="992" 
d="M62 349c0 100.667 34.832 186 104.499 256s154.834 105 255.501 105c25.333 0 53 -3.33301 83 -10h404c4 0 6 -2.33301 6 -7v-4c0 -4.66699 -2 -7 -6 -7h-396v-309h348c4 0 6 -2.33301 6 -7v-4c0 -4.66699 -2 -7 -6 -7h-348v-337h396c4 0 6 -2.33301 6 -7v-4
c0 -4.66699 -2 -7 -6 -7h-402c-30 -6.66699 -58.667 -10 -86 -10c-100.667 0 -185.667 34.667 -255 104s-104 154.333 -104 255zM78.999 349c0 -95.333 33.168 -176 99.501 -242s147.166 -99 242.499 -99c27.333 0 52 2.66699 74 8v668c-26.667 5.33301 -51 8 -73 8
c-95.333 0 -176.333 -33.333 -243 -100s-100 -147.667 -100 -243z" />
    <glyph glyph-name="oe" unicode="&#x153;" horiz-adv-x="797" 
d="M51 200c0 58 19.668 107.5 59.001 148.5s87.333 61.5 144 61.5c63.333 0 115.666 -27 156.999 -81c37.333 54 90 81 158 81c52.667 0 96.167 -18 130.5 -54s51.5 -81 51.5 -135c0 -15.333 -1.33301 -25.333 -4 -30c-1.33301 -2.66699 -3.33301 -4 -6 -4h-320v-98
c34 -54 83.333 -81 148 -81c54 0 99.333 14.333 136 43c2.66699 2.66699 5.33398 2 8.00098 -2l3 -4c2 -2.66699 1.66699 -5.33398 -1 -8.00098c-41.333 -31.333 -90 -47 -146 -47c-68.667 0 -121.334 26.667 -158.001 80c-40 -53.333 -92.333 -80 -157 -80
c-57.333 0 -105.5 20.333 -144.5 61s-58.5 90.334 -58.5 149.001zM421.001 205l311 0.000976562c0.666992 4 1 9.33301 1 16c0 49.333 -15.333 90.166 -46 122.499s-70 48.5 -118 48.5c-64 0 -113.333 -27.667 -148 -83v-104zM69.001 200.001
c0 -54 17.833 -99.501 53.5 -136.501s79.5 -55.5 131.5 -55.5c28 0 55.5 7.66699 82.5 23s49.167 35 66.5 59v219c-17.333 24 -39.5 43.833 -66.5 59.5s-54.5 23.5 -82.5 23.5c-52 0 -95.833 -18.667 -131.5 -56s-53.5 -82.666 -53.5 -135.999z" />
    <glyph glyph-name="Racute" unicode="&#x154;" horiz-adv-x="648" 
d="M112 7l0.000976562 686c0 4.66699 2.33301 7 7 7h237c63.333 0 117.166 -20.333 161.499 -61s66.5 -91.667 66.5 -153c0 -54.667 -17.167 -101.667 -51.5 -141s-77.833 -64 -130.5 -74l156 -261c2 -3.33301 1.66699 -6 -1 -8l-9 -5
c-2.66699 -0.666992 -4.66699 0.333008 -6 3l-159 268c-6 -0.666992 -14.667 -1 -26 -1h-228v-260c0 -4.66699 -2 -7 -6 -7h-4c-4.66699 -0 -7 2.33301 -7 7zM129.001 284h228c58 0 107.5 19.333 148.5 58s61.5 86.667 61.5 144c0 56 -20.5 102.667 -61.5 140
s-90.833 56 -149.5 56h-227v-398zM221.001 778c-4 -1.33301 -7 -0.333008 -9 3l-2 5c-1.33301 2.66699 -0.333008 5 3 7l182 91c4 1.33301 7 0.333008 9 -3l2 -4c2 -4 1 -7 -3 -9z" />
    <glyph glyph-name="racute" unicode="&#x155;" horiz-adv-x="314" 
d="M81 7l0.000976562 386c0 4.66699 2.33301 7 7 7h4c4.66699 0 7 -2.33301 7 -7v-53c33.333 46.667 76.666 70 129.999 70c14.667 0 28.167 -1.5 40.5 -4.5s21.166 -6.16699 26.499 -9.5l7 -4c4 -2.66699 4.66699 -5.66699 2 -9l-3 -5c-2 -3.33301 -5 -4 -9 -2
c-15.333 10.667 -36.666 16 -63.999 16c-18.667 0 -36.167 -3.5 -52.5 -10.5s-30 -16 -41 -27s-19 -19.667 -24 -26s-9.16699 -12.5 -12.5 -18.5v-303c0 -4.66699 -2.33301 -7 -7 -7h-4c-4.66699 -0 -7 2.33301 -7 7zM76.001 560c-4 -1.33301 -7 -0.333008 -9 3l-2 5
c-1.33301 2.66699 -0.333008 5 3 7l182 91c4 1.33301 7 0.333008 9 -3l2 -4c2 -4 1 -7 -3 -9z" />
    <glyph glyph-name="Rcommaaccent" unicode="&#x156;" horiz-adv-x="648" 
d="M112 7l0.000976562 686c0 4.66699 2.33301 7 7 7h237c63.333 0 117.166 -20.333 161.499 -61s66.5 -91.667 66.5 -153c0 -54.667 -17.167 -101.667 -51.5 -141s-77.833 -64 -130.5 -74l156 -261c2 -3.33301 1.66699 -6 -1 -8l-9 -5
c-2.66699 -0.666992 -4.66699 0.333008 -6 3l-159 268c-6 -0.666992 -14.667 -1 -26 -1h-228v-260c0 -4.66699 -2 -7 -6 -7h-4c-4.66699 -0 -7 2.33301 -7 7zM129.001 284h228c58 0 107.5 19.333 148.5 58s61.5 86.667 61.5 144c0 56 -20.5 102.667 -61.5 140
s-90.833 56 -149.5 56h-227v-398zM283.001 -133c0 6 2.16699 11.168 6.5 15.501s9.83301 6.5 16.5 6.5c12.667 0 24.5 -7.66699 35.5 -23s16.5 -38.333 16.5 -69c0 -20.667 -5.16699 -39.167 -15.5 -55.5s-20.5 -27.5 -30.5 -33.5l-16 -10
c-4.66699 -2 -7.66699 -1.66699 -9 1l-3 6c-2 4.66699 -1 7.66699 3 9c4 2 8.83301 4.83301 14.5 8.5s13.334 12.667 23.001 27s14.5 30.166 14.5 47.499c0 23.333 -4.33301 42.333 -13 57c-6.66699 -6.66699 -13.334 -10 -20.001 -10s-12.167 2.33301 -16.5 7
s-6.5 10 -6.5 16z" />
    <glyph glyph-name="rcommaaccent" unicode="&#x157;" horiz-adv-x="315" 
d="M81 7l0.000976562 386c0 4.66699 2.33301 7 7 7h4c4.66699 0 7 -2.33301 7 -7v-53c33.333 46.667 76.666 70 129.999 70c14.667 0 28.167 -1.5 40.5 -4.5s21.166 -6.16699 26.499 -9.5l7 -4c4 -2.66699 4.66699 -5.66699 2 -9l-3 -5c-2 -3.33301 -5 -4 -9 -2
c-15.333 10.667 -36.666 16 -63.999 16c-18.667 0 -36.167 -3.5 -52.5 -10.5s-30 -16 -41 -27s-19 -19.667 -24 -26s-9.16699 -12.5 -12.5 -18.5v-303c0 -4.66699 -2.33301 -7 -7 -7h-4c-4.66699 -0 -7 2.33301 -7 7zM66.001 -133c0 6 2.16699 11.168 6.5 15.501
s9.83301 6.5 16.5 6.5c12.667 0 24.5 -7.66699 35.5 -23s16.5 -38.333 16.5 -69c0 -20.667 -5.16699 -39.167 -15.5 -55.5s-20.833 -27.5 -31.5 -33.5l-15 -10c-4.66699 -2 -7.66699 -1.66699 -9 1l-3 6c-2 4.66699 -1 7.66699 3 9c4 2 8.83301 4.83301 14.5 8.5
s13.334 12.667 23.001 27s14.5 30.166 14.5 47.499c0 23.333 -4.33301 42.333 -13 57c-6.66699 -6.66699 -13.334 -10 -20.001 -10s-12.167 2.33301 -16.5 7s-6.5 10 -6.5 16z" />
    </font>
</defs>
</svg>
