
<svg width="298px" height="298px" viewBox="0 0 298 298" version="1.1" xmlns="http://www.w3.org/2000/svg" xmlns:xlink="http://www.w3.org/1999/xlink">
    <!-- Generator: Sketch 45.2 (43514) - http://www.bohemiancoding.com/sketch -->
    <desc>Created with Sketch.</desc>
    <defs></defs>
    <g id="Page-1" stroke="none" stroke-width="1" fill="none" fill-rule="evenodd">
        <g id="114530" fill-rule="nonzero" fill="#000000">
            <path d="M172.416,124.813 C156.963,109.352 148.411,88.837 148.282,67 L79.83,67 L69.098,20.862 L10.957,0.895 L0.238,32.105 L41.096,46.137 L70.154,171.069 L80.097,215 L253.097,215 L270.333,138.854 C258.573,145.31 245.082,148.991 230.743,148.991 C208.708,148.984 187.993,140.398 172.416,124.813 Z" id="Shape"></path>
            <circle id="Oval" cx="113.097" cy="265" r="32.5"></circle>
            <circle id="Oval" cx="220.097" cy="265" r="32.5"></circle>
            <path d="M230.748,133 C230.755,133 230.761,133 230.768,133 C267.485,133 297.252,103.235 297.263,66.518 C297.272,29.794 267.509,0 230.784,0 C230.784,0 230.772,0 230.765,0 C194.048,0 164.28,29.765 164.27,66.482 C164.258,103.206 194.022,133 230.748,133 L230.748,133 Z M208.99,60.838 L221.621,73.47 L252.543,42.548 L263.857,53.862 L221.621,96.096 L197.675,72.15 L208.99,60.838 L208.99,60.838 Z" id="Shape"></path>
        </g>
    </g>
</svg>